<svg id="Layer_1" data-name="Layer 1" xmlns="http://www.w3.org/2000/svg" viewBox="0 0 1320 181"><defs><style>.cls-1{fill:#b0c2cc;}.cls-2{fill:#333;}.cls-3{font-size:44.07px;font-family:Inconsolata-Bold, Inconsolata;font-weight:700;}</style></defs><rect class="cls-1" x="8.24" y="15.34" width="150" height="150"/><path class="cls-2" d="M155.24,18.34v144h-144v-144h144m6-6H5.24v156h156v-156Z"/><rect class="cls-1" x="152.24" y="15.34" width="150" height="150"/><path class="cls-2" d="M299.24,18.34v144h-144v-144h144m6-6h-156v156h156v-156Z"/><rect class="cls-1" x="296.24" y="15.34" width="150" height="150"/><path class="cls-2" d="M443.24,18.34v144h-144v-144h144m6-6h-156v156h156v-156Z"/><rect class="cls-1" x="440.24" y="15.34" width="150" height="150"/><path class="cls-2" d="M587.24,18.34v144h-144v-144h144m6-6h-156v156h156v-156Z"/><rect class="cls-1" x="584.24" y="15.34" width="150" height="150"/><path class="cls-2" d="M731.24,18.34v144h-144v-144h144m6-6h-156v156h156v-156Z"/><rect class="cls-1" x="728.24" y="15.34" width="150" height="150"/><path class="cls-2" d="M875.24,18.34v144h-144v-144h144m6-6h-156v156h156v-156Z"/><rect class="cls-1" x="872.24" y="15.34" width="150" height="150"/><path class="cls-2" d="M1019.24,18.34v144h-144v-144h144m6-6h-156v156h156v-156Z"/><rect class="cls-1" x="1016.24" y="15.34" width="150" height="150"/><path class="cls-2" d="M1163.24,18.34v144h-144v-144h144m6-6h-156v156h156v-156Z"/><rect class="cls-1" x="1160.24" y="15.34" width="150" height="150"/><path class="cls-2" d="M1307.24,18.34v144h-144v-144h144m6-6h-156v156h156v-156Z"/><text class="cls-3" transform="translate(39.61 105.65)">s[0]</text><text class="cls-3" transform="translate(183.62 105.65)">s[1]</text><text class="cls-3" transform="translate(327.62 105.65)">s[2]</text><text class="cls-3" transform="translate(471.63 105.65)">s[3]</text><text class="cls-3" transform="translate(615.63 105.65)">s[4]</text><text class="cls-3" transform="translate(759.64 105.65)">s[5]</text><text class="cls-3" transform="translate(903.65 105.65)">s[6]</text><text class="cls-3" transform="translate(1047.65 105.65)">s[7]</text><text class="cls-3" transform="translate(1191.66 105.65)">s[8]</text></svg>