<svg xmlns="http://www.w3.org/2000/svg" viewBox="0 0 1770 591"><defs><style>.cls-1{fill:#fcc377;}.cls-1,.cls-12,.cls-2,.cls-4,.cls-5,.cls-6,.cls-7{stroke:#000;}.cls-1,.cls-10,.cls-12,.cls-2,.cls-3,.cls-5,.cls-6,.cls-7{stroke-linecap:round;stroke-width:6px;}.cls-1,.cls-10,.cls-12,.cls-2,.cls-3,.cls-4,.cls-5,.cls-6,.cls-7{stroke-miterlimit:10;}.cls-10,.cls-2,.cls-4{fill:none;}.cls-3{stroke:#fcc377;}.cls-4{stroke-linecap:square;stroke-width:16px;}.cls-5{fill:#1a1a1a;}.cls-6{fill:#333;}.cls-7{fill:#b3b3b3;}.cls-8{fill:#fff;}.cls-9{fill:#e6e6e6;}.cls-10{stroke:#666;}.cls-11{fill:#c1272d;}.cls-13{fill:#39b54a;}.cls-14{fill:#d9e021;}.cls-15{fill:#fbb03b;}</style></defs><g id="Layer_1" data-name="Layer 1"><rect class="cls-1" x="1084.7" y="68.88" width="637" height="115" transform="translate(-3.15 210.71) rotate(-8.58)"/><line class="cls-2" x1="1552.64" y1="103.47" x2="1559.32" y2="147.77"/><line class="cls-2" x1="1571.58" y1="128.56" x2="1574.14" y2="145.54"/><line class="cls-2" x1="1586.41" y1="126.33" x2="1588.97" y2="143.3"/><line class="cls-2" x1="1601.23" y1="124.09" x2="1603.79" y2="141.07"/><line class="cls-2" x1="1616.05" y1="121.85" x2="1618.61" y2="138.83"/><line class="cls-2" x1="1628.36" y1="102.98" x2="1633.43" y2="136.59"/><line class="cls-2" x1="1645.69" y1="117.38" x2="1648.25" y2="134.36"/><line class="cls-2" x1="1660.51" y1="115.15" x2="1663.07" y2="132.12"/><line class="cls-2" x1="1675.34" y1="112.91" x2="1677.9" y2="129.89"/><line class="cls-2" x1="1690.16" y1="110.67" x2="1692.72" y2="127.65"/><line class="cls-2" x1="1404.42" y1="125.82" x2="1411.1" y2="170.13"/><line class="cls-2" x1="1423.37" y1="150.92" x2="1425.93" y2="167.89"/><line class="cls-2" x1="1438.19" y1="148.68" x2="1440.75" y2="165.66"/><line class="cls-2" x1="1453.01" y1="146.45" x2="1455.57" y2="163.42"/><line class="cls-2" x1="1467.83" y1="144.21" x2="1470.39" y2="161.19"/><line class="cls-2" x1="1480.14" y1="125.34" x2="1485.21" y2="158.95"/><line class="cls-2" x1="1497.47" y1="139.74" x2="1500.04" y2="156.72"/><line class="cls-2" x1="1512.3" y1="137.5" x2="1514.86" y2="154.48"/><line class="cls-2" x1="1527.12" y1="135.27" x2="1529.68" y2="152.24"/><line class="cls-2" x1="1541.94" y1="133.03" x2="1544.5" y2="150.01"/><line class="cls-2" x1="1256.22" y1="148.08" x2="1262.84" y2="192.4"/><line class="cls-2" x1="1275.13" y1="173.21" x2="1277.67" y2="190.19"/><line class="cls-2" x1="1289.96" y1="170.99" x2="1292.49" y2="187.97"/><line class="cls-2" x1="1304.78" y1="168.77" x2="1307.32" y2="185.75"/><line class="cls-2" x1="1319.6" y1="166.56" x2="1322.14" y2="183.54"/><line class="cls-2" x1="1331.94" y1="147.71" x2="1336.97" y2="181.32"/><line class="cls-2" x1="1349.25" y1="162.13" x2="1351.79" y2="179.11"/><line class="cls-2" x1="1364.08" y1="159.91" x2="1366.62" y2="176.89"/><line class="cls-2" x1="1378.9" y1="157.7" x2="1381.44" y2="174.68"/><line class="cls-2" x1="1393.73" y1="155.48" x2="1396.27" y2="172.46"/><line class="cls-2" x1="1107.99" y1="170.54" x2="1114.67" y2="214.85"/><line class="cls-2" x1="1126.93" y1="195.63" x2="1129.49" y2="212.61"/><line class="cls-2" x1="1141.75" y1="193.4" x2="1144.31" y2="210.37"/><line class="cls-2" x1="1156.57" y1="191.16" x2="1159.13" y2="208.14"/><line class="cls-2" x1="1171.4" y1="188.93" x2="1173.96" y2="205.9"/><line class="cls-2" x1="1183.71" y1="170.06" x2="1188.78" y2="203.67"/><line class="cls-2" x1="1201.04" y1="184.45" x2="1203.6" y2="201.43"/><line class="cls-2" x1="1215.86" y1="182.22" x2="1218.42" y2="199.19"/><line class="cls-2" x1="1230.68" y1="179.98" x2="1233.24" y2="196.96"/><line class="cls-2" x1="1245.5" y1="177.75" x2="1248.07" y2="194.72"/><line class="cls-2" x1="1701.08" y1="81.17" x2="1707.7" y2="125.49"/><circle class="cls-3" cx="1691.09" cy="47.05" r="10"/><line class="cls-4" x1="1071.75" y1="264" x2="1753.75" y2="264"/></g><g id="Layer_2" data-name="Layer 2"><rect class="cls-5" x="1488.65" y="362.56" width="11.73" height="27.41" rx="3.95" transform="translate(794.16 -996.56) rotate(48.84)"/><rect class="cls-6" x="1491.73" y="350.75" width="33.27" height="27.41" rx="5.29" transform="translate(790.01 -1011.03) rotate(48.84)"/><rect class="cls-5" x="1388.7" y="325" width="34" height="36" rx="5.57"/><circle class="cls-7" cx="1405.7" cy="461.67" r="117.5"/><circle class="cls-8" cx="1405.7" cy="461.67" r="93.33" transform="translate(-55.8 231.13) rotate(-9.22)"/><path class="cls-9" d="M1405.7,371.33a90.34,90.34,0,1,1-90.33,90.34,90.44,90.44,0,0,1,90.33-90.34m0-6A96.34,96.34,0,1,0,1502,461.67a96.33,96.33,0,0,0-96.33-96.34Z"/><circle class="cls-2" cx="1405.7" cy="461.67" r="96.33"/><rect class="cls-6" x="1364.2" y="292" width="83" height="36" rx="8.7"/><line class="cls-10" x1="1375" y1="301" x2="1375" y2="320"/><line class="cls-10" x1="1498" y1="361" x2="1507" y2="353"/></g><g id="Layer_4" data-name="Layer 4"><path class="cls-11" d="M1406,462V385a77,77,0,0,1,75.62,62.49Z"/></g><g id="Layer_3" data-name="Layer 3"><circle class="cls-12" cx="1405.7" cy="461.67" r="9"/><path d="M1405.48,458.05l83-11.55-82,17.45a3,3,0,0,1-1.25-5.87Z"/></g><g id="Layer_5" data-name="Layer 5"><path class="cls-2" d="M21,367.5C21,205.94,153.94,73,315.5,73S610,205.94,610,367.5"/><path class="cls-13" d="M49,368h69c0-53.79,22-102.85,57.38-138.62l-48.7-48.7C78.77,229,49,295.28,49,368Z"/><path class="cls-14" d="M126.68,180.68l48.7,48.7A197,197,0,0,1,313,170.53v-69C240.51,102.21,174.54,132.45,126.68,180.68Z"/><path class="cls-15" d="M315.5,101.5c-.84,0-1.67,0-2.5,0v69c.83,0,1.66,0,2.5,0a196.82,196.82,0,0,1,137.61,56.39L501.8,178.2C453.6,130.87,387.72,101.5,315.5,101.5Z"/><path class="cls-11" d="M501.8,178.2l-48.69,48.69C490,262.86,513,313,513,368h69C582,294,551.18,226.68,501.8,178.2Z"/><polygon points="275.28 399.04 479.3 188.42 292.42 414.37 275.28 399.04"/><circle class="cls-7" cx="316" cy="368" r="22"/><line class="cls-4" x1="741" y1="241" x2="912" y2="241"/><line class="cls-4" x1="741" y1="286" x2="912" y2="286"/></g></svg>