<svg xmlns="http://www.w3.org/2000/svg" viewBox="0 0 1459 812"><defs><style>.cls-1{fill:#898989;}.cls-2{fill:#333;}.cls-3{fill:#b0c2cc;}.cls-4{font-size:29px;}.cls-10,.cls-4,.cls-7,.cls-8,.cls-9{font-family:Inconsolata-Bold, Inconsolata;font-weight:700;}.cls-5,.cls-6{fill:none;stroke:#f15a24;stroke-linejoin:round;stroke-width:9px;}.cls-6{stroke-dasharray:20.21 10.11;}.cls-10,.cls-7,.cls-9{font-size:44.07px;}.cls-7,.cls-8{fill:#f15a24;}.cls-8{font-size:72px;}.cls-9{fill:#4d4d4d;}</style></defs><g id="Layer_2" data-name="Layer 2"><rect class="cls-1" x="6" y="98" width="150" height="150"/><path class="cls-2" d="M153,101V245H9V101H153m6-6H3V251H159V95Z"/><rect class="cls-3" x="150" y="98" width="150" height="150"/><path class="cls-2" d="M297,101V245H153V101H297m6-6H147V251H303V95Z"/><rect class="cls-3" x="294" y="98" width="150" height="150"/><path class="cls-2" d="M441,101V245H297V101H441m6-6H291V251H447V95Z"/><rect class="cls-3" x="438" y="98" width="150" height="150"/><path class="cls-2" d="M585,101V245H441V101H585m6-6H435V251H591V95Z"/><rect class="cls-3" x="582" y="98" width="150" height="150"/><path class="cls-2" d="M729,101V245H585V101H729m6-6H579V251H735V95Z"/><rect class="cls-3" x="726" y="98" width="150" height="150"/><path class="cls-2" d="M873,101V245H729V101H873m6-6H723V251H879V95Z"/><rect class="cls-3" x="870" y="98" width="150" height="150"/><path class="cls-2" d="M1017,101V245H873V101h144m6-6H867V251h156V95Z"/><rect class="cls-3" x="1014" y="98" width="150" height="150"/><path class="cls-2" d="M1161,101V245H1017V101h144m6-6H1011V251h156V95Z"/><rect class="cls-3" x="1158" y="98" width="150" height="150"/><path class="cls-2" d="M1305,101V245H1161V101h144m6-6H1155V251h156V95Z"/><rect class="cls-3" x="150" y="304" width="150" height="150"/><path class="cls-2" d="M297,307V451H153V307H297m6-6H147V457H303V301Z"/><rect class="cls-3" x="294" y="304" width="150" height="150"/><path class="cls-2" d="M441,307V451H297V307H441m6-6H291V457H447V301Z"/><rect class="cls-3" x="438" y="304" width="150" height="150"/><path class="cls-2" d="M585,307V451H441V307H585m6-6H435V457H591V301Z"/><rect class="cls-3" x="582" y="304" width="150" height="150"/><path class="cls-2" d="M729,307V451H585V307H729m6-6H579V457H735V301Z"/><rect class="cls-3" x="726" y="304" width="150" height="150"/><path class="cls-2" d="M873,307V451H729V307H873m6-6H723V457H879V301Z"/><rect class="cls-3" x="870" y="304" width="150" height="150"/><path class="cls-2" d="M1017,307V451H873V307h144m6-6H867V457h156V301Z"/><rect class="cls-3" x="1014" y="304" width="150" height="150"/><path class="cls-2" d="M1161,307V451H1017V307h144m6-6H1011V457h156V301Z"/><rect class="cls-3" x="1158" y="304" width="150" height="150"/><path class="cls-2" d="M1305,307V451H1161V307h144m6-6H1155V457h156V301Z"/><rect class="cls-1" x="1302" y="304" width="150" height="150"/><path class="cls-2" d="M1449,307V451H1305V307h144m6-6H1299V457h156V301Z"/><rect class="cls-3" x="150" y="634" width="150" height="150"/><path class="cls-2" d="M297,637V781H153V637H297m6-6H147V787H303V631Z"/><rect class="cls-3" x="294" y="634" width="150" height="150"/><path class="cls-2" d="M441,637V781H297V637H441m6-6H291V787H447V631Z"/><rect class="cls-3" x="438" y="634" width="150" height="150"/><path class="cls-2" d="M585,637V781H441V637H585m6-6H435V787H591V631Z"/><rect class="cls-3" x="582" y="634" width="150" height="150"/><path class="cls-2" d="M729,637V781H585V637H729m6-6H579V787H735V631Z"/><rect class="cls-3" x="726" y="634" width="150" height="150"/><path class="cls-2" d="M873,637V781H729V637H873m6-6H723V787H879V631Z"/><rect class="cls-3" x="870" y="634" width="150" height="150"/><path class="cls-2" d="M1017,637V781H873V637h144m6-6H867V787h156V631Z"/><rect class="cls-3" x="1014" y="634" width="150" height="150"/><path class="cls-2" d="M1161,637V781H1017V637h144m6-6H1011V787h156V631Z"/><rect class="cls-3" x="1158" y="634" width="150" height="150"/><path class="cls-2" d="M1305,637V781H1161V637h144m6-6H1155V787h156V631Z"/><text class="cls-4" transform="translate(157.46 723.97)">s[1]-s[0]</text><polyline class="cls-5" points="154.54 87 154.54 74 164.54 74"/><line class="cls-6" x1="174.64" y1="74" x2="1291.48" y2="74"/><polyline class="cls-5" points="1296.54 74 1306.54 74 1306.54 87"/><text class="cls-7" transform="translate(671.45 54.31)">s[1:]</text><polyline class="cls-5" points="152.54 462.39 152.54 475.39 162.54 475.39"/><line class="cls-6" x1="172.64" y1="475.39" x2="1289.48" y2="475.39"/><polyline class="cls-5" points="1294.54 475.39 1304.54 475.39 1304.54 462.39"/><text class="cls-7" transform="translate(660.43 526.7)">s[:-1]</text><text class="cls-8" transform="translate(708.54 293.31)">-</text><text class="cls-8" transform="translate(708.54 610.31)">=</text><text class="cls-9" transform="translate(37.35 187.6)">s[0]</text><text class="cls-10" transform="translate(181.35 187.6)">s[1]</text><text class="cls-10" transform="translate(325.36 187.6)">s[2]</text><text class="cls-10" transform="translate(469.36 187.6)">s[3]</text><text class="cls-10" transform="translate(613.37 187.6)">s[4]</text><text class="cls-10" transform="translate(757.38 187.6)">s[5]</text><text class="cls-10" transform="translate(901.38 187.6)">s[6]</text><text class="cls-10" transform="translate(1045.39 187.6)">s[7]</text><text class="cls-10" transform="translate(1189.39 187.6)">s[8]</text><text class="cls-10" transform="translate(181.37 394.31)">s[0]</text><text class="cls-10" transform="translate(325.38 394.31)">s[1]</text><text class="cls-10" transform="translate(469.38 394.31)">s[2]</text><text class="cls-10" transform="translate(613.39 394.31)">s[3]</text><text class="cls-10" transform="translate(757.39 394.31)">s[4]</text><text class="cls-10" transform="translate(901.4 394.31)">s[5]</text><text class="cls-10" transform="translate(1045.41 394.31)">s[6]</text><text class="cls-10" transform="translate(1189.41 394.31)">s[7]</text><text class="cls-9" transform="translate(1333.42 394.31)">s[8]</text><text class="cls-4" transform="translate(301.75 723.97)">s[2]-s[1]</text><text class="cls-4" transform="translate(446.04 723.97)">s[3]-s[2]</text><text class="cls-4" transform="translate(590.32 723.97)">s[4]-s[3]</text><text class="cls-4" transform="translate(734.61 723.97)">s[5]-s[4]</text><text class="cls-4" transform="translate(878.9 723.97)">s[6]-s[5]</text><text class="cls-4" transform="translate(1023.18 723.97)">s[7]-s[6]</text><text class="cls-4" transform="translate(1167.47 723.97)">s[8]-s[7]</text></g></svg>