<svg xmlns="http://www.w3.org/2000/svg" viewBox="0 0 1802 348"><defs><style>.cls-1{fill:#1a1a1a;}.cls-1,.cls-2,.cls-3,.cls-6,.cls-8{stroke:#000;}.cls-1,.cls-2,.cls-3,.cls-6,.cls-7,.cls-8{stroke-linecap:round;stroke-miterlimit:10;stroke-width:6px;}.cls-2{fill:#333;}.cls-3{fill:#b3b3b3;}.cls-4{fill:#fff;}.cls-5{fill:#e6e6e6;}.cls-6,.cls-7{fill:none;}.cls-7{stroke:#666;}</style></defs><g id="Layer_1" data-name="Layer 1"><rect class="cls-1" x="238.06" y="105.18" width="11.73" height="27.41" rx="3.95" transform="translate(172.89 -143) rotate(48.84)"/><rect class="cls-2" x="241.14" y="93.38" width="33.27" height="27.41" rx="5.29" transform="translate(168.74 -157.47) rotate(48.84)"/><rect class="cls-1" x="138.11" y="67.63" width="34" height="36" rx="5.57"/><circle class="cls-3" cx="155.11" cy="204.29" r="117.5"/><circle class="cls-4" cx="155.11" cy="204.29" r="93.33" transform="translate(-92.99 269.42) rotate(-67.5)"/><path class="cls-5" d="M155.11,114a90.34,90.34,0,1,1-90.33,90.33A90.43,90.43,0,0,1,155.11,114m0-6a96.34,96.34,0,1,0,96.33,96.33A96.33,96.33,0,0,0,155.11,108Z"/><circle class="cls-6" cx="155.11" cy="204.29" r="96.33"/><rect class="cls-2" x="113.61" y="34.63" width="83" height="36" rx="8.7"/><line class="cls-7" x1="124.41" y1="43.63" x2="124.41" y2="62.63"/><line class="cls-7" x1="247.41" y1="103.63" x2="256.41" y2="95.63"/><circle class="cls-8" cx="155.11" cy="204.29" r="9"/><path d="M154.89,200.67l83-11.54-82,17.45a3,3,0,1,1-1.25-5.87Z"/></g><g id="Layer_1_copy" data-name="Layer 1 copy"><rect class="cls-1" x="612.06" y="105.18" width="11.73" height="27.41" rx="3.95" transform="translate(300.74 -424.58) rotate(48.84)"/><rect class="cls-2" x="615.14" y="93.38" width="33.27" height="27.41" rx="5.29" transform="translate(296.59 -439.05) rotate(48.84)"/><rect class="cls-1" x="512.11" y="67.63" width="34" height="36" rx="5.57"/><circle class="cls-3" cx="529.11" cy="204.29" r="117.5"/><circle class="cls-4" cx="529.11" cy="204.29" r="93.33" transform="translate(208.72 672.31) rotate(-76.72)"/><path class="cls-5" d="M529.11,114a90.34,90.34,0,1,1-90.33,90.33A90.43,90.43,0,0,1,529.11,114m0-6a96.34,96.34,0,1,0,96.33,96.33A96.33,96.33,0,0,0,529.11,108Z"/><circle class="cls-6" cx="529.11" cy="204.29" r="96.33"/><rect class="cls-2" x="487.61" y="34.63" width="83" height="36" rx="8.7"/><line class="cls-7" x1="498.41" y1="43.63" x2="498.41" y2="62.63"/><line class="cls-7" x1="621.41" y1="103.63" x2="630.41" y2="95.63"/><circle class="cls-8" cx="529.11" cy="204.29" r="9"/><path d="M531.38,201.36l61.12,57-65.06-52.48a3,3,0,0,1,3.77-4.67Z"/></g><g id="Layer_1_copy_2" data-name="Layer 1 copy 2"><rect class="cls-1" x="986.06" y="105.18" width="11.73" height="27.41" rx="3.95" transform="translate(428.59 -706.15) rotate(48.84)"/><rect class="cls-2" x="989.14" y="93.38" width="33.27" height="27.41" rx="5.29" transform="translate(424.43 -720.62) rotate(48.84)"/><rect class="cls-1" x="886.11" y="67.63" width="34" height="36" rx="5.57"/><circle class="cls-3" cx="903.11" cy="204.29" r="117.5"/><circle class="cls-4" cx="903.11" cy="204.29" r="93.33" transform="translate(496.79 1036.31) rotate(-76.72)"/><path class="cls-5" d="M903.11,114a90.34,90.34,0,1,1-90.33,90.33A90.43,90.43,0,0,1,903.11,114m0-6a96.34,96.34,0,1,0,96.33,96.33A96.33,96.33,0,0,0,903.11,108Z"/><circle class="cls-6" cx="903.11" cy="204.29" r="96.33"/><rect class="cls-2" x="861.61" y="34.63" width="83" height="36" rx="8.7"/><line class="cls-7" x1="872.41" y1="43.63" x2="872.41" y2="62.63"/><line class="cls-7" x1="995.41" y1="103.63" x2="1004.41" y2="95.63"/><circle class="cls-8" cx="903.11" cy="204.29" r="9"/><path d="M906.41,203.62l-2.91,84.75-3.09-84.74a3,3,0,1,1,6-.22Z"/></g><g id="Layer_1_copy_3" data-name="Layer 1 copy 3"><rect class="cls-1" x="1360.06" y="105.18" width="11.73" height="27.41" rx="3.95" transform="translate(556.44 -987.73) rotate(48.84)"/><rect class="cls-2" x="1363.14" y="93.38" width="33.27" height="27.41" rx="5.29" transform="translate(552.28 -1002.2) rotate(48.84)"/><rect class="cls-1" x="1260.11" y="67.63" width="34" height="36" rx="5.57"/><circle class="cls-3" cx="1277.11" cy="204.29" r="117.5"/><circle class="cls-4" cx="1277.11" cy="204.29" r="93.33" transform="translate(784.86 1400.3) rotate(-76.72)"/><path class="cls-5" d="M1277.11,114a90.34,90.34,0,1,1-90.33,90.33A90.43,90.43,0,0,1,1277.11,114m0-6a96.34,96.34,0,1,0,96.33,96.33A96.33,96.33,0,0,0,1277.11,108Z"/><circle class="cls-6" cx="1277.11" cy="204.29" r="96.33"/><rect class="cls-2" x="1235.61" y="34.63" width="83" height="36" rx="8.7"/><line class="cls-7" x1="1246.41" y1="43.63" x2="1246.41" y2="62.63"/><line class="cls-7" x1="1369.41" y1="103.63" x2="1378.41" y2="95.63"/><circle class="cls-8" cx="1277.11" cy="204.29" r="9"/><path d="M1278.91,206.23,1204.5,245.7,1275.91,201a3,3,0,1,1,3.18,5.09Z"/></g><g id="Layer_1_copy_4" data-name="Layer 1 copy 4"><rect class="cls-1" x="1734.06" y="105.18" width="11.73" height="27.41" rx="3.95" transform="translate(684.28 -1269.31) rotate(48.84)"/><rect class="cls-2" x="1737.14" y="93.38" width="33.27" height="27.41" rx="5.29" transform="translate(680.13 -1283.78) rotate(48.84)"/><rect class="cls-1" x="1634.11" y="67.63" width="34" height="36" rx="5.57"/><circle class="cls-3" cx="1651.11" cy="204.29" r="117.5"/><circle class="cls-4" cx="1651.11" cy="204.29" r="93.33" transform="translate(1072.94 1764.3) rotate(-76.72)"/><path class="cls-5" d="M1651.11,114a90.34,90.34,0,1,1-90.33,90.33A90.43,90.43,0,0,1,1651.11,114m0-6a96.34,96.34,0,1,0,96.33,96.33A96.33,96.33,0,0,0,1651.11,108Z"/><circle class="cls-6" cx="1651.11" cy="204.29" r="96.33"/><rect class="cls-2" x="1609.61" y="34.63" width="83" height="36" rx="8.7"/><line class="cls-7" x1="1620.41" y1="43.63" x2="1620.41" y2="62.63"/><line class="cls-7" x1="1743.41" y1="103.63" x2="1752.41" y2="95.63"/><circle class="cls-8" cx="1651.11" cy="204.29" r="9"/><path d="M1649.93,206.23,1579.5,162.7,1652.89,201a3,3,0,1,1-2.77,5.32A1.18,1.18,0,0,1,1649.93,206.23Z"/></g></svg>