<svg xmlns="http://www.w3.org/2000/svg" viewBox="0 0 592 592"><defs><style>.cls-1,.cls-3{fill:none;stroke-miterlimit:10;stroke-width:5px;}.cls-1{stroke:#000;}.cls-2{opacity:0.5;}.cls-3{stroke:#231f20;}.cls-4,.cls-5{fill:#231f20;}.cls-5{font-size:48px;font-family:PTSansPro-CondExtraBold, PT Sans Pro Condensed;font-weight:800;}.cls-6{letter-spacing:-0.06em;}</style></defs><g id="Sirkel"><circle class="cls-1" cx="296" cy="296" r="208"/></g><g id="Firkant"><rect class="cls-1" x="86.5" y="86.5" width="418" height="418"/></g><g id="koordinatsystem" class="cls-2"><line class="cls-3" x1="5.21" y1="295.5" x2="585.79" y2="295.5"/><polygon class="cls-4" points="15.17 303.98 6.69 295.5 15.17 287.02 7.98 287.02 -0.5 295.5 7.98 303.98 15.17 303.98"/><polygon class="cls-4" points="575.83 303.98 584.31 295.5 575.83 287.02 583.02 287.02 591.5 295.5 583.02 303.98 575.83 303.98"/><line class="cls-3" x1="295.5" y1="586.29" x2="295.5" y2="5.71"/><polygon class="cls-4" points="303.98 576.33 295.5 584.81 287.02 576.33 287.02 583.52 295.5 592 303.98 583.52 303.98 576.33"/><polygon class="cls-4" points="303.98 15.67 295.5 7.19 287.02 15.67 287.02 8.48 295.5 0 303.98 8.48 303.98 15.67"/><text class="cls-5" transform="translate(513 347.59)">1</text><text class="cls-5" transform="translate(35.97 347.59)"><tspan class="cls-6">-</tspan><tspan x="9.65" y="0" xml:space="preserve"> 1</tspan></text><text class="cls-5" transform="translate(262.12 71.59)">1</text><text class="cls-5" transform="translate(249.79 556.59)">-1</text></g></svg>