<svg xmlns="http://www.w3.org/2000/svg" viewBox="0 0 592 592"><defs><style>.cls-1,.cls-3,.cls-7,.cls-8,.cls-9{fill:none;stroke-miterlimit:10;stroke-width:5px;}.cls-1{stroke:#000;}.cls-2{opacity:0.5;}.cls-3{stroke:#231f20;}.cls-4,.cls-5{fill:#231f20;}.cls-5{font-size:48px;font-family:PTSansPro-CondExtraBold, PT Sans Pro Condensed;font-weight:800;}.cls-6{letter-spacing:-0.06em;}.cls-7,.cls-8,.cls-9{stroke:#939598;}.cls-8{stroke-dasharray:11.36 5.68;}.cls-9{stroke-dasharray:13.06 6.53;}.cls-10{fill:#32738c;}.cls-11{fill:gray;}.cls-12{fill:#979596;}.cls-13,.cls-15{opacity:0.3;}.cls-14{fill:#3a0003;opacity:0.35;}.cls-16{fill:#fff;}</style></defs><g id="Sirkel"><circle class="cls-1" cx="296" cy="296" r="208"/></g><g id="Firkant"><rect class="cls-1" x="86.5" y="86.5" width="418" height="418"/></g><g id="koordinatsystem" class="cls-2"><line class="cls-3" x1="5.21" y1="295.5" x2="585.79" y2="295.5"/><polygon class="cls-4" points="15.17 303.98 6.69 295.5 15.17 287.02 7.98 287.02 -0.5 295.5 7.98 303.98 15.17 303.98"/><polygon class="cls-4" points="575.83 303.98 584.31 295.5 575.83 287.02 583.02 287.02 591.5 295.5 583.02 303.98 575.83 303.98"/><line class="cls-3" x1="295.5" y1="586.29" x2="295.5" y2="5.71"/><polygon class="cls-4" points="303.98 576.33 295.5 584.81 287.02 576.33 287.02 583.52 295.5 592 303.98 583.52 303.98 576.33"/><polygon class="cls-4" points="303.98 15.67 295.5 7.19 287.02 15.67 287.02 8.48 295.5 0 303.98 8.48 303.98 15.67"/><text class="cls-5" transform="translate(513 347.59)">1</text><text class="cls-5" transform="translate(35.97 347.59)"><tspan class="cls-6">-</tspan><tspan x="9.65" y="0" xml:space="preserve"> 1</tspan></text><text class="cls-5" transform="translate(262.12 71.59)">1</text><text class="cls-5" transform="translate(249.79 556.59)">-1</text></g><g id="koordinater"><line class="cls-7" x1="413.5" y1="296" x2="413.5" y2="290"/><line class="cls-8" x1="413.5" y1="284.32" x2="413.5" y2="167.84"/><polyline class="cls-7" points="413.5 165 413.5 159 407.5 158.97"/><line class="cls-9" x1="400.97" y1="158.95" x2="306.27" y2="158.54"/><line class="cls-7" x1="303" y1="158.53" x2="297" y2="158.5"/></g><g id="dart"><path class="cls-10" d="M534.45,47.43l-17.21-5.65a7.67,7.67,0,0,0-4.25,0l6.56-10.38-9,8.44a7.66,7.66,0,0,0-.82-4.17L501,19.81c-1.39-2.5-4-2.74-5.84-.53L473.22,45.77a10.1,10.1,0,0,0-1.54,8.9l6.61,18.19a202.79,202.79,0,0,0-30.81,29.8,135.12,135.12,0,0,0-10.14,13.91l-7.07,22.86,21.12-11.25a135.78,135.78,0,0,0,11.74-12.58,202.78,202.78,0,0,0,23.49-35.92l19.12,3.06a10.1,10.1,0,0,0,8.45-3.19l21.89-26.49C537.9,50.85,537.17,48.32,534.45,47.43Z"/><polygon class="cls-11" points="428.19 137.55 411.62 161.69 432.2 140.87 428.19 137.55"/><path class="cls-12" d="M453.73,126.24c-1.16-1.57-5.37-4.93-7.24-6.48s-5.93-5.08-7.87-6-11.74,12.58-12.27,14.85c-.48,2.07-.55,11,2,13.11,2.8,2.33,11.07.33,13-.53C443.5,140.25,455,128,453.73,126.24Z"/><path class="cls-13" d="M510.56,39.82a7.66,7.66,0,0,0-.82-4.17L501,19.81c-1.39-2.5-4-2.74-5.84-.53L473.22,45.77a10.1,10.1,0,0,0-1.54,8.9l7,19.17a4.31,4.31,0,0,0,.85,1.47l1-7.3Z"/><path class="cls-14" d="M534.45,47.43l-17.21-5.65a7.67,7.67,0,0,0-4.25,0l6.56-10.38-9,8.44L480.5,68l-1,7.3-.74,5.44L484,79a4.73,4.73,0,0,0,1.58.55l20.14,3.22a10.1,10.1,0,0,0,8.45-3.19l21.89-26.49C537.9,50.85,537.17,48.32,534.45,47.43Z"/><g class="cls-15"><path class="cls-16" d="M443.75,114.62a1.56,1.56,0,0,1-.3-2.07c.12-.18,3.06-4.53,11.3-14.51,4-4.82,14.15-14.76,14.58-15.18a1.57,1.57,0,0,1,2.19,2.24c-.11.1-10.48,10.24-14.36,14.93-8.12,9.83-11.08,14.22-11.11,14.26a1.56,1.56,0,0,1-2.17.42Z"/></g><g class="cls-15"><path class="cls-16" d="M431.74,128.34a1.58,1.58,0,0,1-.32-2,50.68,50.68,0,0,1,6.19-7.5,1.56,1.56,0,1,1,2.2,2.22,48.11,48.11,0,0,0-5.75,7,1.57,1.57,0,0,1-2.16.48Z"/></g></g></svg>