<svg xmlns="http://www.w3.org/2000/svg" viewBox="0 0 102 338"><defs><style>.cls-1{fill:#00a666;}.cls-2{fill:gray;}.cls-3{fill:#989697;}.cls-4,.cls-6{opacity:0.3;}.cls-5{opacity:0.35;}.cls-7{fill:#fff;}</style></defs><g id="Layer_3_copy_4" data-name="Layer 3 copy 4"><path class="cls-1" d="M92.34,18.85,60,31.55a14.74,14.74,0,0,0-6.33,5.17l-3-23.39-3,23.48a14.76,14.76,0,0,0-6.32-5.16L9,19c-5.12-2-9.31.85-9.31,6.35v66c0,5.5,3.88,12.28,8.62,15.07l32,18.85A388.65,388.65,0,0,0,31.15,207a258.62,258.62,0,0,0,2,33l17.5,42.5L68.15,240a258.62,258.62,0,0,0,2-33A388.45,388.45,0,0,0,61,125.13L93,106.27c4.74-2.79,8.62-9.57,8.62-15.07v-66C101.65,19.7,97.46,16.84,92.34,18.85Z"/></g><g id="Layer_1" data-name="Layer 1"><polygon class="cls-2" points="45.27 282.3 50.27 338.3 55.27 282.3 45.27 282.3"/><path class="cls-3" d="M69.24,234.3c-3.63-.91-14-.72-18.63-.73s-15-.27-19,.73-2,33,0,37c1.82,3.66,12.63,17,19,17,7,0,16.8-13.06,18.63-16.72C71.24,267.56,73.24,235.3,69.24,234.3Z"/><path class="cls-4" d="M47.66,36.81a14.76,14.76,0,0,0-6.32-5.16L9,19c-5.12-2-9.31.85-9.31,6.35v66c0,5.5,3.88,12.28,8.62,15.07L42,126.23a8.46,8.46,0,0,0,3.08,1.14l-7.46-12Z"/><path class="cls-5" d="M92.34,18.85,60,31.55a14.74,14.74,0,0,0-6.33,5.17l-3-23.39-3,23.48-10,78.52,7.46,12,5.54,9,5.62-9.08a8.42,8.42,0,0,0,3-1.12L93,106.27c4.74-2.79,8.62-9.57,8.62-15.07v-66C101.65,19.7,97.46,16.84,92.34,18.85Z"/><g class="cls-6"><path class="cls-7" d="M40.26,229.3a3,3,0,0,1-3-2.7c0-.41-1-10.43-1-35.3,0-12,2.89-39.17,3-40.32a3,3,0,0,1,6,.64c0,.28-3,28-3,39.68,0,24.49,1,34.61,1,34.7a3,3,0,0,1-2.69,3.29Z"/></g><g class="cls-6"><path class="cls-7" d="M39.26,264.3a3,3,0,0,1-3-2.63,98.5,98.5,0,0,1,0-18.67,3,3,0,0,1,6,.6,94.19,94.19,0,0,0,0,17.33,3,3,0,0,1-2.6,3.35Z"/></g></g></svg>