<svg id="harer" xmlns="http://www.w3.org/2000/svg" viewBox="0 0 1335.29 302.35"><defs><style>.cls-1{font-size:24px;}.cls-1,.cls-10,.cls-6{fill:#231f20;font-family:PTSans-Regular, PT Sans;}.cls-2{fill:#efe2c5;}.cls-3{fill:#eab0ac;}.cls-4{fill:#2b2525;}.cls-5{fill:#fff;}.cls-10,.cls-6{font-size:189.21px;}.cls-7{fill:#afb8d3;}.cls-8{fill:#8aa488;}.cls-9{fill:#badbb4;}.cls-10{letter-spacing:-0.08em;}.cls-11{fill:#bbaeab;}.cls-12{fill:#efddd9;}.cls-13,.cls-15,.cls-16{fill:none;stroke-linecap:round;}.cls-13{stroke:#bbaeab;stroke-width:5px;}.cls-13,.cls-16{stroke-miterlimit:10;}.cls-14{fill:#dac8c4;}.cls-15,.cls-16{stroke:#2b2525;stroke-width:4px;}.cls-15{stroke-linejoin:round;}</style></defs><g id="tekst_harer" data-name="tekst harer"><text class="cls-1" transform="translate(162.84 67.05) rotate(-23.96)">A</text><text class="cls-1" transform="matrix(0.95, -0.32, 0.32, 0.95, 175.35, 61.5)">n</text><text class="cls-1" transform="translate(187.55 57.45) rotate(-14.77)">t</text><text class="cls-1" transform="translate(195.14 55.38) rotate(-11.19)">a</text><text class="cls-1" transform="translate(206.61 53.18) rotate(-7.92)">l</text><text class="cls-1" transform="translate(213.41 52.23) rotate(-5.58)">l</text><text class="cls-1" transform="translate(220.22 51.57) rotate(-3.41)"> </text><text class="cls-1" transform="translate(226.4 51.11) rotate(-0.47)">h</text><text class="cls-1" transform="translate(239.28 51.01) rotate(3.41)">a</text><text class="cls-1" transform="translate(250.93 51.75) rotate(6.84)">r</text><text class="cls-1" transform="matrix(0.98, 0.18, -0.18, 0.98, 258.77, 52.61)">e</text><text class="cls-1" transform="translate(270.47 54.86) rotate(14.8)">r</text><text class="cls-1" transform="translate(278.14 56.91) rotate(18.03)"> </text><text class="cls-1" transform="translate(283.96 58.64) rotate(22.69)">n</text><text class="cls-1" transform="translate(295.68 63.53) rotate(29.39)">å</text><text class="cls-1" transform="matrix(0.85, -0.52, 0.52, 0.85, 462.23, 76.35)">A</text><text class="cls-1" transform="translate(473.85 69.21) rotate(-26.03)">n</text><text class="cls-1" transform="translate(485.43 63.65) rotate(-21.83)">t</text><text class="cls-1" transform="matrix(0.95, -0.31, 0.31, 0.95, 492.7, 60.66)">a</text><text class="cls-1" transform="matrix(0.97, -0.25, 0.25, 0.97, 503.84, 57.11)">l</text><text class="cls-1" transform="translate(510.44 55.4) rotate(-11.99)">l</text><text class="cls-1" transform="translate(517.12 53.98) rotate(-9.65)"> </text><text class="cls-1" transform="translate(523.2 52.85) rotate(-6.34)">h</text><text class="cls-1" transform="translate(535.99 51.45) rotate(-2.35)">a</text><text class="cls-1" transform="matrix(1, 0.01, -0.01, 1, 547.68, 51.02)">r</text><text class="cls-1" transform="translate(555.62 51.04) rotate(3.88)">e</text><text class="cls-1" transform="matrix(0.99, 0.13, -0.13, 0.99, 567.53, 51.9)">r</text><text class="cls-1" transform="translate(575.44 52.94) rotate(10.13)"> </text><text class="cls-1" transform="matrix(0.97, 0.22, -0.22, 0.97, 581.55, 54.01)">f</text><text class="cls-1" transform="matrix(0.96, 0.28, -0.28, 0.96, 588.81, 55.66)">r</text><text class="cls-1" transform="translate(596.35 57.77) rotate(20.95)">a</text><text class="cls-1" transform="translate(607.14 62) rotate(25.58)"> </text><text class="cls-1" transform="translate(612.68 64.62) rotate(29.44)">f</text><text class="cls-1" transform="matrix(0.81, 0.58, -0.58, 0.81, 618.86, 67.89)">ø</text><text class="cls-1" transform="translate(628.81 75.11) rotate(43.87)">r</text><text class="cls-1" transform="translate(750.72 64.82) rotate(-32.88)">A</text><text class="cls-1" transform="matrix(0.91, -0.41, 0.41, 0.91, 762.01, 57.52)">n</text><text class="cls-1" transform="matrix(0.95, -0.31, 0.31, 0.95, 773.65, 52.45)">t</text><text class="cls-1" transform="matrix(0.98, -0.21, 0.21, 0.98, 781.01, 49.99)">a</text><text class="cls-1" transform="translate(792.37 47.59) rotate(-7.72)">l</text><text class="cls-1" transform="translate(799.07 46.68) rotate(-4.59)">l</text><text class="cls-1" transform="translate(805.89 46.14) rotate(-1.81)"> </text><text class="cls-1" transform="matrix(1, 0.02, -0.02, 1, 812.06, 45.88)">n</text><text class="cls-1" transform="matrix(1, 0.08, -0.08, 1, 824.96, 46.17)">y</text><text class="cls-1" transform="matrix(0.99, 0.15, -0.15, 0.99, 835.57, 47.01)">e</text><text class="cls-1" transform="translate(847.38 48.85) rotate(12.12)"> </text><text class="cls-1" transform="matrix(0.96, 0.28, -0.28, 0.96, 853.39, 49.99)">h</text><text class="cls-1" transform="translate(865.54 53.57) rotate(23.13)">a</text><text class="cls-1" transform="translate(876.07 58.14) rotate(29.48)">r</text><text class="cls-1" transform="matrix(0.8, 0.6, -0.6, 0.8, 882.82, 61.75)">e</text><text class="cls-1" transform="translate(892.03 68.8) rotate(45.85)">r</text><text class="cls-1" transform="matrix(0.76, -0.66, 0.66, 0.76, 1075.49, 67.71)">H</text><text class="cls-1" transform="translate(1087.32 57.65) rotate(-31.96)">a</text><text class="cls-1" transform="translate(1097.13 51.62) rotate(-26.39)">r</text><text class="cls-1" transform="translate(1104.09 48.06) rotate(-21.38)">e</text><text class="cls-1" transform="translate(1115.19 43.8) rotate(-16.98)">r</text><text class="cls-1" transform="translate(1122.8 41.5) rotate(-14.17)"> </text><text class="cls-1" transform="translate(1128.8 39.93) rotate(-11.27)">s</text><text class="cls-1" transform="matrix(0.99, -0.13, 0.13, 0.99, 1138.47, 37.96)">o</text><text class="cls-1" transform="translate(1150.88 36.09) rotate(-2.82)">m</text><text class="cls-1" transform="translate(1170.03 35.4) rotate(2.01)"> </text><text class="cls-1" transform="matrix(0.99, 0.1, -0.1, 0.99, 1176.17, 35.49)">b</text><text class="cls-1" transform="translate(1188.74 36.9) rotate(10.25)">l</text><text class="cls-1" transform="translate(1195.42 38.11) rotate(13.3)">i</text><text class="cls-1" transform="matrix(0.96, 0.29, -0.29, 0.96, 1201.47, 39.5)">r</text><text class="cls-1" transform="translate(1209.04 41.79) rotate(20.28)"> </text><text class="cls-1" transform="translate(1214.8 43.84) rotate(24.41)">s</text><text class="cls-1" transform="matrix(0.86, 0.51, -0.51, 0.86, 1223.67, 47.76)">p</text><text class="cls-1" transform="translate(1234.52 54.27) rotate(35.59)">i</text><text class="cls-1" transform="matrix(0.76, 0.65, -0.65, 0.76, 1239.54, 57.75)">s</text><text class="cls-1" transform="translate(1246.95 64.04) rotate(45.66)">t</text></g><g id="tegning_harer" data-name="tegning harer"><path class="cls-2" d="M202.25,131.34c9.79,30.89,6.83,43.29-.89,45.74s-17.28-6-27.07-36.88-7.84-46.47-.12-48.91S192.46,100.45,202.25,131.34Z"/><path class="cls-3" d="M203.61,151.92c7.95,25.08,6.55,34.83,1.53,36.42s-11.78-5.58-19.72-30.65-7.38-37.42-2.35-39S195.66,126.84,203.61,151.92Z"/><path class="cls-2" d="M258.63,131.34c-9.79,30.89-6.83,43.29.89,45.74s17.28-6,27.07-36.88,7.84-46.47.12-48.91S268.41,100.45,258.63,131.34Z"/><path class="cls-3" d="M257.27,151.92c-7.95,25.08-6.56,34.83-1.53,36.42s11.77-5.58,19.72-30.65,7.37-37.42,2.35-39S265.22,126.84,257.27,151.92Z"/><path class="cls-2" d="M292.35,215.18c0,34.44-27.91,42.36-62.35,42.36s-62.35-7.92-62.35-42.36a62.35,62.35,0,0,1,124.7,0Z"/><path class="cls-4" d="M201.13,207.25c0,3.78-3.06,5.84-6.83,5.84s-6.84-2.06-6.84-5.84a6.84,6.84,0,0,1,13.67,0Z"/><path class="cls-5" d="M194.3,204.5a2.08,2.08,0,1,1-2.08-2.07A2.08,2.08,0,0,1,194.3,204.5Z"/><path class="cls-4" d="M273.42,207.25c0,3.78-3.06,5.84-6.84,5.84s-6.83-2.06-6.83-5.84a6.84,6.84,0,0,1,13.67,0Z"/><path class="cls-5" d="M266.58,204.5a2.08,2.08,0,1,1-2.07-2.07A2.08,2.08,0,0,1,266.58,204.5Z"/><ellipse class="cls-3" cx="188.05" cy="216.47" rx="14.42" ry="3"/><ellipse class="cls-3" cx="269.58" cy="216.47" rx="14.42" ry="3"/><path class="cls-4" d="M238,233.41a10.55,10.55,0,0,1-7.11-3.2,17.37,17.37,0,0,1-8.65,3.18,10,10,0,0,1-9.12-5.07,2,2,0,0,1,3.53-1.89,6,6,0,0,0,5.39,3c4.17-.21,7.72-3.33,7.75-3.36a2,2,0,0,1,3,.31s2.41,3.24,5.51,3.06a4.81,4.81,0,0,0,4-2.78,2,2,0,0,1,2.6-1.08,2,2,0,0,1,1.1,2.58,8.83,8.83,0,0,1-7.48,5.28Z"/><text class="cls-6" transform="translate(20.53 231.49)">#</text><text class="cls-6" transform="translate(322.94 231.49)">=</text><path class="cls-2" d="M804.54,144.35c8.11,25.62,5.66,35.91-.74,37.94s-14.34-5-22.46-30.59-6.5-38.54-.09-40.57S796.42,118.73,804.54,144.35Z"/><path class="cls-3" d="M805.66,161.42c6.59,20.8,5.44,28.89,1.27,30.21s-9.77-4.63-16.36-25.43-6.11-31-2-32.35S799.07,140.62,805.66,161.42Z"/><path class="cls-2" d="M847.82,144.35c-8.12,25.62-5.67,35.91.74,37.94s14.33-5,22.45-30.59,6.5-38.54.09-40.57S855.94,118.73,847.82,144.35Z"/><path class="cls-3" d="M846.69,161.42c-6.59,20.8-5.44,28.89-1.27,30.21s9.77-4.63,16.36-25.43,6.11-31,2-32.35S853.28,140.62,846.69,161.42Z"/><path class="cls-2" d="M869.06,208c0,24.07-19.51,29.6-43.58,29.6S781.9,232.11,781.9,208a43.58,43.58,0,1,1,87.16,0Z"/><path class="cls-4" d="M802.35,201.57c0,3.94-2.55,6.09-5.69,6.09s-5.69-2.15-5.69-6.09,2.55-7.14,5.69-7.14S802.35,197.63,802.35,201.57Z"/><path class="cls-5" d="M796.66,198.7a1.77,1.77,0,1,1-1.73-2.17A2,2,0,0,1,796.66,198.7Z"/><path class="cls-4" d="M862.53,201.57c0,3.94-2.55,6.09-5.69,6.09s-5.69-2.15-5.69-6.09,2.55-7.14,5.69-7.14S862.53,197.63,862.53,201.57Z"/><path class="cls-5" d="M856.84,198.7a1.77,1.77,0,1,1-1.73-2.17A2,2,0,0,1,856.84,198.7Z"/><path class="cls-3" d="M804.06,209.83c0,1.29-5,2.33-11.23,2.33s-11.22-1-11.22-2.33,5-2.34,11.22-2.34S804.06,208.54,804.06,209.83Z"/><path class="cls-3" d="M869.84,209.83c0,1.29-5,2.33-11.22,2.33s-11.22-1-11.22-2.33,5-2.34,11.22-2.34S869.84,208.54,869.84,209.83Z"/><path class="cls-7" d="M808.87,218.86c.12-3.18,3.23-6.06,5.09-6.1,4.82-.09,8.34,3.18,13.61,3.3,4.28.09,7.14-3.37,10-3.33s6.93,2.83,6.93,6c0,6.54-5.07,8.81-19.1,8.81C814.89,227.5,808.63,225.2,808.87,218.86Z"/><path class="cls-8" d="M826.64,235.26c-6.44,0-11.69-4.17-11.69-9.29,0-6.19,7-6.19,11.69-6.19s11.69,0,11.69,6.19C838.33,231.09,833.08,235.26,826.64,235.26Zm0-12.36c-6.57,0-8.57.71-8.57,3.07,0,3.41,3.84,6.18,8.57,6.18s8.57-2.77,8.57-6.18C835.21,223.61,833.21,222.9,826.64,222.9Z"/><path class="cls-9" d="M833.37,222.43c0,3.24-3,5.87-6.67,5.87s-6.68-2.63-6.68-5.87,3-5.88,6.68-5.88S833.37,219.18,833.37,222.43Z"/><path class="cls-2" d="M839,216.29a1.21,1.21,0,1,1-1.21-1.21A1.21,1.21,0,0,1,839,216.29Z"/><path class="cls-2" d="M815.74,215.76a1.21,1.21,0,1,1-1.21-1.21A1.21,1.21,0,0,1,815.74,215.76Z"/><text class="cls-10" transform="translate(900.58 231.49)">-</text><path class="cls-11" d="M1224.38,94.25a5.76,5.76,0,0,1-2.23-2.85,6.83,6.83,0,0,1-.37-3.25,6.68,6.68,0,0,1,1.18-3.1,5.36,5.36,0,0,1,3-2.13,15.31,15.31,0,0,1,.8,3.25,10.1,10.1,0,0,1-.66,5.15A12.82,12.82,0,0,1,1224.38,94.25Z"/><path class="cls-11" d="M1224.1,99.25a17.84,17.84,0,0,1,.54-5.51,27.85,27.85,0,0,1,1.69-4.88,28.7,28.7,0,0,1,6.05-8.61,11.87,11.87,0,0,1,.12,5.64,21.44,21.44,0,0,1-1.62,5,23.12,23.12,0,0,1-2.72,4.51A16,16,0,0,1,1224.1,99.25Z"/><path class="cls-11" d="M1225.87,97.75s-.07,0-.15,0-.09-.15,0-.2l.06-.09.17-.25.31-.37c.21-.24.41-.42.6-.63a13.08,13.08,0,0,1,1.13-1,11.81,11.81,0,0,1,2-1.26,12.13,12.13,0,0,1,2-.72c.77-.2,1.63-.42,3-.85a4.07,4.07,0,0,1-.25,3.7,5.8,5.8,0,0,1-2.61,2.4,6.2,6.2,0,0,1-3.27.55,5.73,5.73,0,0,1-1.63-.44,6.47,6.47,0,0,1-.78-.41l-.38-.25a1.29,1.29,0,0,1-.17-.15.07.07,0,0,1,0,0s0-.15,0-.12S1225.85,97.71,1225.87,97.75Z"/><path class="cls-11" d="M1194.87,118.17s25.4-26.42,31.18-24.85c3.67,1,6.22,10.67,6.33,31.44.11,20.23-6.23,34.1-6.23,34.1Z"/><path class="cls-12" d="M1201.72,133.91s18-30.92,21.66-27.25-3.66,44-7,48.66-14.66-20-14.66-20"/><path class="cls-11" d="M1107.69,96.92A12.73,12.73,0,0,1,1106,94a10.1,10.1,0,0,1-.66-5.15,15.23,15.23,0,0,1,.8-3.26,5.42,5.42,0,0,1,3,2.14,6.79,6.79,0,0,1,1.18,3.1,6.91,6.91,0,0,1-.37,3.24A5.71,5.71,0,0,1,1107.69,96.92Z"/><path class="cls-11" d="M1108,101.92a16.33,16.33,0,0,1-4.06-3.81,23.5,23.5,0,0,1-2.71-4.5,22.09,22.09,0,0,1-1.63-5,12,12,0,0,1,.12-5.64,29.09,29.09,0,0,1,3.52,4.15,28.09,28.09,0,0,1,2.53,4.46,26.56,26.56,0,0,1,1.7,4.88A17.85,17.85,0,0,1,1108,101.92Z"/><path class="cls-11" d="M1106.21,100.42s0-.09,0-.11-.07.09,0,.12a.11.11,0,0,1,0,.06l-.17.14-.38.26a8.46,8.46,0,0,1-.79.41,5.89,5.89,0,0,1-1.62.43,6,6,0,0,1-3.27-.55,5.68,5.68,0,0,1-2.61-2.39,4.06,4.06,0,0,1-.25-3.71c1.33.44,2.19.66,3,.86a11.93,11.93,0,0,1,2,.72,11.81,11.81,0,0,1,2,1.26,13.06,13.06,0,0,1,1.12,1c.19.22.4.39.6.64l.32.37.17.24a.64.64,0,0,1,.06.1c.06.05,0,.2,0,.19A.18.18,0,0,1,1106.21,100.42Z"/><path class="cls-11" d="M1137.2,120.83S1111.81,94.41,1106,96c-3.67,1-6.22,10.67-6.34,31.44-.1,20.23,6.24,34.1,6.24,34.1Z"/><path class="cls-12" d="M1130.36,136.58s-18-30.92-21.67-27.25,3.67,44,7,48.66,14.67-20,14.67-20"/><line class="cls-13" x1="1095.65" y1="177.24" x2="1110.15" y2="182.74"/><line class="cls-13" x1="1095.65" y1="198.84" x2="1110.15" y2="193.34"/><line class="cls-13" x1="1093.44" y1="188.17" x2="1108.94" y2="188.17"/><line class="cls-13" x1="1237.94" y1="177.36" x2="1223.44" y2="182.86"/><line class="cls-13" x1="1237.94" y1="198.97" x2="1223.44" y2="193.47"/><line class="cls-13" x1="1240.15" y1="188.3" x2="1224.64" y2="188.29"/><path class="cls-14" d="M1230.13,174.73c0,35-28.36,41.74-63.34,41.74s-63.33-6.76-63.33-41.74a63.34,63.34,0,0,1,126.67,0Z"/><path class="cls-4" d="M1137.48,171.5c0,3.77-3.06,5.83-6.83,5.83s-6.84-2.06-6.84-5.83a6.84,6.84,0,1,1,13.67,0Z"/><path class="cls-5" d="M1130.65,168.75a2.08,2.08,0,1,1-2.08-2.07A2.08,2.08,0,0,1,1130.65,168.75Z"/><path class="cls-4" d="M1209.77,171.5c0,3.77-3.06,5.83-6.84,5.83s-6.83-2.06-6.83-5.83a6.84,6.84,0,1,1,13.67,0Z"/><path class="cls-5" d="M1202.93,168.75a2.07,2.07,0,1,1-2.07-2.07A2.07,2.07,0,0,1,1202.93,168.75Z"/><ellipse class="cls-3" cx="1123.81" cy="181.74" rx="14.42" ry="3"/><path class="cls-3" d="M1224.19,181.74c0,1.66-6.46,3-14.42,3s-14.42-1.34-14.42-3,6.46-3,14.42-3S1224.19,180.08,1224.19,181.74Z"/><line class="cls-13" x1="1193.41" y1="164.34" x2="1208.31" y2="158.71"/><line class="cls-13" x1="1138.71" y1="164.21" x2="1123.81" y2="158.58"/><path class="cls-2" d="M1025.9,225.6c26.46-2.75,35.95,1.68,36.64,8.3s-7.69,12.91-34.15,15.66-38.67-1.39-39.36-8S999.43,228.36,1025.9,225.6Z"/><path class="cls-3" d="M1042.67,227.92c21.49-2.24,29.1.5,29.55,4.8s-6.44,8.55-27.92,10.79-31.31-.27-31.76-4.57S1021.19,230.16,1042.67,227.92Z"/><path class="cls-2" d="M1035.23,180.27c23.22,13,33.69,12.66,36.94,6.85s-2-14.89-25.18-27.88-36.07-14-39.32-8.19S1012,167.28,1035.23,180.27Z"/><path class="cls-3" d="M1051.56,184.76c18.85,10.55,26.93,11.05,29,7.27s-2.54-10.4-21.39-20.94-28.87-12.13-31-8.35S1032.71,174.22,1051.56,184.76Z"/><path class="cls-2" d="M1108.25,167c27.7,5.7,29.44,29.46,23.73,57.16s-16.69,48.84-44.38,43.13A51.2,51.2,0,0,1,1108.25,167Z"/><line class="cls-15" x1="1091.83" y1="175.33" x2="1099.83" y2="196.09"/><line class="cls-15" x1="1101.79" y1="176.31" x2="1089.87" y2="195.11"/><line class="cls-15" x1="1083.89" y1="235.44" x2="1090.16" y2="256.8"/><line class="cls-15" x1="1093.74" y1="237.24" x2="1080.32" y2="254.99"/><path class="cls-2" d="M1184.27,196.09c38.64,8,46.92,24.47,42.94,43.79s-18.71,34.14-57.35,26.18-56.48-27.74-52.5-47.06S1145.63,188.13,1184.27,196.09Z"/><path class="cls-15" d="M1151.5,186a9.28,9.28,0,0,0,8.37,4.63c5.78-.28,8.52-3.56,8.52-3.56s5.35,3.88,10.26,3.58a7.88,7.88,0,0,0,6.64-4.65"/><line class="cls-16" x1="1154.39" y1="189.05" x2="1154.47" y2="189.1"/><line class="cls-16" x1="1154.55" y1="189.32" x2="1156.17" y2="193.84"/><line class="cls-16" x1="1156.17" y1="193.84" x2="1158.77" y2="191.08"/><line class="cls-16" x1="1176.67" y1="190.98" x2="1179.82" y2="195.01"/><line class="cls-16" x1="1179.82" y1="195.01" x2="1182.56" y2="189.49"/><polyline class="cls-15" points="1122.95 227.95 1118.45 218.85 1124.6 212.38"/><path class="cls-2" d="M522.08,131.34c9.79,30.89,6.83,43.29-.89,45.74s-17.28-6-27.07-36.88-7.84-46.47-.12-48.91S512.29,100.45,522.08,131.34Z"/><path class="cls-3" d="M523.44,151.92C531.39,177,530,186.75,525,188.34s-11.78-5.58-19.72-30.65-7.38-37.42-2.35-39S515.49,126.84,523.44,151.92Z"/><path class="cls-2" d="M578.46,131.34c-9.79,30.89-6.83,43.29.89,45.74s17.28-6,27.07-36.88,7.84-46.47.12-48.91S588.25,100.45,578.46,131.34Z"/><path class="cls-3" d="M577.1,151.92c-8,25.08-6.56,34.83-1.53,36.42s11.78-5.58,19.72-30.65,7.38-37.42,2.35-39S585.05,126.84,577.1,151.92Z"/><path class="cls-2" d="M612.18,215.18c0,34.44-27.91,42.36-62.35,42.36s-62.35-7.92-62.35-42.36a62.35,62.35,0,1,1,124.7,0Z"/><path class="cls-4" d="M521,207.25c0,3.78-3.06,5.84-6.83,5.84s-6.84-2.06-6.84-5.84a6.84,6.84,0,0,1,13.67,0Z"/><path class="cls-5" d="M514.13,204.5a2.08,2.08,0,1,1-2.08-2.07A2.08,2.08,0,0,1,514.13,204.5Z"/><path class="cls-4" d="M593.25,207.25c0,3.78-3.06,5.84-6.84,5.84s-6.83-2.06-6.83-5.84a6.84,6.84,0,0,1,13.67,0Z"/><path class="cls-5" d="M586.41,204.5a2.08,2.08,0,1,1-2.07-2.07A2.08,2.08,0,0,1,586.41,204.5Z"/><ellipse class="cls-3" cx="507.88" cy="216.47" rx="14.42" ry="3"/><path class="cls-3" d="M603.83,216.47c0,1.65-6.45,3-14.42,3s-14.42-1.35-14.42-3,6.46-3,14.42-3S603.83,214.81,603.83,216.47Z"/><path class="cls-4" d="M557.84,233.41a10.57,10.57,0,0,1-7.11-3.2,17.37,17.37,0,0,1-8.65,3.18,10,10,0,0,1-9.12-5.07,2,2,0,0,1,3.53-1.89,6,6,0,0,0,5.39,3c4.17-.21,7.72-3.33,7.75-3.36a2,2,0,0,1,3,.31s2.41,3.24,5.5,3.06a4.81,4.81,0,0,0,4-2.78,2,2,0,0,1,3.71,1.5,8.86,8.86,0,0,1-7.49,5.28Z"/><text class="cls-6" transform="translate(632.65 231.49)">+</text></g></svg>