<svg id="hare" xmlns="http://www.w3.org/2000/svg" viewBox="0 0 126.12 166.57"><defs><style>.cls-1{fill:#efe2c5;}.cls-2{fill:#eab0ac;}.cls-3{fill:#2b2525;}.cls-4{fill:#fff;}.cls-5{fill:none;stroke:#2b2525;stroke-linecap:round;stroke-linejoin:round;stroke-width:4px;}</style></defs><g id="Layer_2" data-name="Layer 2"><path class="cls-1" d="M35.14,40.37c9.78,30.89,6.83,43.3-.9,45.74S17,80.12,7.17,49.23-.66,2.76,7.06.32,25.35,9.49,35.14,40.37Z"/><path class="cls-2" d="M36.49,61C44.44,86,43.05,95.78,38,97.38S26.25,91.79,18.3,66.72,10.93,29.3,16,27.71,28.54,35.87,36.49,61Z"/><path class="cls-1" d="M91.51,40.37c-9.79,30.89-6.83,43.3.89,45.74s17.29-6,27.07-36.88,7.84-46.47.12-48.91S101.3,9.49,91.51,40.37Z"/><path class="cls-2" d="M90.15,61C82.21,86,83.6,95.78,88.62,97.38s11.78-5.59,19.73-30.66,7.37-37.42,2.35-39S98.1,35.87,90.15,61Z"/><path class="cls-1" d="M125.24,124.21c0,34.44-27.92,42.36-62.36,42.36S.53,158.65.53,124.21a62.36,62.36,0,0,1,124.71,0Z"/></g><g id="Layer_3" data-name="Layer 3"><path class="cls-3" d="M34,116.28c0,3.78-3.06,5.84-6.83,5.84s-6.83-2.06-6.83-5.84a6.83,6.83,0,0,1,13.66,0Z"/><circle class="cls-4" cx="25.11" cy="113.53" r="2.07"/><path class="cls-3" d="M106.3,116.28c0,3.78-3.06,5.84-6.83,5.84s-6.84-2.06-6.84-5.84a6.84,6.84,0,0,1,13.67,0Z"/><circle class="cls-4" cx="97.39" cy="113.53" r="2.07"/><ellipse class="cls-2" cx="20.93" cy="125.5" rx="14.42" ry="3"/><ellipse class="cls-2" cx="102.47" cy="125.5" rx="14.42" ry="3"/></g><g id="Layer_4_copy" data-name="Layer 4 copy"><path class="cls-5" d="M47.78,136.41a8,8,0,0,0,7.25,4c5-.25,9-3.88,9-3.88s3,4.15,7.25,3.89a6.82,6.82,0,0,0,5.75-4"/></g></svg>