<svg xmlns="http://www.w3.org/2000/svg" viewBox="0 0 129.37 162.9"><defs><style>.cls-1{fill:#efe2c5;}.cls-2{fill:#eab0ac;}.cls-3{fill:#2b2525;}.cls-4{fill:#fff;}.cls-5{fill:#afb8d3;}.cls-6{fill:none;stroke:#8aa488;stroke-miterlimit:10;stroke-width:4px;}.cls-7{fill:#badbb4;}</style></defs><g id="Layer_5_copy" data-name="Layer 5 copy"><g id="Layer_2_copy" data-name="Layer 2 copy"><path class="cls-1" d="M36.88,43c10.43,32.91,7.28,46.14-1,48.74S17.51,85.39,7.08,52.47-1.27,2.94,7,.34,26.45,10.11,36.88,43Z"/><path class="cls-2" d="M38.33,65c8.46,26.73,7,37.12,1.63,38.82s-12.55-6-21-32.68-7.86-39.87-2.51-41.57S29.86,38.23,38.33,65Z"/><path class="cls-1" d="M92.49,43c-10.43,32.91-7.28,46.14,1,48.74s18.42-6.38,28.85-39.3,8.36-49.53.13-52.13S102.92,10.11,92.49,43Z"/><path class="cls-2" d="M91.05,65c-8.47,26.73-7,37.12-1.64,38.82s12.56-6,21-32.68,7.85-39.87,2.5-41.57S99.52,38.23,91.05,65Z"/><path class="cls-1" d="M119.79,124.86c0,30.93-25.07,38-56,38s-56-7.11-56-38a56,56,0,0,1,112,0Z"/></g><g id="Layer_3_copy" data-name="Layer 3 copy"><path class="cls-3" d="M34.07,116.55c0,5.07-3.27,7.83-7.31,7.83s-7.31-2.76-7.31-7.83,3.27-9.17,7.31-9.17S34.07,111.49,34.07,116.55Z"/><path class="cls-4" d="M26.76,112.86a2.55,2.55,0,0,1-2.22,2.79,2.86,2.86,0,0,1,0-5.57A2.54,2.54,0,0,1,26.76,112.86Z"/><path class="cls-3" d="M111.4,116.55c0,5.07-3.27,7.83-7.31,7.83s-7.31-2.76-7.31-7.83,3.27-9.17,7.31-9.17S111.4,111.49,111.4,116.55Z"/><path class="cls-4" d="M104.09,112.86a2.28,2.28,0,1,1-2.22-2.78A2.55,2.55,0,0,1,104.09,112.86Z"/><ellipse class="cls-2" cx="21.84" cy="127.16" rx="14.42" ry="3"/><ellipse class="cls-2" cx="106.38" cy="127.16" rx="14.42" ry="3"/></g><g id="Layer_20" data-name="Layer 20"><path class="cls-5" d="M42.45,138.76c.15-4.07,4.15-7.78,6.54-7.83,6.19-.11,10.71,4.08,17.48,4.24,5.5.12,9.19-4.32,12.89-4.28s8.91,3.63,8.91,7.66c0,8.41-6.52,11.32-24.55,11.32C50.19,149.87,42.14,146.91,42.45,138.76Z"/><path class="cls-6" d="M78.3,147.9c0,5.49-5.83,9.95-13,9.95s-13-4.46-13-9.95,5.83-6,13-6S78.3,142.41,78.3,147.9Z"/><path class="cls-7" d="M73.93,143.35c0,4.17-3.84,7.55-8.58,7.55s-8.57-3.38-8.57-7.55,3.84-7.54,8.57-7.54S73.93,139.18,73.93,143.35Z"/><path class="cls-1" d="M81.21,135.47a1.56,1.56,0,0,1-3.11,0,1.56,1.56,0,1,1,3.11,0Z"/><path class="cls-1" d="M51.28,134.79a1.56,1.56,0,1,1-1.56-1.56A1.55,1.55,0,0,1,51.28,134.79Z"/></g></g></svg>