<svg xmlns="http://www.w3.org/2000/svg" viewBox="0 0 125.58 166.57"><defs><style>.cls-1{fill:#efe2c5;}.cls-2{fill:#eab0ac;}.cls-3,.cls-4{fill:none;stroke:#2b2525;stroke-linecap:round;stroke-linejoin:round;}.cls-3{stroke-width:6px;}.cls-4{stroke-width:4px;}</style></defs><g id="død_hare" data-name="død hare"><g id="Layer_2_copy_2" data-name="Layer 2 copy 2"><path class="cls-1" d="M34.6,40.37c9.79,30.89,6.83,43.29-.89,45.74s-17.28-6-27.07-36.88S-1.2,2.76,6.53.32,24.82,9.49,34.6,40.37Z"/><path class="cls-2" d="M36,61C43.91,86,42.52,95.78,37.49,97.37S25.72,91.79,17.77,66.72s-7.37-37.42-2.35-39S28,35.87,36,61Z"/><path class="cls-1" d="M91,40.37c-9.79,30.89-6.83,43.29.89,45.74s17.29-6,27.07-36.88,7.84-46.47.12-48.91S100.77,9.49,91,40.37Z"/><path class="cls-2" d="M89.62,61C81.68,86,83.07,95.78,88.09,97.37s11.78-5.58,19.72-30.65,7.38-37.42,2.36-39S97.57,35.87,89.62,61Z"/><path class="cls-1" d="M124.71,124.21c0,34.44-27.92,42.36-62.36,42.36S0,158.65,0,124.21a62.36,62.36,0,0,1,124.71,0Z"/></g><g id="Layer_3_copy_2" data-name="Layer 3 copy 2"><line class="cls-3" x1="18.39" y1="112.25" x2="45.72" y2="129.15"/><line class="cls-3" x1="45.72" y1="112.25" x2="18.39" y2="129.15"/><line class="cls-3" x1="78.99" y1="112.25" x2="106.31" y2="129.15"/><line class="cls-3" x1="106.31" y1="112.25" x2="78.99" y2="129.15"/></g><g id="Layer_4_copy_2" data-name="Layer 4 copy 2"><polyline class="cls-4" points="51.15 152.07 62.35 145.07 74.81 152.07"/></g></g></svg>