<svg xmlns="http://www.w3.org/2000/svg" viewBox="0 0 303.22 200.73"><defs><style>.cls-1{fill:#bbaeab;}.cls-2{fill:#efddd9;}.cls-3{fill:#dac8c4;}.cls-4{fill:#2b2525;}.cls-5{fill:#fff;}.cls-6{fill:#eab0ac;}.cls-7{fill:#afb8d3;}.cls-8{fill:#8aa488;}.cls-9{fill:#badbb4;}.cls-10{fill:#efe2c5;}.cls-11,.cls-12,.cls-13{fill:none;stroke-linecap:round;}.cls-11{stroke:#bbaeab;stroke-width:5px;}.cls-11,.cls-13{stroke-miterlimit:10;}.cls-12,.cls-13{stroke:#2b2525;stroke-width:4px;}.cls-12{stroke-linejoin:round;}</style></defs><g id="baby_gaupe" data-name="baby gaupe"><path class="cls-1" d="M94.41,109.55a4.58,4.58,0,0,1-1.84-2.2,5.66,5.66,0,0,1-.42-2.6,5.48,5.48,0,0,1,.82-2.54,4.28,4.28,0,0,1,2.23-1.83,12.63,12.63,0,0,1,.63,2.57A9.76,9.76,0,0,1,95.9,105a9.6,9.6,0,0,1-.4,2.09A11.14,11.14,0,0,1,94.41,109.55Z"/><path class="cls-1" d="M94.41,113.57a15.25,15.25,0,0,1,.41-4.44,23.35,23.35,0,0,1,1.29-4A25.51,25.51,0,0,1,98,101.42a28.26,28.26,0,0,1,2.62-3.51,9.78,9.78,0,0,1,.15,4.55,18.72,18.72,0,0,1-1.22,4.13,20.37,20.37,0,0,1-2.06,3.74A13.92,13.92,0,0,1,94.41,113.57Z"/><path class="cls-1" d="M95.86,112.28a.22.22,0,0,1-.12,0s0,0,0-.07a.13.13,0,0,1,0-.09l.05-.07.13-.19.25-.3c.17-.19.34-.34.5-.51a11.1,11.1,0,0,1,1-.81,11.81,11.81,0,0,1,1.78-1.1,14.31,14.31,0,0,1,1.75-.73c.64-.22,1.33-.46,2.35-.9a3.41,3.41,0,0,1-.28,3,5.06,5.06,0,0,1-2.14,2,5.45,5.45,0,0,1-2.67.58,5,5,0,0,1-1.36-.24,6.11,6.11,0,0,1-.66-.27l-.33-.17a.78.78,0,0,1-.15-.1s0,0,0,0,0-.12,0-.09S95.84,112.25,95.86,112.28Z"/><path class="cls-1" d="M70.1,130.25s20.64-22.5,25.7-21.53c3.21.61,5.88,8.23,7,24.88,1.06,16.22-3.75,27.67-3.75,27.67Z"/><path class="cls-2" d="M76.75,142.52s14-25.72,17.39-23S93.08,155,90.43,158.93s-13.61-15.28-13.61-15.28"/><path class="cls-1" d="M9.54,116.74a11.63,11.63,0,0,1-1.37-2.31,9.86,9.86,0,0,1-.64-2.05,9.49,9.49,0,0,1-.19-2.1,12.22,12.22,0,0,1,.3-2.64,4.34,4.34,0,0,1,2.45,1.57,5.61,5.61,0,0,1,1.13,2.45,5.84,5.84,0,0,1-.1,2.66A4.61,4.61,0,0,1,9.54,116.74Z"/><path class="cls-1" d="M10,120.78a13.86,13.86,0,0,1-3.5-2.88A20.61,20.61,0,0,1,4,114.39a19.21,19.21,0,0,1-1.74-4,9.88,9.88,0,0,1-.43-4.59A30.28,30.28,0,0,1,4.87,109a27.21,27.21,0,0,1,2.38,3.49,24.28,24.28,0,0,1,1.8,3.86A15.91,15.91,0,0,1,10,120.78Z"/><path class="cls-1" d="M8.41,119.66s0-.08,0-.09-.05.09,0,.1,0,0,0,0l-.14.12-.31.21c-.21.14-.42.23-.64.35a5.52,5.52,0,0,1-1.34.39,5.66,5.66,0,0,1-2.76-.25A5.19,5.19,0,0,1,.8,118.8a3.41,3.41,0,0,1-.69-3c1.07.33,1.8.48,2.47.64a14.49,14.49,0,0,1,1.88.53,12,12,0,0,1,1.94.88,11.16,11.16,0,0,1,1.06.69c.19.15.38.27.57.45l.29.26.16.18.06.06a.24.24,0,0,1,0,.09s0,.07,0,.07S8.44,119.66,8.41,119.66Z"/><path class="cls-1" d="M36.71,134.58S13.05,114.5,8,116.08c-3.18,1-5,9-4.06,25.81.88,16.4,7.14,27.32,7.14,27.32Z"/><path class="cls-2" d="M31.44,147.7S14.08,123.58,11,126.75s5.36,35.47,8.52,39.07,12-17,12-17"/><path class="cls-1" d="M18.2,180.53a2.53,2.53,0,0,1-.8-.13L7,176.88a2.5,2.5,0,1,1,1.6-4.74L19,175.67a2.5,2.5,0,0,1-.81,4.86Z"/><path class="cls-1" d="M8.81,193.23a2.5,2.5,0,0,1-1.08-4.76l9.87-4.73a2.5,2.5,0,0,1,2.16,4.51L9.89,193A2.47,2.47,0,0,1,8.81,193.23Z"/><path class="cls-1" d="M6.79,185.31a2.5,2.5,0,0,1-.15-5l10.82-.65a2.5,2.5,0,0,1,.3,5l-10.82.65Z"/><path class="cls-1" d="M97.25,175.91a2.5,2.5,0,0,1-1.08-4.75l9.87-4.73a2.5,2.5,0,1,1,2.16,4.5l-9.87,4.74A2.57,2.57,0,0,1,97.25,175.91Z"/><path class="cls-1" d="M108.09,187.4a2.45,2.45,0,0,1-.8-.14l-10.37-3.52A2.5,2.5,0,0,1,98.53,179l10.37,3.52a2.5,2.5,0,0,1-.81,4.87Z"/><path class="cls-1" d="M98.33,179.94a2.5,2.5,0,0,1-.14-5L109,174.3a2.5,2.5,0,1,1,.29,5l-10.82.64Z"/><path class="cls-3" d="M100.28,168.55c1.47,24.51-18.12,30.43-42.63,31.89S13,198.35,11.53,173.84a44.45,44.45,0,0,1,88.75-5.29Z"/><path class="cls-4" d="M37.7,166.62c.24,4-1.93,6.36-4.76,6.53s-5.26-1.89-5.5-5.92,1.86-7.44,4.69-7.61S37.46,162.58,37.7,166.62Z"/><path class="cls-5" d="M35.51,163.8c.07,1.22-.57,2.26-1.43,2.31s-1.61-.9-1.68-2.13.56-2.25,1.42-2.3S35.44,162.58,35.51,163.8Z"/><path class="cls-4" d="M92,164.21c.24,4-1.93,6.29-4.76,6.46s-5.26-1.87-5.5-5.85,1.87-7.34,4.7-7.51S91.76,160.23,92,164.21Z"/><path class="cls-5" d="M89.81,161.43c.07,1.21-.57,2.23-1.43,2.28s-1.61-.89-1.68-2.09.56-2.23,1.42-2.28S89.74,160.22,89.81,161.43Z"/><path class="cls-6" d="M34.82,178.27c.08,1.25-4.71,2.54-10.68,2.9s-10.89-.36-11-1.6,4.71-2.54,10.69-2.9S34.75,177,34.82,178.27Z"/><path class="cls-6" d="M100.31,173.23c.07,1.24-4.24,2.51-9.63,2.83s-9.83-.42-9.9-1.67,4.24-2.51,9.63-2.83S100.23,172,100.31,173.23Z"/><path class="cls-7" d="M45.31,178.2c-.07-3.06,2.77-6,4.56-6.17,4.64-.36,8.22,2.59,13.31,2.4,4.13-.16,6.7-3.66,9.48-3.79s6.85,2.33,7,5.35c.38,6.31-4.39,8.79-17.92,9.6C51.62,186.19,45.45,184.33,45.31,178.2Z"/><path class="cls-8" d="M63.39,193c-6.21.37-11.51-3.35-11.8-8.29-.36-6,6.42-6.37,10.91-6.64s11.27-.67,11.63,5.3C74.42,188.31,69.61,192.63,63.39,193Zm-.71-11.92c-6.34.38-8.23,1.18-8.09,3.45.2,3.29,4.06,5.74,8.62,5.47s8.11-3.17,7.91-6.46C71,181.28,69,180.7,62.68,181.08Z"/><path class="cls-9" d="M69.14,180.24c.19,3.13-2.54,5.83-6.1,6s-6.58-2.16-6.77-5.28,2.54-5.84,6.1-6S69,177.11,69.14,180.24Z"/><path class="cls-10" d="M74.26,174a1.18,1.18,0,0,1-1.1,1.24,1.17,1.17,0,0,1-.14-2.34A1.19,1.19,0,0,1,74.26,174Z"/><path class="cls-10" d="M51.76,174.82a1.17,1.17,0,1,1-1.24-1.09A1.17,1.17,0,0,1,51.76,174.82Z"/></g><g id="mamma_gaupe" data-name="mamma gaupe"><g id="Layer_9_copy_5" data-name="Layer 9 copy 5"><path class="cls-1" d="M284.67,14a5.71,5.71,0,0,1-2.23-2.85,7,7,0,0,1-.38-3.25,6.69,6.69,0,0,1,1.19-3.1,5.33,5.33,0,0,1,3-2.13,14.72,14.72,0,0,1,.8,3.25,10.1,10.1,0,0,1-.66,5.15A12.37,12.37,0,0,1,284.67,14Z"/><path class="cls-1" d="M284.39,19a18.06,18.06,0,0,1,.53-5.5,27.7,27.7,0,0,1,1.7-4.89,29.37,29.37,0,0,1,2.53-4.46A29.75,29.75,0,0,1,292.67,0a11.87,11.87,0,0,1,.12,5.64,21.44,21.44,0,0,1-1.62,5.05,23.12,23.12,0,0,1-2.72,4.51A16.12,16.12,0,0,1,284.39,19Z"/><path class="cls-1" d="M286.15,17.5s-.07.05-.15,0-.08-.15,0-.2l.07-.09.17-.25.31-.37c.2-.24.41-.42.6-.63a11.74,11.74,0,0,1,1.13-1,11.1,11.1,0,0,1,2-1.26,11.82,11.82,0,0,1,2-.72c.76-.2,1.62-.42,3-.85a4.1,4.1,0,0,1-.25,3.7,5.85,5.85,0,0,1-2.61,2.4,6.24,6.24,0,0,1-3.27.55,6,6,0,0,1-1.63-.43,8.56,8.56,0,0,1-.79-.42l-.37-.25a1.29,1.29,0,0,1-.17-.15s0,0,0-.05,0-.15,0-.12S286.14,17.46,286.15,17.5Z"/><path class="cls-1" d="M255.16,37.92s25.4-26.42,31.18-24.85c3.66,1,6.22,10.67,6.33,31.44.11,20.23-6.24,34.1-6.24,34.1Z"/><path class="cls-2" d="M262,53.66s18-30.92,21.67-27.25-3.67,44-7,48.66-14.67-20-14.67-20"/><path class="cls-1" d="M168,16.67a12.37,12.37,0,0,1-1.68-2.93,10.1,10.1,0,0,1-.66-5.15,14.12,14.12,0,0,1,.8-3.26,5.45,5.45,0,0,1,3,2.14,6.79,6.79,0,0,1,1.18,3.1,6.92,6.92,0,0,1-.38,3.24A5.69,5.69,0,0,1,168,16.67Z"/><path class="cls-1" d="M168.26,21.67a16,16,0,0,1-4.06-3.81,22.75,22.75,0,0,1-2.72-4.5,21.44,21.44,0,0,1-1.62-5A11.87,11.87,0,0,1,160,2.67a29.75,29.75,0,0,1,3.52,4.15A28.89,28.89,0,0,1,166,11.28a27.6,27.6,0,0,1,1.7,4.88A18.16,18.16,0,0,1,168.26,21.67Z"/><path class="cls-1" d="M166.5,20.17s0-.09,0-.11-.07.09,0,.13,0,0,0,0a1.27,1.27,0,0,1-.17.14l-.37.26a6.59,6.59,0,0,1-.79.41,5.62,5.62,0,0,1-1.63.43,6,6,0,0,1-3.27-.55,5.78,5.78,0,0,1-2.61-2.39,4.12,4.12,0,0,1-.25-3.71c1.34.44,2.19.66,3,.86a12.13,12.13,0,0,1,2,.72,11.44,11.44,0,0,1,2,1.26,13.11,13.11,0,0,1,1.13,1c.19.22.4.4.6.64l.31.37.17.24a.64.64,0,0,1,.06.1c.06.05,0,.2,0,.2S166.54,20.18,166.5,20.17Z"/><path class="cls-1" d="M197.49,40.59s-25.4-26.42-31.18-24.85c-3.66,1-6.22,10.67-6.33,31.44-.11,20.23,6.24,34.1,6.24,34.1Z"/><path class="cls-2" d="M190.65,56.33s-18-30.92-21.67-27.25,3.67,44,7,48.66,14.67-20,14.67-20"/><line class="cls-11" x1="155.93" y1="97.11" x2="170.43" y2="102.61"/><line class="cls-11" x1="155.93" y1="118.72" x2="170.43" y2="113.22"/><line class="cls-11" x1="153.72" y1="108.05" x2="169.23" y2="108.04"/><line class="cls-11" x1="298.22" y1="97.24" x2="283.72" y2="102.74"/><line class="cls-11" x1="298.22" y1="118.85" x2="283.72" y2="113.35"/><line class="cls-11" x1="300.43" y1="108.18" x2="284.93" y2="108.17"/><path class="cls-3" d="M290.41,94.48c0,35-28.35,41.74-63.33,41.74s-63.33-6.76-63.33-41.74a63.33,63.33,0,0,1,126.66,0Z"/><path class="cls-6" d="M196.4,105c0,1.66-6.45,3-14.42,3s-14.42-1.34-14.42-3,6.46-3,14.42-3S196.4,103.32,196.4,105Z"/><path class="cls-6" d="M282.34,104.38c.07,1.66-6.32,3.27-14.28,3.6s-14.46-.75-14.53-2.4,6.32-3.27,14.28-3.6S282.28,102.73,282.34,104.38Z"/><path class="cls-10" d="M130.07,134.16c16.1-1.79,21.89.87,22.34,4.89s-4.62,7.89-20.72,9.68-23.54-.69-24-4.71S114,135.94,130.07,134.16Z"/><path class="cls-6" d="M140.29,135.5c13.07-1.45,17.72.18,18,2.8s-3.88,5.23-17,6.68-19.06,0-19.35-2.65S127.23,137,140.29,135.5Z"/><path class="cls-10" d="M135.57,106.52c14.18,7.81,20.55,7.57,22.51,4s-1.26-9.05-15.44-16.86-22-8.37-24-4.83S121.38,98.71,135.57,106.52Z"/><path class="cls-6" d="M145.52,109.19c11.52,6.34,16.44,6.61,17.71,4.3s-1.59-6.31-13.11-12.65-17.62-7.26-18.89-5S134,102.85,145.52,109.19Z"/><path class="cls-10" d="M180,98.16c16.88,3.36,18,17.81,14.68,34.69s-10,29.8-26.84,26.44A31.16,31.16,0,1,1,180,98.16Z"/><path class="cls-4" d="M175.35,117a1.22,1.22,0,0,1-1.53-.71l-5-12.6a1.22,1.22,0,0,1,.69-1.58,1.24,1.24,0,0,1,1.58.68l5,12.61a1.22,1.22,0,0,1-.68,1.58Z"/><path class="cls-4" d="M169.29,116.48a1.2,1.2,0,0,1-1-.12,1.23,1.23,0,0,1-.39-1.68L175,103.19a1.22,1.22,0,0,1,2.07,1.29L169.92,116A1.2,1.2,0,0,1,169.29,116.48Z"/><path class="cls-4" d="M169.72,154l-.05,0a1.23,1.23,0,0,1-1.52-.82l-3.9-13a1.22,1.22,0,0,1,2.33-.7l3.9,13A1.21,1.21,0,0,1,169.72,154Z"/><path class="cls-4" d="M163.73,153a1.22,1.22,0,0,1-1.39-1.88l8.1-10.86a1.22,1.22,0,1,1,1.95,1.45l-8.09,10.86A1.19,1.19,0,0,1,163.73,153Z"/><path class="cls-10" d="M226.34,115.53c23.55,4.68,28.66,14.7,26.32,26.48s-11.24,20.85-34.8,16.17-34.49-16.65-32.15-28.43S202.79,110.85,226.34,115.53Z"/><path class="cls-12" d="M202.6,111.53a9.28,9.28,0,0,0,8.37,4.63c5.78-.29,8.52-3.57,8.52-3.57s5.35,3.88,10.26,3.58a7.88,7.88,0,0,0,6.64-4.64"/><path class="cls-4" d="M193,92.66c0,3.77-3.06,5.83-6.83,5.83s-6.84-2.06-6.84-5.83a6.84,6.84,0,1,1,13.67,0Z"/><path class="cls-5" d="M186.15,89.91a2.08,2.08,0,1,1-2.08-2.08A2.08,2.08,0,0,1,186.15,89.91Z"/><path class="cls-4" d="M265.27,92.66c0,3.77-3.06,5.83-6.84,5.83s-6.83-2.06-6.83-5.83a6.84,6.84,0,1,1,13.67,0Z"/><path class="cls-5" d="M258.43,89.91a2.08,2.08,0,1,1-2.07-2.08A2.07,2.07,0,0,1,258.43,89.91Z"/><line class="cls-13" x1="205.49" y1="114.63" x2="205.57" y2="114.68"/><line class="cls-13" x1="205.65" y1="114.89" x2="207.27" y2="119.42"/><line class="cls-13" x1="207.27" y1="119.42" x2="209.87" y2="116.66"/><line class="cls-13" x1="227.77" y1="116.56" x2="230.92" y2="120.58"/><line class="cls-13" x1="230.92" y1="120.58" x2="233.66" y2="115.06"/><line class="cls-11" x1="250.92" y1="81.75" x2="261.79" y2="80.81"/><line class="cls-11" x1="191.58" y1="81.75" x2="181.89" y2="81.17"/></g></g></svg>