<svg xmlns="http://www.w3.org/2000/svg" viewBox="0 0 153.16 135.05"><defs><style>.cls-1{fill:#bbaeab;}.cls-2{fill:#efddd9;}.cls-3,.cls-5,.cls-8{fill:none;stroke-linecap:round;}.cls-3{stroke:#bbaeab;stroke-width:5px;}.cls-3,.cls-8{stroke-miterlimit:10;}.cls-4{fill:#dac8c4;}.cls-5,.cls-8{stroke:#2b2525;stroke-width:4px;}.cls-5{stroke-linejoin:round;}.cls-6{fill:#2b2525;}.cls-7{fill:#fff;}.cls-9{fill:#eab0ac;}</style></defs><g id="gaupe"><g id="Layer_9" data-name="Layer 9"><path class="cls-1" d="M133.67,12.83A5.73,5.73,0,0,1,131.43,10a6.94,6.94,0,0,1-.37-3.25,6.79,6.79,0,0,1,1.18-3.1,5.36,5.36,0,0,1,3-2.13,15.31,15.31,0,0,1,.8,3.25,10.1,10.1,0,0,1-.66,5.15A13.11,13.11,0,0,1,133.67,12.83Z"/><path class="cls-1" d="M133.39,17.83a17.75,17.75,0,0,1,.53-5.5,26.92,26.92,0,0,1,1.7-4.89A28.54,28.54,0,0,1,138.15,3a29.09,29.09,0,0,1,3.52-4.15,12,12,0,0,1,.12,5.64,21.93,21.93,0,0,1-1.63,5.05A23.57,23.57,0,0,1,137.45,14,16.29,16.29,0,0,1,133.39,17.83Z"/><path class="cls-1" d="M135.15,16.33s-.07.05-.15,0-.09-.15,0-.2l.06-.09.17-.25.32-.37c.2-.24.4-.42.6-.63a11.7,11.7,0,0,1,1.12-1,11.12,11.12,0,0,1,2-1.25,10.44,10.44,0,0,1,2-.72c.76-.21,1.62-.43,3-.86a4.06,4.06,0,0,1-.25,3.71,5.73,5.73,0,0,1-2.61,2.39,6.2,6.2,0,0,1-3.27.55,5.89,5.89,0,0,1-1.62-.43,8.56,8.56,0,0,1-.79-.42l-.38-.25-.17-.15a.07.07,0,0,1,0,0s0-.15,0-.12S135.14,16.29,135.15,16.33Z"/><path class="cls-1" d="M104.16,36.75s25.39-26.42,31.17-24.84c3.67,1,6.22,10.66,6.34,31.43.1,20.23-6.24,34.1-6.24,34.1Z"/><path class="cls-2" d="M111,52.49s18-30.92,21.67-27.25-3.67,44-7,48.67-14.67-20-14.67-20"/><path class="cls-1" d="M17,15.5a12.82,12.82,0,0,1-1.69-2.93,10.1,10.1,0,0,1-.66-5.15,15.23,15.23,0,0,1,.8-3.26,5.42,5.42,0,0,1,3,2.14,7,7,0,0,1,.81,6.35A5.76,5.76,0,0,1,17,15.5Z"/><path class="cls-1" d="M17.26,20.5a16,16,0,0,1-4.06-3.81,22.75,22.75,0,0,1-2.72-4.5,21.44,21.44,0,0,1-1.62-5A11.75,11.75,0,0,1,9,1.5a29.65,29.65,0,0,1,3.51,4.15A29,29,0,0,1,15,10.11,28.43,28.43,0,0,1,16.73,15,18.48,18.48,0,0,1,17.26,20.5Z"/><path class="cls-1" d="M15.49,19s0-.09,0-.11-.07.09,0,.13a.07.07,0,0,1,0,.05l-.17.15-.38.25a6.47,6.47,0,0,1-.78.41,5.7,5.7,0,0,1-1.63.43,6,6,0,0,1-3.27-.55,5.73,5.73,0,0,1-2.61-2.39,4.06,4.06,0,0,1-.25-3.71c1.33.44,2.19.66,3,.86a12.13,12.13,0,0,1,2,.72,11.81,11.81,0,0,1,2,1.26,14.81,14.81,0,0,1,1.13,1c.19.22.39.4.6.64l.31.37.17.24.06.1c.06.05,0,.21,0,.2S15.54,19,15.49,19Z"/><path class="cls-1" d="M46.49,39.42S21.09,13,15.31,14.57C11.64,15.57,9.09,25.24,9,46c-.11,20.23,6.23,34.1,6.23,34.1Z"/><path class="cls-2" d="M39.64,55.16S21.64,24.24,18,27.91s3.66,44,7,48.66,14.66-20,14.66-20"/><line class="cls-3" x1="4.93" y1="95.82" x2="19.43" y2="101.32"/><line class="cls-3" x1="4.93" y1="117.43" x2="19.43" y2="111.93"/><line class="cls-3" x1="2.72" y1="106.75" x2="18.23" y2="106.75"/><line class="cls-3" x1="147.22" y1="95.94" x2="132.72" y2="101.44"/><line class="cls-3" x1="147.22" y1="117.55" x2="132.72" y2="112.05"/><line class="cls-3" x1="149.43" y1="106.88" x2="133.92" y2="106.87"/><path class="cls-4" d="M139.41,93.31c0,35-28.36,41.74-63.34,41.74s-63.33-6.76-63.33-41.74a63.34,63.34,0,0,1,126.67,0Z"/><path class="cls-5" d="M59.18,104.35A9.3,9.3,0,0,0,67.55,109c5.78-.29,8.52-3.57,8.52-3.57s5.35,3.88,10.26,3.58A7.88,7.88,0,0,0,93,104.35"/><path class="cls-6" d="M46.77,90.08c0,3.77-3.06,5.84-6.84,5.84s-6.83-2.07-6.83-5.84a6.84,6.84,0,0,1,13.67,0Z"/><path class="cls-7" d="M39.93,87.33a2.08,2.08,0,1,1-2.07-2.07A2.08,2.08,0,0,1,39.93,87.33Z"/><path class="cls-6" d="M119.05,90.08c0,3.77-3.06,5.84-6.83,5.84s-6.84-2.07-6.84-5.84a6.84,6.84,0,0,1,13.67,0Z"/><path class="cls-7" d="M112.22,87.33a2.08,2.08,0,1,1-2.08-2.07A2.08,2.08,0,0,1,112.22,87.33Z"/><line class="cls-8" x1="62.07" y1="107.46" x2="62.15" y2="107.51"/><line class="cls-8" x1="62.23" y1="107.72" x2="63.85" y2="112.24"/><line class="cls-8" x1="63.85" y1="112.24" x2="66.45" y2="109.49"/><line class="cls-8" x1="84.35" y1="109.38" x2="87.51" y2="113.41"/><line class="cls-8" x1="87.51" y1="113.41" x2="90.24" y2="107.89"/><path class="cls-9" d="M47.52,100.32c0,1.66-6.46,3-14.42,3s-14.42-1.34-14.42-3,6.45-3,14.42-3S47.52,98.67,47.52,100.32Z"/><ellipse class="cls-9" cx="119.05" cy="100.32" rx="14.42" ry="3"/><line class="cls-3" x1="102.69" y1="82.93" x2="117.59" y2="77.29"/><line class="cls-3" x1="47.99" y1="82.79" x2="33.1" y2="77.16"/></g></g></svg>