<svg xmlns="http://www.w3.org/2000/svg" viewBox="0 0 253.84 188.01"><defs><style>.cls-1{fill:#bbaeab;}.cls-2{fill:#efddd9;}.cls-10,.cls-3,.cls-9{fill:none;stroke-linecap:round;}.cls-3{stroke:#bbaeab;stroke-width:5px;}.cls-10,.cls-3{stroke-miterlimit:10;}.cls-4{fill:#dac8c4;}.cls-5{fill:#2b2525;}.cls-6{fill:#fff;}.cls-7{fill:#eab0ac;}.cls-8{fill:#efe2c5;}.cls-10,.cls-9{stroke:#2b2525;stroke-width:4px;}.cls-9{stroke-linejoin:round;}</style></defs><g id="drept_hare" data-name="drept hare"><g id="Layer_6_copy" data-name="Layer 6 copy"><path class="cls-1" d="M235.38,14a5.76,5.76,0,0,1-2.23-2.85,6.81,6.81,0,0,1-.37-3.25A6.57,6.57,0,0,1,234,4.8a5.4,5.4,0,0,1,3-2.13,15.31,15.31,0,0,1,.8,3.25,10.1,10.1,0,0,1-.66,5.15A12.61,12.61,0,0,1,235.38,14Z"/><path class="cls-1" d="M235.1,19a18.38,18.38,0,0,1,.53-5.5,28.19,28.19,0,0,1,4.24-9.35A29.65,29.65,0,0,1,243.38,0a11.87,11.87,0,0,1,.12,5.64,21.44,21.44,0,0,1-1.62,5.05,23.12,23.12,0,0,1-2.72,4.51A16,16,0,0,1,235.1,19Z"/><path class="cls-1" d="M236.86,17.5s-.07.05-.14,0-.09-.15,0-.2l.06-.09.17-.25.31-.37c.21-.24.41-.42.6-.63A13.08,13.08,0,0,1,239,15a11.12,11.12,0,0,1,2-1.25,10.58,10.58,0,0,1,2-.72c.77-.21,1.63-.43,3-.86a4.09,4.09,0,0,1-.25,3.71,5.83,5.83,0,0,1-2.61,2.39,6.2,6.2,0,0,1-3.27.55,6.05,6.05,0,0,1-1.63-.43,8.4,8.4,0,0,1-.78-.42l-.38-.25a1.29,1.29,0,0,1-.17-.15.07.07,0,0,1,0-.05s0-.15,0-.12S236.85,17.46,236.86,17.5Z"/><path class="cls-1" d="M205.87,37.92s25.4-26.42,31.18-24.84c3.67,1,6.22,10.66,6.33,31.43.11,20.23-6.23,34.1-6.23,34.1Z"/><path class="cls-2" d="M212.72,53.66s18-30.92,21.66-27.25-3.66,44-7,48.67-14.66-20-14.66-20"/><path class="cls-1" d="M118.69,16.67A12.73,12.73,0,0,1,117,13.74a10.1,10.1,0,0,1-.66-5.15,15.23,15.23,0,0,1,.8-3.26,5.42,5.42,0,0,1,3,2.14,6.79,6.79,0,0,1,1.18,3.1,6.91,6.91,0,0,1-.37,3.24A5.71,5.71,0,0,1,118.69,16.67Z"/><path class="cls-1" d="M119,21.67a16.48,16.48,0,0,1-4.06-3.8,23.57,23.57,0,0,1-2.71-4.51,21.93,21.93,0,0,1-1.63-5,12,12,0,0,1,.12-5.64,29.09,29.09,0,0,1,3.52,4.15,28.09,28.09,0,0,1,2.53,4.46,26.82,26.82,0,0,1,1.7,4.88A17.85,17.85,0,0,1,119,21.67Z"/><path class="cls-1" d="M117.21,20.17s0-.09,0-.11-.07.09,0,.13a.09.09,0,0,1,0,0l-.17.14-.38.26a6.59,6.59,0,0,1-.79.41,5.56,5.56,0,0,1-1.62.43,6,6,0,0,1-3.27-.55,5.68,5.68,0,0,1-2.61-2.39,4.06,4.06,0,0,1-.25-3.71c1.33.44,2.19.66,3,.86a11.93,11.93,0,0,1,2,.72,11.39,11.39,0,0,1,2,1.26,13.11,13.11,0,0,1,1.13,1c.19.22.4.4.6.64l.32.37.17.24.06.1c.06.05,0,.21,0,.2A.22.22,0,0,1,117.21,20.17Z"/><path class="cls-1" d="M148.2,40.59S122.81,14.17,117,15.74c-3.67,1-6.23,10.67-6.34,31.44-.1,20.23,6.24,34.1,6.24,34.1Z"/><path class="cls-2" d="M141.36,56.33s-18-30.92-21.67-27.25,3.67,44,7,48.66,14.67-20,14.67-20"/><line class="cls-3" x1="106.65" y1="96.99" x2="121.15" y2="102.49"/><line class="cls-3" x1="106.65" y1="118.6" x2="121.15" y2="113.1"/><line class="cls-3" x1="104.44" y1="107.92" x2="119.94" y2="107.92"/><line class="cls-3" x1="248.94" y1="97.11" x2="234.44" y2="102.61"/><line class="cls-3" x1="248.94" y1="118.72" x2="234.44" y2="113.22"/><line class="cls-3" x1="251.15" y1="108.05" x2="235.64" y2="108.04"/><path class="cls-4" d="M241.12,94.48c0,35-28.35,41.74-63.33,41.74s-63.33-6.76-63.33-41.74a63.33,63.33,0,0,1,126.66,0Z"/><path class="cls-5" d="M148.48,91.25c0,3.78-3.06,5.84-6.83,5.84s-6.83-2.06-6.83-5.84a6.83,6.83,0,1,1,13.66,0Z"/><path class="cls-6" d="M141.65,88.5a2.08,2.08,0,1,1-2.08-2.07A2.08,2.08,0,0,1,141.65,88.5Z"/><path class="cls-5" d="M220.77,91.25c0,3.78-3.06,5.84-6.84,5.84S207.1,95,207.1,91.25a6.84,6.84,0,0,1,13.67,0Z"/><path class="cls-6" d="M213.93,88.5a2.08,2.08,0,1,1-2.07-2.07A2.07,2.07,0,0,1,213.93,88.5Z"/></g><g id="Layer_8_copy" data-name="Layer 8 copy"><path class="cls-7" d="M149.24,101.49c0,1.66-6.46,3-14.43,3s-14.42-1.34-14.42-3,6.46-3,14.42-3S149.24,99.84,149.24,101.49Z"/><ellipse class="cls-7" cx="220.77" cy="101.49" rx="14.42" ry="3"/><g id="Layer_9_copy" data-name="Layer 9 copy"><line class="cls-3" x1="204.41" y1="84.1" x2="219.31" y2="78.46"/><line class="cls-3" x1="149.71" y1="83.96" x2="134.82" y2="78.33"/></g></g><g id="Layer_7_copy" data-name="Layer 7 copy"><path class="cls-8" d="M36.9,145.36c26.46-2.76,35.95,1.67,36.63,8.29s-7.68,12.91-34.14,15.66S.72,167.92,0,161.3,10.43,148.11,36.9,145.36Z"/><path class="cls-7" d="M53.67,147.67c21.49-2.23,29.1.5,29.55,4.8S76.78,161,55.29,163.26,24,163,23.54,158.69,32.19,149.91,53.67,147.67Z"/><path class="cls-8" d="M46.23,100c23.22,13,33.69,12.66,36.94,6.86S81.21,92,58,79,21.92,65,18.67,70.8,23,87,46.23,100Z"/><path class="cls-7" d="M62.56,104.51c18.85,10.55,26.93,11,29,7.27s-2.54-10.39-21.39-20.94-28.87-12.13-31-8.35S43.71,94,62.56,104.51Z"/><path class="cls-8" d="M119.25,86.78c27.7,5.7,29.44,29.47,23.74,57.16s-16.7,48.84-44.4,43.13A51.2,51.2,0,0,1,119.25,86.78Z"/><line class="cls-9" x1="102.83" y1="95.08" x2="110.83" y2="115.85"/><line class="cls-9" x1="112.79" y1="96.06" x2="100.87" y2="114.86"/><line class="cls-9" x1="94.89" y1="155.19" x2="101.16" y2="176.55"/><line class="cls-9" x1="104.74" y1="156.99" x2="91.32" y2="174.75"/><path class="cls-8" d="M195.27,115.84c38.64,8,46.92,24.47,42.94,43.8s-18.71,34.13-57.35,26.17-56.48-27.74-52.5-47.06S156.63,107.88,195.27,115.84Z"/><path class="cls-9" d="M162.5,105.7a9.3,9.3,0,0,0,8.37,4.64c5.78-.29,8.52-3.57,8.52-3.57s5.35,3.88,10.26,3.58a7.88,7.88,0,0,0,6.64-4.65"/><line class="cls-10" x1="165.39" y1="108.8" x2="165.47" y2="108.86"/><line class="cls-10" x1="165.55" y1="109.07" x2="167.17" y2="113.59"/><line class="cls-10" x1="167.17" y1="113.59" x2="169.77" y2="110.84"/><line class="cls-10" x1="187.67" y1="110.73" x2="190.82" y2="114.76"/><line class="cls-10" x1="190.82" y1="114.76" x2="193.56" y2="109.24"/><polyline class="cls-9" points="133.95 147.7 129.45 138.6 135.6 132.14"/></g></g></svg>