<svg xmlns="http://www.w3.org/2000/svg" viewBox="0 0 142.01 132.74"><defs><style>.cls-1{fill:#bbaeab;}.cls-2{fill:#efddd9;}.cls-11,.cls-3,.cls-5,.cls-8{fill:none;}.cls-3{stroke:#bbaeab;stroke-width:5px;}.cls-3,.cls-5,.cls-8{stroke-linecap:round;}.cls-11,.cls-3,.cls-8{stroke-miterlimit:10;}.cls-4{fill:#dac8c4;}.cls-5,.cls-8{stroke:#2b2525;}.cls-5{stroke-linejoin:round;}.cls-11,.cls-5,.cls-8{stroke-width:4px;}.cls-6{fill:#2b2525;}.cls-7{fill:#fff;}.cls-9{fill:#eab0ac;}.cls-10{fill:#afb8d3;}.cls-11{stroke:#8aa488;}.cls-12{fill:#badbb4;}.cls-13{fill:#efe2c5;}</style></defs><g id="baby_gaupe_copy" data-name="baby gaupe copy"><g id="Layer_6_copy_4" data-name="Layer 6 copy 4"><path class="cls-1" d="M127.65,15a6.06,6.06,0,0,1-2.27-3.06A7.38,7.38,0,0,1,125,8.42a7.3,7.3,0,0,1,1.28-3.31,5.74,5.74,0,0,1,3.11-2.26,17.19,17.19,0,0,1,.64,3.46A12.67,12.67,0,0,1,130,9.08a12.1,12.1,0,0,1-.69,2.74A14.26,14.26,0,0,1,127.65,15Z"/><path class="cls-1" d="M127.33,20.3a20.62,20.62,0,0,1,.89-5.86,32.73,32.73,0,0,1,2-5.21,33.89,33.89,0,0,1,2.84-4.77A37.41,37.41,0,0,1,136.85,0a13.08,13.08,0,0,1-.17,6.05,24.71,24.71,0,0,1-1.94,5.39,27.16,27.16,0,0,1-3,4.8A18.14,18.14,0,0,1,127.33,20.3Z"/><path class="cls-1" d="M129.35,18.7a.22.22,0,0,1-.15,0,.11.11,0,0,1-.06-.09.16.16,0,0,1,0-.12l.07-.1.19-.24.36-.38c.24-.24.47-.42.7-.64.45-.38.9-.7,1.32-1a16.09,16.09,0,0,1,2.45-1.32,19.78,19.78,0,0,1,2.39-.83c.86-.25,1.8-.5,3.19-1a4.5,4.5,0,0,1-.62,4,6.61,6.61,0,0,1-3,2.45,7.19,7.19,0,0,1-3.59.56,6.59,6.59,0,0,1-1.78-.42c-.3-.14-.58-.25-.87-.41l-.42-.25a1.57,1.57,0,0,1-.19-.15s0,0,0,0,0-.17,0-.13S129.34,18.66,129.35,18.7Z"/><path class="cls-1" d="M93.72,40.51S122.92,12.29,129.56,14c4.22,1.07,7.16,11.4,7.29,33.59C137,69.17,129.68,84,129.68,84Z"/><path class="cls-2" d="M101.59,57.34s20.69-33,24.91-29.12-4.22,47-8,52-16.86-21.37-16.86-21.37"/><path class="cls-1" d="M14.4,17.79a14.44,14.44,0,0,1-1.64-3.18A13.37,13.37,0,0,1,12,9a17.71,17.71,0,0,1,.6-3.49,5.72,5.72,0,0,1,3.14,2.28A7.52,7.52,0,0,1,17,11.17a7.66,7.66,0,0,1-.34,3.52A6.19,6.19,0,0,1,14.4,17.79Z"/><path class="cls-1" d="M14.72,23.19a18.73,18.73,0,0,1-4.42-4.1,27.9,27.9,0,0,1-3.09-4.86,25.36,25.36,0,0,1-2-5.45A13.19,13.19,0,0,1,5,2.67,39.21,39.21,0,0,1,8.8,7.18,34.67,34.67,0,0,1,11.68,12a32.67,32.67,0,0,1,2.09,5.27A20.62,20.62,0,0,1,14.72,23.19Z"/><path class="cls-1" d="M12.66,21.57s.05-.09,0-.11-.07.1,0,.12,0,0,0,.05a1.73,1.73,0,0,1-.2.15L12,22a7.77,7.77,0,0,1-.88.41,7.3,7.3,0,0,1-1.82.43,7.54,7.54,0,0,1-3.64-.56,6.86,6.86,0,0,1-3-2.47,4.56,4.56,0,0,1-.68-4c1.4.52,2.35.78,3.23,1a20.78,20.78,0,0,1,2.45.85A15.88,15.88,0,0,1,10.13,19a13.65,13.65,0,0,1,1.36,1c.23.22.48.4.72.64l.37.38.19.24.07.09s.05.08,0,.13a.11.11,0,0,1-.06.09A.22.22,0,0,1,12.66,21.57Z"/><path class="cls-1" d="M49.06,43.62S19.23,15.09,12.44,16.79C8.13,17.87,5.13,28.31,5,50.74c-.13,21.85,7.33,36.83,7.33,36.83Z"/><path class="cls-2" d="M41,60.63S19.88,27.23,15.57,31.19s4.31,47.52,8.22,52.56S41,62.15,41,62.15"/><line class="cls-3" x1="5.5" y1="96.99" x2="18.98" y2="102.49"/><line class="cls-3" x1="5.5" y1="118.6" x2="18.98" y2="113.1"/><line class="cls-3" x1="3.45" y1="107.92" x2="17.86" y2="107.92"/><line class="cls-3" x1="137.79" y1="97.11" x2="124.31" y2="102.61"/><line class="cls-3" x1="137.79" y1="118.72" x2="124.31" y2="113.22"/><line class="cls-3" x1="139.84" y1="108.05" x2="125.42" y2="108.04"/><path class="cls-4" d="M130.77,93.76c0,32.66-26.47,39-59.13,39s-59.13-6.32-59.13-39a59.13,59.13,0,0,1,118.26,0Z"/><path class="cls-5" d="M54.75,105.52a9.3,9.3,0,0,0,8.37,4.64c5.78-.29,8.52-3.57,8.52-3.57s5.35,3.88,10.26,3.58a7.88,7.88,0,0,0,6.64-4.65"/><path class="cls-6" d="M42.34,88.78c0,5.37-3.06,8.3-6.84,8.3s-6.83-2.93-6.83-8.3,3.06-9.72,6.83-9.72S42.34,83.41,42.34,88.78Z"/><path class="cls-7" d="M39.65,84.87c0,1.63-.93,2.95-2.07,2.95S35.5,86.5,35.5,84.87s.93-3,2.08-3S39.65,83.24,39.65,84.87Z"/><path class="cls-6" d="M114.62,89.89c0,5.3-3.06,8.19-6.83,8.19S101,95.19,101,89.89s3.06-9.6,6.84-9.6S114.62,84.59,114.62,89.89Z"/><path class="cls-7" d="M111.94,86c0,1.61-.93,2.91-2.08,2.91s-2.07-1.3-2.07-2.91.93-2.92,2.07-2.92S111.94,84.42,111.94,86Z"/></g><g id="Layer_7_copy_4" data-name="Layer 7 copy 4"><line class="cls-8" x1="57.64" y1="108.63" x2="57.72" y2="108.68"/><line class="cls-8" x1="57.8" y1="108.89" x2="59.42" y2="113.41"/><line class="cls-8" x1="59.42" y1="113.41" x2="62.02" y2="110.66"/><line class="cls-8" x1="79.92" y1="110.55" x2="83.08" y2="114.58"/><line class="cls-8" x1="83.08" y1="114.58" x2="85.81" y2="109.06"/></g><g id="Layer_8_copy_4" data-name="Layer 8 copy 4"><path class="cls-9" d="M43.09,101.49c0,1.66-6.46,3-14.42,3s-14.42-1.34-14.42-3,6.45-3,14.42-3S43.09,99.83,43.09,101.49Z"/><ellipse class="cls-9" cx="114.62" cy="101.49" rx="14.42" ry="3"/></g><path class="cls-10" d="M48.67,107c.15-4.08,4.15-7.78,6.54-7.83,6.19-.12,10.71,4.08,17.48,4.23,5.5.13,9.19-4.32,12.89-4.27s8.91,3.63,8.91,7.66c0,8.4-6.52,11.32-24.55,11.32C56.41,118.07,48.36,115.11,48.67,107Z"/><path class="cls-11" d="M84.52,116.1c0,5.49-5.83,9.94-13,9.94s-13-4.45-13-9.94,5.83-5.95,13-5.95S84.52,110.61,84.52,116.1Z"/><path class="cls-12" d="M80.15,111.55c0,4.17-3.84,7.55-8.58,7.55S63,115.72,63,111.55,66.84,104,71.57,104,80.15,107.38,80.15,111.55Z"/><path class="cls-13" d="M87.43,103.66a1.56,1.56,0,1,1-1.55-1.55A1.55,1.55,0,0,1,87.43,103.66Z"/><path class="cls-13" d="M57.5,103a1.56,1.56,0,1,1-1.56-1.55A1.56,1.56,0,0,1,57.5,103Z"/></g></svg>