<svg xmlns="http://www.w3.org/2000/svg" viewBox="0 0 1335.29 302.35"><defs><style>.cls-1{font-size:24px;}.cls-1,.cls-2,.cls-3{fill:#231f20;font-family:PTSans-Regular, PT Sans;}.cls-2,.cls-3{font-size:189.21px;}.cls-3{letter-spacing:-0.08em;}.cls-4{fill:#bbaeab;}.cls-5{fill:#efddd9;}.cls-15,.cls-16,.cls-6{fill:none;stroke-linecap:round;}.cls-6{stroke:#bbaeab;stroke-width:5px;}.cls-16,.cls-6{stroke-miterlimit:10;}.cls-7{fill:#dac8c4;}.cls-8{fill:#2b2525;}.cls-9{fill:#fff;}.cls-10{fill:#eab0ac;}.cls-11{fill:#afb8d3;}.cls-12{fill:#8aa488;}.cls-13{fill:#badbb4;}.cls-14{fill:#efe2c5;}.cls-15,.cls-16{stroke:#2b2525;stroke-width:4px;}.cls-15{stroke-linejoin:round;}</style></defs><g id="harer_copy" data-name="harer copy"><g id="tekst_harer_copy" data-name="tekst harer copy"><text class="cls-1" transform="translate(151.46 101.71) rotate(-27.47)">A</text><text class="cls-1" transform="matrix(0.93, -0.38, 0.38, 0.93, 163.57, 95.42)">n</text><text class="cls-1" transform="translate(175.52 90.66) rotate(-18.01)">t</text><text class="cls-1" transform="translate(182.98 88.17) rotate(-14.31)">a</text><text class="cls-1" transform="matrix(0.98, -0.19, 0.19, 0.98, 194.32, 85.34)">l</text><text class="cls-1" transform="translate(201.02 84.05) rotate(-8.52)">l</text><text class="cls-1" transform="translate(207.79 83.04) rotate(-6.26)"> </text><text class="cls-1" transform="matrix(1, -0.05, 0.05, 1, 213.95, 82.27)">g</text><text class="cls-1" transform="translate(226.56 81.59) rotate(0.58)">a</text><text class="cls-1" transform="translate(238.18 81.67) rotate(4.53)">u</text><text class="cls-1" transform="translate(250.78 82.65) rotate(9.17)">p</text><text class="cls-1" transform="matrix(0.97, 0.25, -0.25, 0.97, 263.25, 84.65)">e</text><text class="cls-1" transform="translate(274.77 87.63) rotate(18.71)">r</text><text class="cls-1" transform="matrix(0.93, 0.38, -0.38, 0.93, 282.27, 90.18)"> </text><text class="cls-1" transform="translate(287.95 92.32) rotate(27.28)">n</text><text class="cls-1" transform="translate(299.17 98.09) rotate(34.71)">å</text><text class="cls-1" transform="matrix(0.76, -0.66, 0.66, 0.76, 447.61, 112.97)">A</text><text class="cls-1" transform="translate(457.87 104.11) rotate(-34.28)">n</text><text class="cls-1" transform="translate(468.53 96.96) rotate(-29.69)">t</text><text class="cls-1" transform="translate(475.3 93.01) rotate(-25.6)">a</text><text class="cls-1" transform="translate(485.84 88.04) rotate(-21.87)">l</text><text class="cls-1" transform="translate(492.16 85.5) rotate(-19.19)">l</text><text class="cls-1" transform="translate(498.62 83.25) rotate(-16.67)"> </text><text class="cls-1" transform="matrix(0.97, -0.23, 0.23, 0.97, 504.5, 81.38)">g</text><text class="cls-1" transform="translate(516.76 78.53) rotate(-8.8)">a</text><text class="cls-1" transform="translate(528.24 76.73) rotate(-4.66)">u</text><text class="cls-1" transform="matrix(1, -0.01, 0.01, 1, 540.86, 75.7)">p</text><text class="cls-1" transform="translate(553.58 75.54) rotate(3.2)">e</text><text class="cls-1" transform="matrix(0.99, 0.12, -0.12, 0.99, 565.51, 76.26)">r</text><text class="cls-1" transform="matrix(0.99, 0.16, -0.16, 0.99, 573.43, 77.2)"> </text><text class="cls-1" transform="translate(579.57 78.19) rotate(12.09)">f</text><text class="cls-1" transform="matrix(0.96, 0.27, -0.27, 0.96, 586.83, 79.72)">r</text><text class="cls-1" transform="translate(594.44 81.72) rotate(19.95)">a</text><text class="cls-1" transform="translate(605.28 85.76) rotate(24.48)"> </text><text class="cls-1" transform="translate(610.9 88.28) rotate(28.27)">f</text><text class="cls-1" transform="translate(617.15 91.43) rotate(34.24)">ø</text><text class="cls-1" transform="matrix(0.74, 0.67, -0.67, 0.74, 627.29, 98.44)">r</text><text class="cls-1" transform="translate(781.97 70.95) rotate(-45.59)">A</text><text class="cls-1" transform="translate(791.4 61.32) rotate(-37.36)">n</text><text class="cls-1" transform="matrix(0.86, -0.51, 0.51, 0.86, 801.55, 53.72)">t</text><text class="cls-1" transform="translate(808.14 49.63) rotate(-25.07)">a</text><text class="cls-1" transform="matrix(0.94, -0.34, 0.34, 0.94, 818.63, 44.84)">l</text><text class="cls-1" transform="translate(824.97 42.55) rotate(-16.03)">l</text><text class="cls-1" transform="translate(831.49 40.68) rotate(-12.62)"> </text><text class="cls-1" transform="translate(837.41 39.21) rotate(-8)">n</text><text class="cls-1" transform="matrix(1, -0.06, 0.06, 1, 850.12, 37.49)">y</text><text class="cls-1" transform="matrix(1, 0, 0, 1, 860.75, 36.76)">e</text><text class="cls-1" transform="translate(872.69 36.88) rotate(3.9)"> </text><text class="cls-1" transform="translate(878.8 37.15) rotate(8.34)">g</text><text class="cls-1" transform="translate(891.09 38.93) rotate(15.08)">a</text><text class="cls-1" transform="translate(902.09 41.79) rotate(23.2)">u</text><text class="cls-1" transform="translate(913.41 46.54) rotate(33.22)">p</text><text class="cls-1" transform="matrix(0.71, 0.7, -0.7, 0.71, 923.68, 53.2)">e</text><text class="cls-1" transform="translate(931.84 61.33) rotate(54.42)">r</text><text class="cls-1" transform="matrix(0.87, -0.5, 0.5, 0.87, 1085.76, 86.86)">G</text><text class="cls-1" transform="translate(1098.14 79.9) rotate(-22.82)">a</text><text class="cls-1" transform="matrix(0.95, -0.3, 0.3, 0.95, 1108.78, 75.39)">u</text><text class="cls-1" transform="matrix(0.98, -0.22, 0.22, 0.98, 1120.8, 71.64)">p</text><text class="cls-1" transform="translate(1133.2 68.9) rotate(-8.47)">e</text><text class="cls-1" transform="translate(1145.1 67.2) rotate(-5.88)">r</text><text class="cls-1" transform="translate(1153.03 66.41) rotate(-3.25)"> </text><text class="cls-1" transform="translate(1159.23 66) rotate(-0.23)">s</text><text class="cls-1" transform="translate(1169.02 65.89) rotate(4.29)">o</text><text class="cls-1" transform="matrix(0.98, 0.2, -0.2, 0.98, 1181.42, 66.57)">m</text><text class="cls-1" transform="matrix(0.95, 0.3, -0.3, 0.95, 1200.04, 70.61)"> </text><text class="cls-1" transform="translate(1205.91 72.28) rotate(22.11)">d</text><text class="cls-1" transform="translate(1217.46 76.94) rotate(28.7)">ø</text><text class="cls-1" transform="matrix(0.83, 0.56, -0.56, 0.83, 1228.36, 83.01)">r</text></g><g id="tegning_harer_copy" data-name="tegning harer copy"><text class="cls-2" transform="translate(16.63 245.55)">#</text><text class="cls-2" transform="translate(319.03 245.55)">=</text><text class="cls-3" transform="translate(952.05 245.55)">-</text><text class="cls-2" transform="translate(628.74 245.55)">+</text><path class="cls-4" d="M287.59,143.17a5.76,5.76,0,0,1-2.23-2.85,7,7,0,0,1-.38-3.25,6.69,6.69,0,0,1,1.19-3.1,5.33,5.33,0,0,1,3-2.13,14.82,14.82,0,0,1,.81,3.25,9.76,9.76,0,0,1,0,2.59,10.18,10.18,0,0,1-.66,2.56A12.82,12.82,0,0,1,287.59,143.17Z"/><path class="cls-4" d="M287.31,148.17a18.16,18.16,0,0,1,.53-5.51,28.73,28.73,0,0,1,1.7-4.88,29.37,29.37,0,0,1,2.53-4.46,30.45,30.45,0,0,1,3.52-4.15,11.87,11.87,0,0,1,.12,5.64,21.44,21.44,0,0,1-1.62,5.05,23.12,23.12,0,0,1-2.72,4.51A16,16,0,0,1,287.31,148.17Z"/><path class="cls-4" d="M289.07,146.67s-.07.05-.14,0-.09-.15,0-.2.05-.07.06-.1l.17-.24.31-.37c.21-.24.41-.42.6-.64a14.81,14.81,0,0,1,1.13-1,11.44,11.44,0,0,1,2-1.26,12.13,12.13,0,0,1,2-.72c.77-.2,1.63-.42,3-.85A4.07,4.07,0,0,1,298,145a5.85,5.85,0,0,1-2.61,2.4,6.12,6.12,0,0,1-3.27.54,5.32,5.32,0,0,1-1.63-.43,5.8,5.8,0,0,1-.78-.41l-.38-.25a1.29,1.29,0,0,1-.17-.15.07.07,0,0,1,0-.05s0-.15,0-.13S289.06,146.63,289.07,146.67Z"/><path class="cls-4" d="M258.08,167.09s25.4-26.42,31.18-24.85c3.67,1,6.22,10.67,6.33,31.44.11,20.23-6.23,34.1-6.23,34.1Z"/><path class="cls-5" d="M264.93,182.83s18-30.92,21.66-27.25-3.67,44-7,48.66-14.66-20-14.66-20"/><path class="cls-4" d="M170.9,145.84a12.57,12.57,0,0,1-1.68-2.94,10,10,0,0,1-.67-2.55,10.21,10.21,0,0,1,0-2.59,15.23,15.23,0,0,1,.8-3.26,5.42,5.42,0,0,1,3,2.14,6.79,6.79,0,0,1,1.18,3.09,7.07,7.07,0,0,1-.37,3.25A5.71,5.71,0,0,1,170.9,145.84Z"/><path class="cls-4" d="M171.18,150.84a16.33,16.33,0,0,1-4.06-3.81,24.07,24.07,0,0,1-2.72-4.5,22.07,22.07,0,0,1-1.62-5.05,11.87,11.87,0,0,1,.12-5.64,30.28,30.28,0,0,1,3.52,4.14,28.64,28.64,0,0,1,2.53,4.47,27.32,27.32,0,0,1,1.7,4.88A17.85,17.85,0,0,1,171.18,150.84Z"/><path class="cls-4" d="M169.42,149.34s0-.1,0-.11-.06.09,0,.12,0,0,0,.05a1.29,1.29,0,0,1-.17.15l-.37.26c-.26.16-.52.27-.79.41a5.89,5.89,0,0,1-1.62.43,6,6,0,0,1-3.27-.55,5.75,5.75,0,0,1-2.62-2.39,4.09,4.09,0,0,1-.24-3.71c1.33.44,2.19.66,2.95.86a10.55,10.55,0,0,1,4.07,2,13.11,13.11,0,0,1,1.13,1c.19.22.4.39.6.64l.32.37.17.24.06.1c.06.05,0,.2,0,.19A.18.18,0,0,1,169.42,149.34Z"/><path class="cls-4" d="M200.41,169.75s-25.4-26.42-31.17-24.84c-3.67,1-6.23,10.67-6.34,31.44-.1,20.22,6.24,34.1,6.24,34.1Z"/><path class="cls-5" d="M193.57,185.5s-18-30.92-21.67-27.26,3.67,44,7,48.67,14.67-20,14.67-20"/><line class="cls-6" x1="158.86" y1="226.16" x2="173.36" y2="231.66"/><line class="cls-6" x1="158.86" y1="247.76" x2="173.36" y2="242.26"/><line class="cls-6" x1="156.64" y1="237.09" x2="172.15" y2="237.09"/><line class="cls-6" x1="301.15" y1="226.28" x2="286.65" y2="231.78"/><line class="cls-6" x1="301.15" y1="247.89" x2="286.65" y2="242.39"/><line class="cls-6" x1="303.36" y1="237.22" x2="287.85" y2="237.21"/><path class="cls-7" d="M293.33,223.65c0,35-28.35,41.74-63.33,41.74s-63.33-6.76-63.33-41.74a63.33,63.33,0,1,1,126.66,0Z"/><path class="cls-8" d="M239.71,241.35c-3.78,0-7.55-1.91-9.51-3.08a15.1,15.1,0,0,1-8.62,3,11.21,11.21,0,0,1-10.24-5.69,2,2,0,1,1,3.53-1.88,7.31,7.31,0,0,0,6.51,3.58,10.31,10.31,0,0,0,7.1-2.87,2,2,0,0,1,2.7-.32s4.83,3.46,8.95,3.2a5.89,5.89,0,0,0,4.92-3.41,2,2,0,0,1,2.6-1.08,2,2,0,0,1,1.1,2.58,9.85,9.85,0,0,1-8.37,5.9C240.16,241.35,239.94,241.35,239.71,241.35Z"/><path class="cls-8" d="M200.69,220.42c0,3.77-3.06,5.83-6.83,5.83s-6.84-2.06-6.84-5.83a6.84,6.84,0,1,1,13.67,0Z"/><path class="cls-9" d="M193.86,217.67a2.08,2.08,0,1,1-2.08-2.08A2.08,2.08,0,0,1,193.86,217.67Z"/><path class="cls-8" d="M273,220.42c0,3.77-3.06,5.83-6.84,5.83s-6.83-2.06-6.83-5.83a6.84,6.84,0,1,1,13.67,0Z"/><path class="cls-9" d="M266.14,217.67a2.08,2.08,0,1,1-2.07-2.08A2.07,2.07,0,0,1,266.14,217.67Z"/><path class="cls-8" d="M216.08,239.84a2,2,0,0,1-1.1-.32,2,2,0,0,1-.61-2.8,2,2,0,0,1,2.73-.6l.08,0a2,2,0,0,1-1.1,3.67Z"/><path class="cls-8" d="M217.78,244.58a2,2,0,0,1-1.88-1.32l-1.63-4.53a2,2,0,0,1,3.77-1.35l1.62,4.53a2,2,0,0,1-1.21,2.56A2,2,0,0,1,217.78,244.58Z"/><path class="cls-8" d="M217.78,244.58a2,2,0,0,1-1.46-3.37l2.6-2.76a2,2,0,0,1,2.91,2.75l-2.6,2.75A2,2,0,0,1,217.78,244.58Z"/><path class="cls-8" d="M241.43,245.75a2,2,0,0,1-1.57-.77l-3.16-4a2,2,0,1,1,3.15-2.46l3.16,4a2,2,0,0,1-.35,2.8A2,2,0,0,1,241.43,245.75Z"/><path class="cls-8" d="M241.43,245.75a2,2,0,0,1-.89-.21,2,2,0,0,1-.9-2.68l2.73-5.52a2,2,0,0,1,3.59,1.78l-2.74,5.52A2,2,0,0,1,241.43,245.75Z"/><path class="cls-10" d="M201.44,230.66c0,1.66-6.45,3-14.42,3s-14.42-1.34-14.42-3,6.46-3,14.42-3S201.44,229,201.44,230.66Z"/><ellipse class="cls-10" cx="272.98" cy="230.66" rx="14.42" ry="3"/><path class="cls-4" d="M256.62,215.77a2.5,2.5,0,0,1-.89-4.84l14.9-5.64A2.5,2.5,0,0,1,272.4,210l-14.9,5.63A2.5,2.5,0,0,1,256.62,215.77Z"/><path class="cls-4" d="M201.92,215.64a2.5,2.5,0,0,1-.88-.17l-14.9-5.63a2.5,2.5,0,0,1,1.77-4.68l14.9,5.64a2.5,2.5,0,0,1-.89,4.84Z"/><path class="cls-4" d="M602.23,143.17a5.73,5.73,0,0,1-2.24-2.85,7,7,0,0,1-.37-3.25,6.79,6.79,0,0,1,1.18-3.1,5.36,5.36,0,0,1,3-2.13,15.31,15.31,0,0,1,.8,3.25,10.1,10.1,0,0,1-.66,5.15A13.11,13.11,0,0,1,602.23,143.17Z"/><path class="cls-4" d="M602,148.17a17.85,17.85,0,0,1,.53-5.51,27.09,27.09,0,0,1,1.7-4.88,28.54,28.54,0,0,1,2.53-4.46,29.09,29.09,0,0,1,3.52-4.15,12,12,0,0,1,.12,5.64,21.93,21.93,0,0,1-1.63,5.05,23.57,23.57,0,0,1-2.71,4.51A16.29,16.29,0,0,1,602,148.17Z"/><path class="cls-4" d="M603.71,146.67s-.07.05-.15,0-.09-.15,0-.2.05-.07.06-.1l.17-.24.32-.37c.2-.24.41-.42.6-.64a13.06,13.06,0,0,1,1.12-1,11.81,11.81,0,0,1,2-1.26,11.93,11.93,0,0,1,2-.72c.76-.2,1.62-.42,3-.85a4,4,0,0,1-.25,3.7,5.75,5.75,0,0,1-2.61,2.4,6.1,6.1,0,0,1-3.27.54,5.26,5.26,0,0,1-1.62-.43,6.59,6.59,0,0,1-.79-.41l-.38-.25a1.17,1.17,0,0,1-.16-.15s0,0,0-.05,0-.15,0-.13S603.7,146.63,603.71,146.67Z"/><path class="cls-4" d="M572.72,167.09s25.39-26.42,31.17-24.85c3.67,1,6.23,10.67,6.34,31.44.1,20.23-6.24,34.1-6.24,34.1Z"/><path class="cls-5" d="M579.56,182.83s18-30.92,21.67-27.25-3.67,44-7,48.66-14.67-20-14.67-20"/><path class="cls-4" d="M485.54,145.84a12.65,12.65,0,0,1-1.69-2.94,10,10,0,0,1-.67-2.55,10.21,10.21,0,0,1,0-2.59,15.23,15.23,0,0,1,.8-3.26,5.42,5.42,0,0,1,3,2.14,6.68,6.68,0,0,1,1.18,3.09,6.81,6.81,0,0,1-.37,3.25A5.74,5.74,0,0,1,485.54,145.84Z"/><path class="cls-4" d="M485.82,150.84a16,16,0,0,1-4.06-3.81,23,23,0,0,1-2.72-4.5,21.59,21.59,0,0,1-1.62-5.05,11.75,11.75,0,0,1,.12-5.64,30.18,30.18,0,0,1,3.51,4.14,28.69,28.69,0,0,1,2.54,4.47,28.13,28.13,0,0,1,1.7,4.88A18.48,18.48,0,0,1,485.82,150.84Z"/><path class="cls-4" d="M484.05,149.34s0-.1,0-.11-.07.09,0,.12,0,0,0,.05a1.29,1.29,0,0,1-.17.15l-.38.26c-.26.16-.51.27-.78.41a5.95,5.95,0,0,1-4.9-.12,5.78,5.78,0,0,1-2.61-2.39,4.09,4.09,0,0,1-.25-3.71c1.33.44,2.19.66,3,.86a11.3,11.3,0,0,1,2,.72,11.81,11.81,0,0,1,2,1.26,14.81,14.81,0,0,1,1.13,1c.19.22.39.39.6.64l.31.37.17.24a.64.64,0,0,1,.06.1c.06.05,0,.2,0,.19S484.1,149.35,484.05,149.34Z"/><path class="cls-4" d="M515.05,169.75s-25.4-26.42-31.18-24.84c-3.67,1-6.22,10.67-6.33,31.44-.11,20.22,6.23,34.1,6.23,34.1Z"/><path class="cls-5" d="M508.2,185.5s-18-30.92-21.66-27.26,3.66,44,7,48.67,14.66-20,14.66-20"/><line class="cls-6" x1="473.49" y1="226.16" x2="487.99" y2="231.66"/><line class="cls-6" x1="473.49" y1="247.76" x2="487.99" y2="242.26"/><line class="cls-6" x1="471.28" y1="237.09" x2="486.79" y2="237.09"/><line class="cls-6" x1="615.78" y1="226.28" x2="601.28" y2="231.78"/><line class="cls-6" x1="615.78" y1="247.89" x2="601.28" y2="242.39"/><line class="cls-6" x1="617.99" y1="237.22" x2="602.48" y2="237.21"/><path class="cls-7" d="M608,223.65c0,35-28.36,41.74-63.34,41.74s-63.33-6.76-63.33-41.74a63.34,63.34,0,0,1,126.67,0Z"/><path class="cls-8" d="M554.35,241.35c-3.79,0-7.55-1.91-9.51-3.08a15.14,15.14,0,0,1-8.63,3A11.22,11.22,0,0,1,526,235.63a2,2,0,1,1,3.53-1.88,7.34,7.34,0,0,0,6.51,3.58,10.31,10.31,0,0,0,7.1-2.87,2,2,0,0,1,2.7-.32c.05,0,4.83,3.46,9,3.2a5.86,5.86,0,0,0,4.91-3.41,2,2,0,0,1,2.61-1.08,2,2,0,0,1,1.1,2.58,9.86,9.86,0,0,1-8.38,5.9C554.79,241.35,554.57,241.35,554.35,241.35Z"/><path class="cls-8" d="M515.33,220.42c0,3.77-3.06,5.83-6.84,5.83s-6.83-2.06-6.83-5.83a6.84,6.84,0,1,1,13.67,0Z"/><path class="cls-9" d="M508.49,217.67a2.08,2.08,0,1,1-2.07-2.08A2.07,2.07,0,0,1,508.49,217.67Z"/><path class="cls-8" d="M587.61,220.42c0,3.77-3.06,5.83-6.83,5.83s-6.84-2.06-6.84-5.83a6.84,6.84,0,1,1,13.67,0Z"/><path class="cls-9" d="M580.78,217.67a2.08,2.08,0,1,1-2.08-2.08A2.08,2.08,0,0,1,580.78,217.67Z"/><path class="cls-8" d="M530.71,239.84a2,2,0,0,1-1.1-.32,2.06,2.06,0,0,1-.61-2.8,2,2,0,0,1,2.73-.6l.08,0a2,2,0,0,1,.57,2.77A2,2,0,0,1,530.71,239.84Z"/><path class="cls-8" d="M532.41,244.58a2,2,0,0,1-1.88-1.32l-1.62-4.53a2,2,0,1,1,3.76-1.35l1.63,4.53a2,2,0,0,1-1.21,2.56A2,2,0,0,1,532.41,244.58Z"/><path class="cls-8" d="M532.41,244.58a2,2,0,0,1-1.45-3.37l2.6-2.76a2,2,0,1,1,2.91,2.75l-2.6,2.75A2,2,0,0,1,532.41,244.58Z"/><path class="cls-8" d="M556.07,245.75a2,2,0,0,1-1.58-.77l-3.15-4a2,2,0,1,1,3.15-2.46l3.15,4a2,2,0,0,1-1.57,3.23Z"/><path class="cls-8" d="M556.06,245.75a2,2,0,0,1-1.79-2.89l2.74-5.52a2,2,0,0,1,3.58,1.78l-2.73,5.52A2,2,0,0,1,556.06,245.75Z"/><path class="cls-10" d="M516.08,230.66c0,1.66-6.46,3-14.42,3s-14.42-1.34-14.42-3,6.45-3,14.42-3S516.08,229,516.08,230.66Z"/><ellipse class="cls-10" cx="587.61" cy="230.66" rx="14.42" ry="3"/><path class="cls-4" d="M571.25,215.77a2.5,2.5,0,0,1-.88-4.84l14.9-5.64A2.5,2.5,0,0,1,587,210l-14.9,5.63A2.51,2.51,0,0,1,571.25,215.77Z"/><path class="cls-4" d="M516.55,215.64a2.5,2.5,0,0,1-.88-.17l-14.9-5.63a2.5,2.5,0,0,1,1.77-4.68l14.9,5.64a2.5,2.5,0,0,1-.89,4.84Z"/><path class="cls-4" d="M773.85,202.49a3.51,3.51,0,0,1-1.77-1.27,4.31,4.31,0,0,1-.77-1.82,4,4,0,0,1,.14-2,3.25,3.25,0,0,1,1.33-1.73,10.23,10.23,0,0,1,.93,1.76,7.36,7.36,0,0,1,.42,1.5,6.88,6.88,0,0,1,.09,1.59A8.45,8.45,0,0,1,773.85,202.49Z"/><path class="cls-4" d="M774.57,205.42a11.57,11.57,0,0,1-.5-3.31,18.22,18.22,0,0,1,.24-3.14,18,18,0,0,1,.75-3,19.87,19.87,0,0,1,1.31-3,7.13,7.13,0,0,1,.92,3.28,13.9,13.9,0,0,1-.15,3.23,15.44,15.44,0,0,1-.86,3.09A10.24,10.24,0,0,1,774.57,205.42Z"/><path class="cls-4" d="M775.41,204.22s0,0-.09,0a.07.07,0,0,1,0,0s0-.06,0-.07a.16.16,0,0,1,0-.06l.06-.16.13-.27c.09-.17.19-.3.28-.46a6.65,6.65,0,0,1,.56-.75,8.45,8.45,0,0,1,1.12-1.12,10.26,10.26,0,0,1,1.17-.84c.43-.28.9-.57,1.58-1.07a2.5,2.5,0,0,1,.33,2.24,3.77,3.77,0,0,1-1.23,1.82,4.28,4.28,0,0,1-1.87.9,4.07,4.07,0,0,1-1,.06,3.47,3.47,0,0,1-.55-.08l-.27-.06-.13-.05,0,0s0-.09,0-.06S775.39,204.2,775.41,204.22Z"/><path class="cls-4" d="M759.55,221.87s11.25-20,15.18-20.23c2.49-.12,5.83,5,9.64,16.89a49.22,49.22,0,0,1,2.2,20.82Z"/><path class="cls-5" d="M766.7,229.63s5.78-21.22,8.74-19.81,5.61,26,4.35,29.35S767,230.45,767,230.45"/><path class="cls-4" d="M712.26,222.75a8.36,8.36,0,0,1-1.43-1.44,7.57,7.57,0,0,1-.85-1.38,7.47,7.47,0,0,1-.52-1.49,9.91,9.91,0,0,1-.25-2,3.32,3.32,0,0,1,2.1.71,4.12,4.12,0,0,1,1.27,1.58,4.27,4.27,0,0,1,.41,2A3.42,3.42,0,0,1,712.26,222.75Z"/><path class="cls-4" d="M713.35,225.61a10.84,10.84,0,0,1-3.12-1.48,15.86,15.86,0,0,1-2.51-2.11,13.87,13.87,0,0,1-2-2.6,7.39,7.39,0,0,1-1.14-3.26,22.28,22.28,0,0,1,2.84,1.8,20.12,20.12,0,0,1,2.39,2.12,18.84,18.84,0,0,1,2,2.49A12,12,0,0,1,713.35,225.61Z"/><path class="cls-4" d="M711.94,225.08s0-.06,0-.07,0,.07,0,.07,0,0,0,0-.06.07-.08.11l-.2.21c-.13.14-.27.24-.41.37a4,4,0,0,1-.92.52,4.22,4.22,0,0,1-2.09.3,3.87,3.87,0,0,1-2.09-.82,2.57,2.57,0,0,1-1-2.06c.86,0,1.42,0,1.95,0a12.13,12.13,0,0,1,1.48,0,9.46,9.46,0,0,1,1.6.3c.29.09.59.18.91.31s.33.14.5.23l.27.14.15.1,0,0s0,0,0,.06,0,.06,0,.06A.11.11,0,0,1,711.94,225.08Z"/><path class="cls-4" d="M735.6,230.93S714.45,220.5,711,222.54c-2.18,1.29-2.07,7.41,1.64,19.52a49.75,49.75,0,0,0,10.21,18.63Z"/><path class="cls-5" d="M734.06,241.43s-17.21-14.5-18.9-11.65,10.36,24.89,13.35,27,5.8-14.49,5.8-14.49"/><path class="cls-4" d="M730.16,267.69a1.84,1.84,0,0,1-.62.05l-8.31-.74a1.88,1.88,0,0,1-1.73-2,1.89,1.89,0,0,1,2.06-1.7l8.32.73a1.87,1.87,0,0,1,.28,3.69Z"/><path class="cls-4" d="M725.48,278.6a1.93,1.93,0,0,1-1.93-.63,1.86,1.86,0,0,1,.27-2.64l6.47-5.19a1.92,1.92,0,0,1,2.68.26,1.86,1.86,0,0,1-.27,2.64l-6.46,5.19A1.92,1.92,0,0,1,725.48,278.6Z"/><path class="cls-4" d="M722.56,273.19a1.91,1.91,0,0,1-2.27-1.27,1.86,1.86,0,0,1,1.26-2.34l7.9-2.39a1.91,1.91,0,0,1,2.38,1.24,1.87,1.87,0,0,1-1.26,2.34l-7.9,2.39Z"/><path class="cls-4" d="M787.9,250.33a1.91,1.91,0,0,1-1.93-.63,1.85,1.85,0,0,1,.27-2.64l6.46-5.19a1.92,1.92,0,0,1,2.68.26,1.85,1.85,0,0,1-.27,2.64L788.65,250A1.82,1.82,0,0,1,787.9,250.33Z"/><path class="cls-4" d="M798,256.78a1.8,1.8,0,0,1-.62.05l-8.31-.73a1.88,1.88,0,1,1,.34-3.74l8.31.74a1.86,1.86,0,0,1,.28,3.68Z"/><path class="cls-4" d="M789.42,253.08a1.91,1.91,0,0,1-2.27-1.28,1.87,1.87,0,0,1,1.26-2.34l7.9-2.38a1.91,1.91,0,0,1,2.39,1.24,1.87,1.87,0,0,1-1.27,2.34l-7.9,2.38Z"/><path class="cls-7" d="M788.82,244.43c5.49,17.6-8,25.38-25.85,30.79S729.51,281.6,724,264a33.23,33.23,0,0,1,22.46-41.64C764.36,217,783.32,226.84,788.82,244.43Z"/><path class="cls-8" d="M742.1,254.1c.9,2.89-.28,5-2.35,5.61s-4.24-.45-5.14-3.35,0-5.74,2.11-6.37S741.19,251.21,742.1,254.1Z"/><path class="cls-9" d="M740,252.44c.27.88,0,1.74-.64,1.93s-1.36-.37-1.64-1.25a1.48,1.48,0,0,1,.65-1.93C739,251,739.69,251.56,740,252.44Z"/><path class="cls-8" d="M781.9,242.74c.89,2.85-.3,4.92-2.37,5.54s-4.23-.43-5.13-3.28.07-5.68,2.14-6.3S781,239.88,781.9,242.74Z"/><path class="cls-9" d="M779.77,241.1c.27.87,0,1.73-.64,1.92s-1.36-.37-1.63-1.23a1.46,1.46,0,0,1,.65-1.92C778.77,239.68,779.5,240.23,779.77,241.1Z"/><path class="cls-10" d="M742.07,263.1c.28.9-3,2.69-7.4,4s-8.13,1.66-8.41.77,3-2.69,7.4-4S741.79,262.21,742.07,263.1Z"/><path class="cls-10" d="M789.68,247.84c.27.89-2.69,2.58-6.63,3.77s-7.36,1.43-7.63.53,2.68-2.58,6.62-3.77S789.4,247,789.68,247.84Z"/><path class="cls-11" d="M749.82,261.2c-.6-2.23,1-4.89,2.27-5.3,3.37-1.09,6.56.42,10.3-.62,3-.84,4.3-3.84,6.34-4.43s5.49.48,6.17,2.65c1.41,4.53-1.67,7.18-11.55,10.16C755.93,265.9,751,265.64,749.82,261.2Z"/><path class="cls-12" d="M765.88,268.78c-4.53,1.37-9.13-.4-10.24-3.95-1.33-4.29,3.62-5.78,6.9-6.77s8.23-2.48,9.56,1.8C773.21,263.41,770.42,267.41,765.88,268.78Zm-2.67-8.56c-4.63,1.39-5.88,2.32-5.37,3.95.73,2.35,4,3.46,7.37,2.45s5.44-3.74,4.7-6.1C769.4,258.89,767.84,258.82,763.21,260.22Z"/><path class="cls-13" d="M767.85,258.46c.7,2.25-.84,4.7-3.43,5.49s-5.27-.41-6-2.65.83-4.7,3.43-5.49S767.15,256.21,767.85,258.46Z"/><path class="cls-14" d="M770.51,253a.86.86,0,0,1-.59,1.09.89.89,0,0,1-1.11-.58.86.86,0,0,1,.59-1.09A.88.88,0,0,1,770.51,253Z"/><path class="cls-14" d="M754,257.59a.87.87,0,0,1-.59,1.1.89.89,0,0,1-1.11-.58.87.87,0,0,1,.59-1.1A.89.89,0,0,1,754,257.59Z"/><path class="cls-4" d="M910.24,95.32A5.22,5.22,0,0,1,908,92.74a6.06,6.06,0,0,1-.39-3A6,6,0,0,1,908.77,87a4.9,4.9,0,0,1,2.87-1.88,13.77,13.77,0,0,1,.9,3,7.67,7.67,0,0,1,.07,2.33,7.94,7.94,0,0,1-.66,2.27A11.5,11.5,0,0,1,910.24,95.32Z"/><path class="cls-4" d="M910,99.84a15.2,15.2,0,0,1,.31-5.06,21.77,21.77,0,0,1,1.49-4.43,22.39,22.39,0,0,1,2.33-4,24.43,24.43,0,0,1,3.35-3.68,10.45,10.45,0,0,1,.29,5.17,18.66,18.66,0,0,1-1.43,4.6,19.32,19.32,0,0,1-2.5,4A13.75,13.75,0,0,1,910,99.84Z"/><path class="cls-4" d="M911.58,98.48a.13.13,0,0,1-.14,0s-.09-.14,0-.19.05-.07.06-.09l.15-.24.28-.37c.18-.24.37-.41.54-.62a12.11,12.11,0,0,1,1-.95,8.49,8.49,0,0,1,1.79-1.17A7,7,0,0,1,917,94.3c.7-.14,1.5-.29,2.8-.64a3.7,3.7,0,0,1-.1,3.49,5.14,5.14,0,0,1-2.38,2.24,5.3,5.3,0,0,1-3,.46,4.74,4.74,0,0,1-1.49-.45,6.52,6.52,0,0,1-.72-.43l-.35-.26s-.11-.1-.15-.15a.07.07,0,0,1,0,0s0-.16,0-.13S911.57,98.45,911.58,98.48Z"/><path class="cls-4" d="M883.56,116.94s23-23.88,28.19-22.46c3.31.91,5.62,9.64,5.72,28.42.1,18.29-5.64,30.83-5.64,30.83Z"/><path class="cls-5" d="M889.75,131.17s16.27-27.95,19.59-24.63-3.32,39.77-6.33,44-13.26-18.08-13.26-18.08"/><path class="cls-4" d="M804.75,97.73A10.87,10.87,0,0,1,803,95.07a7.51,7.51,0,0,1-.59-4.59,13.67,13.67,0,0,1,.9-3,4.9,4.9,0,0,1,2.87,1.88,5.94,5.94,0,0,1,1.12,2.82,5.84,5.84,0,0,1-.39,3A5.2,5.2,0,0,1,804.75,97.73Z"/><path class="cls-4" d="M805,102.25a13.75,13.75,0,0,1-3.84-3.36,19.36,19.36,0,0,1-2.51-4,18.28,18.28,0,0,1-1.42-4.59,10.36,10.36,0,0,1,.28-5.18,24,24,0,0,1,3.36,3.68,23,23,0,0,1,2.33,4,22.4,22.4,0,0,1,1.49,4.43A15.2,15.2,0,0,1,805,102.25Z"/><path class="cls-4" d="M803.41,100.89s0-.09,0-.1-.06.1,0,.13a.07.07,0,0,1,0,0,1.17,1.17,0,0,1-.16.15l-.34.26a6,6,0,0,1-.72.43,5.23,5.23,0,0,1-1.49.46,5.38,5.38,0,0,1-3-.47,5.12,5.12,0,0,1-2.39-2.24,3.73,3.73,0,0,1-.09-3.49c1.29.36,2.1.5,2.8.64a7.1,7.1,0,0,1,1.81.57,8.2,8.2,0,0,1,1.78,1.17,10.71,10.71,0,0,1,1,1c.17.21.35.38.53.62l.29.37.15.24.06.09c.06,0,0,.21,0,.2A.14.14,0,0,1,803.41,100.89Z"/><path class="cls-4" d="M831.43,119.35s-23-23.88-28.19-22.46c-3.32.91-5.63,9.64-5.73,28.42-.09,18.29,5.64,30.83,5.64,30.83Z"/><path class="cls-5" d="M825.24,133.59S809,105.63,805.65,109s3.32,39.77,6.33,44,13.26-18.08,13.26-18.08"/><line class="cls-6" x1="793.86" y1="170.46" x2="806.97" y2="175.43"/><line class="cls-6" x1="793.86" y1="189.99" x2="806.97" y2="185.02"/><line class="cls-6" x1="791.86" y1="180.34" x2="805.88" y2="180.34"/><line class="cls-6" x1="922.49" y1="170.57" x2="909.38" y2="175.54"/><line class="cls-6" x1="922.49" y1="190.11" x2="909.38" y2="185.13"/><line class="cls-6" x1="924.49" y1="180.46" x2="910.47" y2="180.45"/><path class="cls-7" d="M915.43,168.08c0,31.62-25.63,37.73-57.26,37.73s-57.25-6.11-57.25-37.73a57.26,57.26,0,1,1,114.51,0Z"/><path class="cls-10" d="M830.44,177.57c0,1.5-5.84,2.71-13,2.71s-13-1.21-13-2.71,5.83-2.71,13-2.71S830.44,176.07,830.44,177.57Z"/><path class="cls-10" d="M908.14,177c.06,1.5-5.72,2.95-12.92,3.25s-13.07-.67-13.13-2.17,5.72-3,12.91-3.25S908.08,175.53,908.14,177Z"/><path class="cls-14" d="M770.48,204c14.55-1.62,19.78.79,20.19,4.42s-4.18,7.14-18.73,8.75-21.29-.62-21.69-4.26S755.93,205.56,770.48,204Z"/><path class="cls-10" d="M779.72,205.16c11.81-1.31,16,.16,16.27,2.53s-3.51,4.73-15.32,6-17.23,0-17.5-2.4S767.9,206.47,779.72,205.16Z"/><path class="cls-14" d="M775.44,179c12.83,7.06,18.59,6.85,20.35,3.64s-1.13-8.19-13.95-15.25-19.91-7.57-21.67-4.36S762.62,171.9,775.44,179Z"/><path class="cls-10" d="M784.44,181.38c10.42,5.73,14.86,6,16,3.89s-1.43-5.72-11.85-11.45-15.93-6.56-17.08-4.47S774,175.64,784.44,181.38Z"/><path class="cls-14" d="M815.57,171.4c15.26,3,16.31,16.11,13.28,31.37s-9,26.93-24.27,23.9a28.18,28.18,0,0,1,11-55.27Z"/><path class="cls-8" d="M811.41,188.47a1.11,1.11,0,0,1-1.39-.64l-4.48-11.4a1.1,1.1,0,0,1,.62-1.42,1.11,1.11,0,0,1,1.43.62l4.48,11.4a1.09,1.09,0,0,1-.62,1.42Z"/><path class="cls-8" d="M805.93,188a1.1,1.1,0,0,1-1.3-1.62L811.11,176a1.11,1.11,0,0,1,1.52-.35,1.09,1.09,0,0,1,.35,1.52l-6.48,10.39A1.09,1.09,0,0,1,805.93,188Z"/><path class="cls-8" d="M806.32,221.91h-.05a1.09,1.09,0,0,1-1.37-.74l-3.53-11.72a1.1,1.1,0,0,1,2.11-.64L807,220.55A1.11,1.11,0,0,1,806.32,221.91Z"/><path class="cls-8" d="M800.9,221a1.1,1.1,0,0,1-1.25-1.69l7.32-9.83a1.1,1.1,0,0,1,1.76,1.32l-7.31,9.82A1.14,1.14,0,0,1,800.9,221Z"/><path class="cls-14" d="M857.51,187.11c21.29,4.23,25.91,13.29,23.79,23.93s-10.16,18.86-31.46,14.63-31.18-15.06-29.06-25.7S836.22,182.88,857.51,187.11Z"/><path class="cls-15" d="M836,183.49a8.4,8.4,0,0,0,7.57,4.19,11.06,11.06,0,0,0,7.71-3.23s4.83,3.51,9.27,3.24a7.13,7.13,0,0,0,6-4.2"/><path class="cls-8" d="M827.35,166.43c0,3.41-2.77,5.27-6.18,5.27s-6.18-1.86-6.18-5.27a6.18,6.18,0,0,1,12.36,0Z"/><path class="cls-9" d="M821.17,163.94a1.88,1.88,0,1,1-1.88-1.87A1.88,1.88,0,0,1,821.17,163.94Z"/><path class="cls-8" d="M892.7,166.43c0,3.41-2.77,5.27-6.18,5.27s-6.18-1.86-6.18-5.27a6.18,6.18,0,0,1,12.36,0Z"/><path class="cls-9" d="M886.52,163.94a1.88,1.88,0,1,1-1.88-1.87A1.88,1.88,0,0,1,886.52,163.94Z"/><line class="cls-16" x1="838.66" y1="186.29" x2="838.73" y2="186.34"/><line class="cls-16" x1="838.8" y1="186.53" x2="840.27" y2="190.62"/><line class="cls-16" x1="840.27" y1="190.62" x2="842.62" y2="188.13"/><line class="cls-16" x1="858.8" y1="188.03" x2="861.65" y2="191.68"/><line class="cls-16" x1="861.65" y1="191.68" x2="864.12" y2="186.68"/><line class="cls-6" x1="879.73" y1="156.56" x2="889.56" y2="155.72"/><line class="cls-6" x1="826.09" y1="156.56" x2="817.32" y2="156.04"/><path class="cls-4" d="M1224.38,133.23a5.76,5.76,0,0,1-2.23-2.85,6.81,6.81,0,0,1-.37-3.25A6.68,6.68,0,0,1,1223,124a5.4,5.4,0,0,1,3-2.13,15.31,15.31,0,0,1,.8,3.25,10.1,10.1,0,0,1-.66,5.15A12.61,12.61,0,0,1,1224.38,133.23Z"/><path class="cls-4" d="M1224.1,138.23a18.05,18.05,0,0,1,.54-5.5,26.92,26.92,0,0,1,1.7-4.89,29,29,0,0,1,2.53-4.46,29.65,29.65,0,0,1,3.51-4.15,11.79,11.79,0,0,1,.12,5.65,21.51,21.51,0,0,1-1.62,5,23.12,23.12,0,0,1-2.72,4.51A16,16,0,0,1,1224.1,138.23Z"/><path class="cls-4" d="M1225.87,136.73s-.07.05-.15,0-.09-.15,0-.2,0-.07.06-.09l.17-.25.31-.37c.21-.24.41-.42.61-.63a13.29,13.29,0,0,1,1.12-1,11.12,11.12,0,0,1,2-1.25,10.58,10.58,0,0,1,2-.72c.77-.21,1.63-.43,3-.86a4.06,4.06,0,0,1-.25,3.71,5.78,5.78,0,0,1-2.61,2.39,5.95,5.95,0,0,1-4.9.12,8.4,8.4,0,0,1-.78-.42l-.38-.25a1.29,1.29,0,0,1-.17-.15.07.07,0,0,1,0-.05s0-.15,0-.12S1225.85,136.7,1225.87,136.73Z"/><path class="cls-4" d="M1194.87,157.15s25.4-26.42,31.18-24.84c3.67,1,6.22,10.66,6.33,31.43.11,20.23-6.23,34.1-6.23,34.1Z"/><path class="cls-5" d="M1201.72,172.89s18-30.92,21.66-27.25-3.66,44-7,48.67-14.66-20-14.66-20"/><path class="cls-4" d="M1107.69,135.9A13.11,13.11,0,0,1,1106,133a10.1,10.1,0,0,1-.66-5.15,15.31,15.31,0,0,1,.8-3.25,5.36,5.36,0,0,1,3,2.13,6.79,6.79,0,0,1,1.18,3.1,7,7,0,0,1-.37,3.25A5.73,5.73,0,0,1,1107.69,135.9Z"/><path class="cls-4" d="M1108,140.9a16.29,16.29,0,0,1-4.06-3.8,23.57,23.57,0,0,1-2.71-4.51,21.93,21.93,0,0,1-1.63-5,12,12,0,0,1,.12-5.64,29.09,29.09,0,0,1,3.52,4.15,28.54,28.54,0,0,1,2.53,4.46,27.09,27.09,0,0,1,1.7,4.88A17.85,17.85,0,0,1,1108,140.9Z"/><path class="cls-4" d="M1106.21,139.4s0-.09,0-.11-.07.1,0,.13a.07.07,0,0,1,0,.05l-.17.15-.38.25a6.59,6.59,0,0,1-.79.41,5.26,5.26,0,0,1-1.62.43,6.1,6.1,0,0,1-3.27-.54,5.75,5.75,0,0,1-2.61-2.4,4,4,0,0,1-.25-3.7c1.33.43,2.19.65,3,.85a11.93,11.93,0,0,1,2,.72,11.81,11.81,0,0,1,2,1.26,13.06,13.06,0,0,1,1.12,1c.19.22.4.4.6.64l.32.37.17.24s0,.06.06.1,0,.21,0,.2S1106.25,139.41,1106.21,139.4Z"/><path class="cls-4" d="M1137.2,159.82S1111.81,133.4,1106,135c-3.67,1-6.22,10.67-6.34,31.44-.1,20.23,6.24,34.1,6.24,34.1Z"/><path class="cls-5" d="M1130.36,175.56s-18-30.92-21.67-27.25,3.67,44,7,48.66,14.67-20,14.67-20"/><line class="cls-6" x1="1095.65" y1="216.22" x2="1110.15" y2="221.72"/><line class="cls-6" x1="1095.65" y1="237.83" x2="1110.15" y2="232.33"/><line class="cls-6" x1="1093.44" y1="227.15" x2="1108.94" y2="227.15"/><line class="cls-6" x1="1237.94" y1="216.35" x2="1223.44" y2="221.85"/><line class="cls-6" x1="1237.94" y1="237.95" x2="1223.44" y2="232.45"/><line class="cls-6" x1="1240.15" y1="227.28" x2="1224.64" y2="227.27"/><path class="cls-7" d="M1230.13,213.71c0,35-28.36,41.74-63.34,41.74s-63.33-6.76-63.33-41.74a63.34,63.34,0,0,1,126.67,0Z"/><path class="cls-4" d="M1118.18,197.51a2.5,2.5,0,0,1,0-5l15.92-.23a2.5,2.5,0,1,1,.08,5l-15.93.23Z"/><path class="cls-4" d="M1195.56,196.3a2.5,2.5,0,0,1,0-5l15.92-.24a2.5,2.5,0,1,1,.08,5l-15.93.24Z"/><path class="cls-8" d="M1139.23,218.85a2.48,2.48,0,0,1-.84-.15l-26.17-9.33a2.5,2.5,0,0,1,1.68-4.71l26.17,9.33a2.5,2.5,0,0,1-.84,4.86Z"/><path class="cls-8" d="M1113.06,218.85a2.5,2.5,0,0,1-.84-4.86l26.17-9.33a2.5,2.5,0,0,1,1.68,4.71l-26.17,9.33A2.44,2.44,0,0,1,1113.06,218.85Z"/><path class="cls-8" d="M1216.61,217.64a2.48,2.48,0,0,1-.84-.15l-26.16-9.33a2.5,2.5,0,1,1,1.68-4.71l26.16,9.33a2.5,2.5,0,0,1-.84,4.86Z"/><path class="cls-8" d="M1190.45,217.64a2.5,2.5,0,0,1-.84-4.86l26.16-9.33a2.5,2.5,0,0,1,1.68,4.71l-26.16,9.33A2.53,2.53,0,0,1,1190.45,217.64Z"/><path class="cls-8" d="M1175.93,240a2,2,0,0,1-1.46-.63l-8.66-9.24-8.66,9.24a2,2,0,0,1-2.92-2.73l10.12-10.81a2.08,2.08,0,0,1,2.92,0l10.12,10.81a2,2,0,0,1-.1,2.82A2,2,0,0,1,1175.93,240Z"/></g></g></svg>