<svg xmlns="http://www.w3.org/2000/svg" viewBox="0 0 153.12 136.22"><defs><style>.cls-1{fill:#bbaeab;}.cls-2{fill:#efddd9;}.cls-3,.cls-5,.cls-6{fill:none;stroke-linecap:round;}.cls-3{stroke:#bbaeab;stroke-miterlimit:10;}.cls-3,.cls-5{stroke-width:5px;}.cls-4{fill:#dac8c4;}.cls-5,.cls-6{stroke:#2b2525;stroke-linejoin:round;}.cls-6{stroke-width:4px;}</style></defs><g id="død_gaupe" data-name="død gaupe"><g id="Layer_9_copy_3" data-name="Layer 9 copy 3"><path class="cls-1" d="M134.49,14a5.76,5.76,0,0,1-2.23-2.85,7,7,0,0,1-.38-3.25,6.69,6.69,0,0,1,1.19-3.1,5.33,5.33,0,0,1,3-2.13,14.82,14.82,0,0,1,.81,3.25,9.76,9.76,0,0,1,0,2.59,10.18,10.18,0,0,1-.66,2.56A12.82,12.82,0,0,1,134.49,14Z"/><path class="cls-1" d="M134.21,19a18.06,18.06,0,0,1,.53-5.5,28.53,28.53,0,0,1,1.7-4.89A29.37,29.37,0,0,1,139,4.15,30.45,30.45,0,0,1,142.49,0a11.87,11.87,0,0,1,.12,5.64A21.44,21.44,0,0,1,141,10.69a23.12,23.12,0,0,1-2.72,4.51A16,16,0,0,1,134.21,19Z"/><path class="cls-1" d="M136,17.5s-.07.05-.14,0-.09-.15,0-.2,0-.07.06-.09L136,17l.31-.37c.21-.24.41-.42.6-.63a13.08,13.08,0,0,1,1.13-1,11.44,11.44,0,0,1,2-1.26,12.13,12.13,0,0,1,2-.72c.77-.2,1.63-.42,3-.85a4.07,4.07,0,0,1-.25,3.7,5.85,5.85,0,0,1-2.61,2.4,6.22,6.22,0,0,1-3.27.55,6,6,0,0,1-1.63-.43,7.29,7.29,0,0,1-.78-.42l-.38-.25a1.29,1.29,0,0,1-.17-.15.07.07,0,0,1,0-.05s0-.15,0-.12S136,17.46,136,17.5Z"/><path class="cls-1" d="M105,37.92s25.4-26.42,31.18-24.85c3.67,1,6.22,10.67,6.33,31.44.11,20.23-6.23,34.1-6.23,34.1Z"/><path class="cls-2" d="M111.83,53.66s18-30.92,21.66-27.25-3.67,44-7,48.66-14.66-20-14.66-20"/><path class="cls-1" d="M17.8,16.67a12.73,12.73,0,0,1-1.68-2.93,10.1,10.1,0,0,1-.66-5.15,15.23,15.23,0,0,1,.8-3.26,5.42,5.42,0,0,1,3,2.14,6.79,6.79,0,0,1,1.18,3.1A7,7,0,0,1,20,13.81,5.71,5.71,0,0,1,17.8,16.67Z"/><path class="cls-1" d="M18.08,21.67A16.33,16.33,0,0,1,14,17.86a23.75,23.75,0,0,1-2.72-4.5,21.91,21.91,0,0,1-1.62-5A11.87,11.87,0,0,1,9.8,2.67a29.75,29.75,0,0,1,3.52,4.15,28.09,28.09,0,0,1,2.53,4.46,27.32,27.32,0,0,1,1.7,4.88A17.85,17.85,0,0,1,18.08,21.67Z"/><path class="cls-1" d="M16.32,20.17s0-.09,0-.11-.07.09,0,.13a.06.06,0,0,1,0,0,1.27,1.27,0,0,1-.17.14l-.37.26a8.46,8.46,0,0,1-.79.41,5.89,5.89,0,0,1-1.62.43,6,6,0,0,1-3.27-.55,5.75,5.75,0,0,1-2.62-2.39,4.09,4.09,0,0,1-.24-3.71c1.33.44,2.19.66,3,.86a12.25,12.25,0,0,1,2,.72,11.39,11.39,0,0,1,2,1.26,13.11,13.11,0,0,1,1.13,1c.19.22.4.4.6.64l.32.37.17.24.06.1c.06.05,0,.2,0,.2A.22.22,0,0,1,16.32,20.17Z"/><path class="cls-1" d="M47.31,40.59S21.91,14.17,16.14,15.74c-3.67,1-6.23,10.67-6.34,31.44C9.7,67.41,16,81.28,16,81.28Z"/><path class="cls-2" d="M40.47,56.33s-18-30.92-21.67-27.25,3.67,44,7,48.66,14.67-20,14.67-20"/><line class="cls-3" x1="5.76" y1="96.99" x2="20.26" y2="102.49"/><line class="cls-3" x1="5.76" y1="118.6" x2="20.26" y2="113.1"/><line class="cls-3" x1="3.54" y1="107.92" x2="19.05" y2="107.92"/><line class="cls-3" x1="148.05" y1="97.11" x2="133.55" y2="102.61"/><line class="cls-3" x1="148.05" y1="118.72" x2="133.55" y2="113.22"/><line class="cls-3" x1="150.26" y1="108.05" x2="134.75" y2="108.04"/><path class="cls-4" d="M140.23,94.48c0,35-28.35,41.74-63.33,41.74s-63.33-6.76-63.33-41.74a63.33,63.33,0,1,1,126.66,0Z"/><line class="cls-3" x1="44.22" y1="75.54" x2="28.29" y2="75.78"/><line class="cls-3" x1="121.6" y1="74.33" x2="105.67" y2="74.56"/><line class="cls-5" x1="23.17" y1="87.78" x2="49.34" y2="97.11"/><line class="cls-5" x1="49.34" y1="87.78" x2="23.17" y2="97.11"/><line class="cls-5" x1="100.55" y1="86.57" x2="126.72" y2="95.9"/><line class="cls-5" x1="126.72" y1="86.57" x2="100.55" y2="95.9"/><polyline class="cls-6" points="65.8 118.72 75.92 107.92 86.03 118.72"/></g></g></svg>