<svg xmlns="http://www.w3.org/2000/svg" viewBox="0 0 419.35 269.21"><defs><style>.cls-1{opacity:0.25;}.cls-2{fill:#d3ead8;}.cls-3{fill:#b5dcb4;}.cls-4{fill:none;stroke:#89bee2;stroke-linejoin:round;stroke-width:5px;}.cls-5{fill:#efe2c5;}.cls-6{fill:#eab0ac;}.cls-7{fill:#2b2525;}.cls-8{fill:#fff;}</style></defs><g id="Layer_2_copy_2" data-name="Layer 2 copy 2"><g class="cls-1"><path class="cls-2" d="M298.26,260.75c-4.81,0-10.9-1.84-16.79-3.62-3.72-1.12-7.57-2.28-11.14-3-2.57-.51-5.9-6.33-8.32-10.57-3.52-6.18-7.17-12.56-12.94-14.29a23.79,23.79,0,0,0-6.85-.93,60.8,60.8,0,0,0-10.63,1.24,48.4,48.4,0,0,1-8,1,9.65,9.65,0,0,1-2.9-.37,35.39,35.39,0,0,0-10.68-1.76,34.18,34.18,0,0,0-13,2.79c-.91.35-1.69.65-2.36.85a3.75,3.75,0,0,1-1,.12c-2.07,0-5.13-.87-8.37-1.78-4.26-1.2-9.1-2.57-13.82-2.57a20.37,20.37,0,0,0-5.77.79,82.39,82.39,0,0,0-9.28,3.6c-4.2,1.83-8.17,3.56-11.37,3.56a6.86,6.86,0,0,1-2.11-.3c-1.36-.41-3.82-3.56-5.8-6.08-3.19-4.07-7.16-9.13-12.73-12.46-3.64-2.17-6.71-5.36-10-8.73a77.19,77.19,0,0,0-8.65-8.1c-4.58-3.51-9.67-5.07-14.16-6.44-3.57-1.09-7-2.12-8-3.7s-1.44-4.69-1.73-8.13a44.3,44.3,0,0,0-2.4-12.54c-1.77-4.63-6.56-7.44-11.2-10.16-3.58-2.11-7.64-4.49-8.28-6.77-1.26-4.5-2.16-9.42-3-14.19-.49-2.68-1-5.46-1.57-8.13-.43-2,3.38-6.73,5.91-9.83,4.08-5,7.94-9.76,7.2-15a77.5,77.5,0,0,1-.58-17.78L68,86.2c.23-4-2.81-7.47-6.34-11.55C58.5,71,54.21,66.06,55.18,63.32c1.19-3.33,3.76-6.63,6.49-10.13a65.9,65.9,0,0,0,6.08-8.74c2-3.65,5.71-5.46,9.66-7.38a34.58,34.58,0,0,0,7.13-4.19c3.38-2.81,7.31-5.24,15.52-7.93a9,9,0,0,1,2.8-.39,38.57,38.57,0,0,1,6,.71,47.3,47.3,0,0,0,8,.88,22.11,22.11,0,0,0,4.16-.38c5.23-1,9-5.44,12.4-9.35,1.9-2.21,4.78-5.56,6.21-5.63h.34c2.93,0,4.22,1.82,6.46,6,1.23,2.29,2.51,4.67,4.63,6.21a90.15,90.15,0,0,0,8.06,4.83C162.8,29.9,167,32.24,171.27,35a42.7,42.7,0,0,1,7.13,6.7c3,3.27,6.17,6.66,10.13,9.15a13,13,0,0,0,7.05,1.8c3.6,0,7.47-1,11.21-1.93A40.32,40.32,0,0,1,215,49.22a3.11,3.11,0,0,1,1.39.2c4.7,2.74,8.48,7.3,11.52,11s5.11,6.16,8,6.81a64.47,64.47,0,0,0,12.7,1c4,0,8.37-.18,12.63-.52,3.68-.3,7.39-1,11.32-1.64,3.54-.62,7.21-1.27,10.79-1.61s7.18-1,10.58-1.7a74.71,74.71,0,0,1,10.91-1.6c.55,0,1.08,0,1.59,0,5.91,0,10.25,1.37,14.44,2.7l2.72.83a6.4,6.4,0,0,0,1.76.25c3.64,0,7-2.9,11.55-6.9C340.5,54.79,346,50,349,50a2.25,2.25,0,0,1,.38,0c2.45.52,5.48,3.07,8.41,5.53,3.41,2.86,6.94,5.83,11,7.07,2.8.84,4.49,5.68,6,9.94,1.32,3.77,2.56,7.32,5,9.5a29.23,29.23,0,0,0,6.87,4c5.45,2.6,9.33,4.73,9.68,8.37.38,3.91,2.22,8.14,4,12.23,1.85,4.27,3.95,9.1,3.56,12.07-1.3,9.64-6,23.66-8.41,26.7-.61.75-3.08,1.9-5.07,2.81-5.39,2.49-12.78,5.9-16.31,14a109.92,109.92,0,0,0-4,11.5c-1.47,4.78-3,9.72-5.12,13.65-4.72,8.69-12.72,16.29-17.85,19-8.1,4.32-11.77,10.28-15.36,19.12-1.23,3-1.7,6.95-2.2,11.12-.71,5.88-1.59,13.21-4.65,15.11C320.26,254.74,307.59,260.75,298.26,260.75Z"/><path class="cls-3" d="M140.35,15.5a22.27,22.27,0,0,1,2.08,3.41c1.41,2.62,3,5.58,5.95,7.73a90.6,90.6,0,0,0,8.52,5.12c3.64,2,7.76,4.34,11.91,7.05a39.71,39.71,0,0,1,6.28,6c3.09,3.33,6.58,7.11,11,9.91a17.54,17.54,0,0,0,9.44,2.49c4.16,0,8.31-1,12.32-2.06a43.16,43.16,0,0,1,6.91-1.41c3.73,2.41,7,6.34,9.64,9.53,3.4,4.1,6.09,7.33,10.42,8.33a65.31,65.31,0,0,0,13.71,1.1c4.11,0,8.61-.18,13-.54,3.89-.31,7.88-1,11.74-1.69,3.46-.61,7-1.23,10.44-1.56,3.88-.37,7.51-1.08,11-1.76A71.92,71.92,0,0,1,305,65.6l1.4,0c5.21,0,9.22,1.27,13.09,2.49l2.8.86a11,11,0,0,0,3,.43c5.33,0,9.38-3.54,14.51-8,2.28-2,6.9-6,9.07-6.75,1.49.63,4.19,2.89,6,4.43,3.53,3,7.53,6.34,12.41,7.87,1.08,1,2.53,5.16,3.24,7.19,1.45,4.13,2.94,8.4,6.22,11.35a31.83,31.83,0,0,0,7.95,4.76c2.27,1.09,7,3.35,7.13,4.74.45,4.62,2.43,9.18,4.35,13.6,1.21,2.78,3.46,8,3.23,9.67-1.16,8.62-5.34,21.18-7.29,24.23-.72.46-2.37,1.22-3.62,1.8-5.7,2.63-14.33,6.61-18.55,16.27a112.66,112.66,0,0,0-4.18,12c-1.47,4.78-2.86,9.29-4.78,12.83-4.14,7.62-11.39,14.73-16,17.19-10.26,5.48-14.23,13.57-17.41,21.39-1.45,3.57-2,7.8-2.5,12.28-.41,3.37-1.24,10.34-2.66,11.9-5.38,3.32-16.7,8.18-24.2,8.18-4.14,0-9.91-1.74-15.49-3.42-3.69-1.12-7.5-2.27-11.16-3-1.5-1.13-4.21-5.87-5.69-8.46-4-6.95-8.06-14.12-15.56-16.37a28.1,28.1,0,0,0-8.14-1.12,65.58,65.58,0,0,0-11.42,1.31,46.1,46.1,0,0,1-7.17.93,5.35,5.35,0,0,1-1.54-.16,39.87,39.87,0,0,0-12-2,38.7,38.7,0,0,0-14.6,3.09c-.68.26-1.32.51-1.81.67a38.71,38.71,0,0,1-7.14-1.61c-4.54-1.28-9.69-2.74-15-2.74a24.62,24.62,0,0,0-7.05,1,88,88,0,0,0-9.8,3.79c-3.59,1.56-7.31,3.18-9.57,3.18a2.82,2.82,0,0,1-.42,0,42.09,42.09,0,0,1-4-4.64c-3.42-4.36-7.67-9.79-14-13.54-3.13-1.87-6-4.84-9-8a80.51,80.51,0,0,0-9.16-8.55c-5.23-4-11-5.76-15.59-7.17a30.65,30.65,0,0,1-5.74-2.11c-.46-.94-.7-3.84-.87-5.8a48.55,48.55,0,0,0-2.67-13.77c-2.34-6.1-8.07-9.46-13.13-12.43-2.05-1.21-5.46-3.21-6.29-4.34-1.17-4.24-2-9-2.88-13.55-.46-2.48-.93-5-1.45-7.56.64-1.58,3.24-4.78,4.85-6.75,4.3-5.29,9.18-11.28,8.16-18.45a73.6,73.6,0,0,1-.54-16.88l.08-1.32C72.8,80.69,69,76.33,65,71.71c-1.6-1.85-4.83-5.58-5.43-7.37,1-2.53,3.27-5.38,5.61-8.39A68.85,68.85,0,0,0,71.7,46.6c1.21-2.22,3.71-3.55,7.68-5.48a38.13,38.13,0,0,0,8-4.78c3-2.49,6.51-4.64,14-7.11a4.62,4.62,0,0,1,1.4-.17,35.69,35.69,0,0,1,5.25.65,51.42,51.42,0,0,0,8.72.94,26.07,26.07,0,0,0,5-.46c6.77-1.31,11.31-6.59,15-10.84a49,49,0,0,1,3.55-3.85m-.41-9.21h-.55c-6.68.3-11.8,13.61-19.26,15.05a17.39,17.39,0,0,1-3.3.3c-4.75,0-9.54-1.59-14-1.59a13.47,13.47,0,0,0-4.2.61c-8.56,2.81-13.1,5.5-17,8.75-4.77,4-13.73,5.28-17.86,12.88-3.59,6.59-10.38,12.58-12.86,19.51C47.83,70.53,63.78,80.66,63.48,86a86.37,86.37,0,0,0,.54,20c1,6.91-14.73,17.23-13,25.12,1.56,7.32,2.63,15.3,4.68,22.6,2.14,7.63,17.06,10.66,19.61,17.32,3.14,8.21,1.1,16.53,4.63,21.62,3.84,5.54,15,4.88,23.18,11.15,6.89,5.28,11.69,12.75,19,17.12,9.35,5.59,13.89,17.25,19.52,19a11.76,11.76,0,0,0,3.43.49c6.67,0,14-5,21.94-7.34a15.49,15.49,0,0,1,4.48-.61c7.67,0,16.39,4.35,22.19,4.35a8.3,8.3,0,0,0,2.35-.31c3.3-1,7.55-3.45,14.05-3.45a30.59,30.59,0,0,1,9.32,1.55,14,14,0,0,0,4.26.58c5.59,0,12.29-2.24,18.59-2.24a19.53,19.53,0,0,1,5.56.74c8.37,2.51,12.78,23.21,21.69,25s20,6.69,28.79,6.69c10.42,0,23.84-6.36,29.06-9.61,7.52-4.68,5.78-21.35,8.63-28.35,3.22-7.91,6.26-13.08,13.32-16.85,6.12-3.26,14.64-11.56,19.68-20.84,4.13-7.6,5.84-17.58,9.3-25.5,4.5-10.29,17.3-11.45,20.77-15.79,3.35-4.18,8.11-19.62,9.36-28.92,1-7.43-6.83-18-7.54-25.32-.9-9.35-13.78-11.51-18-15.33-4.08-3.67-4.57-17.95-12.67-20.4-6.7-2-13-11.25-19.81-12.69a6.4,6.4,0,0,0-1.31-.13c-8.28,0-19.13,14.83-23.71,14.83a1.63,1.63,0,0,1-.5-.07c-4.87-1.42-10.43-3.71-18.42-3.71-.58,0-1.17,0-1.78,0-6.93.29-14.18,2.59-21.73,3.32s-15.21,2.69-22,3.24c-4.18.34-8.43.51-12.27.51a59,59,0,0,1-11.69-.87C233.66,62.06,228,51,218.67,45.53a7.23,7.23,0,0,0-3.66-.81c-5.47,0-13.48,3.47-19.43,3.47a8.64,8.64,0,0,1-4.66-1.12c-6.62-4.15-11.27-11.92-17.18-15.79-8.29-5.42-16.43-9.28-20.06-11.92-3.83-2.78-4.79-13.07-13.74-13.07Z"/><path class="cls-2" d="M298.26,260.75c-4.81,0-10.9-1.84-16.79-3.62-3.72-1.12-7.57-2.28-11.14-3-2.57-.51-5.9-6.33-8.32-10.57-3.52-6.18-7.17-12.56-12.94-14.29a23.79,23.79,0,0,0-6.85-.93,60.8,60.8,0,0,0-10.63,1.24,48.4,48.4,0,0,1-8,1,9.65,9.65,0,0,1-2.9-.37,35.39,35.39,0,0,0-10.68-1.76,34.18,34.18,0,0,0-13,2.79c-.91.35-1.69.65-2.36.85a3.75,3.75,0,0,1-1,.12c-2.07,0-5.13-.87-8.37-1.78-4.26-1.2-9.1-2.57-13.82-2.57a20.37,20.37,0,0,0-5.77.79,82.39,82.39,0,0,0-9.28,3.6c-4.2,1.83-8.17,3.56-11.37,3.56a6.86,6.86,0,0,1-2.11-.3c-1.36-.41-3.82-3.56-5.8-6.08-3.19-4.07-7.16-9.13-12.73-12.46-3.64-2.17-6.71-5.36-10-8.73a77.19,77.19,0,0,0-8.65-8.1c-4.58-3.51-9.67-5.07-14.16-6.44-3.57-1.09-7-2.12-8-3.7s-1.44-4.69-1.73-8.13a44.3,44.3,0,0,0-2.4-12.54c-1.77-4.63-6.56-7.44-11.2-10.16-3.58-2.11-7.64-4.49-8.28-6.77-1.26-4.5-2.16-9.42-3-14.19-.49-2.68-1-5.46-1.57-8.13-.43-2,3.38-6.73,5.91-9.83,4.08-5,7.94-9.76,7.2-15a77.5,77.5,0,0,1-.58-17.78L68,86.2c.23-4-2.81-7.47-6.34-11.55C58.5,71,54.21,66.06,55.18,63.32c1.19-3.33,3.76-6.63,6.49-10.13a65.9,65.9,0,0,0,6.08-8.74c2-3.65,5.71-5.46,9.66-7.38a34.58,34.58,0,0,0,7.13-4.19c3.38-2.81,7.31-5.24,15.52-7.93a9,9,0,0,1,2.8-.39,38.57,38.57,0,0,1,6,.71,47.3,47.3,0,0,0,8,.88,22.11,22.11,0,0,0,4.16-.38c5.23-1,9-5.44,12.4-9.35,1.9-2.21,4.78-5.56,6.21-5.63h.34c2.93,0,4.22,1.82,6.46,6,1.23,2.29,2.51,4.67,4.63,6.21a90.15,90.15,0,0,0,8.06,4.83C162.8,29.9,167,32.24,171.27,35a42.7,42.7,0,0,1,7.13,6.7c3,3.27,6.17,6.66,10.13,9.15a13,13,0,0,0,7.05,1.8c3.6,0,7.47-1,11.21-1.93A40.32,40.32,0,0,1,215,49.22a3.11,3.11,0,0,1,1.39.2c4.7,2.74,8.48,7.3,11.52,11s5.11,6.16,8,6.81a64.47,64.47,0,0,0,12.7,1c4,0,8.37-.18,12.63-.52,3.68-.3,7.39-1,11.32-1.64,3.54-.62,7.21-1.27,10.79-1.61s7.18-1,10.58-1.7a74.71,74.71,0,0,1,10.91-1.6c.55,0,1.08,0,1.59,0,5.91,0,10.25,1.37,14.44,2.7l2.72.83a6.4,6.4,0,0,0,1.76.25c3.64,0,7-2.9,11.55-6.9C340.5,54.79,346,50,349,50a2.25,2.25,0,0,1,.38,0c2.45.52,5.48,3.07,8.41,5.53,3.41,2.86,6.94,5.83,11,7.07,2.8.84,4.49,5.68,6,9.94,1.32,3.77,2.56,7.32,5,9.5a29.23,29.23,0,0,0,6.87,4c5.45,2.6,9.33,4.73,9.68,8.37.38,3.91,2.22,8.14,4,12.23,1.85,4.27,3.95,9.1,3.56,12.07-1.3,9.64-6,23.66-8.41,26.7-.61.75-3.08,1.9-5.07,2.81-5.39,2.49-12.78,5.9-16.31,14a109.92,109.92,0,0,0-4,11.5c-1.47,4.78-3,9.72-5.12,13.65-4.72,8.69-12.72,16.29-17.85,19-8.1,4.32-11.77,10.28-15.36,19.12-1.23,3-1.7,6.95-2.2,11.12-.71,5.88-1.59,13.21-4.65,15.11C320.26,254.74,307.59,260.75,298.26,260.75Z"/><path class="cls-3" d="M140.35,15.5a22.27,22.27,0,0,1,2.08,3.41c1.41,2.62,3,5.58,5.95,7.73a90.6,90.6,0,0,0,8.52,5.12c3.64,2,7.76,4.34,11.91,7.05a39.71,39.71,0,0,1,6.28,6c3.09,3.33,6.58,7.11,11,9.91a17.54,17.54,0,0,0,9.44,2.49c4.16,0,8.31-1,12.32-2.06a43.16,43.16,0,0,1,6.91-1.41c3.73,2.41,7,6.34,9.64,9.53,3.4,4.1,6.09,7.33,10.42,8.33a65.31,65.31,0,0,0,13.71,1.1c4.11,0,8.61-.18,13-.54,3.89-.31,7.88-1,11.74-1.69,3.46-.61,7-1.23,10.44-1.56,3.88-.37,7.51-1.08,11-1.76A71.92,71.92,0,0,1,305,65.6l1.4,0c5.21,0,9.22,1.27,13.09,2.49l2.8.86a11,11,0,0,0,3,.43c5.33,0,9.38-3.54,14.51-8,2.28-2,6.9-6,9.07-6.75,1.49.63,4.19,2.89,6,4.43,3.53,3,7.53,6.34,12.41,7.87,1.08,1,2.53,5.16,3.24,7.19,1.45,4.13,2.94,8.4,6.22,11.35a31.83,31.83,0,0,0,7.95,4.76c2.27,1.09,7,3.35,7.13,4.74.45,4.62,2.43,9.18,4.35,13.6,1.21,2.78,3.46,8,3.23,9.67-1.16,8.62-5.34,21.18-7.29,24.23-.72.46-2.37,1.22-3.62,1.8-5.7,2.63-14.33,6.61-18.55,16.27a112.66,112.66,0,0,0-4.18,12c-1.47,4.78-2.86,9.29-4.78,12.83-4.14,7.62-11.39,14.73-16,17.19-10.26,5.48-14.23,13.57-17.41,21.39-1.45,3.57-2,7.8-2.5,12.28-.41,3.37-1.24,10.34-2.66,11.9-5.38,3.32-16.7,8.18-24.2,8.18-4.14,0-9.91-1.74-15.49-3.42-3.69-1.12-7.5-2.27-11.16-3-1.5-1.13-4.21-5.87-5.69-8.46-4-6.95-8.06-14.12-15.56-16.37a28.1,28.1,0,0,0-8.14-1.12,65.58,65.58,0,0,0-11.42,1.31,46.1,46.1,0,0,1-7.17.93,5.35,5.35,0,0,1-1.54-.16,39.87,39.87,0,0,0-12-2,38.7,38.7,0,0,0-14.6,3.09c-.68.26-1.32.51-1.81.67a38.71,38.71,0,0,1-7.14-1.61c-4.54-1.28-9.69-2.74-15-2.74a24.62,24.62,0,0,0-7.05,1,88,88,0,0,0-9.8,3.79c-3.59,1.56-7.31,3.18-9.57,3.18a2.82,2.82,0,0,1-.42,0,42.09,42.09,0,0,1-4-4.64c-3.42-4.36-7.67-9.79-14-13.54-3.13-1.87-6-4.84-9-8a80.51,80.51,0,0,0-9.16-8.55c-5.23-4-11-5.76-15.59-7.17a30.65,30.65,0,0,1-5.74-2.11c-.46-.94-.7-3.84-.87-5.8a48.55,48.55,0,0,0-2.67-13.77c-2.34-6.1-8.07-9.46-13.13-12.43-2.05-1.21-5.46-3.21-6.29-4.34-1.17-4.24-2-9-2.88-13.55-.46-2.48-.93-5-1.45-7.56.64-1.58,3.24-4.78,4.85-6.75,4.3-5.29,9.18-11.28,8.16-18.45a73.6,73.6,0,0,1-.54-16.88l.08-1.32C72.8,80.69,69,76.33,65,71.71c-1.6-1.85-4.83-5.58-5.43-7.37,1-2.53,3.27-5.38,5.61-8.39A68.85,68.85,0,0,0,71.7,46.6c1.21-2.22,3.71-3.55,7.68-5.48a38.13,38.13,0,0,0,8-4.78c3-2.49,6.51-4.64,14-7.11a4.62,4.62,0,0,1,1.4-.17,35.69,35.69,0,0,1,5.25.65,51.42,51.42,0,0,0,8.72.94,26.07,26.07,0,0,0,5-.46c6.77-1.31,11.31-6.59,15-10.84a49,49,0,0,1,3.55-3.85m-.41-9.21h-.55c-6.68.3-11.8,13.61-19.26,15.05a17.39,17.39,0,0,1-3.3.3c-4.75,0-9.54-1.59-14-1.59a13.47,13.47,0,0,0-4.2.61c-8.56,2.81-13.1,5.5-17,8.75-4.77,4-13.73,5.28-17.86,12.88-3.59,6.59-10.38,12.58-12.86,19.51C47.83,70.53,63.78,80.66,63.48,86a86.37,86.37,0,0,0,.54,20c1,6.91-14.73,17.23-13,25.12,1.56,7.32,2.63,15.3,4.68,22.6,2.14,7.63,17.06,10.66,19.61,17.32,3.14,8.21,1.1,16.53,4.63,21.62,3.84,5.54,15,4.88,23.18,11.15,6.89,5.28,11.69,12.75,19,17.12,9.35,5.59,13.89,17.25,19.52,19a11.76,11.76,0,0,0,3.43.49c6.67,0,14-5,21.94-7.34a15.49,15.49,0,0,1,4.48-.61c7.67,0,16.39,4.35,22.19,4.35a8.3,8.3,0,0,0,2.35-.31c3.3-1,7.55-3.45,14.05-3.45a30.59,30.59,0,0,1,9.32,1.55,14,14,0,0,0,4.26.58c5.59,0,12.29-2.24,18.59-2.24a19.53,19.53,0,0,1,5.56.74c8.37,2.51,12.78,23.21,21.69,25s20,6.69,28.79,6.69c10.42,0,23.84-6.36,29.06-9.61,7.52-4.68,5.78-21.35,8.63-28.35,3.22-7.91,6.26-13.08,13.32-16.85,6.12-3.26,14.64-11.56,19.68-20.84,4.13-7.6,5.84-17.58,9.3-25.5,4.5-10.29,17.3-11.45,20.77-15.79,3.35-4.18,8.11-19.62,9.36-28.92,1-7.43-6.83-18-7.54-25.32-.9-9.35-13.78-11.51-18-15.33-4.08-3.67-4.57-17.95-12.67-20.4-6.7-2-13-11.25-19.81-12.69a6.4,6.4,0,0,0-1.31-.13c-8.28,0-19.13,14.83-23.71,14.83a1.63,1.63,0,0,1-.5-.07c-4.87-1.42-10.43-3.71-18.42-3.71-.58,0-1.17,0-1.78,0-6.93.29-14.18,2.59-21.73,3.32s-15.21,2.69-22,3.24c-4.18.34-8.43.51-12.27.51a59,59,0,0,1-11.69-.87C233.66,62.06,228,51,218.67,45.53a7.23,7.23,0,0,0-3.66-.81c-5.47,0-13.48,3.47-19.43,3.47a8.64,8.64,0,0,1-4.66-1.12c-6.62-4.15-11.27-11.92-17.18-15.79-8.29-5.42-16.43-9.28-20.06-11.92-3.83-2.78-4.79-13.07-13.74-13.07Z"/></g><path class="cls-4" d="M69.38,207.83c-17.64-1.17-18.82-15.29-18.82-15.29s-7,15.22-18.82,15.29c-9.42.06-14.12-15.29-14.12-15.29S9,206.78,3.15,207.89"/><path class="cls-4" d="M36.27,235.81c17.64-1.18,18.82-15.3,18.82-15.3s7,15.22,18.82,15.3c9.42.05,14.12-15.3,14.12-15.3s8.59,14.24,14.47,15.35"/><path class="cls-4" d="M244.38,36.88c17.65-1.18,18.83-15.3,18.83-15.3s7,15.22,18.82,15.3c9.42.06,14.12-15.3,14.12-15.3s8.59,14.24,14.47,15.36"/><path class="cls-4" d="M379,235.84c17.64-1.18,18.82-15.3,18.82-15.3s7,15.22,18.82,15.3"/><path class="cls-4" d="M216.69,21.58c17.64-1.17,18.82-15.29,18.82-15.29s7.05,15.22,18.82,15.29"/><path class="cls-5" d="M94.43,49.72c4.38,13.8,3.06,19.34-.39,20.43S86.32,67.48,82,53.68s-3.5-20.75-.06-21.85S90.06,35.93,94.43,49.72Z"/><path class="cls-6" d="M95,58.92c3.55,11.2,2.93,15.55.69,16.26s-5.26-2.49-8.81-13.69-3.3-16.71-1-17.42S91.49,47.71,95,58.92Z"/><path class="cls-5" d="M119.62,49.72c-4.38,13.8-3.06,19.34.39,20.43s7.72-2.67,12.09-16.47,3.5-20.75.06-21.85S124,35.93,119.62,49.72Z"/><path class="cls-6" d="M119,58.92c-3.55,11.2-2.93,15.55-.69,16.26s5.26-2.49,8.81-13.69,3.3-16.71,1.05-17.42S122.56,47.71,119,58.92Z"/><path class="cls-5" d="M134.68,87.17c0,15.38-12.47,18.92-27.85,18.92S79,102.55,79,87.17a27.85,27.85,0,0,1,55.7,0Z"/><path class="cls-7" d="M93.94,83.63c0,1.68-1.37,2.6-3.06,2.6s-3-.92-3-2.6a3.06,3.06,0,1,1,6.11,0Z"/><path class="cls-8" d="M90.88,82.4a.93.93,0,1,1-.92-.93A.93.93,0,0,1,90.88,82.4Z"/><path class="cls-7" d="M126.22,83.63c0,1.68-1.37,2.6-3,2.6s-3-.92-3-2.6a3.05,3.05,0,1,1,6.1,0Z"/><path class="cls-8" d="M123.17,82.4a.93.93,0,1,1-.93-.93A.93.93,0,0,1,123.17,82.4Z"/><path class="cls-6" d="M94.53,87.74c0,.74-2.88,1.34-6.44,1.34s-6.44-.6-6.44-1.34,2.89-1.34,6.44-1.34S94.53,87,94.53,87.74Z"/><path class="cls-6" d="M131,87.74c0,.74-2.89,1.34-6.44,1.34s-6.44-.6-6.44-1.34,2.88-1.34,6.44-1.34S131,87,131,87.74Z"/><path class="cls-7" d="M110.41,95.31a4.72,4.72,0,0,1-3.18-1.43,7.62,7.62,0,0,1-3.86,1.42A4.48,4.48,0,0,1,99.29,93a.9.9,0,0,1,.38-1.21.88.88,0,0,1,1.2.37,2.73,2.73,0,0,0,2.41,1.32A6.44,6.44,0,0,0,106.74,92a.88.88,0,0,1,.69-.22.89.89,0,0,1,.64.36,3.33,3.33,0,0,0,2.46,1.37,2.15,2.15,0,0,0,1.79-1.24.9.9,0,0,1,1.17-.48A.89.89,0,0,1,114,93a4,4,0,0,1-3.35,2.36Z"/><path class="cls-5" d="M138,153.55c4.38,13.8,3.05,19.34-.39,20.43s-7.72-2.67-12.1-16.47-3.5-20.75,0-21.85S133.58,139.76,138,153.55Z"/><path class="cls-6" d="M138.56,162.75c3.55,11.2,2.93,15.55.68,16.26s-5.26-2.49-8.8-13.69-3.3-16.71-1.05-17.42S135,151.54,138.56,162.75Z"/><path class="cls-5" d="M163.13,153.55c-4.37,13.8-3,19.34.4,20.43s7.72-2.67,12.09-16.47,3.5-20.75,0-21.85S167.5,139.76,163.13,153.55Z"/><path class="cls-6" d="M162.53,162.75C159,174,159.6,178.3,161.84,179s5.26-2.49,8.81-13.69,3.3-16.71,1-17.42S166.08,151.54,162.53,162.75Z"/><path class="cls-5" d="M178.2,191c0,15.38-12.47,18.92-27.85,18.92S122.5,206.38,122.5,191a27.85,27.85,0,1,1,55.7,0Z"/><path class="cls-7" d="M137.45,187.46c0,1.68-1.36,2.6-3,2.6s-3.05-.92-3.05-2.6a3.05,3.05,0,1,1,6.1,0Z"/><path class="cls-8" d="M134.4,186.23a.93.93,0,1,1-.93-.93A.93.93,0,0,1,134.4,186.23Z"/><path class="cls-7" d="M169.74,187.46c0,1.68-1.37,2.6-3.05,2.6s-3.06-.92-3.06-2.6a3.06,3.06,0,1,1,6.11,0Z"/><path class="cls-8" d="M166.69,186.23a.93.93,0,1,1-.93-.93A.93.93,0,0,1,166.69,186.23Z"/><path class="cls-6" d="M138.05,191.57c0,.74-2.88,1.34-6.44,1.34s-6.44-.6-6.44-1.34,2.88-1.34,6.44-1.34S138.05,190.83,138.05,191.57Z"/><path class="cls-6" d="M174.47,191.57c0,.74-2.89,1.34-6.44,1.34s-6.44-.6-6.44-1.34,2.88-1.34,6.44-1.34S174.47,190.83,174.47,191.57Z"/><path class="cls-7" d="M153.93,199.14a4.72,4.72,0,0,1-3.18-1.43,7.66,7.66,0,0,1-3.86,1.42,4.47,4.47,0,0,1-4.08-2.26.9.9,0,0,1,1.58-.85,2.7,2.7,0,0,0,2.41,1.33,6.49,6.49,0,0,0,3.46-1.51.9.9,0,0,1,1.32.14,3.38,3.38,0,0,0,2.46,1.37,2.15,2.15,0,0,0,1.8-1.24.9.9,0,0,1,1.66.67,4,4,0,0,1-3.35,2.36Z"/><path class="cls-5" d="M219.76,76.81c4.37,13.79,3.05,19.33-.39,20.43s-7.72-2.68-12.1-16.48-3.5-20.75-.05-21.84S215.39,63,219.76,76.81Z"/><path class="cls-6" d="M220.37,86c3.55,11.2,2.93,15.55.68,16.26s-5.26-2.49-8.81-13.69S209,71.86,211.19,71.15,216.82,74.8,220.37,86Z"/><path class="cls-5" d="M244.94,76.81c-4.37,13.79-3.05,19.33.4,20.43s7.72-2.68,12.09-16.48,3.5-20.75.05-21.84S249.31,63,244.94,76.81Z"/><path class="cls-6" d="M244.34,86c-3.55,11.2-2.93,15.55-.69,16.26s5.26-2.49,8.81-13.69,3.29-16.71,1-17.42S247.89,74.8,244.34,86Z"/><path class="cls-5" d="M260,114.25c0,15.38-12.47,18.92-27.85,18.92s-27.85-3.54-27.85-18.92a27.85,27.85,0,1,1,55.7,0Z"/><path class="cls-7" d="M219.26,110.71c0,1.69-1.36,2.61-3,2.61s-3.05-.92-3.05-2.61a3,3,0,1,1,6.1,0Z"/><path class="cls-8" d="M216.21,109.48a.93.93,0,1,1-1.85,0,.93.93,0,0,1,1.85,0Z"/><path class="cls-7" d="M251.55,110.71c0,1.69-1.37,2.61-3.05,2.61s-3.06-.92-3.06-2.61a3.06,3.06,0,0,1,6.11,0Z"/><path class="cls-8" d="M248.5,109.48a.93.93,0,1,1-.93-.92A.93.93,0,0,1,248.5,109.48Z"/><path class="cls-6" d="M219.86,114.83c0,.74-2.88,1.33-6.44,1.33s-6.44-.59-6.44-1.33,2.88-1.34,6.44-1.34S219.86,114.08,219.86,114.83Z"/><path class="cls-6" d="M256.28,114.83c0,.74-2.89,1.33-6.45,1.33s-6.44-.59-6.44-1.33,2.89-1.34,6.44-1.34S256.28,114.08,256.28,114.83Z"/><path class="cls-7" d="M235.73,122.4a4.74,4.74,0,0,1-3.17-1.43,7.76,7.76,0,0,1-3.87,1.41,4.44,4.44,0,0,1-4.07-2.26.89.89,0,1,1,1.58-.84,2.71,2.71,0,0,0,2.4,1.32,6.5,6.5,0,0,0,3.47-1.51.88.88,0,0,1,.69-.22.93.93,0,0,1,.63.36,3.35,3.35,0,0,0,2.46,1.37,2.15,2.15,0,0,0,1.8-1.24.9.9,0,0,1,1.66.67,4,4,0,0,1-3.35,2.36Z"/></g></svg>