<svg xmlns="http://www.w3.org/2000/svg" viewBox="0 0 419.35 319.76"><defs><style>.cls-1{opacity:0.25;}.cls-2{fill:#d3ead8;}.cls-3{fill:#b5dcb4;}.cls-4{fill:none;stroke:#89bee2;stroke-linejoin:round;stroke-width:5px;}.cls-5{fill:#efe2c5;}.cls-6{fill:#eab0ac;}.cls-7{fill:#2b2525;}.cls-8{fill:#fff;}</style></defs><g id="Layer_2_copy" data-name="Layer 2 copy"><g class="cls-1"><path class="cls-2" d="M298.08,300.93c-4.81,0-10.9-1.84-16.79-3.62-3.73-1.12-7.57-2.28-11.14-3-2.58-.51-5.9-6.33-8.32-10.58-3.53-6.17-7.17-12.55-12.94-14.28a23.47,23.47,0,0,0-6.86-.93,60.69,60.69,0,0,0-10.62,1.24,49.64,49.64,0,0,1-8,1,9.6,9.6,0,0,1-2.9-.37,35.48,35.48,0,0,0-10.69-1.77,34.25,34.25,0,0,0-13,2.8c-.9.35-1.69.65-2.35.85a4,4,0,0,1-1.05.11c-2.08,0-5.14-.86-8.37-1.77-4.27-1.21-9.1-2.57-13.82-2.57a20.37,20.37,0,0,0-5.77.79,81.66,81.66,0,0,0-9.28,3.6c-4.2,1.83-8.17,3.56-11.37,3.56a7.08,7.08,0,0,1-2.11-.3c-1.36-.42-3.83-3.56-5.81-6.08-3.18-4.07-7.15-9.13-12.72-12.46-3.65-2.18-6.71-5.36-10-8.73a77.19,77.19,0,0,0-8.65-8.1c-4.59-3.52-9.68-5.07-14.16-6.44-3.58-1.09-6.95-2.12-8-3.71s-1.44-4.68-1.74-8.12a44.26,44.26,0,0,0-2.39-12.54c-1.77-4.63-6.56-7.44-11.2-10.17-3.58-2.1-7.64-4.49-8.28-6.76-1.26-4.5-2.17-9.43-3-14.19-.49-2.69-1-5.46-1.57-8.13-.44-2,3.38-6.73,5.9-9.83,4.09-5,7.94-9.76,7.21-15a78.2,78.2,0,0,1-.59-17.78l.08-1.31c.23-3.95-2.82-7.47-6.34-11.55C58.32,111.2,54,106.23,55,103.5c1.19-3.33,3.76-6.64,6.49-10.13a66.56,66.56,0,0,0,6.08-8.74c2-3.65,5.71-5.46,9.66-7.38a34.84,34.84,0,0,0,7.13-4.19c3.37-2.82,7.3-5.24,15.52-7.93a8.9,8.9,0,0,1,2.79-.39,38.55,38.55,0,0,1,6,.71,47.2,47.2,0,0,0,8,.87,22.28,22.28,0,0,0,4.16-.37c5.23-1,9-5.45,12.4-9.35,1.9-2.22,4.78-5.56,6.2-5.63h.35c2.93,0,4.21,1.82,6.45,6,1.24,2.3,2.51,4.67,4.64,6.22A88.72,88.72,0,0,0,158.91,68c3.7,2.07,7.9,4.41,12.18,7.21a43,43,0,0,1,7.12,6.69c3,3.28,6.17,6.67,10.14,9.15a12.86,12.86,0,0,0,7.05,1.81c3.6,0,7.47-1,11.21-1.93a39.64,39.64,0,0,1,8.22-1.54,3,3,0,0,1,1.38.2c4.7,2.74,8.48,7.3,11.52,11s5.12,6.16,8,6.82a64.43,64.43,0,0,0,12.69,1c4,0,8.37-.18,12.64-.52,3.68-.3,7.39-1,11.32-1.64,3.54-.62,7.21-1.27,10.79-1.61s7.18-1,10.58-1.7a76,76,0,0,1,10.91-1.61l1.59,0c5.9,0,10.24,1.37,14.44,2.69.93.3,1.83.58,2.71.84a6.52,6.52,0,0,0,1.77.25c3.64,0,7-2.9,11.55-6.91,3.62-3.15,9.1-7.93,12.15-7.93a2.34,2.34,0,0,1,.39,0c2.45.52,5.48,3.06,8.41,5.53,3.41,2.86,6.94,5.83,11,7.06,2.8.85,4.49,5.69,6,10,1.31,3.76,2.55,7.32,5,9.5a29.51,29.51,0,0,0,6.88,4c5.44,2.6,9.32,4.72,9.68,8.37.37,3.91,2.21,8.14,4,12.23,1.85,4.27,3.95,9.1,3.55,12.07-1.29,9.64-6,23.66-8.4,26.69-.61.76-3.09,1.9-5.07,2.82-5.4,2.49-12.78,5.9-16.32,14a107.62,107.62,0,0,0-4,11.5c-1.47,4.78-3,9.72-5.13,13.65-4.71,8.69-12.71,16.28-17.85,19-8.09,4.32-11.76,10.28-15.36,19.12-1.22,3-1.69,7-2.2,11.12-.7,5.88-1.59,13.21-4.65,15.11C320.08,294.91,307.41,300.93,298.08,300.93Z"/><path class="cls-3" d="M140.17,55.68a23.09,23.09,0,0,1,2.08,3.41c1.4,2.62,3,5.58,5.95,7.73a91.45,91.45,0,0,0,8.52,5.12c3.64,2,7.76,4.33,11.91,7a39.71,39.71,0,0,1,6.28,6c3.08,3.33,6.58,7.11,11.05,9.91a17.51,17.51,0,0,0,9.44,2.49c4.16,0,8.3-1.05,12.31-2.07a43.07,43.07,0,0,1,6.92-1.4c3.73,2.41,7,6.34,9.64,9.53,3.4,4.09,6.08,7.33,10.42,8.33a65.2,65.2,0,0,0,13.7,1.1c4.12,0,8.62-.19,13-.54,3.89-.31,7.88-1,11.73-1.69,3.46-.61,7-1.24,10.45-1.56,3.88-.38,7.5-1.08,11-1.77a73,73,0,0,1,10.24-1.52l1.4,0c5.21,0,9.22,1.26,13.09,2.48,1,.31,1.89.6,2.8.87a11,11,0,0,0,3,.43c5.32,0,9.38-3.54,14.51-8,2.28-2,6.89-6,9.07-6.75,1.49.62,4.18,2.88,6,4.43,3.54,3,7.54,6.33,12.42,7.87,1.08,1,2.53,5.16,3.24,7.19,1.44,4.13,2.94,8.4,6.21,11.35a32.32,32.32,0,0,0,7.95,4.76c2.27,1.09,7,3.35,7.14,4.74.44,4.62,2.43,9.18,4.35,13.6,1.21,2.78,3.46,7.95,3.22,9.67-1.15,8.62-5.33,21.18-7.28,24.23-.72.46-2.38,1.22-3.62,1.8C382.66,187,374,191,369.82,200.68a112.66,112.66,0,0,0-4.18,12c-1.47,4.78-2.86,9.29-4.78,12.83-4.14,7.62-11.39,14.73-16,17.19-10.26,5.47-14.23,13.57-17.41,21.39-1.46,3.57-2,7.8-2.5,12.28-.41,3.37-1.25,10.34-2.66,11.89-5.38,3.33-16.7,8.19-24.2,8.19-4.15,0-9.91-1.74-15.49-3.43-3.69-1.11-7.5-2.26-11.16-3-1.51-1.13-4.22-5.88-5.69-8.47-4-6.94-8.06-14.11-15.56-16.36A28.12,28.12,0,0,0,242,264a65.58,65.58,0,0,0-11.41,1.31,46.1,46.1,0,0,1-7.17.93,5.35,5.35,0,0,1-1.54-.16,39.9,39.9,0,0,0-12-2,38.72,38.72,0,0,0-14.6,3.1c-.67.26-1.31.5-1.8.66a37.4,37.4,0,0,1-7.14-1.6c-4.54-1.29-9.7-2.74-15-2.74a24.69,24.69,0,0,0-7.06,1,85.94,85.94,0,0,0-9.79,3.78c-3.59,1.57-7.31,3.19-9.57,3.19l-.43,0a43.29,43.29,0,0,1-3.94-4.64c-3.42-4.36-7.68-9.79-14-13.55-3.12-1.86-6-4.83-9-8a81.35,81.35,0,0,0-9.15-8.56c-5.24-4-11-5.75-15.59-7.16A31.51,31.51,0,0,1,87,227.49c-.45-.94-.7-3.85-.86-5.81a48.6,48.6,0,0,0-2.68-13.76c-2.33-6.1-8.06-9.47-13.12-12.44-2.06-1.21-5.46-3.21-6.29-4.33-1.18-4.24-2-9-2.88-13.55-.46-2.49-.93-5-1.45-7.56.63-1.58,3.24-4.78,4.84-6.75,4.31-5.29,9.18-11.28,8.17-18.45A73.12,73.12,0,0,1,72.21,128l.07-1.31c.33-5.77-3.44-10.14-7.43-14.75-1.59-1.85-4.82-5.59-5.42-7.38,1-2.52,3.27-5.37,5.61-8.38a68.85,68.85,0,0,0,6.48-9.35c1.21-2.23,3.7-3.56,7.67-5.48a37.82,37.82,0,0,0,8-4.79c3-2.48,6.5-4.64,14-7.11a5,5,0,0,1,1.4-.16,34.38,34.38,0,0,1,5.25.65,51.47,51.47,0,0,0,8.72.93,26.22,26.22,0,0,0,5-.46c6.77-1.31,11.31-6.59,15-10.83a47.15,47.15,0,0,1,3.55-3.85m-.41-9.21h-.55c-6.68.3-11.81,13.61-19.26,15.05a17.45,17.45,0,0,1-3.3.29c-4.75,0-9.54-1.58-14-1.58a13.41,13.41,0,0,0-4.19.61c-8.56,2.81-13.1,5.5-17,8.75-4.77,4-13.73,5.28-17.87,12.87C60,89.07,53.23,95.05,50.76,102c-3.11,8.72,12.84,18.85,12.54,24.14a85.8,85.8,0,0,0,.54,20c1,6.9-14.73,17.23-13.05,25.12,1.56,7.32,2.63,15.3,4.68,22.6,2.14,7.63,17.06,10.66,19.61,17.32,3.14,8.21,1.1,16.52,4.63,21.62,3.84,5.54,15,4.88,23.17,11.15,6.89,5.28,11.69,12.74,19,17.12,9.35,5.58,13.88,17.25,19.51,19a11.51,11.51,0,0,0,3.44.5c6.67,0,14-5,21.93-7.35a15.91,15.91,0,0,1,4.49-.6c7.66,0,16.39,4.34,22.19,4.34a8.24,8.24,0,0,0,2.34-.3c3.3-1,7.56-3.46,14.05-3.46a30.58,30.58,0,0,1,9.32,1.56,14,14,0,0,0,4.27.58c5.58,0,12.29-2.24,18.58-2.24a19.55,19.55,0,0,1,5.57.74c8.37,2.51,12.78,23.21,21.68,25s20.06,6.69,28.8,6.69c10.41,0,23.83-6.36,29.05-9.61,7.52-4.68,5.79-21.35,8.64-28.35,3.22-7.91,6.26-13.08,13.31-16.85,6.12-3.26,14.65-11.56,19.69-20.84,4.12-7.6,5.84-17.58,9.3-25.5,4.49-10.29,17.3-11.45,20.77-15.8,3.34-4.18,8.11-19.61,9.35-28.91,1-7.44-6.82-18-7.54-25.33-.9-9.34-13.77-11.5-18-15.32-4.07-3.67-4.56-18-12.66-20.4-6.7-2-13-11.25-19.81-12.69a6.43,6.43,0,0,0-1.32-.14c-8.27,0-19.12,14.84-23.7,14.84a2.09,2.09,0,0,1-.51-.07c-4.86-1.42-10.42-3.71-18.41-3.71-.58,0-1.17,0-1.78,0-6.93.29-14.18,2.59-21.73,3.32s-15.22,2.69-22,3.24c-4.18.34-8.43.51-12.28.51a58.92,58.92,0,0,1-11.68-.87c-3.24-.75-8.87-11.82-18.23-17.28a7.19,7.19,0,0,0-3.65-.81c-5.47,0-13.48,3.47-19.43,3.47a8.64,8.64,0,0,1-4.66-1.12c-6.63-4.15-11.27-11.92-17.19-15.79-8.28-5.42-16.42-9.28-20.06-11.92-3.82-2.78-4.78-13.07-13.73-13.07Z"/><path class="cls-2" d="M298.08,300.93c-4.81,0-10.9-1.84-16.79-3.62-3.73-1.12-7.57-2.28-11.14-3-2.58-.51-5.9-6.33-8.32-10.58-3.53-6.17-7.17-12.55-12.94-14.28a23.47,23.47,0,0,0-6.86-.93,60.69,60.69,0,0,0-10.62,1.24,49.64,49.64,0,0,1-8,1,9.6,9.6,0,0,1-2.9-.37,35.48,35.48,0,0,0-10.69-1.77,34.25,34.25,0,0,0-13,2.8c-.9.35-1.69.65-2.35.85a4,4,0,0,1-1.05.11c-2.08,0-5.14-.86-8.37-1.77-4.27-1.21-9.1-2.57-13.82-2.57a20.37,20.37,0,0,0-5.77.79,81.66,81.66,0,0,0-9.28,3.6c-4.2,1.83-8.17,3.56-11.37,3.56a7.08,7.08,0,0,1-2.11-.3c-1.36-.42-3.83-3.56-5.81-6.08-3.18-4.07-7.15-9.13-12.72-12.46-3.65-2.18-6.71-5.36-10-8.73a77.19,77.19,0,0,0-8.65-8.1c-4.59-3.52-9.68-5.07-14.16-6.44-3.58-1.09-6.95-2.12-8-3.71s-1.44-4.68-1.74-8.12a44.26,44.26,0,0,0-2.39-12.54c-1.77-4.63-6.56-7.44-11.2-10.17-3.58-2.1-7.64-4.49-8.28-6.76-1.26-4.5-2.17-9.43-3-14.19-.49-2.69-1-5.46-1.57-8.13-.44-2,3.38-6.73,5.9-9.83,4.09-5,7.94-9.76,7.21-15a78.2,78.2,0,0,1-.59-17.78l.08-1.31c.23-3.95-2.82-7.47-6.34-11.55C58.32,111.2,54,106.23,55,103.5c1.19-3.33,3.76-6.64,6.49-10.13a66.56,66.56,0,0,0,6.08-8.74c2-3.65,5.71-5.46,9.66-7.38a34.84,34.84,0,0,0,7.13-4.19c3.37-2.82,7.3-5.24,15.52-7.93a8.9,8.9,0,0,1,2.79-.39,38.55,38.55,0,0,1,6,.71,47.2,47.2,0,0,0,8,.87,22.28,22.28,0,0,0,4.16-.37c5.23-1,9-5.45,12.4-9.35,1.9-2.22,4.78-5.56,6.2-5.63h.35c2.93,0,4.21,1.82,6.45,6,1.24,2.3,2.51,4.67,4.64,6.22A88.72,88.72,0,0,0,158.91,68c3.7,2.07,7.9,4.41,12.18,7.21a43,43,0,0,1,7.12,6.69c3,3.28,6.17,6.67,10.14,9.15a12.86,12.86,0,0,0,7.05,1.81c3.6,0,7.47-1,11.21-1.93a39.64,39.64,0,0,1,8.22-1.54,3,3,0,0,1,1.38.2c4.7,2.74,8.48,7.3,11.52,11s5.12,6.16,8,6.82a64.43,64.43,0,0,0,12.69,1c4,0,8.37-.18,12.64-.52,3.68-.3,7.39-1,11.32-1.64,3.54-.62,7.21-1.27,10.79-1.61s7.18-1,10.58-1.7a76,76,0,0,1,10.91-1.61l1.59,0c5.9,0,10.24,1.37,14.44,2.69.93.3,1.83.58,2.71.84a6.52,6.52,0,0,0,1.77.25c3.64,0,7-2.9,11.55-6.91,3.62-3.15,9.1-7.93,12.15-7.93a2.34,2.34,0,0,1,.39,0c2.45.52,5.48,3.06,8.41,5.53,3.41,2.86,6.94,5.83,11,7.06,2.8.85,4.49,5.69,6,10,1.31,3.76,2.55,7.32,5,9.5a29.51,29.51,0,0,0,6.88,4c5.44,2.6,9.32,4.72,9.68,8.37.37,3.91,2.21,8.14,4,12.23,1.85,4.27,3.95,9.1,3.55,12.07-1.29,9.64-6,23.66-8.4,26.69-.61.76-3.09,1.9-5.07,2.82-5.4,2.49-12.78,5.9-16.32,14a107.62,107.62,0,0,0-4,11.5c-1.47,4.78-3,9.72-5.13,13.65-4.71,8.69-12.71,16.28-17.85,19-8.09,4.32-11.76,10.28-15.36,19.12-1.22,3-1.69,7-2.2,11.12-.7,5.88-1.59,13.21-4.65,15.11C320.08,294.91,307.41,300.93,298.08,300.93Z"/><path class="cls-3" d="M140.17,55.68a23.09,23.09,0,0,1,2.08,3.41c1.4,2.62,3,5.58,5.95,7.73a91.45,91.45,0,0,0,8.52,5.12c3.64,2,7.76,4.33,11.91,7a39.71,39.71,0,0,1,6.28,6c3.08,3.33,6.58,7.11,11.05,9.91a17.51,17.51,0,0,0,9.44,2.49c4.16,0,8.3-1.05,12.31-2.07a43.07,43.07,0,0,1,6.92-1.4c3.73,2.41,7,6.34,9.64,9.53,3.4,4.09,6.08,7.33,10.42,8.33a65.2,65.2,0,0,0,13.7,1.1c4.12,0,8.62-.19,13-.54,3.89-.31,7.88-1,11.73-1.69,3.46-.61,7-1.24,10.45-1.56,3.88-.38,7.5-1.08,11-1.77a73,73,0,0,1,10.24-1.52l1.4,0c5.21,0,9.22,1.26,13.09,2.48,1,.31,1.89.6,2.8.87a11,11,0,0,0,3,.43c5.32,0,9.38-3.54,14.51-8,2.28-2,6.89-6,9.07-6.75,1.49.62,4.18,2.88,6,4.43,3.54,3,7.54,6.33,12.42,7.87,1.08,1,2.53,5.16,3.24,7.19,1.44,4.13,2.94,8.4,6.21,11.35a32.32,32.32,0,0,0,7.95,4.76c2.27,1.09,7,3.35,7.14,4.74.44,4.62,2.43,9.18,4.35,13.6,1.21,2.78,3.46,7.95,3.22,9.67-1.15,8.62-5.33,21.18-7.28,24.23-.72.46-2.38,1.22-3.62,1.8C382.66,187,374,191,369.82,200.68a112.66,112.66,0,0,0-4.18,12c-1.47,4.78-2.86,9.29-4.78,12.83-4.14,7.62-11.39,14.73-16,17.19-10.26,5.47-14.23,13.57-17.41,21.39-1.46,3.57-2,7.8-2.5,12.28-.41,3.37-1.25,10.34-2.66,11.89-5.38,3.33-16.7,8.19-24.2,8.19-4.15,0-9.91-1.74-15.49-3.43-3.69-1.11-7.5-2.26-11.16-3-1.51-1.13-4.22-5.88-5.69-8.47-4-6.94-8.06-14.11-15.56-16.36A28.12,28.12,0,0,0,242,264a65.58,65.58,0,0,0-11.41,1.31,46.1,46.1,0,0,1-7.17.93,5.35,5.35,0,0,1-1.54-.16,39.9,39.9,0,0,0-12-2,38.72,38.72,0,0,0-14.6,3.1c-.67.26-1.31.5-1.8.66a37.4,37.4,0,0,1-7.14-1.6c-4.54-1.29-9.7-2.74-15-2.74a24.69,24.69,0,0,0-7.06,1,85.94,85.94,0,0,0-9.79,3.78c-3.59,1.57-7.31,3.19-9.57,3.19l-.43,0a43.29,43.29,0,0,1-3.94-4.64c-3.42-4.36-7.68-9.79-14-13.55-3.12-1.86-6-4.83-9-8a81.35,81.35,0,0,0-9.15-8.56c-5.24-4-11-5.75-15.59-7.16A31.51,31.51,0,0,1,87,227.49c-.45-.94-.7-3.85-.86-5.81a48.6,48.6,0,0,0-2.68-13.76c-2.33-6.1-8.06-9.47-13.12-12.44-2.06-1.21-5.46-3.21-6.29-4.33-1.18-4.24-2-9-2.88-13.55-.46-2.49-.93-5-1.45-7.56.63-1.58,3.24-4.78,4.84-6.75,4.31-5.29,9.18-11.28,8.17-18.45A73.12,73.12,0,0,1,72.21,128l.07-1.31c.33-5.77-3.44-10.14-7.43-14.75-1.59-1.85-4.82-5.59-5.42-7.38,1-2.52,3.27-5.37,5.61-8.38a68.85,68.85,0,0,0,6.48-9.35c1.21-2.23,3.7-3.56,7.67-5.48a37.82,37.82,0,0,0,8-4.79c3-2.48,6.5-4.64,14-7.11a5,5,0,0,1,1.4-.16,34.38,34.38,0,0,1,5.25.65,51.47,51.47,0,0,0,8.72.93,26.22,26.22,0,0,0,5-.46c6.77-1.31,11.31-6.59,15-10.83a47.15,47.15,0,0,1,3.55-3.85m-.41-9.21h-.55c-6.68.3-11.81,13.61-19.26,15.05a17.45,17.45,0,0,1-3.3.29c-4.75,0-9.54-1.58-14-1.58a13.41,13.41,0,0,0-4.19.61c-8.56,2.81-13.1,5.5-17,8.75-4.77,4-13.73,5.28-17.87,12.87C60,89.07,53.23,95.05,50.76,102c-3.11,8.72,12.84,18.85,12.54,24.14a85.8,85.8,0,0,0,.54,20c1,6.9-14.73,17.23-13.05,25.12,1.56,7.32,2.63,15.3,4.68,22.6,2.14,7.63,17.06,10.66,19.61,17.32,3.14,8.21,1.1,16.52,4.63,21.62,3.84,5.54,15,4.88,23.17,11.15,6.89,5.28,11.69,12.74,19,17.12,9.35,5.58,13.88,17.25,19.51,19a11.51,11.51,0,0,0,3.44.5c6.67,0,14-5,21.93-7.35a15.91,15.91,0,0,1,4.49-.6c7.66,0,16.39,4.34,22.19,4.34a8.24,8.24,0,0,0,2.34-.3c3.3-1,7.56-3.46,14.05-3.46a30.58,30.58,0,0,1,9.32,1.56,14,14,0,0,0,4.27.58c5.58,0,12.29-2.24,18.58-2.24a19.55,19.55,0,0,1,5.57.74c8.37,2.51,12.78,23.21,21.68,25s20.06,6.69,28.8,6.69c10.41,0,23.83-6.36,29.05-9.61,7.52-4.68,5.79-21.35,8.64-28.35,3.22-7.91,6.26-13.08,13.31-16.85,6.12-3.26,14.65-11.56,19.69-20.84,4.12-7.6,5.84-17.58,9.3-25.5,4.49-10.29,17.3-11.45,20.77-15.8,3.34-4.18,8.11-19.61,9.35-28.91,1-7.44-6.82-18-7.54-25.33-.9-9.34-13.77-11.5-18-15.32-4.07-3.67-4.56-18-12.66-20.4-6.7-2-13-11.25-19.81-12.69a6.43,6.43,0,0,0-1.32-.14c-8.27,0-19.12,14.84-23.7,14.84a2.09,2.09,0,0,1-.51-.07c-4.86-1.42-10.42-3.71-18.41-3.71-.58,0-1.17,0-1.78,0-6.93.29-14.18,2.59-21.73,3.32s-15.22,2.69-22,3.24c-4.18.34-8.43.51-12.28.51a58.92,58.92,0,0,1-11.68-.87c-3.24-.75-8.87-11.82-18.23-17.28a7.19,7.19,0,0,0-3.65-.81c-5.47,0-13.48,3.47-19.43,3.47a8.64,8.64,0,0,1-4.66-1.12c-6.63-4.15-11.27-11.92-17.19-15.79-8.28-5.42-16.42-9.28-20.06-11.92-3.82-2.78-4.78-13.07-13.73-13.07Z"/></g><path class="cls-4" d="M69.2,248c-17.65-1.17-18.82-15.29-18.82-15.29S43.33,247.94,31.55,248c-9.42.06-14.11-15.29-14.11-15.29S8.85,247,3,248.07"/><path class="cls-4" d="M36.08,276c17.65-1.17,18.83-15.29,18.83-15.29S62,275.91,73.73,276c9.42.06,14.12-15.29,14.12-15.29s8.59,14.24,14.47,15.35"/><path class="cls-4" d="M244.2,77.06C261.85,75.88,263,61.76,263,61.76s7.05,15.22,18.83,15.3c9.42,0,14.11-15.3,14.11-15.3S304.55,76,310.44,77.11"/><path class="cls-4" d="M378.84,276c17.65-1.17,18.83-15.29,18.83-15.29s7,15.22,18.82,15.29"/><path class="cls-4" d="M216.5,61.76c17.65-1.18,18.83-15.29,18.83-15.29s7,15.21,18.82,15.29"/><path class="cls-5" d="M94.25,89.9c4.37,13.8,3,19.34-.4,20.43s-7.72-2.68-12.09-16.47S78.26,73.1,81.71,72,89.88,76.11,94.25,89.9Z"/><path class="cls-6" d="M94.86,99.09c3.55,11.2,2.93,15.56.68,16.27s-5.26-2.49-8.81-13.69-3.29-16.71-1-17.42S91.31,87.89,94.86,99.09Z"/><path class="cls-5" d="M119.43,89.9c-4.37,13.8-3.05,19.34.4,20.43s7.72-2.68,12.09-16.47S135.42,73.1,132,72,123.8,76.11,119.43,89.9Z"/><path class="cls-6" d="M118.83,99.09c-3.55,11.2-2.93,15.56-.69,16.27s5.26-2.49,8.81-13.69,3.29-16.71,1-17.42S122.38,87.89,118.83,99.09Z"/><path class="cls-5" d="M134.5,127.35c0,15.38-12.47,18.91-27.85,18.91S78.8,142.73,78.8,127.35a27.85,27.85,0,1,1,55.7,0Z"/><path class="cls-7" d="M93.75,123.81c0,1.68-1.36,2.6-3,2.6s-3-.92-3-2.6a3.05,3.05,0,1,1,6.1,0Z"/><path class="cls-8" d="M90.7,122.58a.93.93,0,1,1-.93-.93A.92.92,0,0,1,90.7,122.58Z"/><path class="cls-7" d="M126,123.81c0,1.68-1.37,2.6-3.06,2.6s-3-.92-3-2.6a3.06,3.06,0,1,1,6.11,0Z"/><path class="cls-8" d="M123,122.58a.93.93,0,0,1-1.85,0,.93.93,0,1,1,1.85,0Z"/><path class="cls-6" d="M94.35,127.92c0,.74-2.88,1.34-6.44,1.34s-6.44-.6-6.44-1.34,2.88-1.34,6.44-1.34S94.35,127.18,94.35,127.92Z"/><path class="cls-6" d="M130.77,127.92c0,.74-2.89,1.34-6.45,1.34s-6.44-.6-6.44-1.34,2.89-1.34,6.44-1.34S130.77,127.18,130.77,127.92Z"/><path class="cls-7" d="M110.22,135.49a4.7,4.7,0,0,1-3.17-1.43,7.75,7.75,0,0,1-3.87,1.42,4.44,4.44,0,0,1-4.07-2.27.89.89,0,0,1,1.58-.84,2.67,2.67,0,0,0,2.4,1.33,6.5,6.5,0,0,0,3.47-1.51.92.92,0,0,1,.69-.23.9.9,0,0,1,.63.37,3.38,3.38,0,0,0,2.46,1.37,2.17,2.17,0,0,0,1.8-1.24.89.89,0,0,1,1.16-.48.87.87,0,0,1,.49,1.15,3.92,3.92,0,0,1-3.34,2.35Z"/><path class="cls-5" d="M137.77,193.73c4.37,13.8,3,19.34-.4,20.43s-7.72-2.68-12.09-16.47-3.5-20.76,0-21.85S133.4,179.94,137.77,193.73Z"/><path class="cls-6" d="M138.38,202.92c3.55,11.2,2.93,15.56.68,16.27s-5.26-2.49-8.81-13.69-3.29-16.71-1.05-17.42S134.83,191.72,138.38,202.92Z"/><path class="cls-5" d="M163,193.73c-4.37,13.8-3,19.34.4,20.43s7.72-2.68,12.09-16.47,3.5-20.76.05-21.85S167.32,179.94,163,193.73Z"/><path class="cls-6" d="M162.34,202.92c-3.54,11.2-2.92,15.56-.68,16.27s5.26-2.49,8.81-13.69,3.29-16.71,1.05-17.42S165.89,191.72,162.34,202.92Z"/><path class="cls-5" d="M178,231.18c0,15.38-12.46,18.91-27.85,18.91s-27.84-3.53-27.84-18.91a27.85,27.85,0,1,1,55.69,0Z"/><path class="cls-7" d="M137.27,227.64c0,1.68-1.37,2.6-3.05,2.6s-3.05-.92-3.05-2.6a3.05,3.05,0,1,1,6.1,0Z"/><path class="cls-8" d="M134.22,226.41a.93.93,0,1,1-.93-.93A.93.93,0,0,1,134.22,226.41Z"/><path class="cls-7" d="M169.56,227.64c0,1.68-1.37,2.6-3.06,2.6s-3.05-.92-3.05-2.6a3.06,3.06,0,1,1,6.11,0Z"/><path class="cls-8" d="M166.5,226.41a.93.93,0,0,1-1.85,0,.93.93,0,1,1,1.85,0Z"/><path class="cls-6" d="M137.87,231.75c0,.74-2.89,1.34-6.44,1.34s-6.44-.6-6.44-1.34,2.88-1.34,6.44-1.34S137.87,231,137.87,231.75Z"/><path class="cls-6" d="M174.28,231.75c0,.74-2.88,1.34-6.44,1.34s-6.44-.6-6.44-1.34,2.89-1.34,6.44-1.34S174.28,231,174.28,231.75Z"/><path class="cls-7" d="M153.74,239.32a4.7,4.7,0,0,1-3.17-1.43,7.7,7.7,0,0,1-3.87,1.42,4.44,4.44,0,0,1-4.07-2.27.89.89,0,0,1,1.58-.84,2.67,2.67,0,0,0,2.4,1.33,6.54,6.54,0,0,0,3.47-1.51.88.88,0,0,1,1.32.14,3.38,3.38,0,0,0,2.46,1.37,2.17,2.17,0,0,0,1.8-1.24.89.89,0,0,1,1.65.67,3.93,3.93,0,0,1-3.34,2.35Z"/><path class="cls-5" d="M219.58,117c4.37,13.8,3,19.34-.4,20.43s-7.72-2.67-12.09-16.47-3.5-20.75-.05-21.85S215.21,103.19,219.58,117Z"/><path class="cls-6" d="M220.19,126.18c3.55,11.2,2.92,15.55.68,16.26s-5.26-2.49-8.81-13.69S208.77,112,211,111.33,216.64,115,220.19,126.18Z"/><path class="cls-5" d="M244.76,117c-4.37,13.8-3,19.34.4,20.43s7.72-2.67,12.09-16.47,3.5-20.75.05-21.85S249.13,103.19,244.76,117Z"/><path class="cls-6" d="M244.15,126.18c-3.55,11.2-2.92,15.55-.68,16.26s5.26-2.49,8.81-13.69,3.29-16.71,1.05-17.42S247.7,115,244.15,126.18Z"/><path class="cls-5" d="M259.82,154.43c0,15.38-12.47,18.92-27.85,18.92s-27.85-3.54-27.85-18.92a27.85,27.85,0,1,1,55.7,0Z"/><path class="cls-7" d="M219.08,150.89c0,1.68-1.37,2.6-3.05,2.6s-3.06-.92-3.06-2.6a3.06,3.06,0,0,1,6.11,0Z"/><path class="cls-8" d="M216,149.66a.93.93,0,1,1-.93-.93A.93.93,0,0,1,216,149.66Z"/><path class="cls-7" d="M251.36,150.89c0,1.68-1.36,2.6-3.05,2.6s-3.05-.92-3.05-2.6a3.05,3.05,0,0,1,6.1,0Z"/><path class="cls-8" d="M248.31,149.66a.93.93,0,1,1-.92-.93A.93.93,0,0,1,248.31,149.66Z"/><path class="cls-6" d="M219.68,155c0,.74-2.89,1.34-6.44,1.34s-6.44-.6-6.44-1.34,2.88-1.34,6.44-1.34S219.68,154.26,219.68,155Z"/><path class="cls-6" d="M256.09,155c0,.74-2.88,1.34-6.44,1.34s-6.44-.6-6.44-1.34,2.89-1.34,6.44-1.34S256.09,154.26,256.09,155Z"/><path class="cls-7" d="M235.55,162.57a4.7,4.7,0,0,1-3.17-1.43,7.7,7.7,0,0,1-3.87,1.42,4.46,4.46,0,0,1-4.07-2.26.9.9,0,0,1,1.58-.85,2.67,2.67,0,0,0,2.4,1.33,6.54,6.54,0,0,0,3.47-1.51.87.87,0,0,1,.69-.22.89.89,0,0,1,.63.36,3.38,3.38,0,0,0,2.46,1.37,2.15,2.15,0,0,0,1.8-1.24.89.89,0,0,1,1.65.67,3.94,3.94,0,0,1-3.34,2.36Z"/><path class="cls-5" d="M238.28,228.91c4.37,13.79,3.05,19.33-.39,20.43s-7.72-2.68-12.1-16.48-3.5-20.75,0-21.84S233.91,215.11,238.28,228.91Z"/><path class="cls-6" d="M238.89,238.1c3.55,11.2,2.93,15.55.68,16.26s-5.26-2.49-8.81-13.69-3.29-16.71-1-17.42S235.34,226.9,238.89,238.1Z"/><path class="cls-5" d="M263.46,228.91c-4.37,13.79-3,19.33.4,20.43s7.72-2.68,12.09-16.48,3.5-20.75.05-21.84S267.83,215.11,263.46,228.91Z"/><path class="cls-6" d="M262.86,238.1c-3.55,11.2-2.93,15.55-.69,16.26s5.26-2.49,8.81-13.69,3.29-16.71,1-17.42S266.41,226.9,262.86,238.1Z"/><path class="cls-5" d="M278.53,266.35c0,15.38-12.47,18.92-27.85,18.92s-27.85-3.54-27.85-18.92a27.85,27.85,0,0,1,55.7,0Z"/><path class="cls-7" d="M237.78,262.81c0,1.69-1.36,2.61-3.05,2.61s-3-.92-3-2.61a3.05,3.05,0,1,1,6.1,0Z"/><path class="cls-8" d="M234.73,261.58a.93.93,0,1,1-1.85,0,.93.93,0,0,1,1.85,0Z"/><path class="cls-7" d="M270.07,262.81c0,1.69-1.37,2.61-3.05,2.61s-3.06-.92-3.06-2.61a3.06,3.06,0,0,1,6.11,0Z"/><circle class="cls-8" cx="266.09" cy="261.58" r="0.93"/><path class="cls-6" d="M238.38,266.93c0,.74-2.88,1.34-6.44,1.34s-6.44-.6-6.44-1.34,2.88-1.34,6.44-1.34S238.38,266.19,238.38,266.93Z"/><path class="cls-6" d="M274.8,266.93c0,.74-2.89,1.34-6.45,1.34s-6.43-.6-6.43-1.34,2.88-1.34,6.43-1.34S274.8,266.19,274.8,266.93Z"/><path class="cls-7" d="M254.26,274.5a4.75,4.75,0,0,1-3.18-1.43,7.76,7.76,0,0,1-3.87,1.41,4.44,4.44,0,0,1-4.07-2.26.89.89,0,0,1,1.58-.84,2.71,2.71,0,0,0,2.4,1.32,6.52,6.52,0,0,0,3.47-1.5.88.88,0,0,1,.69-.23.91.91,0,0,1,.63.36,3.35,3.35,0,0,0,2.46,1.37,2.15,2.15,0,0,0,1.8-1.24.9.9,0,0,1,1.66.67,4,4,0,0,1-3.35,2.36Z"/><path class="cls-5" d="M204.24,181.42c4.37,13.8,3,19.34-.4,20.43s-7.72-2.67-12.09-16.47-3.5-20.76-.05-21.85S199.87,167.63,204.24,181.42Z"/><path class="cls-6" d="M204.84,190.61c3.55,11.2,2.93,15.56.69,16.27s-5.26-2.49-8.81-13.69-3.3-16.71-1.05-17.42S201.29,179.41,204.84,190.61Z"/><path class="cls-5" d="M229.42,181.42c-4.38,13.8-3,19.34.39,20.43s7.73-2.67,12.1-16.47,3.5-20.76.05-21.85S233.79,167.63,229.42,181.42Z"/><path class="cls-6" d="M228.81,190.61c-3.55,11.2-2.93,15.56-.68,16.27s5.26-2.49,8.81-13.69,3.29-16.71,1-17.42S232.36,179.41,228.81,190.61Z"/><path class="cls-5" d="M244.48,218.87c0,15.38-12.47,18.91-27.85,18.91s-27.85-3.53-27.85-18.91a27.85,27.85,0,0,1,55.7,0Z"/><path class="cls-7" d="M203.74,215.33c0,1.68-1.37,2.6-3.06,2.6s-3.05-.92-3.05-2.6a3.06,3.06,0,1,1,6.11,0Z"/><path class="cls-8" d="M200.68,214.1a.93.93,0,0,1-1.85,0,.93.93,0,1,1,1.85,0Z"/><path class="cls-7" d="M236,215.33c0,1.68-1.37,2.6-3.05,2.6s-3.05-.92-3.05-2.6a3.05,3.05,0,1,1,6.1,0Z"/><path class="cls-8" d="M233,214.1a.93.93,0,1,1-.93-.93A.93.93,0,0,1,233,214.1Z"/><path class="cls-6" d="M204.33,219.44c0,.74-2.88,1.34-6.44,1.34s-6.44-.6-6.44-1.34,2.89-1.34,6.44-1.34S204.33,218.7,204.33,219.44Z"/><path class="cls-6" d="M240.75,219.44c0,.74-2.88,1.34-6.44,1.34s-6.44-.6-6.44-1.34,2.88-1.34,6.44-1.34S240.75,218.7,240.75,219.44Z"/><path class="cls-7" d="M220.21,227a4.72,4.72,0,0,1-3.18-1.43,7.71,7.71,0,0,1-3.86,1.42,4.43,4.43,0,0,1-4.07-2.27.87.87,0,0,1,.37-1.2.89.89,0,0,1,1.2.36,2.69,2.69,0,0,0,2.41,1.32,6.39,6.39,0,0,0,3.46-1.5.93.93,0,0,1,.7-.23.9.9,0,0,1,.63.37,3.38,3.38,0,0,0,2.46,1.37,2.13,2.13,0,0,0,1.79-1.24.9.9,0,0,1,1.17-.48.88.88,0,0,1,.49,1.15,4,4,0,0,1-3.34,2.35Z"/><path class="cls-5" d="M150.86,101.59c4.37,13.79,3,19.33-.4,20.43s-7.72-2.68-12.09-16.47-3.5-20.76-.05-21.85S146.49,87.79,150.86,101.59Z"/><path class="cls-6" d="M151.47,110.78c3.55,11.2,2.92,15.55.68,16.27s-5.26-2.5-8.81-13.7-3.29-16.71-1.05-17.42S147.92,99.58,151.47,110.78Z"/><path class="cls-5" d="M176,101.59c-4.37,13.79-3,19.33.4,20.43s7.72-2.68,12.09-16.47,3.5-20.76.05-21.85S180.41,87.79,176,101.59Z"/><path class="cls-6" d="M175.43,110.78c-3.54,11.2-2.92,15.55-.68,16.27s5.26-2.5,8.81-13.7,3.29-16.71,1.05-17.42S179,99.58,175.43,110.78Z"/><path class="cls-5" d="M191.1,139c0,15.38-12.46,18.92-27.85,18.92s-27.84-3.54-27.84-18.92a27.85,27.85,0,0,1,55.69,0Z"/><path class="cls-7" d="M150.36,135.49c0,1.69-1.37,2.61-3.05,2.61s-3.05-.92-3.05-2.61a3.05,3.05,0,0,1,6.1,0Z"/><path class="cls-8" d="M147.31,134.26a.93.93,0,1,1-.93-.92A.93.93,0,0,1,147.31,134.26Z"/><path class="cls-7" d="M182.64,135.49c0,1.69-1.36,2.61-3,2.61s-3.05-.92-3.05-2.61a3,3,0,1,1,6.1,0Z"/><circle class="cls-8" cx="178.67" cy="134.26" r="0.93"/><path class="cls-6" d="M151,139.61c0,.74-2.89,1.34-6.44,1.34s-6.44-.6-6.44-1.34,2.88-1.34,6.44-1.34S151,138.87,151,139.61Z"/><path class="cls-6" d="M187.37,139.61c0,.74-2.88,1.34-6.44,1.34s-6.44-.6-6.44-1.34,2.89-1.34,6.44-1.34S187.37,138.87,187.37,139.61Z"/><path class="cls-7" d="M166.83,147.18a4.74,4.74,0,0,1-3.17-1.43,7.79,7.79,0,0,1-3.87,1.41,4.42,4.42,0,0,1-4.07-2.26.89.89,0,0,1,1.58-.84,2.69,2.69,0,0,0,2.4,1.32,6.56,6.56,0,0,0,3.47-1.5.87.87,0,0,1,.69-.23.93.93,0,0,1,.63.36,3.38,3.38,0,0,0,2.46,1.38,2.15,2.15,0,0,0,1.8-1.25.89.89,0,0,1,1.65.67,3.94,3.94,0,0,1-3.34,2.36Z"/><path class="cls-5" d="M297.85,179.62c4.37,13.79,3,19.33-.4,20.43s-7.72-2.68-12.09-16.48-3.5-20.75-.05-21.84S293.48,165.82,297.85,179.62Z"/><path class="cls-6" d="M298.45,188.81c3.55,11.2,2.93,15.55.69,16.26s-5.26-2.49-8.81-13.69S287,174.67,289.28,174,294.9,177.61,298.45,188.81Z"/><path class="cls-5" d="M323,179.62c-4.37,13.79-3,19.33.4,20.43s7.72-2.68,12.1-16.48,3.5-20.75.05-21.84S327.4,165.82,323,179.62Z"/><path class="cls-6" d="M322.42,188.81c-3.55,11.2-2.93,15.55-.68,16.26s5.26-2.49,8.8-13.69,3.3-16.71,1-17.42S326,177.61,322.42,188.81Z"/><path class="cls-5" d="M338.09,217.06c0,15.38-12.47,18.92-27.85,18.92s-27.85-3.54-27.85-18.92a27.85,27.85,0,1,1,55.7,0Z"/><path class="cls-7" d="M297.35,213.52c0,1.69-1.37,2.61-3.06,2.61s-3.05-.92-3.05-2.61a3.06,3.06,0,0,1,6.11,0Z"/><path class="cls-8" d="M294.29,212.29a.93.93,0,1,1-.92-.92A.93.93,0,0,1,294.29,212.29Z"/><path class="cls-7" d="M329.63,213.52c0,1.69-1.37,2.61-3.05,2.61s-3.06-.92-3.06-2.61a3.06,3.06,0,0,1,6.11,0Z"/><circle class="cls-8" cx="325.65" cy="212.29" r="0.93"/><path class="cls-6" d="M297.94,217.63c0,.75-2.88,1.34-6.44,1.34s-6.44-.59-6.44-1.34,2.89-1.33,6.44-1.33S297.94,216.89,297.94,217.63Z"/><path class="cls-6" d="M334.36,217.63c0,.75-2.89,1.34-6.44,1.34s-6.44-.59-6.44-1.34,2.88-1.33,6.44-1.33S334.36,216.89,334.36,217.63Z"/><path class="cls-7" d="M313.82,225.21a4.77,4.77,0,0,1-3.18-1.43,7.72,7.72,0,0,1-3.86,1.41,4.47,4.47,0,0,1-4.08-2.26.9.9,0,0,1,.38-1.21.88.88,0,0,1,1.2.37,2.73,2.73,0,0,0,2.41,1.32,6.44,6.44,0,0,0,3.46-1.51.89.89,0,0,1,.7-.22.93.93,0,0,1,.63.36,3.35,3.35,0,0,0,2.45,1.37,2.15,2.15,0,0,0,1.8-1.24.9.9,0,0,1,1.66.67A4,4,0,0,1,314,225.2Z"/><path class="cls-5" d="M298,112.74c4.37,13.79,3.05,19.33-.4,20.43s-7.72-2.68-12.09-16.47-3.5-20.76,0-21.85S293.64,98.94,298,112.74Z"/><path class="cls-6" d="M298.62,121.93c3.55,11.2,2.93,15.56.68,16.27s-5.26-2.5-8.81-13.7-3.29-16.71-1.05-17.42S295.07,110.73,298.62,121.93Z"/><path class="cls-5" d="M323.19,112.74c-4.37,13.79-3.05,19.33.4,20.43s7.72-2.68,12.09-16.47,3.5-20.76.05-21.85S327.56,98.94,323.19,112.74Z"/><path class="cls-6" d="M322.58,121.93c-3.54,11.2-2.92,15.56-.68,16.27s5.26-2.5,8.81-13.7,3.29-16.71,1.05-17.42S326.13,110.73,322.58,121.93Z"/><path class="cls-5" d="M338.25,150.18c0,15.38-12.46,18.92-27.85,18.92s-27.84-3.54-27.84-18.92a27.85,27.85,0,0,1,55.69,0Z"/><path class="cls-7" d="M297.51,146.64c0,1.69-1.37,2.61-3.05,2.61s-3-.92-3-2.61a3.05,3.05,0,0,1,6.1,0Z"/><path class="cls-8" d="M294.46,145.41a.93.93,0,1,1-1.85,0,.93.93,0,0,1,1.85,0Z"/><path class="cls-7" d="M329.8,146.64c0,1.69-1.37,2.61-3.06,2.61s-3.05-.92-3.05-2.61a3.06,3.06,0,0,1,6.11,0Z"/><path class="cls-8" d="M326.74,145.41a.93.93,0,1,1-.92-.92A.93.93,0,0,1,326.74,145.41Z"/><path class="cls-6" d="M298.11,150.76c0,.74-2.88,1.34-6.44,1.34s-6.44-.6-6.44-1.34,2.88-1.34,6.44-1.34S298.11,150,298.11,150.76Z"/><path class="cls-6" d="M334.52,150.76c0,.74-2.88,1.34-6.44,1.34s-6.44-.6-6.44-1.34,2.89-1.34,6.44-1.34S334.52,150,334.52,150.76Z"/><path class="cls-7" d="M314,158.33a4.74,4.74,0,0,1-3.17-1.43,7.89,7.89,0,0,1-3.87,1.42,4.44,4.44,0,0,1-4.07-2.27.89.89,0,1,1,1.58-.84,2.69,2.69,0,0,0,2.4,1.32,6.56,6.56,0,0,0,3.47-1.5.87.87,0,0,1,.69-.23.93.93,0,0,1,.63.36,3.38,3.38,0,0,0,2.46,1.38,2.15,2.15,0,0,0,1.8-1.25.89.89,0,0,1,1.65.67,3.94,3.94,0,0,1-3.34,2.36Z"/><path class="cls-5" d="M353.94,96.29c4.37,13.8,3.05,19.34-.4,20.43s-7.72-2.68-12.09-16.47S338,79.49,341.4,78.4,349.57,82.49,353.94,96.29Z"/><path class="cls-6" d="M354.54,105.48c3.55,11.2,2.93,15.56.69,16.27s-5.26-2.49-8.81-13.69-3.29-16.71-1.05-17.42S351,94.28,354.54,105.48Z"/><path class="cls-5" d="M379.12,96.29c-4.38,13.8-3.05,19.34.39,20.43s7.72-2.68,12.1-16.47,3.5-20.76.05-21.85S383.49,82.49,379.12,96.29Z"/><path class="cls-6" d="M378.51,105.48c-3.55,11.2-2.93,15.56-.68,16.27s5.26-2.49,8.81-13.69,3.29-16.71,1-17.42S382.06,94.28,378.51,105.48Z"/><path class="cls-5" d="M394.18,133.74c0,15.38-12.47,18.91-27.85,18.91s-27.85-3.53-27.85-18.91a27.85,27.85,0,0,1,55.7,0Z"/><path class="cls-7" d="M353.44,130.19c0,1.69-1.37,2.61-3.06,2.61s-3.05-.92-3.05-2.61a3.06,3.06,0,0,1,6.11,0Z"/><path class="cls-8" d="M350.38,129a.93.93,0,0,1-1.85,0,.93.93,0,1,1,1.85,0Z"/><path class="cls-7" d="M385.72,130.19c0,1.69-1.37,2.61-3.05,2.61s-3.05-.92-3.05-2.61a3.05,3.05,0,0,1,6.1,0Z"/><path class="cls-8" d="M382.67,129a.93.93,0,1,1-.93-.93A.93.93,0,0,1,382.67,129Z"/><path class="cls-6" d="M354,134.31c0,.74-2.88,1.34-6.44,1.34s-6.44-.6-6.44-1.34S344,133,347.59,133,354,133.57,354,134.31Z"/><path class="cls-6" d="M390.45,134.31c0,.74-2.89,1.34-6.44,1.34s-6.44-.6-6.44-1.34S380.45,133,384,133,390.45,133.57,390.45,134.31Z"/><path class="cls-7" d="M369.91,141.88a4.72,4.72,0,0,1-3.18-1.43,7.81,7.81,0,0,1-3.86,1.42,4.44,4.44,0,0,1-4.07-2.27.89.89,0,1,1,1.57-.84,2.71,2.71,0,0,0,2.41,1.32,6.47,6.47,0,0,0,3.46-1.5.93.93,0,0,1,.7-.23.9.9,0,0,1,.63.37,3.36,3.36,0,0,0,2.46,1.37,2.15,2.15,0,0,0,1.79-1.25.9.9,0,0,1,1.66.68,4,4,0,0,1-3.34,2.35Z"/><path class="cls-5" d="M309.21,232.11c4.37,13.79,3.05,19.33-.4,20.42s-7.72-2.67-12.09-16.47-3.5-20.75-.05-21.84S304.84,218.31,309.21,232.11Z"/><path class="cls-6" d="M309.81,241.3c3.55,11.2,2.93,15.55.69,16.26s-5.26-2.49-8.81-13.69-3.29-16.71-1.05-17.42S306.26,230.1,309.81,241.3Z"/><path class="cls-5" d="M334.39,232.11c-4.37,13.79-3.05,19.33.39,20.42s7.73-2.67,12.1-16.47,3.5-20.75.05-21.84S338.76,218.31,334.39,232.11Z"/><path class="cls-6" d="M333.78,241.3c-3.55,11.2-2.93,15.55-.68,16.26s5.26-2.49,8.81-13.69,3.29-16.71,1-17.42S337.33,230.1,333.78,241.3Z"/><path class="cls-5" d="M349.45,269.55c0,15.38-12.47,18.92-27.85,18.92s-27.85-3.54-27.85-18.92a27.85,27.85,0,1,1,55.7,0Z"/><path class="cls-7" d="M308.71,266c0,1.69-1.37,2.6-3.06,2.6s-3-.91-3-2.6a3.06,3.06,0,0,1,6.11,0Z"/><path class="cls-8" d="M305.65,264.78a.93.93,0,1,1-.92-.92A.93.93,0,0,1,305.65,264.78Z"/><path class="cls-7" d="M341,266c0,1.69-1.37,2.6-3.05,2.6s-3.05-.91-3.05-2.6a3.05,3.05,0,0,1,6.1,0Z"/><path class="cls-8" d="M337.94,264.78a.93.93,0,1,1-1.85,0,.93.93,0,0,1,1.85,0Z"/><path class="cls-6" d="M309.3,270.12c0,.74-2.88,1.34-6.44,1.34s-6.44-.6-6.44-1.34,2.89-1.34,6.44-1.34S309.3,269.38,309.3,270.12Z"/><path class="cls-6" d="M345.72,270.12c0,.74-2.88,1.34-6.44,1.34s-6.44-.6-6.44-1.34,2.88-1.34,6.44-1.34S345.72,269.38,345.72,270.12Z"/><path class="cls-7" d="M325.18,277.7a4.79,4.79,0,0,1-3.18-1.43,7.72,7.72,0,0,1-3.86,1.41,4.44,4.44,0,0,1-4.07-2.26.89.89,0,1,1,1.57-.84,2.73,2.73,0,0,0,2.41,1.32,6.44,6.44,0,0,0,3.46-1.51.89.89,0,0,1,.7-.22.93.93,0,0,1,.63.36,3.38,3.38,0,0,0,2.46,1.37,2.13,2.13,0,0,0,1.79-1.24.9.9,0,0,1,1.17-.48.89.89,0,0,1,.49,1.15,4,4,0,0,1-3.34,2.36Z"/><path class="cls-5" d="M250.77,161.74c4.38,13.79,3.06,19.33-.39,20.43s-7.72-2.68-12.09-16.47-3.5-20.76,0-21.85S246.4,147.94,250.77,161.74Z"/><path class="cls-6" d="M251.38,170.93c3.55,11.2,2.93,15.56.69,16.27s-5.26-2.5-8.81-13.7-3.3-16.7-1-17.42S247.83,159.73,251.38,170.93Z"/><path class="cls-5" d="M276,161.74c-4.37,13.79-3,19.33.4,20.43s7.72-2.68,12.09-16.47,3.5-20.76.06-21.85S280.33,147.94,276,161.74Z"/><path class="cls-6" d="M275.35,170.93c-3.55,11.2-2.93,15.56-.68,16.27s5.26-2.5,8.8-13.7,3.3-16.7,1-17.42S278.9,159.73,275.35,170.93Z"/><path class="cls-5" d="M291,199.18c0,15.38-12.47,18.92-27.85,18.92s-27.85-3.54-27.85-18.92a27.85,27.85,0,0,1,55.7,0Z"/><path class="cls-7" d="M250.28,195.64c0,1.69-1.37,2.61-3.06,2.61s-3.05-.92-3.05-2.61a3.06,3.06,0,0,1,6.11,0Z"/><path class="cls-8" d="M247.22,194.41a.93.93,0,1,1-.92-.92A.92.92,0,0,1,247.22,194.41Z"/><path class="cls-7" d="M282.56,195.64c0,1.69-1.37,2.61-3.05,2.61s-3.06-.92-3.06-2.61a3.06,3.06,0,0,1,6.11,0Z"/><path class="cls-8" d="M279.51,194.41a.93.93,0,1,1-1.85,0,.93.93,0,0,1,1.85,0Z"/><path class="cls-6" d="M250.87,199.76c0,.74-2.88,1.34-6.44,1.34s-6.44-.6-6.44-1.34,2.89-1.34,6.44-1.34S250.87,199,250.87,199.76Z"/><path class="cls-6" d="M287.29,199.76c0,.74-2.89,1.34-6.44,1.34s-6.44-.6-6.44-1.34,2.88-1.34,6.44-1.34S287.29,199,287.29,199.76Z"/><path class="cls-7" d="M266.75,207.33a4.77,4.77,0,0,1-3.18-1.43,7.81,7.81,0,0,1-3.86,1.42,4.47,4.47,0,0,1-4.08-2.27.89.89,0,0,1,1.58-.84,2.73,2.73,0,0,0,2.41,1.32,6.47,6.47,0,0,0,3.46-1.5.88.88,0,0,1,.69-.23.9.9,0,0,1,.64.37,3.38,3.38,0,0,0,2.45,1.37,2.15,2.15,0,0,0,1.8-1.25.9.9,0,0,1,1.66.67,4,4,0,0,1-3.35,2.36Z"/><path class="cls-5" d="M373.13,156.78c4.38,13.8,3.05,19.34-.39,20.43s-7.72-2.68-12.1-16.47-3.5-20.76-.05-21.85S368.76,143,373.13,156.78Z"/><path class="cls-6" d="M373.74,166c3.55,11.2,2.93,15.56.68,16.27s-5.26-2.49-8.81-13.69-3.29-16.71-1.05-17.42S370.19,154.77,373.74,166Z"/><path class="cls-5" d="M398.31,156.78c-4.37,13.8-3.05,19.34.4,20.43s7.72-2.68,12.09-16.47,3.5-20.76.05-21.85S402.68,143,398.31,156.78Z"/><path class="cls-6" d="M397.71,166c-3.55,11.2-2.93,15.56-.69,16.27s5.26-2.49,8.81-13.69,3.29-16.71,1.05-17.42S401.26,154.77,397.71,166Z"/><path class="cls-5" d="M413.38,194.23c0,15.38-12.47,18.91-27.85,18.91s-27.85-3.53-27.85-18.91a27.85,27.85,0,0,1,55.7,0Z"/><path class="cls-7" d="M372.63,190.68c0,1.69-1.36,2.61-3.05,2.61s-3.05-.92-3.05-2.61a3.05,3.05,0,0,1,6.1,0Z"/><path class="cls-8" d="M369.58,189.46a.93.93,0,1,1-.93-.93A.92.92,0,0,1,369.58,189.46Z"/><path class="cls-7" d="M404.92,190.68c0,1.69-1.37,2.61-3.06,2.61s-3.05-.92-3.05-2.61a3.06,3.06,0,0,1,6.11,0Z"/><path class="cls-8" d="M401.86,189.46a.93.93,0,0,1-1.85,0,.93.93,0,1,1,1.85,0Z"/><path class="cls-6" d="M373.23,194.8c0,.74-2.88,1.34-6.44,1.34s-6.44-.6-6.44-1.34,2.88-1.34,6.44-1.34S373.23,194.06,373.23,194.8Z"/><path class="cls-6" d="M409.65,194.8c0,.74-2.89,1.34-6.45,1.34s-6.43-.6-6.43-1.34,2.88-1.34,6.43-1.34S409.65,194.06,409.65,194.8Z"/><path class="cls-7" d="M389.1,202.37a4.7,4.7,0,0,1-3.17-1.43,7.85,7.85,0,0,1-3.87,1.42,4.44,4.44,0,0,1-4.07-2.27.89.89,0,1,1,1.58-.84,2.7,2.7,0,0,0,2.41,1.32,6.51,6.51,0,0,0,3.46-1.5.92.92,0,0,1,.69-.23.9.9,0,0,1,.63.37,3.38,3.38,0,0,0,2.46,1.37,2.15,2.15,0,0,0,1.8-1.25.9.9,0,0,1,1.66.68,4,4,0,0,1-3.35,2.35Z"/><path class="cls-5" d="M356.06,206.32c4.38,13.79,3.05,19.33-.39,20.42s-7.72-2.67-12.09-16.47-3.5-20.75-.06-21.84S351.69,192.52,356.06,206.32Z"/><path class="cls-6" d="M356.67,215.51c3.55,11.2,2.93,15.55.68,16.26s-5.25-2.49-8.8-13.69-3.3-16.71-1.05-17.42S353.12,204.31,356.67,215.51Z"/><path class="cls-5" d="M381.24,206.32c-4.37,13.79-3.05,19.33.4,20.42s7.72-2.67,12.09-16.47,3.5-20.75,0-21.84S385.61,192.52,381.24,206.32Z"/><path class="cls-6" d="M380.64,215.51c-3.55,11.2-2.93,15.55-.69,16.26s5.26-2.49,8.81-13.69,3.3-16.71,1.05-17.42S384.19,204.31,380.64,215.51Z"/><path class="cls-5" d="M396.31,243.76c0,15.38-12.47,18.92-27.85,18.92s-27.85-3.54-27.85-18.92a27.85,27.85,0,0,1,55.7,0Z"/><path class="cls-7" d="M355.56,240.22c0,1.69-1.36,2.6-3.05,2.6s-3.05-.91-3.05-2.6a3.05,3.05,0,0,1,6.1,0Z"/><path class="cls-8" d="M352.51,239a.93.93,0,1,1-.92-.92A.93.93,0,0,1,352.51,239Z"/><path class="cls-7" d="M387.85,240.22c0,1.69-1.37,2.6-3.05,2.6s-3.06-.91-3.06-2.6a3.06,3.06,0,0,1,6.11,0Z"/><circle class="cls-8" cx="383.87" cy="238.99" r="0.93"/><path class="cls-6" d="M356.16,244.33c0,.74-2.88,1.34-6.44,1.34s-6.44-.6-6.44-1.34,2.88-1.34,6.44-1.34S356.16,243.59,356.16,244.33Z"/><path class="cls-6" d="M392.58,244.33c0,.74-2.89,1.34-6.44,1.34s-6.44-.6-6.44-1.34,2.88-1.34,6.44-1.34S392.58,243.59,392.58,244.33Z"/><path class="cls-7" d="M372,251.91a4.77,4.77,0,0,1-3.18-1.43,7.75,7.75,0,0,1-3.86,1.41,4.47,4.47,0,0,1-4.08-2.26.9.9,0,0,1,.38-1.21.88.88,0,0,1,1.2.37,2.73,2.73,0,0,0,2.41,1.32,6.49,6.49,0,0,0,3.46-1.51.88.88,0,0,1,.69-.22.89.89,0,0,1,.63.36,3.38,3.38,0,0,0,2.46,1.37,2.15,2.15,0,0,0,1.8-1.24.9.9,0,0,1,1.66.67,4,4,0,0,1-3.35,2.36Z"/><path class="cls-5" d="M53.83,52.7c4.37,13.8,3.05,19.34-.4,20.43s-7.72-2.67-12.09-16.47-3.5-20.75-.05-21.85S49.46,38.91,53.83,52.7Z"/><path class="cls-6" d="M54.44,61.9c3.55,11.2,2.93,15.55.68,16.26s-5.26-2.49-8.81-13.69S43,47.76,45.26,47.05,50.89,50.7,54.44,61.9Z"/><path class="cls-5" d="M79,52.7C74.64,66.5,76,72,79.41,73.13s7.72-2.67,12.09-16.47,3.5-20.75,0-21.85S83.38,38.91,79,52.7Z"/><path class="cls-6" d="M78.41,61.9c-3.55,11.2-2.93,15.55-.69,16.26S83,75.67,86.53,64.47s3.29-16.71,1-17.42S82,50.7,78.41,61.9Z"/><path class="cls-5" d="M94.08,90.15c0,15.38-12.47,18.92-27.85,18.92s-27.85-3.54-27.85-18.92a27.85,27.85,0,1,1,55.7,0Z"/><path class="cls-7" d="M53.33,86.61c0,1.68-1.36,2.6-3,2.6s-3.05-.92-3.05-2.6a3.05,3.05,0,1,1,6.1,0Z"/><path class="cls-8" d="M50.28,85.38a.93.93,0,1,1-.93-.93A.93.93,0,0,1,50.28,85.38Z"/><path class="cls-7" d="M85.62,86.61c0,1.68-1.37,2.6-3.06,2.6s-3-.92-3-2.6a3.06,3.06,0,0,1,6.11,0Z"/><path class="cls-8" d="M82.56,85.38a.93.93,0,1,1-.92-.93A.93.93,0,0,1,82.56,85.38Z"/><path class="cls-6" d="M53.93,90.72c0,.74-2.88,1.34-6.44,1.34s-6.44-.6-6.44-1.34,2.88-1.34,6.44-1.34S53.93,90,53.93,90.72Z"/><path class="cls-6" d="M90.34,90.72c0,.74-2.88,1.34-6.44,1.34s-6.44-.6-6.44-1.34,2.89-1.34,6.44-1.34S90.34,90,90.34,90.72Z"/><path class="cls-7" d="M69.8,98.29a4.7,4.7,0,0,1-3.17-1.43,7.66,7.66,0,0,1-3.87,1.42A4.46,4.46,0,0,1,58.69,96a.89.89,0,1,1,1.58-.84,2.69,2.69,0,0,0,2.4,1.32A6.5,6.5,0,0,0,66.14,95a.88.88,0,0,1,.69-.22.89.89,0,0,1,.63.36,3.38,3.38,0,0,0,2.46,1.37,2.15,2.15,0,0,0,1.8-1.24.89.89,0,0,1,1.16-.48.88.88,0,0,1,.49,1.15A3.92,3.92,0,0,1,70,98.29Z"/><path class="cls-5" d="M94.06,25.38c4.37,13.79,3,19.33-.4,20.43s-7.72-2.68-12.09-16.47-3.5-20.76,0-21.85S89.69,11.58,94.06,25.38Z"/><path class="cls-6" d="M94.66,34.57c3.55,11.2,2.93,15.56.69,16.27s-5.26-2.5-8.81-13.7-3.29-16.7-1.05-17.42S91.11,23.37,94.66,34.57Z"/><path class="cls-5" d="M119.24,25.38c-4.38,13.79-3,19.33.39,20.43s7.72-2.68,12.1-16.47,3.5-20.76.05-21.85S123.61,11.58,119.24,25.38Z"/><path class="cls-6" d="M118.63,34.57c-3.55,11.2-2.93,15.56-.68,16.27s5.26-2.5,8.8-13.7,3.3-16.7,1-17.42S122.18,23.37,118.63,34.57Z"/><path class="cls-5" d="M134.3,62.82c0,15.38-12.47,18.92-27.85,18.92S78.6,78.2,78.6,62.82a27.85,27.85,0,0,1,55.7,0Z"/><path class="cls-7" d="M93.56,59.28c0,1.69-1.37,2.61-3.06,2.61s-3-.92-3-2.61a3.06,3.06,0,0,1,6.11,0Z"/><path class="cls-8" d="M90.5,58.05a.93.93,0,1,1-.92-.92A.92.92,0,0,1,90.5,58.05Z"/><path class="cls-7" d="M125.84,59.28c0,1.69-1.37,2.61-3,2.61s-3.05-.92-3.05-2.61a3,3,0,1,1,6.1,0Z"/><circle class="cls-8" cx="121.86" cy="58.05" r="0.93"/><path class="cls-6" d="M94.15,63.4c0,.74-2.88,1.34-6.44,1.34s-6.44-.6-6.44-1.34,2.89-1.34,6.44-1.34S94.15,62.66,94.15,63.4Z"/><path class="cls-6" d="M130.57,63.4c0,.74-2.89,1.34-6.44,1.34s-6.44-.6-6.44-1.34,2.88-1.34,6.44-1.34S130.57,62.66,130.57,63.4Z"/><path class="cls-7" d="M110,71a4.72,4.72,0,0,1-3.18-1.43A7.81,7.81,0,0,1,103,71a4.47,4.47,0,0,1-4.08-2.27.89.89,0,0,1,1.58-.84,2.73,2.73,0,0,0,2.41,1.32,6.47,6.47,0,0,0,3.46-1.5.89.89,0,0,1,.7-.23.9.9,0,0,1,.63.37,3.39,3.39,0,0,0,2.46,1.37,2.15,2.15,0,0,0,1.79-1.25.9.9,0,0,1,1.66.67A4,4,0,0,1,110.25,71Z"/><path class="cls-5" d="M237.06,62c4.37,13.79,3.05,19.33-.39,20.43s-7.73-2.68-12.1-16.47-3.5-20.76,0-21.85S232.69,48.16,237.06,62Z"/><path class="cls-6" d="M237.67,71.15c3.55,11.2,2.93,15.55.68,16.27s-5.26-2.5-8.81-13.7-3.29-16.71-1-17.42S234.12,60,237.67,71.15Z"/><path class="cls-5" d="M262.24,62c-4.37,13.79-3.05,19.33.4,20.43s7.72-2.68,12.09-16.47,3.5-20.76,0-21.85S266.61,48.16,262.24,62Z"/><path class="cls-6" d="M261.64,71.15c-3.55,11.2-2.93,15.55-.69,16.27s5.26-2.5,8.81-13.7S273.05,57,270.81,56.3,265.18,60,261.64,71.15Z"/><path class="cls-5" d="M277.31,99.4c0,15.38-12.47,18.92-27.85,18.92s-27.85-3.54-27.85-18.92a27.85,27.85,0,0,1,55.7,0Z"/><path class="cls-7" d="M236.56,95.86c0,1.69-1.36,2.61-3.05,2.61s-3-.92-3-2.61a3.05,3.05,0,0,1,6.1,0Z"/><path class="cls-8" d="M233.51,94.63a.93.93,0,1,1-1.85,0,.93.93,0,0,1,1.85,0Z"/><path class="cls-7" d="M268.85,95.86c0,1.69-1.37,2.61-3.06,2.61s-3.05-.92-3.05-2.61a3.06,3.06,0,0,1,6.11,0Z"/><circle class="cls-8" cx="264.87" cy="94.63" r="0.93"/><path class="cls-6" d="M237.16,100c0,.74-2.88,1.34-6.44,1.34s-6.44-.6-6.44-1.34,2.88-1.34,6.44-1.34S237.16,99.24,237.16,100Z"/><path class="cls-6" d="M273.58,100c0,.74-2.89,1.34-6.45,1.34s-6.44-.6-6.44-1.34,2.89-1.34,6.44-1.34S273.58,99.24,273.58,100Z"/><path class="cls-7" d="M253,107.55a4.74,4.74,0,0,1-3.17-1.43,7.76,7.76,0,0,1-3.87,1.41,4.42,4.42,0,0,1-4.07-2.26.89.89,0,0,1,1.58-.84,2.71,2.71,0,0,0,2.4,1.32,6.52,6.52,0,0,0,3.47-1.5.88.88,0,0,1,.69-.23.93.93,0,0,1,.63.36,3.38,3.38,0,0,0,2.46,1.38,2.15,2.15,0,0,0,1.8-1.25.89.89,0,0,1,1.16-.48.88.88,0,0,1,.49,1.15,3.92,3.92,0,0,1-3.34,2.36Z"/><path class="cls-5" d="M316.94,48.21c4.38,13.8,3.05,19.34-.39,20.43S308.83,66,304.46,52.17s-3.5-20.75-.06-21.85S312.57,34.42,316.94,48.21Z"/><path class="cls-6" d="M317.55,57.41c3.55,11.2,2.93,15.55.68,16.26S313,71.18,309.43,60s-3.3-16.71-1.05-17.42S314,46.2,317.55,57.41Z"/><path class="cls-5" d="M342.12,48.21c-4.37,13.8-3.05,19.34.4,20.43s7.72-2.67,12.09-16.47,3.5-20.75.05-21.85S346.49,34.42,342.12,48.21Z"/><path class="cls-6" d="M341.52,57.41c-3.55,11.2-2.93,15.55-.69,16.26s5.26-2.49,8.81-13.69,3.3-16.71,1.05-17.42S345.07,46.2,341.52,57.41Z"/><path class="cls-5" d="M357.19,85.66c0,15.38-12.47,18.92-27.85,18.92S301.49,101,301.49,85.66a27.85,27.85,0,0,1,55.7,0Z"/><path class="cls-7" d="M316.44,82.12c0,1.68-1.36,2.6-3.05,2.6s-3.05-.92-3.05-2.6a3.05,3.05,0,1,1,6.1,0Z"/><path class="cls-8" d="M313.39,80.89a.93.93,0,1,1-.92-.93A.93.93,0,0,1,313.39,80.89Z"/><path class="cls-7" d="M348.73,82.12c0,1.68-1.37,2.6-3.05,2.6s-3.06-.92-3.06-2.6a3.06,3.06,0,0,1,6.11,0Z"/><path class="cls-8" d="M345.68,80.89a.93.93,0,1,1-.93-.93A.93.93,0,0,1,345.68,80.89Z"/><path class="cls-6" d="M317,86.23c0,.74-2.88,1.34-6.44,1.34s-6.44-.6-6.44-1.34,2.88-1.34,6.44-1.34S317,85.49,317,86.23Z"/><path class="cls-6" d="M353.46,86.23c0,.74-2.89,1.34-6.44,1.34s-6.44-.6-6.44-1.34,2.88-1.34,6.44-1.34S353.46,85.49,353.46,86.23Z"/><path class="cls-7" d="M332.92,93.8a4.72,4.72,0,0,1-3.18-1.43,7.66,7.66,0,0,1-3.86,1.42,4.48,4.48,0,0,1-4.08-2.26.9.9,0,0,1,1.58-.85A2.71,2.71,0,0,0,325.79,92a6.49,6.49,0,0,0,3.46-1.51.88.88,0,0,1,.69-.22.85.85,0,0,1,.63.36A3.38,3.38,0,0,0,333,92a2.15,2.15,0,0,0,1.8-1.24.9.9,0,0,1,1.66.67,4,4,0,0,1-3.35,2.36Z"/><path class="cls-5" d="M94.06,208.25c4.37,13.79,3,19.33-.4,20.43S85.94,226,81.57,212.2s-3.5-20.75,0-21.84S89.69,194.45,94.06,208.25Z"/><path class="cls-6" d="M94.66,217.44c3.55,11.2,2.93,15.55.69,16.26s-5.26-2.49-8.81-13.69-3.29-16.71-1.05-17.42S91.11,206.24,94.66,217.44Z"/><path class="cls-5" d="M119.24,208.25c-4.38,13.79-3,19.33.39,20.43s7.72-2.68,12.1-16.48,3.5-20.75.05-21.84S123.61,194.45,119.24,208.25Z"/><path class="cls-6" d="M118.63,217.44c-3.55,11.2-2.93,15.55-.68,16.26s5.26-2.49,8.8-13.69,3.3-16.71,1-17.42S122.18,206.24,118.63,217.44Z"/><path class="cls-5" d="M134.3,245.69c0,15.38-12.47,18.92-27.85,18.92S78.6,261.07,78.6,245.69a27.85,27.85,0,0,1,55.7,0Z"/><path class="cls-7" d="M93.56,242.15c0,1.69-1.37,2.61-3.06,2.61s-3-.92-3-2.61a3.06,3.06,0,0,1,6.11,0Z"/><path class="cls-8" d="M90.5,240.92a.93.93,0,1,1-.92-.92A.93.93,0,0,1,90.5,240.92Z"/><path class="cls-7" d="M125.84,242.15c0,1.69-1.37,2.61-3,2.61s-3.05-.92-3.05-2.61a3,3,0,1,1,6.1,0Z"/><path class="cls-8" d="M122.79,240.92a.93.93,0,1,1-1.85,0,.93.93,0,0,1,1.85,0Z"/><path class="cls-6" d="M94.15,246.27c0,.74-2.88,1.34-6.44,1.34s-6.44-.6-6.44-1.34,2.89-1.34,6.44-1.34S94.15,245.53,94.15,246.27Z"/><path class="cls-6" d="M130.57,246.27c0,.74-2.89,1.34-6.44,1.34s-6.44-.6-6.44-1.34,2.88-1.34,6.44-1.34S130.57,245.53,130.57,246.27Z"/><path class="cls-7" d="M110,253.84a4.77,4.77,0,0,1-3.18-1.43,7.72,7.72,0,0,1-3.86,1.41,4.47,4.47,0,0,1-4.08-2.26.9.9,0,0,1,.38-1.21.88.88,0,0,1,1.2.37A2.73,2.73,0,0,0,102.9,252a6.36,6.36,0,0,0,3.46-1.51.89.89,0,0,1,.7-.22.93.93,0,0,1,.63.36,3.32,3.32,0,0,0,2.46,1.37,2.15,2.15,0,0,0,1.79-1.24.9.9,0,0,1,1.66.67,4,4,0,0,1-3.35,2.36Z"/><path class="cls-5" d="M159.49,143.41c4.38,13.79,3,19.33-.39,20.43s-7.72-2.68-12.09-16.47-3.5-20.76-.06-21.85S155.12,129.61,159.49,143.41Z"/><path class="cls-6" d="M160.1,152.6c3.55,11.2,2.93,15.56.68,16.27s-5.26-2.5-8.8-13.7-3.3-16.71-1-17.42S156.55,141.4,160.1,152.6Z"/><path class="cls-5" d="M184.67,143.41c-4.37,13.79-3,19.33.4,20.43s7.72-2.68,12.09-16.47,3.5-20.76.05-21.85S189,129.61,184.67,143.41Z"/><path class="cls-6" d="M184.07,152.6c-3.55,11.2-2.93,15.56-.69,16.27s5.26-2.5,8.81-13.7,3.3-16.71,1.05-17.42S187.62,141.4,184.07,152.6Z"/><path class="cls-5" d="M199.74,180.85c0,15.38-12.47,18.92-27.85,18.92S144,196.23,144,180.85a27.85,27.85,0,0,1,55.7,0Z"/><path class="cls-7" d="M159,177.31c0,1.69-1.36,2.61-3.05,2.61s-3.05-.92-3.05-2.61a3.05,3.05,0,0,1,6.1,0Z"/><path class="cls-8" d="M155.94,176.08a.93.93,0,1,1-.92-.92A.93.93,0,0,1,155.94,176.08Z"/><path class="cls-7" d="M191.28,177.31c0,1.69-1.37,2.61-3.05,2.61s-3.06-.92-3.06-2.61a3.06,3.06,0,0,1,6.11,0Z"/><path class="cls-8" d="M188.23,176.08a.93.93,0,1,1-.93-.92A.93.93,0,0,1,188.23,176.08Z"/><path class="cls-6" d="M159.59,181.43c0,.74-2.88,1.34-6.44,1.34s-6.44-.6-6.44-1.34,2.88-1.34,6.44-1.34S159.59,180.69,159.59,181.43Z"/><path class="cls-6" d="M196,181.43c0,.74-2.89,1.34-6.44,1.34s-6.44-.6-6.44-1.34,2.88-1.34,6.44-1.34S196,180.69,196,181.43Z"/><path class="cls-7" d="M175.47,189a4.77,4.77,0,0,1-3.18-1.43,7.85,7.85,0,0,1-3.86,1.42,4.47,4.47,0,0,1-4.08-2.27.89.89,0,0,1,1.58-.84,2.73,2.73,0,0,0,2.41,1.32,6.51,6.51,0,0,0,3.46-1.5.89.89,0,0,1,1.32.13,3.38,3.38,0,0,0,2.46,1.38,2.15,2.15,0,0,0,1.8-1.25.9.9,0,0,1,1.66.67,4,4,0,0,1-3.35,2.36Z"/><path class="cls-5" d="M168.34,222.85c4.38,13.8,3,19.34-.39,20.43s-7.72-2.67-12.1-16.47-3.5-20.75,0-21.85S164,209.06,168.34,222.85Z"/><path class="cls-6" d="M169,232c3.55,11.2,2.93,15.56.68,16.27s-5.26-2.49-8.8-13.69-3.3-16.71-1.05-17.42S165.4,220.84,169,232Z"/><path class="cls-5" d="M193.52,222.85c-4.37,13.8-3.05,19.34.4,20.43s7.72-2.67,12.09-16.47,3.5-20.75.05-21.85S197.89,209.06,193.52,222.85Z"/><path class="cls-6" d="M192.92,232c-3.55,11.2-2.93,15.56-.69,16.27s5.26-2.49,8.81-13.69,3.29-16.71,1.05-17.42S196.47,220.84,192.92,232Z"/><path class="cls-5" d="M208.59,260.3c0,15.38-12.47,18.92-27.85,18.92s-27.85-3.54-27.85-18.92a27.85,27.85,0,1,1,55.7,0Z"/><path class="cls-7" d="M167.84,256.76c0,1.68-1.36,2.6-3.05,2.6s-3-.92-3-2.6a3.05,3.05,0,1,1,6.1,0Z"/><path class="cls-8" d="M164.79,255.53a.93.93,0,1,1-.93-.93A.92.92,0,0,1,164.79,255.53Z"/><path class="cls-7" d="M200.13,256.76c0,1.68-1.37,2.6-3,2.6s-3.06-.92-3.06-2.6a3.06,3.06,0,1,1,6.11,0Z"/><circle class="cls-8" cx="196.15" cy="255.53" r="0.93"/><path class="cls-6" d="M168.44,260.87c0,.74-2.88,1.34-6.44,1.34s-6.44-.6-6.44-1.34,2.88-1.34,6.44-1.34S168.44,260.13,168.44,260.87Z"/><path class="cls-6" d="M204.86,260.87c0,.74-2.89,1.34-6.45,1.34s-6.43-.6-6.43-1.34,2.88-1.34,6.43-1.34S204.86,260.13,204.86,260.87Z"/><path class="cls-7" d="M184.32,268.44a4.72,4.72,0,0,1-3.18-1.43,7.66,7.66,0,0,1-3.87,1.42,4.44,4.44,0,0,1-4.07-2.27.89.89,0,0,1,1.58-.84,2.7,2.7,0,0,0,2.41,1.33,6.49,6.49,0,0,0,3.46-1.51.92.92,0,0,1,.69-.23.88.88,0,0,1,.63.37,3.38,3.38,0,0,0,2.46,1.37,2.15,2.15,0,0,0,1.8-1.24.9.9,0,0,1,1.66.67,4,4,0,0,1-3.35,2.35Z"/><path class="cls-5" d="M46.81,127.1c4.38,13.79,3.06,19.33-.39,20.43s-7.72-2.68-12.09-16.47-3.5-20.76,0-21.85S42.44,113.3,46.81,127.1Z"/><path class="cls-6" d="M47.42,136.29c3.55,11.2,2.93,15.56.69,16.27s-5.26-2.5-8.81-13.7-3.3-16.7-1-17.42S43.87,125.09,47.42,136.29Z"/><path class="cls-5" d="M72,127.1c-4.37,13.79-3,19.33.4,20.43s7.72-2.68,12.09-16.47,3.5-20.76.06-21.85S76.37,113.3,72,127.1Z"/><path class="cls-6" d="M71.39,136.29c-3.55,11.2-2.93,15.56-.68,16.27s5.26-2.5,8.8-13.7,3.3-16.7,1-17.42S74.94,125.09,71.39,136.29Z"/><path class="cls-5" d="M87.06,164.55c0,15.37-12.47,18.91-27.85,18.91s-27.85-3.54-27.85-18.91a27.85,27.85,0,1,1,55.7,0Z"/><path class="cls-7" d="M46.32,161c0,1.69-1.37,2.61-3.06,2.61s-3-.92-3-2.61a3.06,3.06,0,0,1,6.11,0Z"/><path class="cls-8" d="M43.26,159.77a.93.93,0,1,1-.92-.92A.92.92,0,0,1,43.26,159.77Z"/><path class="cls-7" d="M78.6,161c0,1.69-1.37,2.61-3,2.61s-3.06-.92-3.06-2.61a3.06,3.06,0,0,1,6.11,0Z"/><path class="cls-8" d="M75.55,159.77a.93.93,0,1,1-1.85,0,.93.93,0,0,1,1.85,0Z"/><path class="cls-6" d="M46.91,165.12c0,.74-2.88,1.34-6.44,1.34s-6.44-.6-6.44-1.34,2.89-1.34,6.44-1.34S46.91,164.38,46.91,165.12Z"/><path class="cls-6" d="M83.33,165.12c0,.74-2.89,1.34-6.44,1.34s-6.44-.6-6.44-1.34,2.88-1.34,6.44-1.34S83.33,164.38,83.33,165.12Z"/><path class="cls-7" d="M62.79,172.69a4.72,4.72,0,0,1-3.18-1.43,7.81,7.81,0,0,1-3.86,1.42,4.47,4.47,0,0,1-4.08-2.27.89.89,0,0,1,1.58-.84,2.71,2.71,0,0,0,2.41,1.32,6.47,6.47,0,0,0,3.46-1.5.88.88,0,0,1,.69-.23.9.9,0,0,1,.64.37,3.38,3.38,0,0,0,2.45,1.37,2.15,2.15,0,0,0,1.8-1.25.9.9,0,0,1,1.66.67A4,4,0,0,1,63,172.68Z"/><path class="cls-5" d="M273.59,260.05c4.37,13.8,3.05,19.34-.4,20.43S265.47,277.8,261.1,264s-3.5-20.76-.05-21.85S269.22,246.26,273.59,260.05Z"/><path class="cls-6" d="M274.2,269.24c3.55,11.2,2.93,15.56.68,16.27s-5.26-2.49-8.81-13.69-3.29-16.71-1.05-17.42S270.65,258,274.2,269.24Z"/><path class="cls-5" d="M298.77,260.05c-4.37,13.8-3,19.34.4,20.43s7.72-2.68,12.09-16.47,3.5-20.76.05-21.85S303.14,246.26,298.77,260.05Z"/><path class="cls-6" d="M298.17,269.24c-3.55,11.2-2.93,15.56-.69,16.27s5.26-2.49,8.81-13.69,3.29-16.71,1-17.42S301.71,258,298.17,269.24Z"/><path class="cls-5" d="M313.84,297.5c0,15.38-12.47,18.91-27.85,18.91s-27.85-3.53-27.85-18.91a27.85,27.85,0,1,1,55.7,0Z"/><path class="cls-7" d="M273.09,294c0,1.69-1.36,2.61-3,2.61S267,295.64,267,294a3,3,0,1,1,6.1,0Z"/><path class="cls-8" d="M270,292.73a.93.93,0,1,1-.93-.93A.93.93,0,0,1,270,292.73Z"/><path class="cls-7" d="M305.38,294c0,1.69-1.37,2.61-3.06,2.61s-3.05-.92-3.05-2.61a3.06,3.06,0,0,1,6.11,0Z"/><path class="cls-8" d="M302.32,292.73a.93.93,0,0,1-1.85,0,.93.93,0,1,1,1.85,0Z"/><path class="cls-6" d="M273.69,298.07c0,.74-2.88,1.34-6.44,1.34s-6.44-.6-6.44-1.34,2.88-1.34,6.44-1.34S273.69,297.33,273.69,298.07Z"/><path class="cls-6" d="M310.1,298.07c0,.74-2.88,1.34-6.44,1.34s-6.44-.6-6.44-1.34,2.89-1.34,6.44-1.34S310.1,297.33,310.1,298.07Z"/><path class="cls-7" d="M289.56,305.64a4.7,4.7,0,0,1-3.17-1.43,7.85,7.85,0,0,1-3.87,1.42,4.44,4.44,0,0,1-4.07-2.27.89.89,0,0,1,1.58-.84,2.67,2.67,0,0,0,2.4,1.32,6.52,6.52,0,0,0,3.47-1.5.92.92,0,0,1,.69-.23.9.9,0,0,1,.63.37,3.38,3.38,0,0,0,2.46,1.37,2.15,2.15,0,0,0,1.8-1.25.9.9,0,0,1,1.16-.48.88.88,0,0,1,.49,1.16,3.92,3.92,0,0,1-3.34,2.35Z"/><path class="cls-5" d="M140.3,50.27c4.37,13.8,3,19.34-.4,20.43S132.18,68,127.81,54.23s-3.5-20.76,0-21.85S135.93,36.48,140.3,50.27Z"/><path class="cls-6" d="M140.91,59.46c3.54,11.2,2.92,15.56.68,16.27s-5.26-2.49-8.81-13.69-3.29-16.71-1.05-17.42S137.36,48.26,140.91,59.46Z"/><path class="cls-5" d="M165.48,50.27c-4.37,13.8-3,19.34.4,20.43S173.6,68,178,54.23s3.5-20.76.05-21.85S169.85,36.48,165.48,50.27Z"/><path class="cls-6" d="M164.87,59.46c-3.55,11.2-2.93,15.56-.68,16.27S169.45,73.24,173,62s3.29-16.71,1.05-17.42S168.42,48.26,164.87,59.46Z"/><path class="cls-5" d="M180.54,87.72c0,15.38-12.47,18.91-27.85,18.91s-27.85-3.53-27.85-18.91a27.85,27.85,0,0,1,55.7,0Z"/><path class="cls-7" d="M139.8,84.18c0,1.68-1.37,2.6-3.05,2.6s-3.06-.92-3.06-2.6a3.06,3.06,0,1,1,6.11,0Z"/><path class="cls-8" d="M136.75,83a.93.93,0,1,1-.93-.93A.93.93,0,0,1,136.75,83Z"/><path class="cls-7" d="M172.08,84.18c0,1.68-1.36,2.6-3.05,2.6s-3.05-.92-3.05-2.6a3.05,3.05,0,1,1,6.1,0Z"/><path class="cls-8" d="M169,83a.93.93,0,1,1-.93-.93A.92.92,0,0,1,169,83Z"/><path class="cls-6" d="M140.4,88.29c0,.74-2.89,1.34-6.44,1.34s-6.45-.6-6.45-1.34S130.4,87,134,87,140.4,87.55,140.4,88.29Z"/><path class="cls-6" d="M176.81,88.29c0,.74-2.88,1.34-6.44,1.34s-6.44-.6-6.44-1.34S166.81,87,170.37,87,176.81,87.55,176.81,88.29Z"/><path class="cls-7" d="M156.27,95.86a4.75,4.75,0,0,1-3.18-1.43,7.71,7.71,0,0,1-3.86,1.42,4.44,4.44,0,0,1-4.07-2.27.89.89,0,0,1,1.57-.84,2.69,2.69,0,0,0,2.41,1.32,6.39,6.39,0,0,0,3.46-1.5,1,1,0,0,1,.7-.23.9.9,0,0,1,.63.37,3.38,3.38,0,0,0,2.46,1.37,2.13,2.13,0,0,0,1.79-1.24.9.9,0,0,1,1.17-.48.88.88,0,0,1,.49,1.15,4,4,0,0,1-3.34,2.35Z"/><path class="cls-5" d="M94.06,156.78c4.37,13.8,3,19.34-.4,20.43s-7.72-2.68-12.09-16.47-3.5-20.76,0-21.85S89.68,143,94.06,156.78Z"/><path class="cls-6" d="M94.66,166c3.55,11.2,2.93,15.56.69,16.27s-5.26-2.49-8.81-13.69-3.3-16.71-1.05-17.42S91.11,154.77,94.66,166Z"/><path class="cls-5" d="M119.23,156.78c-4.37,13.8-3,19.34.4,20.43s7.72-2.68,12.1-16.47,3.5-20.76.05-21.85S123.61,143,119.23,156.78Z"/><path class="cls-6" d="M118.63,166c-3.55,11.2-2.93,15.56-.68,16.27s5.26-2.49,8.8-13.69,3.3-16.71,1-17.42S122.18,154.77,118.63,166Z"/><path class="cls-5" d="M134.3,194.23c0,15.38-12.47,18.91-27.85,18.91S78.6,209.61,78.6,194.23a27.85,27.85,0,0,1,55.7,0Z"/><path class="cls-7" d="M93.56,190.68c0,1.69-1.37,2.61-3.06,2.61s-3-.92-3-2.61a3.06,3.06,0,0,1,6.11,0Z"/><path class="cls-8" d="M90.5,189.46a.93.93,0,1,1-.92-.93A.92.92,0,0,1,90.5,189.46Z"/><path class="cls-7" d="M125.84,190.68c0,1.69-1.37,2.61-3,2.61s-3.06-.92-3.06-2.61a3.06,3.06,0,0,1,6.11,0Z"/><path class="cls-8" d="M122.79,189.46a.93.93,0,1,1-.93-.93A.93.93,0,0,1,122.79,189.46Z"/><path class="cls-6" d="M94.15,194.8c0,.74-2.88,1.34-6.44,1.34s-6.44-.6-6.44-1.34,2.89-1.34,6.44-1.34S94.15,194.06,94.15,194.8Z"/><path class="cls-6" d="M130.57,194.8c0,.74-2.89,1.34-6.44,1.34s-6.44-.6-6.44-1.34,2.88-1.34,6.44-1.34S130.57,194.06,130.57,194.8Z"/><path class="cls-7" d="M110,202.37a4.72,4.72,0,0,1-3.18-1.43,7.81,7.81,0,0,1-3.86,1.42,4.47,4.47,0,0,1-4.08-2.27.89.89,0,0,1,1.58-.84,2.71,2.71,0,0,0,2.41,1.32,6.47,6.47,0,0,0,3.46-1.5.93.93,0,0,1,.7-.23.9.9,0,0,1,.63.37,3.35,3.35,0,0,0,2.45,1.37,2.15,2.15,0,0,0,1.8-1.25.9.9,0,0,1,1.66.68,4,4,0,0,1-3.35,2.35Z"/></g></svg>