<svg id="Layer_2" data-name="Layer 2" xmlns="http://www.w3.org/2000/svg" viewBox="0 0 419.35 269.21"><defs><style>.cls-1{opacity:0.25;}.cls-2{fill:#d3ead8;}.cls-3{fill:#b5dcb4;}.cls-4{fill:none;stroke:#89bee2;stroke-linejoin:round;stroke-width:5px;}.cls-5{fill:#efe2c5;}.cls-6{fill:#eab0ac;}.cls-7{fill:#2b2525;}.cls-8{fill:#fff;}.cls-9{fill:#bbaeab;}.cls-10{fill:#efddd9;}.cls-11{fill:#dac8c4;}</style></defs><g class="cls-1"><path class="cls-2" d="M298.44,260.75c-4.81,0-10.91-1.84-16.8-3.62-3.72-1.12-7.57-2.28-11.13-3-2.58-.51-5.9-6.33-8.33-10.57-3.52-6.18-7.16-12.56-12.93-14.29a23.91,23.91,0,0,0-6.86-.93,60.8,60.8,0,0,0-10.63,1.24,48.27,48.27,0,0,1-8,1,9.65,9.65,0,0,1-2.9-.37,35.39,35.39,0,0,0-10.68-1.76,34.18,34.18,0,0,0-13,2.79c-.91.35-1.69.65-2.35.85a3.9,3.9,0,0,1-1.06.12c-2.07,0-5.13-.87-8.37-1.78-4.26-1.2-9.09-2.57-13.82-2.57a20.43,20.43,0,0,0-5.77.79,83.14,83.14,0,0,0-9.28,3.6c-4.2,1.83-8.17,3.56-11.36,3.56a6.88,6.88,0,0,1-2.12-.3c-1.36-.41-3.82-3.56-5.8-6.08-3.19-4.07-7.16-9.13-12.73-12.46-3.64-2.17-6.7-5.36-9.95-8.73a76.33,76.33,0,0,0-8.65-8.1c-4.58-3.51-9.67-5.07-14.16-6.44-3.57-1.09-7-2.12-8-3.7s-1.44-4.69-1.73-8.13a44,44,0,0,0-2.4-12.54c-1.76-4.63-6.56-7.44-11.19-10.16-3.59-2.11-7.65-4.49-8.28-6.77-1.27-4.5-2.17-9.43-3-14.19-.49-2.69-1-5.46-1.57-8.13-.43-2,3.38-6.73,5.91-9.83,4.08-5,7.94-9.76,7.2-15a78.08,78.08,0,0,1-.58-17.78l.08-1.31c.22-4-2.82-7.47-6.35-11.55-3.13-3.63-7.42-8.59-6.45-11.33,1.19-3.33,3.77-6.63,6.49-10.13a65.9,65.9,0,0,0,6.08-8.74c2-3.65,5.72-5.46,9.66-7.38a34.58,34.58,0,0,0,7.13-4.19C88.09,30.07,92,27.64,100.23,25a9,9,0,0,1,2.8-.39,38.57,38.57,0,0,1,6,.71,47.3,47.3,0,0,0,8,.88,22.11,22.11,0,0,0,4.16-.38c5.23-1,9-5.44,12.4-9.35,1.91-2.21,4.78-5.56,6.21-5.63h.35c2.92,0,4.21,1.82,6.45,6,1.23,2.3,2.51,4.68,4.63,6.22a90.15,90.15,0,0,0,8.06,4.83c3.71,2.07,7.91,4.41,12.18,7.21a42.7,42.7,0,0,1,7.13,6.7c3,3.27,6.17,6.66,10.13,9.15a13,13,0,0,0,7.06,1.8c3.59,0,7.46-1,11.21-1.93a40.12,40.12,0,0,1,8.21-1.54,3.06,3.06,0,0,1,1.39.2c4.7,2.74,8.48,7.3,11.52,11s5.11,6.16,8,6.81a64.47,64.47,0,0,0,12.7,1c4,0,8.37-.18,12.63-.52,3.68-.3,7.39-1,11.32-1.64,3.55-.62,7.21-1.27,10.79-1.61s7.18-1,10.58-1.7A74.91,74.91,0,0,1,305,61.11c.55,0,1.08,0,1.6,0,5.9,0,10.24,1.37,14.44,2.7l2.71.83a6.45,6.45,0,0,0,1.76.25c3.64,0,7-2.9,11.56-6.9,3.62-3.16,9.09-7.93,12.15-7.93a2.17,2.17,0,0,1,.38,0c2.46.52,5.48,3.07,8.41,5.53,3.42,2.86,6.94,5.83,11,7.07,2.81.84,4.49,5.68,6,9.94,1.32,3.77,2.56,7.32,5,9.5a29.1,29.1,0,0,0,6.88,4c5.44,2.6,9.32,4.73,9.67,8.37.38,3.91,2.22,8.14,4,12.23,1.85,4.27,4,9.1,3.56,12.07-1.29,9.64-6,23.66-8.41,26.7-.61.75-3.08,1.9-5.07,2.81-5.39,2.49-12.78,5.9-16.31,14a109.92,109.92,0,0,0-4,11.5c-1.47,4.78-3,9.72-5.12,13.65-4.72,8.69-12.72,16.29-17.85,19-8.1,4.32-11.76,10.28-15.36,19.12-1.22,3-1.7,6.95-2.2,11.12-.71,5.88-1.59,13.21-4.65,15.11C320.43,254.74,307.76,260.75,298.44,260.75Z"/><path class="cls-3" d="M140.52,15.5a22.27,22.27,0,0,1,2.08,3.41c1.41,2.62,3,5.58,6,7.73a91.93,91.93,0,0,0,8.52,5.12c3.64,2,7.77,4.34,11.91,7.05a40.15,40.15,0,0,1,6.29,6c3.08,3.33,6.57,7.11,11,9.91a17.49,17.49,0,0,0,9.44,2.49c4.15,0,8.3-1,12.31-2.06A43.16,43.16,0,0,1,215,53.72c3.73,2.41,7,6.34,9.65,9.53,3.39,4.09,6.08,7.33,10.41,8.33a65.37,65.37,0,0,0,13.71,1.1c4.12,0,8.61-.18,13-.54,3.89-.31,7.88-1,11.74-1.69,3.46-.61,7-1.23,10.44-1.56,3.88-.37,7.51-1.08,11-1.76a71.92,71.92,0,0,1,10.24-1.53q.7,0,1.41,0c5.21,0,9.21,1.27,13.08,2.49l2.81.86a10.91,10.91,0,0,0,3,.43c5.33,0,9.38-3.54,14.51-8,2.28-2,6.9-6,9.07-6.75,1.5.63,4.19,2.89,6,4.43,3.53,3,7.54,6.34,12.42,7.87,1.07,1,2.53,5.16,3.23,7.19,1.45,4.13,2.94,8.4,6.22,11.35a31.83,31.83,0,0,0,7.95,4.76c2.27,1.09,7,3.35,7.13,4.74.45,4.62,2.43,9.18,4.35,13.6,1.21,2.78,3.46,8,3.23,9.67-1.16,8.62-5.34,21.18-7.29,24.23-.71.46-2.37,1.22-3.62,1.8-5.7,2.63-14.33,6.61-18.54,16.27a112.73,112.73,0,0,0-4.19,12c-1.47,4.78-2.86,9.29-4.78,12.83-4.14,7.62-11.39,14.73-16,17.19C334.94,208,331,216.07,327.79,223.89c-1.45,3.57-2,7.8-2.5,12.28-.4,3.37-1.24,10.34-2.66,11.9-5.38,3.32-16.69,8.18-24.19,8.18-4.15,0-9.92-1.74-15.5-3.42-3.69-1.12-7.5-2.27-11.16-3-1.5-1.13-4.21-5.87-5.69-8.46-4-6.95-8.06-14.12-15.55-16.37a28.17,28.17,0,0,0-8.15-1.12A65.47,65.47,0,0,0,231,225.17a46.36,46.36,0,0,1-7.18.93,5.41,5.41,0,0,1-1.54-.16,39.82,39.82,0,0,0-12-2,38.7,38.7,0,0,0-14.6,3.09c-.68.26-1.32.51-1.81.67a38.46,38.46,0,0,1-7.13-1.61c-4.55-1.28-9.7-2.74-15.05-2.74a24.62,24.62,0,0,0-7,1,87.08,87.08,0,0,0-9.79,3.79c-3.6,1.56-7.32,3.18-9.57,3.18a2.89,2.89,0,0,1-.43,0,43.22,43.22,0,0,1-3.95-4.64c-3.42-4.36-7.67-9.79-14-13.54-3.13-1.87-6-4.84-9-8a80.51,80.51,0,0,0-9.16-8.55c-5.23-4-11-5.76-15.59-7.17a30.65,30.65,0,0,1-5.74-2.11c-.45-.94-.7-3.84-.87-5.8a48.55,48.55,0,0,0-2.67-13.77c-2.34-6.1-8.07-9.46-13.12-12.43-2.06-1.21-5.47-3.21-6.3-4.34-1.17-4.24-2-9-2.88-13.55-.46-2.48-.93-5-1.45-7.56.64-1.58,3.25-4.78,4.85-6.75,4.3-5.29,9.18-11.28,8.17-18.45a73.14,73.14,0,0,1-.55-16.88l.08-1.32c.33-5.77-3.44-10.13-7.43-14.75-1.6-1.85-4.82-5.58-5.43-7.37,1-2.53,3.27-5.38,5.61-8.39a69.82,69.82,0,0,0,6.49-9.35c1.2-2.22,3.7-3.55,7.67-5.48a38.13,38.13,0,0,0,8-4.78c3-2.49,6.51-4.64,14-7.11a4.55,4.55,0,0,1,1.39-.17,35.53,35.53,0,0,1,5.25.65,51.42,51.42,0,0,0,8.72.94,26.25,26.25,0,0,0,5-.46c6.76-1.31,11.3-6.59,15-10.84a49,49,0,0,1,3.55-3.85m-.4-9.21h-.56c-6.68.3-11.8,13.61-19.25,15.05a17.57,17.57,0,0,1-3.31.3c-4.74,0-9.54-1.59-14-1.59a13.52,13.52,0,0,0-4.2.61c-8.55,2.81-13.1,5.5-17,8.75C77.06,33.4,68.1,34.7,64,42.3c-3.59,6.59-10.38,12.58-12.86,19.51C48,70.53,64,80.66,63.65,86a85.92,85.92,0,0,0,.55,20c1,6.91-14.74,17.23-13.06,25.12,1.56,7.32,2.63,15.3,4.68,22.6C58,161.27,72.88,164.3,75.43,171c3.14,8.21,1.1,16.53,4.63,21.62,3.85,5.54,15,4.88,23.18,11.15,6.89,5.28,11.69,12.75,19,17.12,9.36,5.59,13.89,17.25,19.52,19a11.78,11.78,0,0,0,3.44.49c6.66,0,14-5,21.93-7.34a15.54,15.54,0,0,1,4.48-.61c7.67,0,16.39,4.35,22.19,4.35a8.3,8.3,0,0,0,2.35-.31c3.3-1,7.56-3.45,14.05-3.45a30.54,30.54,0,0,1,9.32,1.55,14,14,0,0,0,4.26.58c5.59,0,12.3-2.24,18.59-2.24a19.43,19.43,0,0,1,5.56.74c8.37,2.51,12.78,23.21,21.69,25s20.06,6.69,28.8,6.69c10.41,0,23.83-6.36,29.05-9.61,7.52-4.68,5.79-21.35,8.64-28.35,3.21-7.91,6.25-13.08,13.31-16.85,6.12-3.26,14.65-11.56,19.68-20.84,4.13-7.6,5.84-17.58,9.3-25.5,4.5-10.29,17.3-11.45,20.78-15.79,3.34-4.18,8.1-19.62,9.35-28.92,1-7.43-6.83-18-7.54-25.32-.9-9.35-13.78-11.51-18-15.33-4.08-3.67-4.57-17.95-12.66-20.4-6.7-2-13-11.25-19.82-12.69a6.33,6.33,0,0,0-1.31-.13c-8.28,0-19.13,14.83-23.71,14.83a1.63,1.63,0,0,1-.5-.07c-4.87-1.42-10.43-3.71-18.41-3.71-.58,0-1.18,0-1.78,0-6.93.29-14.18,2.59-21.74,3.32s-15.21,2.69-22,3.24c-4.17.34-8.43.51-12.27.51a58.85,58.85,0,0,1-11.68-.87c-3.24-.75-8.88-11.81-18.23-17.28a7.23,7.23,0,0,0-3.66-.81c-5.47,0-13.48,3.47-19.42,3.47a8.68,8.68,0,0,1-4.67-1.12c-6.62-4.15-11.27-11.92-17.18-15.79-8.28-5.42-16.43-9.28-20.06-11.92C150,16.58,149.06,6.29,140.12,6.29Z"/><path class="cls-2" d="M298.44,260.75c-4.81,0-10.91-1.84-16.8-3.62-3.72-1.12-7.57-2.28-11.13-3-2.58-.51-5.9-6.33-8.33-10.57-3.52-6.18-7.16-12.56-12.93-14.29a23.91,23.91,0,0,0-6.86-.93,60.8,60.8,0,0,0-10.63,1.24,48.27,48.27,0,0,1-8,1,9.65,9.65,0,0,1-2.9-.37,35.39,35.39,0,0,0-10.68-1.76,34.18,34.18,0,0,0-13,2.79c-.91.35-1.69.65-2.35.85a3.9,3.9,0,0,1-1.06.12c-2.07,0-5.13-.87-8.37-1.78-4.26-1.2-9.09-2.57-13.82-2.57a20.43,20.43,0,0,0-5.77.79,83.14,83.14,0,0,0-9.28,3.6c-4.2,1.83-8.17,3.56-11.36,3.56a6.88,6.88,0,0,1-2.12-.3c-1.36-.41-3.82-3.56-5.8-6.08-3.19-4.07-7.16-9.13-12.73-12.46-3.64-2.17-6.7-5.36-9.95-8.73a76.33,76.33,0,0,0-8.65-8.1c-4.58-3.51-9.67-5.07-14.16-6.44-3.57-1.09-7-2.12-8-3.7s-1.44-4.69-1.73-8.13a44,44,0,0,0-2.4-12.54c-1.76-4.63-6.56-7.44-11.19-10.16-3.59-2.11-7.65-4.49-8.28-6.77-1.27-4.5-2.17-9.43-3-14.19-.49-2.69-1-5.46-1.57-8.13-.43-2,3.38-6.73,5.91-9.83,4.08-5,7.94-9.76,7.2-15a78.08,78.08,0,0,1-.58-17.78l.08-1.31c.22-4-2.82-7.47-6.35-11.55-3.13-3.63-7.42-8.59-6.45-11.33,1.19-3.33,3.77-6.63,6.49-10.13a65.9,65.9,0,0,0,6.08-8.74c2-3.65,5.72-5.46,9.66-7.38a34.58,34.58,0,0,0,7.13-4.19C88.09,30.07,92,27.64,100.23,25a9,9,0,0,1,2.8-.39,38.57,38.57,0,0,1,6,.71,47.3,47.3,0,0,0,8,.88,22.11,22.11,0,0,0,4.16-.38c5.23-1,9-5.44,12.4-9.35,1.91-2.21,4.78-5.56,6.21-5.63h.35c2.92,0,4.21,1.82,6.45,6,1.23,2.3,2.51,4.68,4.63,6.22a90.15,90.15,0,0,0,8.06,4.83c3.71,2.07,7.91,4.41,12.18,7.21a42.7,42.7,0,0,1,7.13,6.7c3,3.27,6.17,6.66,10.13,9.15a13,13,0,0,0,7.06,1.8c3.59,0,7.46-1,11.21-1.93a40.12,40.12,0,0,1,8.21-1.54,3.06,3.06,0,0,1,1.39.2c4.7,2.74,8.48,7.3,11.52,11s5.11,6.16,8,6.81a64.47,64.47,0,0,0,12.7,1c4,0,8.37-.18,12.63-.52,3.68-.3,7.39-1,11.32-1.64,3.55-.62,7.21-1.27,10.79-1.61s7.18-1,10.58-1.7A74.91,74.91,0,0,1,305,61.11c.55,0,1.08,0,1.6,0,5.9,0,10.24,1.37,14.44,2.7l2.71.83a6.45,6.45,0,0,0,1.76.25c3.64,0,7-2.9,11.56-6.9,3.62-3.16,9.09-7.93,12.15-7.93a2.17,2.17,0,0,1,.38,0c2.46.52,5.48,3.07,8.41,5.53,3.42,2.86,6.94,5.83,11,7.07,2.81.84,4.49,5.68,6,9.94,1.32,3.77,2.56,7.32,5,9.5a29.1,29.1,0,0,0,6.88,4c5.44,2.6,9.32,4.73,9.67,8.37.38,3.91,2.22,8.14,4,12.23,1.85,4.27,4,9.1,3.56,12.07-1.29,9.64-6,23.66-8.41,26.7-.61.75-3.08,1.9-5.07,2.81-5.39,2.49-12.78,5.9-16.31,14a109.92,109.92,0,0,0-4,11.5c-1.47,4.78-3,9.72-5.12,13.65-4.72,8.69-12.72,16.29-17.85,19-8.1,4.32-11.76,10.28-15.36,19.12-1.22,3-1.7,6.95-2.2,11.12-.71,5.88-1.59,13.21-4.65,15.11C320.43,254.74,307.76,260.75,298.44,260.75Z"/><path class="cls-3" d="M140.52,15.5a22.27,22.27,0,0,1,2.08,3.41c1.41,2.62,3,5.58,6,7.73a91.93,91.93,0,0,0,8.52,5.12c3.64,2,7.77,4.34,11.91,7.05a40.15,40.15,0,0,1,6.29,6c3.08,3.33,6.57,7.11,11,9.91a17.49,17.49,0,0,0,9.44,2.49c4.15,0,8.3-1,12.31-2.06A43.16,43.16,0,0,1,215,53.72c3.73,2.41,7,6.34,9.65,9.53,3.39,4.09,6.08,7.33,10.41,8.33a65.37,65.37,0,0,0,13.71,1.1c4.12,0,8.61-.18,13-.54,3.89-.31,7.88-1,11.74-1.69,3.46-.61,7-1.23,10.44-1.56,3.88-.37,7.51-1.08,11-1.76a71.92,71.92,0,0,1,10.24-1.53q.7,0,1.41,0c5.21,0,9.21,1.27,13.08,2.49l2.81.86a10.91,10.91,0,0,0,3,.43c5.33,0,9.38-3.54,14.51-8,2.28-2,6.9-6,9.07-6.75,1.5.63,4.19,2.89,6,4.43,3.53,3,7.54,6.34,12.42,7.87,1.07,1,2.53,5.16,3.23,7.19,1.45,4.13,2.94,8.4,6.22,11.35a31.83,31.83,0,0,0,7.95,4.76c2.27,1.09,7,3.35,7.13,4.74.45,4.62,2.43,9.18,4.35,13.6,1.21,2.78,3.46,8,3.23,9.67-1.16,8.62-5.34,21.18-7.29,24.23-.71.46-2.37,1.22-3.62,1.8-5.7,2.63-14.33,6.61-18.54,16.27a112.73,112.73,0,0,0-4.19,12c-1.47,4.78-2.86,9.29-4.78,12.83-4.14,7.62-11.39,14.73-16,17.19C334.94,208,331,216.07,327.79,223.89c-1.45,3.57-2,7.8-2.5,12.28-.4,3.37-1.24,10.34-2.66,11.9-5.38,3.32-16.69,8.18-24.19,8.18-4.15,0-9.92-1.74-15.5-3.42-3.69-1.12-7.5-2.27-11.16-3-1.5-1.13-4.21-5.87-5.69-8.46-4-6.95-8.06-14.12-15.55-16.37a28.17,28.17,0,0,0-8.15-1.12A65.47,65.47,0,0,0,231,225.17a46.36,46.36,0,0,1-7.18.93,5.41,5.41,0,0,1-1.54-.16,39.82,39.82,0,0,0-12-2,38.7,38.7,0,0,0-14.6,3.09c-.68.26-1.32.51-1.81.67a38.46,38.46,0,0,1-7.13-1.61c-4.55-1.28-9.7-2.74-15.05-2.74a24.62,24.62,0,0,0-7,1,87.08,87.08,0,0,0-9.79,3.79c-3.6,1.56-7.32,3.18-9.57,3.18a2.89,2.89,0,0,1-.43,0,43.22,43.22,0,0,1-3.95-4.64c-3.42-4.36-7.67-9.79-14-13.54-3.13-1.87-6-4.84-9-8a80.51,80.51,0,0,0-9.16-8.55c-5.23-4-11-5.76-15.59-7.17a30.65,30.65,0,0,1-5.74-2.11c-.45-.94-.7-3.84-.87-5.8a48.55,48.55,0,0,0-2.67-13.77c-2.34-6.1-8.07-9.46-13.12-12.43-2.06-1.21-5.47-3.21-6.3-4.34-1.17-4.24-2-9-2.88-13.55-.46-2.48-.93-5-1.45-7.56.64-1.58,3.25-4.78,4.85-6.75,4.3-5.29,9.18-11.28,8.17-18.45a73.14,73.14,0,0,1-.55-16.88l.08-1.32c.33-5.77-3.44-10.13-7.43-14.75-1.6-1.85-4.82-5.58-5.43-7.37,1-2.53,3.27-5.38,5.61-8.39a69.82,69.82,0,0,0,6.49-9.35c1.2-2.22,3.7-3.55,7.67-5.48a38.13,38.13,0,0,0,8-4.78c3-2.49,6.51-4.64,14-7.11a4.55,4.55,0,0,1,1.39-.17,35.53,35.53,0,0,1,5.25.65,51.42,51.42,0,0,0,8.72.94,26.25,26.25,0,0,0,5-.46c6.76-1.31,11.3-6.59,15-10.84a49,49,0,0,1,3.55-3.85m-.4-9.21h-.56c-6.68.3-11.8,13.61-19.25,15.05a17.57,17.57,0,0,1-3.31.3c-4.74,0-9.54-1.59-14-1.59a13.52,13.52,0,0,0-4.2.61c-8.55,2.81-13.1,5.5-17,8.75C77.06,33.4,68.1,34.7,64,42.3c-3.59,6.59-10.38,12.58-12.86,19.51C48,70.53,64,80.66,63.65,86a85.92,85.92,0,0,0,.55,20c1,6.91-14.74,17.23-13.06,25.12,1.56,7.32,2.63,15.3,4.68,22.6C58,161.27,72.88,164.3,75.43,171c3.14,8.21,1.1,16.53,4.63,21.62,3.85,5.54,15,4.88,23.18,11.15,6.89,5.28,11.69,12.75,19,17.12,9.36,5.59,13.89,17.25,19.52,19a11.78,11.78,0,0,0,3.44.49c6.66,0,14-5,21.93-7.34a15.54,15.54,0,0,1,4.48-.61c7.67,0,16.39,4.35,22.19,4.35a8.3,8.3,0,0,0,2.35-.31c3.3-1,7.56-3.45,14.05-3.45a30.54,30.54,0,0,1,9.32,1.55,14,14,0,0,0,4.26.58c5.59,0,12.3-2.24,18.59-2.24a19.43,19.43,0,0,1,5.56.74c8.37,2.51,12.78,23.21,21.69,25s20.06,6.69,28.8,6.69c10.41,0,23.83-6.36,29.05-9.61,7.52-4.68,5.79-21.35,8.64-28.35,3.21-7.91,6.25-13.08,13.31-16.85,6.12-3.26,14.65-11.56,19.68-20.84,4.13-7.6,5.84-17.58,9.3-25.5,4.5-10.29,17.3-11.45,20.78-15.79,3.34-4.18,8.1-19.62,9.35-28.92,1-7.43-6.83-18-7.54-25.32-.9-9.35-13.78-11.51-18-15.33-4.08-3.67-4.57-17.95-12.66-20.4-6.7-2-13-11.25-19.82-12.69a6.33,6.33,0,0,0-1.31-.13c-8.28,0-19.13,14.83-23.71,14.83a1.63,1.63,0,0,1-.5-.07c-4.87-1.42-10.43-3.71-18.41-3.71-.58,0-1.18,0-1.78,0-6.93.29-14.18,2.59-21.74,3.32s-15.21,2.69-22,3.24c-4.17.34-8.43.51-12.27.51a58.85,58.85,0,0,1-11.68-.87c-3.24-.75-8.88-11.81-18.23-17.28a7.23,7.23,0,0,0-3.66-.81c-5.47,0-13.48,3.47-19.42,3.47a8.68,8.68,0,0,1-4.67-1.12c-6.62-4.15-11.27-11.92-17.18-15.79-8.28-5.42-16.43-9.28-20.06-11.92C150,16.58,149.06,6.29,140.12,6.29Z"/></g><path class="cls-4" d="M69.56,207.83c-17.65-1.17-18.83-15.29-18.83-15.29s-7,15.22-18.82,15.29c-9.42.06-14.12-15.29-14.12-15.29S9.2,206.78,3.32,207.89"/><path class="cls-4" d="M36.44,235.81c17.64-1.18,18.82-15.3,18.82-15.3s7,15.22,18.82,15.3c9.43.05,14.12-15.3,14.12-15.3s8.59,14.24,14.47,15.35"/><path class="cls-4" d="M244.55,36.88c17.65-1.18,18.83-15.3,18.83-15.3s7,15.22,18.82,15.3c9.42.06,14.12-15.3,14.12-15.3s8.59,14.24,14.47,15.36"/><path class="cls-4" d="M379.2,235.84c17.64-1.18,18.82-15.3,18.82-15.3s7.05,15.22,18.83,15.3"/><path class="cls-4" d="M216.86,21.58c17.65-1.17,18.82-15.29,18.82-15.29s7,15.22,18.83,15.29"/><path class="cls-5" d="M94.61,49.72c4.37,13.8,3,19.34-.4,20.43s-7.72-2.67-12.09-16.47-3.5-20.75-.05-21.85S90.24,35.93,94.61,49.72Z"/><path class="cls-6" d="M95.21,58.92c3.55,11.2,2.93,15.55.69,16.26s-5.26-2.49-8.81-13.69S83.8,44.78,86,44.07,91.66,47.71,95.21,58.92Z"/><path class="cls-5" d="M119.79,49.72c-4.37,13.8-3.05,19.34.39,20.43s7.72-2.67,12.1-16.47,3.5-20.75.05-21.85S124.16,35.93,119.79,49.72Z"/><path class="cls-6" d="M119.18,58.92c-3.55,11.2-2.93,15.55-.68,16.26s5.26-2.49,8.81-13.69,3.29-16.71,1-17.42S122.73,47.71,119.18,58.92Z"/><path class="cls-5" d="M134.85,87.17c0,15.38-12.47,18.92-27.85,18.92s-27.85-3.54-27.85-18.92a27.85,27.85,0,1,1,55.7,0Z"/><path class="cls-7" d="M94.11,83.63c0,1.68-1.37,2.6-3.06,2.6s-3-.92-3-2.6a3.06,3.06,0,1,1,6.11,0Z"/><path class="cls-8" d="M91.05,82.4a.93.93,0,1,1-.92-.93A.93.93,0,0,1,91.05,82.4Z"/><path class="cls-7" d="M126.39,83.63c0,1.68-1.36,2.6-3,2.6s-3-.92-3-2.6a3.05,3.05,0,1,1,6.1,0Z"/><path class="cls-8" d="M123.34,82.4a.93.93,0,1,1-.93-.93A.93.93,0,0,1,123.34,82.4Z"/><path class="cls-6" d="M94.7,87.74c0,.74-2.88,1.34-6.44,1.34s-6.44-.6-6.44-1.34,2.89-1.34,6.44-1.34S94.7,87,94.7,87.74Z"/><path class="cls-6" d="M131.12,87.74c0,.74-2.88,1.34-6.44,1.34s-6.44-.6-6.44-1.34,2.88-1.34,6.44-1.34S131.12,87,131.12,87.74Z"/><path class="cls-7" d="M110.58,95.31a4.72,4.72,0,0,1-3.18-1.43,7.62,7.62,0,0,1-3.86,1.42A4.46,4.46,0,0,1,99.47,93,.89.89,0,1,1,101,92.2a2.73,2.73,0,0,0,2.41,1.32A6.44,6.44,0,0,0,106.91,92a.91.91,0,0,1,1.33.14,3.38,3.38,0,0,0,2.46,1.37,2.13,2.13,0,0,0,1.79-1.24.9.9,0,0,1,1.17-.48.89.89,0,0,1,.49,1.15,4,4,0,0,1-3.34,2.36Z"/><path class="cls-5" d="M138.13,153.55c4.37,13.8,3.05,19.34-.4,20.43s-7.72-2.67-12.09-16.47-3.5-20.75,0-21.85S133.75,139.76,138.13,153.55Z"/><path class="cls-6" d="M138.73,162.75c3.55,11.2,2.93,15.55.69,16.26s-5.26-2.49-8.81-13.69-3.3-16.71-1.05-17.42S135.18,151.54,138.73,162.75Z"/><path class="cls-5" d="M163.31,153.55c-4.38,13.8-3.05,19.34.39,20.43s7.72-2.67,12.09-16.47,3.5-20.75.06-21.85S167.68,139.76,163.31,153.55Z"/><path class="cls-6" d="M162.7,162.75C159.15,174,159.77,178.3,162,179s5.26-2.49,8.8-13.69,3.3-16.71,1.05-17.42S166.25,151.54,162.7,162.75Z"/><path class="cls-5" d="M178.37,191c0,15.38-12.47,18.92-27.85,18.92s-27.85-3.54-27.85-18.92a27.85,27.85,0,1,1,55.7,0Z"/><path class="cls-7" d="M137.63,187.46c0,1.68-1.37,2.6-3.06,2.6s-3-.92-3-2.6a3.06,3.06,0,1,1,6.11,0Z"/><path class="cls-8" d="M134.57,186.23a.93.93,0,1,1-.92-.93A.93.93,0,0,1,134.57,186.23Z"/><path class="cls-7" d="M169.91,187.46c0,1.68-1.37,2.6-3,2.6s-3.05-.92-3.05-2.6a3.05,3.05,0,1,1,6.1,0Z"/><path class="cls-8" d="M166.86,186.23a.93.93,0,1,1-.93-.93A.93.93,0,0,1,166.86,186.23Z"/><path class="cls-6" d="M138.22,191.57c0,.74-2.88,1.34-6.44,1.34s-6.44-.6-6.44-1.34,2.89-1.34,6.44-1.34S138.22,190.83,138.22,191.57Z"/><path class="cls-6" d="M174.64,191.57c0,.74-2.89,1.34-6.44,1.34s-6.44-.6-6.44-1.34,2.88-1.34,6.44-1.34S174.64,190.83,174.64,191.57Z"/><path class="cls-7" d="M154.1,199.14a4.72,4.72,0,0,1-3.18-1.43,7.62,7.62,0,0,1-3.86,1.42,4.48,4.48,0,0,1-4.08-2.26.9.9,0,0,1,1.58-.85,2.71,2.71,0,0,0,2.41,1.33,6.44,6.44,0,0,0,3.46-1.51.88.88,0,0,1,.69-.22.89.89,0,0,1,.64.36,3.36,3.36,0,0,0,2.46,1.37,2.15,2.15,0,0,0,1.79-1.24.9.9,0,0,1,1.17-.48.89.89,0,0,1,.49,1.15,4,4,0,0,1-3.35,2.36Z"/><path class="cls-5" d="M229.12,97.59c4.37,13.79,3,19.33-.4,20.43s-7.71-2.68-12.09-16.48-3.5-20.75,0-21.84S224.75,83.79,229.12,97.59Z"/><path class="cls-6" d="M229.73,106.78c3.55,11.2,2.93,15.55.68,16.27s-5.26-2.5-8.81-13.7-3.29-16.71-1-17.42S226.18,95.58,229.73,106.78Z"/><path class="cls-5" d="M254.3,97.59c-4.37,13.79-3.05,19.33.4,20.43s7.72-2.68,12.09-16.48,3.5-20.75,0-21.84S258.67,83.79,254.3,97.59Z"/><path class="cls-6" d="M253.7,106.78c-3.55,11.2-2.93,15.55-.69,16.27s5.26-2.5,8.81-13.7,3.29-16.71,1.05-17.42S257.24,95.58,253.7,106.78Z"/><path class="cls-5" d="M269.37,135c0,15.38-12.47,18.92-27.85,18.92s-27.85-3.54-27.85-18.92a27.85,27.85,0,0,1,55.7,0Z"/><path class="cls-7" d="M228.62,131.49c0,1.69-1.36,2.61-3.05,2.61s-3-.92-3-2.61a3.05,3.05,0,1,1,6.1,0Z"/><path class="cls-8" d="M225.57,130.26a.93.93,0,1,1-1.85,0,.93.93,0,0,1,1.85,0Z"/><path class="cls-7" d="M260.91,131.49c0,1.69-1.37,2.61-3.06,2.61s-3.05-.92-3.05-2.61a3.06,3.06,0,0,1,6.11,0Z"/><path class="cls-8" d="M257.85,130.26a.93.93,0,1,1-.92-.92A.93.93,0,0,1,257.85,130.26Z"/><path class="cls-6" d="M229.22,135.61c0,.74-2.88,1.34-6.44,1.34s-6.44-.6-6.44-1.34,2.88-1.34,6.44-1.34S229.22,134.87,229.22,135.61Z"/><path class="cls-6" d="M265.64,135.61c0,.74-2.89,1.34-6.45,1.34s-6.44-.6-6.44-1.34,2.89-1.34,6.44-1.34S265.64,134.87,265.64,135.61Z"/><path class="cls-7" d="M245.09,143.18a4.74,4.74,0,0,1-3.17-1.43,7.76,7.76,0,0,1-3.87,1.41A4.42,4.42,0,0,1,234,140.9a.89.89,0,0,1,1.58-.84,2.71,2.71,0,0,0,2.4,1.32,6.52,6.52,0,0,0,3.47-1.5.88.88,0,0,1,.69-.23.93.93,0,0,1,.63.36,3.38,3.38,0,0,0,2.46,1.38,2.15,2.15,0,0,0,1.8-1.25.89.89,0,0,1,1.16-.48.88.88,0,0,1,.49,1.15,3.92,3.92,0,0,1-3.34,2.36Z"/><path class="cls-9" d="M259.33,181.43a2.5,2.5,0,0,1-1-1.23,3,3,0,0,1-.16-1.41,2.83,2.83,0,0,1,.51-1.34,2.35,2.35,0,0,1,1.28-.92,6.67,6.67,0,0,1,.35,1.41,4.2,4.2,0,0,1,0,1.12,3.91,3.91,0,0,1-.29,1.1A5.3,5.3,0,0,1,259.33,181.43Z"/><path class="cls-9" d="M259.2,183.59a7.93,7.93,0,0,1,.23-2.38,11.45,11.45,0,0,1,.74-2.11,12.71,12.71,0,0,1,1.09-1.93,13.52,13.52,0,0,1,1.52-1.79,5.19,5.19,0,0,1,.06,2.44,9.59,9.59,0,0,1-.71,2.18A9.7,9.7,0,0,1,261,182,6.94,6.94,0,0,1,259.2,183.59Z"/><path class="cls-9" d="M260,182.94a.08.08,0,0,1-.07,0s0-.06,0-.08,0,0,0,0l.07-.11.14-.16a3.45,3.45,0,0,1,.26-.28c.17-.16.33-.29.48-.42a5.52,5.52,0,0,1,.88-.54,4.81,4.81,0,0,1,.88-.31c.33-.09.71-.18,1.28-.37a1.76,1.76,0,0,1-.11,1.6,2.47,2.47,0,0,1-1.13,1,2.65,2.65,0,0,1-1.41.23,2.49,2.49,0,0,1-.7-.18,3.65,3.65,0,0,1-.34-.18l-.16-.11L260,183v0s0-.06,0,0S260,182.93,260,182.94Z"/><path class="cls-9" d="M246.57,191.77s11-11.42,13.48-10.74c1.58.43,2.69,4.61,2.73,13.59a38.16,38.16,0,0,1-2.69,14.75Z"/><path class="cls-10" d="M249.53,198.58s7.78-13.37,9.36-11.78-1.58,19-3,21-6.34-8.65-6.34-8.65"/><path class="cls-9" d="M208.87,182.58a5.34,5.34,0,0,1-.73-1.26,4.93,4.93,0,0,1-.29-1.11,4.68,4.68,0,0,1,0-1.12,6.13,6.13,0,0,1,.34-1.41,2.31,2.31,0,0,1,1.29.93A3,3,0,0,1,210,180a3.05,3.05,0,0,1-.16,1.4A2.45,2.45,0,0,1,208.87,182.58Z"/><path class="cls-9" d="M209,184.75a6.76,6.76,0,0,1-1.75-1.65,10.23,10.23,0,0,1-1.18-1.95,9,9,0,0,1-.7-2.18,5.18,5.18,0,0,1,0-2.44,12.3,12.3,0,0,1,2.62,3.72,12.62,12.62,0,0,1,.73,2.12A7.93,7.93,0,0,1,209,184.75Z"/><path class="cls-9" d="M208.23,184.1s0,0,0,0,0,0,0,0,0,0,0,0a.22.22,0,0,1-.07.06l-.16.11c-.11.07-.23.12-.34.18a2.25,2.25,0,0,1-.71.18,2.57,2.57,0,0,1-1.41-.23,2.52,2.52,0,0,1-1.13-1,1.76,1.76,0,0,1-.11-1.6c.58.19.95.28,1.28.37a5.35,5.35,0,0,1,.88.31,5.21,5.21,0,0,1,.88.55,4.41,4.41,0,0,1,.49.42l.26.27.14.16.07.11s0,0,0,0,0,.09,0,.08S208.25,184.1,208.23,184.1Z"/><path class="cls-9" d="M221.63,192.93s-11-11.43-13.48-10.75c-1.59.44-2.69,4.62-2.74,13.6a38.24,38.24,0,0,0,2.7,14.74Z"/><path class="cls-10" d="M218.67,199.73s-7.78-13.37-9.37-11.78,1.59,19,3,21,6.34-8.65,6.34-8.65"/><path class="cls-9" d="M209.93,220.77a1,1,0,0,1-.38-.07l-6.27-2.38a1.08,1.08,0,0,1-.63-1.39,1.09,1.09,0,0,1,1.4-.63l6.26,2.38a1.08,1.08,0,0,1,.63,1.39A1.06,1.06,0,0,1,209.93,220.77Z"/><path class="cls-9" d="M203.66,227.74a1.09,1.09,0,0,1-1-.7,1.08,1.08,0,0,1,.63-1.39l6.27-2.38a1.08,1.08,0,1,1,.76,2l-6.26,2.38A1.34,1.34,0,0,1,203.66,227.74Z"/><path class="cls-9" d="M202.71,223.12a1.08,1.08,0,1,1,0-2.16h6.7a1.08,1.08,0,1,1,0,2.16Z"/><path class="cls-9" d="M258.92,220.83a1.09,1.09,0,0,1-.39-2.1l6.27-2.37a1.08,1.08,0,1,1,.77,2l-6.27,2.38A1.33,1.33,0,0,1,258.92,220.83Z"/><path class="cls-9" d="M265.19,227.79a1.07,1.07,0,0,1-.39-.07l-6.27-2.38a1.06,1.06,0,0,1-.62-1.39,1.08,1.08,0,0,1,1.39-.63l6.27,2.38a1.08,1.08,0,0,1-.38,2.09Z"/><path class="cls-9" d="M266.14,223.18h-6.7a1.07,1.07,0,0,1-1.08-1.08,1.08,1.08,0,0,1,1.08-1.08h6.7a1.08,1.08,0,0,1,0,2.16Z"/><path class="cls-11" d="M261.81,216.23c0,15.12-12.26,18.05-27.39,18.05S207,231.35,207,216.23a27.39,27.39,0,0,1,54.77,0Z"/><path class="cls-7" d="M238.62,223.88a8.63,8.63,0,0,1-4.11-1.33,6.54,6.54,0,0,1-3.73,1.32,4.84,4.84,0,0,1-4.43-2.46.87.87,0,1,1,1.53-.81,3.18,3.18,0,0,0,2.82,1.54,4.42,4.42,0,0,0,3.07-1.24.87.87,0,0,1,1.16-.14,7.34,7.34,0,0,0,3.87,1.39,2.54,2.54,0,0,0,2.13-1.47.87.87,0,0,1,1.13-.47.85.85,0,0,1,.47,1.11,4.28,4.28,0,0,1-3.62,2.56Z"/><path class="cls-7" d="M221.75,214.83c0,1.63-1.32,2.53-2.95,2.53s-3-.9-3-2.53a3,3,0,0,1,5.91,0Z"/><path class="cls-8" d="M218.8,213.64a.9.9,0,1,1-.9-.89A.9.9,0,0,1,218.8,213.64Z"/><path class="cls-7" d="M253,214.83c0,1.63-1.33,2.53-3,2.53s-3-.9-3-2.53a3,3,0,0,1,5.91,0Z"/><path class="cls-8" d="M250.05,213.64a.9.9,0,1,1-.9-.89A.9.9,0,0,1,250.05,213.64Z"/><path class="cls-7" d="M228.4,223.23a.81.81,0,0,1-.47-.14.89.89,0,0,1-.27-1.21.86.86,0,0,1,1.19-.26l0,0a.87.87,0,0,1,.25,1.2A.89.89,0,0,1,228.4,223.23Z"/><path class="cls-7" d="M229.14,225.28a.85.85,0,0,1-.81-.57l-.71-2a.87.87,0,1,1,1.63-.58l.7,2a.87.87,0,0,1-.52,1.11A1,1,0,0,1,229.14,225.28Z"/><path class="cls-7" d="M229.14,225.28a.84.84,0,0,1-.59-.24.86.86,0,0,1,0-1.22l1.12-1.19a.87.87,0,1,1,1.26,1.19L229.77,225A.86.86,0,0,1,229.14,225.28Z"/><path class="cls-7" d="M239.37,225.79a.86.86,0,0,1-.68-.34l-1.37-1.74a.87.87,0,0,1,1.36-1.07l1.37,1.75a.86.86,0,0,1-.15,1.21A.84.84,0,0,1,239.37,225.79Z"/><path class="cls-7" d="M239.37,225.79a.81.81,0,0,1-.39-.1.86.86,0,0,1-.39-1.15l1.18-2.39a.87.87,0,0,1,1.16-.39.86.86,0,0,1,.39,1.16l-1.18,2.38A.86.86,0,0,1,239.37,225.79Z"/><path class="cls-6" d="M222.08,219.26c0,.72-2.8,1.3-6.24,1.3s-6.23-.58-6.23-1.3,2.79-1.3,6.23-1.3S222.08,218.54,222.08,219.26Z"/><path class="cls-6" d="M259.24,219.26c0,.72-2.79,1.3-6.23,1.3s-6.24-.58-6.24-1.3,2.79-1.3,6.24-1.3S259.24,218.54,259.24,219.26Z"/><path class="cls-9" d="M245.93,212.82a1.1,1.1,0,0,1-1-.7,1.08,1.08,0,0,1,.63-1.39l6.44-2.44a1.09,1.09,0,0,1,1.4.63,1.08,1.08,0,0,1-.63,1.39l-6.44,2.44A1.07,1.07,0,0,1,245.93,212.82Z"/><path class="cls-9" d="M222.28,212.76a1.06,1.06,0,0,1-.38-.07l-6.44-2.43a1.09,1.09,0,0,1-.63-1.4,1.08,1.08,0,0,1,1.39-.63l6.44,2.44a1.08,1.08,0,0,1,.63,1.39A1.06,1.06,0,0,1,222.28,212.76Z"/><path class="cls-9" d="M193.1,77.13a2.5,2.5,0,0,1-1-1.23,3.1,3.1,0,0,1-.16-1.41,3.06,3.06,0,0,1,.51-1.34,2.34,2.34,0,0,1,1.29-.92,6,6,0,0,1,.34,1.41,4.25,4.25,0,0,1-.28,2.22A5.38,5.38,0,0,1,193.1,77.13Z"/><path class="cls-9" d="M193,79.29a7.93,7.93,0,0,1,.23-2.38,12.22,12.22,0,0,1,.73-2.11,12.3,12.3,0,0,1,2.62-3.72,5.18,5.18,0,0,1,.05,2.44,9,9,0,0,1-.7,2.18,10.72,10.72,0,0,1-1.17,2A6.94,6.94,0,0,1,193,79.29Z"/><path class="cls-9" d="M193.74,78.64a.06.06,0,0,1-.06,0s0-.06,0-.08,0,0,0,0l.07-.11.14-.16c.09-.11.18-.18.26-.27a6,6,0,0,1,.49-.43,5.11,5.11,0,0,1,.88-.54,4.56,4.56,0,0,1,.88-.31c.33-.09.7-.18,1.28-.37a1.76,1.76,0,0,1-.11,1.6,2.52,2.52,0,0,1-1.13,1,2.67,2.67,0,0,1-1.41.23,2.56,2.56,0,0,1-.71-.18c-.11-.06-.23-.11-.34-.18l-.16-.11a.16.16,0,0,1-.07-.07s0,0,0,0,0-.06,0-.05S193.74,78.63,193.74,78.64Z"/><path class="cls-9" d="M180.34,87.47s11-11.42,13.48-10.74c1.59.43,2.69,4.61,2.74,13.59a38,38,0,0,1-2.7,14.75Z"/><path class="cls-10" d="M183.3,94.28s7.78-13.37,9.37-11.78-1.59,19-3,21-6.34-8.65-6.34-8.65"/><path class="cls-9" d="M142.64,78.28a5.26,5.26,0,0,1-.72-1.26,4.45,4.45,0,0,1-.29-1.11,4.2,4.2,0,0,1,0-1.12,6.82,6.82,0,0,1,.35-1.41,2.36,2.36,0,0,1,1.28.93,2.8,2.8,0,0,1,.51,1.34,2.91,2.91,0,0,1-.16,1.4A2.45,2.45,0,0,1,142.64,78.28Z"/><path class="cls-9" d="M142.77,80.45A7,7,0,0,1,141,78.8a9.7,9.7,0,0,1-1.17-2,9.43,9.43,0,0,1-.71-2.18,5.32,5.32,0,0,1,.05-2.44A12.91,12.91,0,0,1,140.71,74,12.71,12.71,0,0,1,141.8,76a11.82,11.82,0,0,1,.74,2.12A7.93,7.93,0,0,1,142.77,80.45Z"/><path class="cls-9" d="M142,79.8s0,0,0,0,0,0,0,.06,0,0,0,0l-.08.06-.16.11a3.65,3.65,0,0,1-.34.18,2.51,2.51,0,0,1-.7.19,2.66,2.66,0,0,1-1.41-.24,2.47,2.47,0,0,1-1.13-1,1.76,1.76,0,0,1-.11-1.6c.58.19.95.28,1.28.37a5.69,5.69,0,0,1,.88.31,5.63,5.63,0,0,1,.88.55,5.53,5.53,0,0,1,.48.42l.27.27.13.16.07.11,0,0s0,.09,0,.09S142,79.8,142,79.8Z"/><path class="cls-9" d="M155.4,88.63s-11-11.43-13.48-10.75c-1.58.44-2.69,4.62-2.73,13.6a38.14,38.14,0,0,0,2.69,14.74Z"/><path class="cls-10" d="M152.45,95.43s-7.79-13.37-9.37-11.78,1.58,19,3,21S152.45,96,152.45,96"/><path class="cls-9" d="M143.71,116.47a1.07,1.07,0,0,1-.39-.07L137.05,114a1.06,1.06,0,0,1-.62-1.39,1.08,1.08,0,0,1,1.39-.63l6.27,2.38a1.08,1.08,0,0,1-.38,2.09Z"/><path class="cls-9" d="M137.44,123.44a1.08,1.08,0,0,1-1-.7,1.06,1.06,0,0,1,.62-1.39l6.27-2.38a1.08,1.08,0,1,1,.77,2l-6.27,2.38A1.06,1.06,0,0,1,137.44,123.44Z"/><path class="cls-9" d="M136.48,118.82a1.08,1.08,0,1,1,0-2.16h6.71a1.08,1.08,0,1,1,0,2.16Z"/><path class="cls-9" d="M192.69,116.53a1.08,1.08,0,0,1-.38-2.09l6.27-2.38a1.08,1.08,0,1,1,.76,2l-6.27,2.38A1,1,0,0,1,192.69,116.53Z"/><path class="cls-9" d="M199,123.49a1,1,0,0,1-.38-.07L192.31,121a1.08,1.08,0,1,1,.76-2l6.27,2.38a1.08,1.08,0,0,1,.63,1.39A1.06,1.06,0,0,1,199,123.49Z"/><path class="cls-9" d="M199.92,118.88h-6.71a1.09,1.09,0,0,1,0-2.17h6.71a1.08,1.08,0,1,1,0,2.16Z"/><path class="cls-11" d="M195.58,111.93c0,15.12-12.26,18-27.38,18s-27.39-2.93-27.39-18a27.39,27.39,0,0,1,54.77,0Z"/><path class="cls-7" d="M172.4,119.59a8.55,8.55,0,0,1-4.11-1.34,6.53,6.53,0,0,1-3.73,1.32,4.83,4.83,0,0,1-4.43-2.46.86.86,0,1,1,1.52-.81,3.19,3.19,0,0,0,2.82,1.54,4.42,4.42,0,0,0,3.07-1.24.89.89,0,0,1,1.17-.14,7.3,7.3,0,0,0,3.87,1.39,2.52,2.52,0,0,0,2.12-1.47.87.87,0,0,1,1.61.65,4.31,4.31,0,0,1-3.62,2.55Z"/><path class="cls-7" d="M155.53,110.53c0,1.64-1.33,2.53-3,2.53s-2.95-.89-2.95-2.53a3,3,0,0,1,5.91,0Z"/><path class="cls-8" d="M152.57,109.34a.9.9,0,1,1-.9-.89A.9.9,0,0,1,152.57,109.34Z"/><path class="cls-7" d="M186.78,110.53c0,1.64-1.32,2.53-2.95,2.53s-3-.89-3-2.53a3,3,0,0,1,5.91,0Z"/><path class="cls-8" d="M183.83,109.34a.9.9,0,1,1-.9-.89A.9.9,0,0,1,183.83,109.34Z"/><path class="cls-7" d="M162.18,118.93a.84.84,0,0,1-.48-.14.88.88,0,0,1-.26-1.21.85.85,0,0,1,1.18-.26l0,0a.86.86,0,0,1,.25,1.19A.85.85,0,0,1,162.18,118.93Z"/><path class="cls-7" d="M162.91,121a.87.87,0,0,1-.81-.57l-.7-2a.87.87,0,0,1,1.63-.58l.7,1.95a.87.87,0,0,1-.52,1.11A1,1,0,0,1,162.91,121Z"/><path class="cls-7" d="M162.91,121a.89.89,0,0,1-.59-.23.88.88,0,0,1,0-1.23l1.13-1.19a.87.87,0,1,1,1.26,1.19l-1.13,1.19A.86.86,0,0,1,162.91,121Z"/><path class="cls-7" d="M173.14,121.49a.86.86,0,0,1-.68-.34l-1.36-1.74a.86.86,0,1,1,1.36-1.06l1.36,1.74a.85.85,0,0,1-.15,1.21A.8.8,0,0,1,173.14,121.49Z"/><path class="cls-7" d="M173.14,121.49a.85.85,0,0,1-.38-.09.86.86,0,0,1-.39-1.16l1.18-2.39a.86.86,0,0,1,1.16-.39.87.87,0,0,1,.39,1.16L173.92,121A.87.87,0,0,1,173.14,121.49Z"/><path class="cls-6" d="M155.85,115c0,.72-2.79,1.3-6.23,1.3s-6.24-.58-6.24-1.3,2.79-1.3,6.24-1.3S155.85,114.25,155.85,115Z"/><path class="cls-6" d="M193,115c0,.72-2.8,1.3-6.24,1.3s-6.23-.58-6.23-1.3,2.79-1.3,6.23-1.3S193,114.25,193,115Z"/><path class="cls-9" d="M179.71,108.52a1.08,1.08,0,0,1-.38-2.09l6.44-2.44a1.08,1.08,0,0,1,.76,2l-6.44,2.44A1.06,1.06,0,0,1,179.71,108.52Z"/><path class="cls-9" d="M156.06,108.46a1.07,1.07,0,0,1-.39-.07L149.23,106a1.08,1.08,0,1,1,.77-2l6.44,2.43a1.08,1.08,0,0,1-.38,2.09Z"/><path class="cls-5" d="M306.59,155c4.37,13.8,3.05,19.34-.4,20.43s-7.72-2.67-12.09-16.47-3.5-20.75-.05-21.85S302.22,141.2,306.59,155Z"/><path class="cls-6" d="M307.2,164.19c3.55,11.2,2.93,15.55.68,16.26s-5.26-2.49-8.81-13.69-3.29-16.71-1.05-17.42S303.65,153,307.2,164.19Z"/><path class="cls-5" d="M331.77,155c-4.37,13.8-3,19.34.4,20.43s7.72-2.67,12.09-16.47,3.5-20.75.05-21.85S336.14,141.2,331.77,155Z"/><path class="cls-6" d="M331.16,164.19c-3.54,11.2-2.92,15.55-.68,16.26s5.26-2.49,8.81-13.69,3.29-16.71,1-17.42S334.71,153,331.16,164.19Z"/><path class="cls-5" d="M346.83,192.44c0,15.38-12.46,18.92-27.84,18.92s-27.85-3.54-27.85-18.92a27.85,27.85,0,1,1,55.69,0Z"/><path class="cls-7" d="M306.09,188.9c0,1.68-1.37,2.6-3,2.6s-3.05-.92-3.05-2.6a3,3,0,1,1,6.1,0Z"/><path class="cls-8" d="M303,187.67a.93.93,0,1,1-.93-.93A.93.93,0,0,1,303,187.67Z"/><path class="cls-7" d="M338.38,188.9c0,1.68-1.37,2.6-3.06,2.6s-3.05-.92-3.05-2.6a3.06,3.06,0,0,1,6.11,0Z"/><path class="cls-8" d="M335.32,187.67a.93.93,0,1,1-.92-.93A.93.93,0,0,1,335.32,187.67Z"/><path class="cls-6" d="M306.69,193c0,.74-2.88,1.34-6.44,1.34s-6.44-.6-6.44-1.34,2.88-1.34,6.44-1.34S306.69,192.27,306.69,193Z"/><path class="cls-6" d="M343.1,193c0,.74-2.88,1.34-6.44,1.34s-6.44-.6-6.44-1.34,2.89-1.34,6.44-1.34S343.1,192.27,343.1,193Z"/><path class="cls-7" d="M322.56,200.58a4.7,4.7,0,0,1-3.17-1.43,7.7,7.7,0,0,1-3.87,1.42,4.46,4.46,0,0,1-4.07-2.26.9.9,0,0,1,1.58-.85,2.67,2.67,0,0,0,2.4,1.33,6.54,6.54,0,0,0,3.47-1.51.87.87,0,0,1,.69-.22.89.89,0,0,1,.63.36,3.38,3.38,0,0,0,2.46,1.37,2.15,2.15,0,0,0,1.8-1.24.89.89,0,0,1,1.16-.48.88.88,0,0,1,.49,1.15,3.92,3.92,0,0,1-3.34,2.36Z"/><path class="cls-5" d="M340.74,59.59c4.38,13.8,3.06,19.34-.39,20.43s-7.72-2.68-12.09-16.47-3.5-20.76-.06-21.85S336.37,45.79,340.74,59.59Z"/><path class="cls-6" d="M341.35,68.78c3.55,11.2,2.93,15.56.69,16.27s-5.26-2.49-8.81-13.69-3.3-16.71-1.05-17.42S337.8,57.58,341.35,68.78Z"/><path class="cls-5" d="M365.92,59.59c-4.37,13.8-3,19.34.4,20.43s7.72-2.68,12.09-16.47,3.5-20.76.06-21.85S370.3,45.79,365.92,59.59Z"/><path class="cls-6" d="M365.32,68.78c-3.55,11.2-2.93,15.56-.68,16.27s5.26-2.49,8.8-13.69,3.3-16.71,1.05-17.42S368.87,57.58,365.32,68.78Z"/><path class="cls-5" d="M381,97c0,15.38-12.47,18.91-27.85,18.91S325.29,112.42,325.29,97A27.85,27.85,0,0,1,381,97Z"/><path class="cls-7" d="M340.24,93.49c0,1.69-1.36,2.61-3.05,2.61s-3.05-.92-3.05-2.61a3.05,3.05,0,0,1,6.1,0Z"/><path class="cls-8" d="M337.19,92.27a.93.93,0,1,1-.92-.93A.92.92,0,0,1,337.19,92.27Z"/><path class="cls-7" d="M372.53,93.49c0,1.69-1.37,2.61-3,2.61s-3.06-.92-3.06-2.61a3.06,3.06,0,0,1,6.11,0Z"/><path class="cls-8" d="M369.48,92.27a.93.93,0,1,1-.93-.93A.93.93,0,0,1,369.48,92.27Z"/><path class="cls-6" d="M340.84,97.61c0,.74-2.88,1.34-6.44,1.34s-6.44-.6-6.44-1.34,2.88-1.34,6.44-1.34S340.84,96.87,340.84,97.61Z"/><path class="cls-6" d="M377.26,97.61c0,.74-2.89,1.34-6.44,1.34s-6.44-.6-6.44-1.34,2.88-1.34,6.44-1.34S377.26,96.87,377.26,97.61Z"/><path class="cls-7" d="M356.72,105.18a4.72,4.72,0,0,1-3.18-1.43,7.81,7.81,0,0,1-3.86,1.42,4.47,4.47,0,0,1-4.08-2.27.89.89,0,0,1,1.58-.84,2.71,2.71,0,0,0,2.41,1.32,6.47,6.47,0,0,0,3.46-1.5.92.92,0,0,1,.69-.23.9.9,0,0,1,.64.37,3.35,3.35,0,0,0,2.45,1.37,2.15,2.15,0,0,0,1.8-1.25.9.9,0,0,1,1.66.68,4,4,0,0,1-3.35,2.35Z"/></svg>