<svg id="koder" xmlns="http://www.w3.org/2000/svg" viewBox="0 0 1361.45 2413.96"><defs><style>.cls-1{fill:#f7941d;}.cls-2{fill:#2b1014;}.cls-3{fill:#fbb040;}.cls-4{fill:#00a79d;}.cls-5{fill:#5854a4;}.cls-6{fill:#993020;}.cls-7{fill:#c6452a;}.cls-8{fill:#e2e2e2;}.cls-9{fill:#fff;}.cls-10{fill:#da1c5c;}.cls-11{fill:#f1f2f2;}</style></defs><g id="Layer_8" data-name="Layer 8"><path class="cls-1" d="M332.52,1632.19s13.7-206.67,96.84-225.76c108.86-25,107.27,272.14,107.27,272.14s-53.05,23.25-118.3,10C333.24,1671.27,332.52,1632.19,332.52,1632.19Z"/><g id="Layer_4" data-name="Layer 4"><path class="cls-2" d="M381.67,791.73c0,7.18-19.31,5.61-43.12,5.61s-43.11,1.57-43.11-5.61,24.38-13,43.11-13C362.36,778.72,381.67,784.54,381.67,791.73Z"/><path class="cls-2" d="M756.27,793.59c0,7.19-22.27,5.61-49.75,5.61s-49.75,1.58-49.75-5.61,28.13-13,49.75-13C734,780.58,756.27,786.41,756.27,793.59Z"/><path class="cls-3" d="M381.92,1513.15c-9.39-88.78,27.25-113.38,127.16-154.33l46.06-15.77,181.9,1.54a153.89,153.89,0,0,1,26.58,2.55l140.12,25.91c23.38,4.33,73,24.51,91,37.76,42.36,31,39,72.18,33.68,127.65l-40,415.94a153.3,153.3,0,0,1-152.6,138.65H581.2a153.31,153.31,0,0,1-152.46-137.18Z"/></g><g id="Layer_11" data-name="Layer 11"><path class="cls-4" d="M474,2122.07s376.87-208.82,539.61-205.34c161.66,3.46,263.71,103.69,195.29,244.82C1160.78,2260.8,663.68,2305.13,551,2297.2c-8.73-.61-31.26-9.79-31.26-9.79-39.79-31.47-37.77-28.92-67.53-68.09-14.09-18.54-19.13-51.9-9.69-73.28C446.53,2137,474,2122.07,474,2122.07Z"/><g id="Layer_14" data-name="Layer 14"><path class="cls-5" d="M552,2285.68s-94,45.38-171.29,39.93-105.92-21.27-151.42-61.39c-28.3-25-41.23-87.38-21.24-106.3,14.37-13.6,201.88,14.35,233.39,15.09s41,17.53,41,17.53L552,2285.68"/></g><path class="cls-5" d="M600.42,2254.86s76.25,78.28,155,103,113.17,21,173.45,1.34c37.5-12.26,73.83-65.18,61.1-90.43-9.15-18.14-205.85-64.4-237.41-75.84s-47.33.47-47.33.47l-104.85,61.48"/><path class="cls-4" d="M330.5,1933c-139.17-22.84-226.61,9.59-184.9,143.07s501.91,240.29,501.91,240.29l74.68-20.07c50.72-13.63,65.94-54.48,59.47-109.54C773.79,2119.67,470.6,1956,330.5,1933Z"/></g><polygon class="cls-4" points="847.36 1664.61 406.59 1659.61 391.46 1470.07 863.49 1470.07 847.36 1664.61"/><path class="cls-6" d="M537.78,1247.69l13.44,93.57-19.17,13.29s60.63,36.51,130,34.77c60-1.51,130-34.69,130-34.69L754,1338.2l-10.33-117.13Z"/><g id="Layer_10" data-name="Layer 10"><path class="cls-7" d="M563,1824.35s183.46-19.46,244.29-60.8,73.24-128.94,73.24-128.94H1039.9s-7.26,128.94-131.36,215.58C812,1917.6,574.16,1926.1,574.16,1926.1Z"/></g><path class="cls-1" d="M864.36,1634.88s13.7-206.67,96.83-225.76c108.86-25,107.28,272.14,107.28,272.14s-53.05,23.25-118.31,10C865.08,1674,864.36,1634.88,864.36,1634.88Z"/><path class="cls-3" d="M469.6,1623.21l-26-53.27,6.78,53.27h-30.1l-14.45-111.39H438l4.67,49.77,13.39-49.77H490l-20.23,53.77L502,1623.21Z"/><path class="cls-3" d="M547.62,1625.22c-11.86,0-23.26-5.85-31.43-14.87-10.66-11.69-14.91-29.22-16.05-43.92-2-26.22,8.66-56.62,41.41-56.62,32.57,0,45.69,30.73,46.34,56.62C588.55,1592.48,578.85,1625.22,547.62,1625.22Zm-4.81-87.35c-10.91,0-10.67,22.38-10.25,29.56S535,1597,545.5,1597s10.4-22.21,10.08-29.39S553.72,1537.87,542.81,1537.87Z"/><path class="cls-3" d="M628,1511.82c36.46,0,53.8,23.55,52.83,55.78-.36,11.86-2.6,23.88-8.84,34.23-9.64,16.54-23.62,21.38-41.68,21.38H602.19l-1.92-111.39Zm4.36,84.5c14.28-.5,16.51-17,16.63-27.89.12-10.35-2-28.72-16.56-28.72Z"/><path class="cls-3" d="M692,1623.21l4.26-111.39h59.7L754,1538H726.92l-.92,16.2h24.06l-1.79,25.22h-23.7l-1,17h26.17l-1.94,26.72Z"/><path class="cls-3" d="M807.35,1623.21c-4.05-15.36-8.39-30.73-12.47-46.26-.14,4.84-.46,9.85-.94,14.7l-3.14,31.56H760.7l9-111.39h32.89c8.22,0,17.07.83,24.41,3.84,13.57,5.68,18.94,19.37,17.17,33.4-1.65,13-8.18,22.38-21.24,27.89l17,46.26Zm-8.53-59.79c8,0,13.24-7,14-14,1-9-4.46-12.52-13.44-12.52l-2.64,26.55Z"/></g><g id="Layer_9" data-name="Layer 9"><polygon class="cls-8" points="556.57 2171.26 117.66 2100.13 47.62 1621.84 495.25 1621.38 556.57 2171.26"/></g><g id="Layer_13" data-name="Layer 13"><path class="cls-7" d="M563.72,1823.48s-52.39-62.81-94.26-60.3-74.52,8.39-72,17.18,68.08,7.35,83.64,14.32c16.33,7.31,17.43,18.76,17.43,18.76s-50-10.92-63.5-13.4c-5.9-1.08-29.19-2.72-37.71-2a6.14,6.14,0,0,0-3.94,10.37c12.09,12.56,31.95,20.08,50,25,28.22,7.78,67.13,16.84,67.13,16.84l-43.84-2.37a33.43,33.43,0,0,1-9.33-1.2c-14.61-4.06-60.13-15.83-60-5.29.09,8.27,22.77,21,38.25,26.75a120.93,120.93,0,0,0,25.67,6.41l36.7,5-3.17,2.82a32.31,32.31,0,0,1-19.92,8.13c-10.2.49-22.71.3-28.58-1.55l-20.58-6.5a3.4,3.4,0,0,0-3.65,5.39l7.33,12.72a56,56,0,0,0,23.76,17c21.58,8.05,53,11.33,60.38,11.4,13.67.14,68.35-3.61,68.35-3.61Z"/></g><g id="Layer_7" data-name="Layer 7"><g id="Layer_5" data-name="Layer 5"><path class="cls-2" d="M1102.49,634.82c109.1,96.18,126.9,254.28,39.76,353.12s-246.22,101-355.32,4.82S654.35,704.94,715.78,634.11C776.53,553.92,993.39,538.63,1102.49,634.82Z"/></g><g id="Layer_6" data-name="Layer 6"><path class="cls-2" d="M363.54,371.64C509,372.64,626.16,480.26,625.26,612s-212.11,105-354,144.66c-140.07,39.19-199.88-38.08-200-131.84C64.49,524.47,218.1,370.65,363.54,371.64Z"/><path class="cls-2" d="M940.25,218.56c62.08,140.94-49.93,326.7-250.18,414.91S277.14,679,215.06,538,219.38,144.78,316,97.11C465.25,22.72,878.16,77.62,940.25,218.56Z"/><path class="cls-2" d="M357,532.2c138.42-44.65,276-2.35,307.2,94.48S608.58,838.22,470.16,882.87,164,877.62,141,809C110.14,737.52,218.61,576.86,357,532.2Z"/></g><g id="Layer_1" data-name="Layer 1"><path class="cls-7" d="M1140.77,822.6c0,46.87-65.52,76.48-79,119.2-11.33,35.77-21.2,22.09-52.32,128.4-17.39,59.4-41.8,105.66-97,143.1-90.31,61.24-222.74,79.26-351.34,79.26-274.81,0-325-210.41-325-470s-25.74-452.75,407.12-470C917.75,341.72,1140.77,563.05,1140.77,822.6Z"/></g><g id="Layer_2" data-name="Layer 2"><ellipse class="cls-2" cx="506.29" cy="475.35" rx="272.91" ry="136.08"/><path class="cls-2" d="M803.79,461.16c25.71,37.81-6.13,104.29-71.12,148.47S594.16,659,568.45,621.17s43.72-62.5,108.71-106.69S778.08,423.34,803.79,461.16Z"/><path class="cls-2" d="M998.72,508.21c40.3,59.11,5.16,153.25-78.48,210.26S722.59,766.26,682.3,707.14s27.88-138.69,111.52-195.69S958.43,449.09,998.72,508.21Z"/><ellipse class="cls-2" cx="1025.9" cy="707.14" rx="183.28" ry="115.37" transform="translate(-220.08 700.62) rotate(-34.28)"/><path class="cls-2" d="M1295.93,627.88c45.06,45.06,54,164.54-24.49,243.07s-178.72,105.66-223.77,60.6-17.92-145.24,60.6-223.77S1250.88,582.83,1295.93,627.88Z"/><path class="cls-2" d="M956.06,790.73l-5.87,107.2A16.61,16.61,0,0,0,958,913l14.89,9.22a16.63,16.63,0,0,0,23.7-6.83L1057.3,791.3a16.62,16.62,0,0,0-16.75-23.83l-69.7,7.64A16.63,16.63,0,0,0,956.06,790.73Z"/><path class="cls-2" d="M1178.06,287.31c96.83,108.73,133.8,277.27,23.16,375.79s-278.81,90.24-375.64-18.49-85.64-276.75,25-375.27S1081.22,178.57,1178.06,287.31Z"/><polygon class="cls-2" points="416.15 287.31 737.91 305.29 939.01 352.68 921.78 441.19 823.85 573.09 402.16 457.18 416.15 287.31"/><ellipse class="cls-2" cx="338.55" cy="893.17" rx="24.66" ry="53.83"/><ellipse class="cls-2" cx="731.18" cy="899.86" rx="24.66" ry="53.83"/><circle class="cls-9" cx="338.55" cy="932.32" r="11.82"/><circle class="cls-9" cx="731.18" cy="939.02" r="11.82"/><ellipse class="cls-10" cx="743" cy="992.83" rx="86.83" ry="24.33"/><ellipse class="cls-10" cx="338.63" cy="985.77" rx="74.94" ry="20.99"/><path class="cls-11" d="M470.49,1115.07H563s-1.09,55.84-33.24,55.84S470.49,1115.07,470.49,1115.07Z"/><polygon class="cls-6" points="470.49 1024.01 455.58 1052.79 501.02 1052.79 478.3 1072.48 441.95 1048.25 470.49 1024.01"/></g><g id="Layer_3" data-name="Layer 3"><path class="cls-7" d="M1006.05,864.37s66.12-96.66,95.07-6.11-53.12,151-53.12,151l-50.28,49.27L973.89,934Z"/></g></g></svg>