<svg xmlns="http://www.w3.org/2000/svg" xmlns:xlink="http://www.w3.org/1999/xlink" viewBox="0 0 266.22 402.58"><defs><style>.cls-1,.cls-10{fill:none;}.cls-2{fill:#cea172;}.cls-3{fill:#6e5239;}.cls-4{fill:#637883;}.cls-5{fill:#414042;}.cls-6{fill:#7c95a2;}.cls-7{fill:#e6e7e8;}.cls-8{fill:#200;}.cls-9{clip-path:url(#clip-path);}.cls-10{stroke:#7c95a2;stroke-miterlimit:10;}.cls-11{fill:#ed1c24;}.cls-12{fill:#f7b818;}.cls-13{fill:#fbf9e4;opacity:0.1;}</style><clipPath id="clip-path"><path class="cls-1" d="M122.11,353.93a26.26,26.26,0,0,0-27.44,0v44.78a26.26,26.26,0,0,0,27.44,0Z"/></clipPath></defs><g id="Layer_6" data-name="Layer 6"><path class="cls-2" d="M237.75,151.36h0c-.22-.3-.15-.21,0,0a3.39,3.39,0,0,0-3.41-1.63c-4.17,1.05-9.74,2.73-10.45,2.95s-6.33,1.69-10.42,3a3.41,3.41,0,0,0-2,3.19c-.15,2.67,3.8,23.25,8.05,30.1,3.48,5.61,9.31,11.43,13.92,17s5,7.6,10.35,29.34c4.93,20,11.64,48.71,13.11,50.7a5.94,5.94,0,0,0,5.43,2.28.91.91,0,0,0,.53-.15,5.91,5.91,0,0,0,3.4-4.8c.2-2.47-9.25-30.43-15.59-50-6.9-21.31-7.64-23.18-6.69-30.38s2.85-15.22,2.85-21.83C246.77,173.12,239.28,153.57,237.75,151.36Zm23.43,132c-1.28.36-2.74-.82-3.26-2.64s.1-3.59,1.38-3.95,2.74.81,3.26,2.63S262.46,283,261.18,283.33Z"/><path class="cls-3" d="M262.61,279.48c.45,1.77-.17,3.46-1.42,3.82s-2.41-.56-3.05-2a1,1,0,0,0,0,.14c.52,1.82,2,3,3.26,2.63s1.9-2.14,1.38-4A5.29,5.29,0,0,0,262.61,279.48Z"/></g><g id="Layer_4" data-name="Layer 4"><path class="cls-4" d="M105.89,274.46c-3.27,1.17-6.56,2.09-9.85,3s-6.61,1.65-9.92,2.36-6.64,1.35-10,1.95-6.66,1.14-10,1.56l.34,0-.79.07-1.12.11c-.44,0-.88.1-1.33.16-.89.13-1.8.28-2.71.45-1.81.35-3.65.76-5.46,1.27a55.71,55.71,0,0,0-10.66,4.1,63.56,63.56,0,0,0-18.22,14.23,72.66,72.66,0,0,0-12.42,20A86.33,86.33,0,0,0,7.55,347l-.9,0a74.91,74.91,0,0,1,1-12.33,85,85,0,0,1,2.83-12.11,74.32,74.32,0,0,1,11.29-22.45,63.41,63.41,0,0,1,8.66-9.44,74.29,74.29,0,0,1,10.27-7.72A69.09,69.09,0,0,1,52.26,277a49.9,49.9,0,0,1,6.32-2c1.08-.26,2.18-.47,3.3-.64.56-.09,1.13-.16,1.71-.22l.89-.08,1,0-.45,0c3.36-.36,6.73-.57,10.11-.78s6.76-.32,10.15-.37,6.79-.06,10.19,0,6.83.25,10.27.65Z"/><path class="cls-4" d="M129,268.76A173.75,173.75,0,0,0,162.36,278,94.48,94.48,0,0,0,179,279.45a45.94,45.94,0,0,0,8.2-.9c.66-.14,1.35-.31,2-.47l2.08-.59c1.37-.4,2.72-.85,4.07-1.33a87.33,87.33,0,0,0,29.4-17.83,98.94,98.94,0,0,0,11.87-12.91q2.7-3.49,5.09-7.24a73.89,73.89,0,0,0,4.36-7.7l.84.33a85.48,85.48,0,0,1-8,16.16,98,98,0,0,1-11.07,14.43A92.19,92.19,0,0,1,214,273.55a86.52,86.52,0,0,1-16.13,9.07q-2.15.92-4.32,1.73l-2.18.78c-.79.28-1.53.51-2.31.74a58.74,58.74,0,0,1-28.38,1.31,78.69,78.69,0,0,1-17.64-6,77.31,77.31,0,0,1-15.67-9.72Z"/><path class="cls-5" d="M13.3,350.06a6.65,6.65,0,1,1-6.65-6.65A6.65,6.65,0,0,1,13.3,350.06Z"/><path class="cls-5" d="M253.11,230.64a6.65,6.65,0,1,1-6.65-6.65A6.65,6.65,0,0,1,253.11,230.64Z"/></g><g id="Layer_2" data-name="Layer 2"><rect class="cls-4" x="27.18" y="182.68" width="162.6" height="28.46"/><path class="cls-6" d="M182.06,204.49c0,31.51-32.94,57.05-73.57,57.05S34.91,236,34.91,204.49s32.94-57.05,73.58-57.05S182.06,173,182.06,204.49Z"/><circle class="cls-7" cx="57.8" cy="74.79" r="43.39"/><circle class="cls-7" cx="116.03" cy="43.39" r="43.39" transform="translate(-7.76 47.98) rotate(-22.63)"/><path class="cls-7" d="M208.31,83.49A43.39,43.39,0,1,1,164.92,40.1,43.39,43.39,0,0,1,208.31,83.49Z"/><rect class="cls-7" x="46.11" y="74.77" width="125" height="97.16"/><path class="cls-8" d="M72.48,206a17.4,17.4,0,0,0,1.57-7.59c0-5.9-2.37-10.68-5.28-10.68s-5.29,4.78-5.29,10.68A17.4,17.4,0,0,0,65.05,206Z"/><path class="cls-8" d="M153,206a17.4,17.4,0,0,0,1.57-7.59c0-5.9-2.37-10.68-5.29-10.68S144,192.55,144,198.45a17.55,17.55,0,0,0,1.56,7.59Z"/><path class="cls-6" d="M117.1,261.54H66.51a4.94,4.94,0,0,0-5,5.63l8.94,77.26a6.52,6.52,0,0,0,6.32,5.63h64.41a6.53,6.53,0,0,0,6.32-5.63l8.94-77.26a4.94,4.94,0,0,0-5-5.63Z"/><path class="cls-5" d="M122.11,353.93a26.26,26.26,0,0,0-27.44,0v44.78a26.26,26.26,0,0,0,27.44,0Z"/><g class="cls-9"><path class="cls-10" d="M88.88,392a74.17,74.17,0,0,0,41,0"/><path class="cls-10" d="M85.36,376.33h45.31"/><path class="cls-10" d="M90,360.41a74.17,74.17,0,0,1,39.36.13"/></g></g><g id="Layer_3" data-name="Layer 3"><polygon class="cls-11" points="69.65 259.13 144.85 257.24 108.97 281.63 69.65 259.13"/><path class="cls-11" d="M108.87,276.32s-5.66.71-8.72,3.29-3.5,7-.73,9.15c2.32,1.75,6.64.81,8.5-3C109.55,282.46,108.87,276.32,108.87,276.32Z"/><path class="cls-11" d="M109,276.05s.71,5.66,3.29,8.72,7,3.5,9.14.73c1.76-2.32.82-6.64-3-8.5C115.14,275.37,109,276.05,109,276.05Z"/><rect class="cls-12" x="104.55" y="230.64" width="8.81" height="8.94"/><polygon class="cls-12" points="91.75 230.64 103.13 230.64 103.13 239.59 94.32 239.59 91.75 230.64"/><polygon class="cls-12" points="123.59 230.64 114.78 230.64 114.78 239.59 123.59 239.59 126.16 230.64 123.59 230.64"/></g><g id="Layer_8" data-name="Layer 8"><path class="cls-13" d="M109,.58A43.44,43.44,0,0,0,73.59,34.37a43.39,43.39,0,1,0-27.48,82.2v55.36h2a54.89,54.89,0,0,0-7.59,10.75H27.18v28.45h8.24c3.35,22.38,23.4,40.81,50.25,47.6l-16,.4,4.21,2.41H66.51a4.94,4.94,0,0,0-5,5.63l.82,7.11c-.14,0-.29,0-.43.06-1.12.17-2.22.38-3.3.64a49.9,49.9,0,0,0-6.32,2,69.09,69.09,0,0,0-11.59,5.92,74.29,74.29,0,0,0-10.27,7.72,62.92,62.92,0,0,0-8.66,9.44A74.2,74.2,0,0,0,10.45,322.5a85,85,0,0,0-2.83,12.11,79,79,0,0,0-.9,8.8H6.65a6.68,6.68,0,1,0,1.38.15,88.47,88.47,0,0,1,5.74-19.85,72.66,72.66,0,0,1,12.42-20,63.56,63.56,0,0,1,18.22-14.23,55.71,55.71,0,0,1,10.66-4.1c1.81-.51,3.65-.92,5.46-1.27.91-.17,1.82-.32,2.71-.45l.15,0,7,60.84a6.52,6.52,0,0,0,6.32,5.63H109Z"/></g></svg>