<svg xmlns="http://www.w3.org/2000/svg" xmlns:xlink="http://www.w3.org/1999/xlink" viewBox="0 0 313.49 323.55"><defs><style>.cls-1,.cls-4,.cls-5,.cls-9{fill:none;}.cls-2{fill:#637883;}.cls-3{fill:#414042;}.cls-4{stroke:#f7b818;}.cls-4,.cls-5,.cls-9{stroke-miterlimit:10;}.cls-4,.cls-5{stroke-width:3px;}.cls-5{stroke:#414042;}.cls-6{fill:#7c95a2;}.cls-7{fill:#200;}.cls-8{clip-path:url(#clip-path);}.cls-9{stroke:#7c95a2;}.cls-10{fill:#e6e7e8;}.cls-11{fill:#003c49;}.cls-12{fill:#004a58;}.cls-13{fill:#003844;}.cls-14{fill:#f7b818;}.cls-15{clip-path:url(#clip-path-2);}.cls-16{fill:#fbf9e4;fill-opacity:0.1;}.cls-17{clip-path:url(#clip-path-3);}</style><clipPath id="clip-path"><path class="cls-1" d="M122.62,272.16a26.26,26.26,0,0,0-27.44,0v44.78a26.26,26.26,0,0,0,27.44,0Z"/></clipPath><clipPath id="clip-path-2"><path class="cls-1" d="M305.9,111.74l-4.84-4.47s-12.11,1.48-17.65,2.47-8.8,1.49-15,6.92A14.75,14.75,0,0,0,263.24,129a26,26,0,0,0-11.61-9.14c-5.15-2.09-13.84-2.77-19.52-3.75S217,111.85,217,111.85L211.25,115l-5.35-1.82-17.79,66.74,47.72,16c-.69.5-1.38,1-2.09,1.51-10.3,7.18-22.12,12.06-34.26,13a56.05,56.05,0,0,1-9.07,0,58.68,58.68,0,0,1-9-1.56A153.76,153.76,0,0,1,164,202.92q-4.33-1.69-8.67-3.55l1.62-14a4.94,4.94,0,0,0-5-5.63H67a4.94,4.94,0,0,0-5,5.63l.82,7.11-.43.06c-1.12.17-2.22.38-3.3.64a49.9,49.9,0,0,0-6.32,2,69.09,69.09,0,0,0-11.59,5.92,74.29,74.29,0,0,0-10.27,7.72,63.91,63.91,0,0,0-8.66,9.44A74.32,74.32,0,0,0,11,240.73a85,85,0,0,0-2.83,12.11,79.2,79.2,0,0,0-.9,8.81H7.16a6.68,6.68,0,1,0,1.38.15,88.47,88.47,0,0,1,5.74-19.85A72.81,72.81,0,0,1,26.7,221.89a63.56,63.56,0,0,1,18.22-14.23,55.71,55.71,0,0,1,10.66-4.1c1.81-.51,3.65-.92,5.46-1.27.91-.16,1.82-.32,2.71-.45h.15l7,60.83a6.52,6.52,0,0,0,6.32,5.63h64.41a6.53,6.53,0,0,0,6.32-5.63l6.25-54q3.06,1.57,6.24,2.92a79.26,79.26,0,0,0,19.39,5.34,73.71,73.71,0,0,0,20.34.28,65.92,65.92,0,0,0,19.32-5.73,82,82,0,0,0,16.76-10.63c1.58-1.3,3.11-2.66,4.61-4.05l12.7-2.51,2.24-5.83,26.44-19.38,29.9-60.55Z"/></clipPath><clipPath id="clip-path-3"><path class="cls-1" d="M182.06,129.36h8.24V100.91H177c-9.13-17.1-28.67-30-52.5-34a17.22,17.22,0,0,0-8.8-7.56l23-33.29a6.79,6.79,0,0,0,2.63.53,7,7,0,1,0-6.87-8H122.2L120.92,20l-4-15.52-4.14,18L107.12,0l-4.67,20L98.38,8.75l-2.66,9.86H84.56a7,7,0,1,0-6.88,8,6.84,6.84,0,0,0,2.64-.53l23,33.29a17.27,17.27,0,0,0-8.69,7.37C70.31,70.49,50.28,83.53,41,100.91H27.69v28.45h8.24c4.25,28.38,35.33,50.41,73.07,50.41S177.81,157.74,182.06,129.36ZM109.52,58.23a17.74,17.74,0,0,0-3.12.29L82.78,24.39a7,7,0,0,0,1.59-2.78H98l.78-2.88,4.26,11.79,4.16-17.76,5.65,22.61,4.2-18.27,2.34,9,4.11-4.49h11.15a7,7,0,0,0,1.58,2.78L112.64,58.52A17.74,17.74,0,0,0,109.52,58.23Z"/></clipPath></defs><g id="Layer_4" data-name="Layer 4"><path class="cls-2" d="M106.4,192.69c-3.27,1.17-6.56,2.09-9.85,3s-6.61,1.65-9.92,2.37-6.64,1.34-10,2-6.66,1.13-10,1.55l.34,0-.79.07-1.12.11c-.44,0-.88.1-1.33.16-.89.13-1.8.29-2.71.45-1.81.35-3.65.76-5.46,1.27a55.71,55.71,0,0,0-10.66,4.1A63.56,63.56,0,0,0,26.7,221.89a72.81,72.81,0,0,0-12.42,20.05,86.43,86.43,0,0,0-6.22,23.25l-.9,0a74.91,74.91,0,0,1,1-12.33A85,85,0,0,1,11,240.73a74.32,74.32,0,0,1,11.29-22.45,63.91,63.91,0,0,1,8.66-9.44,74.29,74.29,0,0,1,10.27-7.72,69.09,69.09,0,0,1,11.59-5.92,49.9,49.9,0,0,1,6.32-2c1.08-.26,2.18-.47,3.3-.64.56-.09,1.13-.16,1.71-.22l.89-.08,1,0-.45,0c3.36-.35,6.73-.57,10.11-.77s6.76-.33,10.15-.38,6.79-.06,10.19,0,6.83.25,10.27.65Z"/><path class="cls-2" d="M129.68,187.09A340.1,340.1,0,0,0,164,202.92a153.76,153.76,0,0,0,17.46,5.88,58.68,58.68,0,0,0,9,1.56,56.05,56.05,0,0,0,9.07,0c12.14-.9,24-5.78,34.26-13a101.87,101.87,0,0,0,14.51-12.19c2.25-2.26,4.39-4.61,6.46-7.05a90.88,90.88,0,0,0,5.85-7.57l.78.46A101.47,101.47,0,0,1,250.2,187a106.71,106.71,0,0,1-13.91,13.8,81.6,81.6,0,0,1-16.76,10.63,65.92,65.92,0,0,1-19.32,5.73,73.71,73.71,0,0,1-20.34-.28,79.26,79.26,0,0,1-19.39-5.34,106,106,0,0,1-17.43-9.49,102.49,102.49,0,0,1-15.31-12.45Z"/><path class="cls-3" d="M13.81,268.29a6.65,6.65,0,1,1-6.65-6.65A6.65,6.65,0,0,1,13.81,268.29Z"/><path class="cls-3" d="M253.62,148.88a6.65,6.65,0,1,1-6.65-6.65A6.64,6.64,0,0,1,253.62,148.88Z"/></g><g id="Layer_9" data-name="Layer 9"><polyline class="cls-4" points="81.18 20.11 96.87 20.11 98.59 13.74 102.75 25.26 107.17 6.38 112.81 28.94 116.98 10.79 120.16 23.05 122.86 20.11 143.7 20.11"/><line class="cls-5" x1="109.52" y1="65.67" x2="141.35" y2="19.66"/><line class="cls-5" x1="109.52" y1="65.67" x2="77.68" y2="19.66"/><path class="cls-2" d="M126.75,75.46a17.23,17.23,0,1,1-17.23-17.23A17.23,17.23,0,0,1,126.75,75.46Z"/><circle class="cls-6" cx="77.68" cy="19.66" r="6.97"/><path class="cls-6" d="M148.32,19.66a7,7,0,1,1-7-7A7,7,0,0,1,148.32,19.66Z"/></g><g id="Layer_2" data-name="Layer 2"><rect class="cls-2" x="27.69" y="100.91" width="162.6" height="28.46"/><path class="cls-6" d="M182.57,122.72c0,31.51-32.94,57.05-73.57,57.05s-73.58-25.54-73.58-57.05,32.94-57,73.58-57S182.57,91.21,182.57,122.72Z"/><path class="cls-7" d="M73,124.27a17.4,17.4,0,0,0,1.57-7.59c0-5.9-2.37-10.68-5.28-10.68S64,110.78,64,116.68a17.4,17.4,0,0,0,1.57,7.59Z"/><path class="cls-7" d="M153.48,124.27a17.4,17.4,0,0,0,1.57-7.59c0-5.9-2.37-10.68-5.29-10.68s-5.28,4.78-5.28,10.68a17.55,17.55,0,0,0,1.56,7.59Z"/><path class="cls-6" d="M117.61,179.77H67a4.94,4.94,0,0,0-5,5.63l8.94,77.26a6.52,6.52,0,0,0,6.32,5.63h64.41a6.53,6.53,0,0,0,6.32-5.63l8.94-77.26a4.94,4.94,0,0,0-5-5.63Z"/><path class="cls-3" d="M122.62,272.16a26.26,26.26,0,0,0-27.44,0v44.78a26.26,26.26,0,0,0,27.44,0Z"/><g class="cls-8"><path class="cls-9" d="M89.39,310.19a74.36,74.36,0,0,0,41,0"/><path class="cls-9" d="M85.87,294.56h45.31"/><path class="cls-9" d="M90.48,278.64a74.17,74.17,0,0,1,39.36.13"/></g></g><g id="Layer_8" data-name="Layer 8"><path class="cls-10" d="M209.61,115.92l7.41-4.07s9.4,3.29,15.09,4.28,14.37,1.66,19.52,3.75A26,26,0,0,1,263.24,129a14.75,14.75,0,0,1,5.19-12.36c6.18-5.43,9.43-5.93,15-6.92s17.65-2.47,17.65-2.47l6.43,5.93-22.74,29.42L240,151.51Z"/><polygon class="cls-11" points="186.11 177.94 203.9 111.2 263.24 132.73 260.03 133.97 261.27 135.7 237.54 196.5 186.11 177.94"/><polygon class="cls-12" points="261.04 135.38 277.33 132.48 253.6 194.27 236.06 197.73 261.04 135.38"/><polygon class="cls-13" points="277.33 131.25 271.9 129.27 312.18 108.51 282.28 169.06 254.63 189.33 277.33 131.25"/><path class="cls-10" d="M201.72,136.36c.31,0,.65.13,1,.22s.72.22,1.08.35a8.59,8.59,0,0,1,1.08.49,3.39,3.39,0,0,1,.9.73,2.47,2.47,0,0,1,.52,1,2.66,2.66,0,0,1-.05,1.36,2.62,2.62,0,0,1-.54,1.11,2.18,2.18,0,0,1-.84.56,2.32,2.32,0,0,1-1,.13,4.2,4.2,0,0,1-1.08-.24l-.17-.06-.23-.09-.25-.1-.16-.09-.63,2.61-1.42-.51Zm1.88,1.87-.4-.13-.32-.07-.6,2.44.12.07.17.08.18.07.14.05.57.15a1.44,1.44,0,0,0,.55,0,1,1,0,0,0,.45-.28,1.44,1.44,0,0,0,.3-.62,1.24,1.24,0,0,0,0-.63,1.17,1.17,0,0,0-.23-.49,1.64,1.64,0,0,0-.42-.37A3.22,3.22,0,0,0,203.6,138.23Z"/><path class="cls-10" d="M207.8,138.59c.17,0,.35.06.54.11l.57.14.55.17.48.16a5.59,5.59,0,0,1,1,.46,3.41,3.41,0,0,1,.8.64,2.13,2.13,0,0,1,.44.86,2.19,2.19,0,0,1,0,1.1,2.41,2.41,0,0,1-.83,1.33,2.09,2.09,0,0,1-1.32.4l.42.5.88,3.4-1.61-.56-.87-3.49-.71-.4-.8,3.06-1.41-.5Zm1.9,1.9-.44-.14a1.59,1.59,0,0,0-.34-.08l-.57,2.15.6.22a1.52,1.52,0,0,0,1,.06,1.05,1.05,0,0,0,.6-.78,1,1,0,0,0-.09-.85A1.43,1.43,0,0,0,209.7,140.49Z"/><path class="cls-10" d="M212.69,144.31a4.24,4.24,0,0,1,1.6-2.53,2.77,2.77,0,0,1,2.56-.18,3.7,3.7,0,0,1,1.28.75,3,3,0,0,1,.73,1.11,3.64,3.64,0,0,1,.2,1.38,6,6,0,0,1-.27,1.61,4.34,4.34,0,0,1-1.62,2.52,2.7,2.7,0,0,1-2.51.22,3.38,3.38,0,0,1-1.26-.73,2.94,2.94,0,0,1-.73-1.11,3.92,3.92,0,0,1-.23-1.4A6.61,6.61,0,0,1,212.69,144.31Zm1.49.53a5.36,5.36,0,0,0-.2,1,2.63,2.63,0,0,0,.06.9,1.59,1.59,0,0,0,.33.69,1.5,1.5,0,0,0,.65.44,1.34,1.34,0,0,0,1.33-.2,3.55,3.55,0,0,0,1-1.78,5.91,5.91,0,0,0,.2-1,2.88,2.88,0,0,0,0-.89,1.54,1.54,0,0,0-.32-.71,1.45,1.45,0,0,0-.68-.45,1.32,1.32,0,0,0-1.34.2A3.32,3.32,0,0,0,214.18,144.84Z"/><path class="cls-10" d="M222.43,147.54l2.64.9-1,3.18a2.65,2.65,0,0,1-1.17.19,4.4,4.4,0,0,1-1.21-.23,3.63,3.63,0,0,1-1.18-.64,2.72,2.72,0,0,1-.8-1,3.61,3.61,0,0,1-.32-1.41,5.38,5.38,0,0,1,.27-1.77,4.5,4.5,0,0,1,.82-1.64,3.2,3.2,0,0,1,1.12-.89,2.86,2.86,0,0,1,1.28-.27,3.9,3.9,0,0,1,1.27.22,6.54,6.54,0,0,1,1.05.47,5.7,5.7,0,0,1,.68.45l-.67,1.07a3,3,0,0,0-.52-.36,4.83,4.83,0,0,0-.79-.33,2.57,2.57,0,0,0-.84-.15,1.63,1.63,0,0,0-.78.21,2.17,2.17,0,0,0-.66.63,3.89,3.89,0,0,0-.5,1.1,4.1,4.1,0,0,0-.2,1.17,2.35,2.35,0,0,0,.16.91,1.73,1.73,0,0,0,.45.64,1.78,1.78,0,0,0,.68.39,1.93,1.93,0,0,0,.53.11,1.3,1.3,0,0,0,.49-.06l.42-1.35-1.48-.68Z"/><path class="cls-10" d="M227.33,145.52l.53.1.56.13.53.15.47.15a5.38,5.38,0,0,1,1,.42,2.86,2.86,0,0,1,.75.61,1.72,1.72,0,0,1,.4.81,2,2,0,0,1-.11,1,2.48,2.48,0,0,1-.88,1.27,2.21,2.21,0,0,1-1.33.39l.39.48.68,3.21-1.56-.51-.67-3.3-.68-.37-1,2.91-1.37-.46Zm1.78,1.79-.43-.13a1,1,0,0,0-.33-.07l-.68,2,.58.2a1.55,1.55,0,0,0,1,.05,1.11,1.11,0,0,0,.63-.75,1,1,0,0,0,0-.8A1.24,1.24,0,0,0,229.11,147.31Z"/><path class="cls-10" d="M235.33,154.21l-2.12-.69-1.06,1.38-1.35-.44,5-6.19,1,.34,0,7.77-1.41-.45Zm-1.39-1.67,1.49.49,0-1.72.18-1.16h-.05l-.6,1Z"/><path class="cls-10" d="M244.13,154.78l.68-1.3-.06,0-.85.95-2.43,2.07-.43-.14-.57-3.05,0-1.23h0l-.31,1.41L238.75,157l-1.27-.41,2.57-6.87,1.24.42.64,3.71,0,.88,0,0,.6-.7,3-2.51,1.22.4-2.7,6.74-1.32-.41Z"/><path class="cls-10" d="M246.62,155.77l2.44.77-.46,1.09-2.42-.76Z"/><path class="cls-10" d="M211.74,158.43l-.36-.12-.82,3.2-1.35-.44,1.92-7.48,1.38.47-.87,3.29.35,0,2.77-2.49,1.56.52-2.88,2.43-.64.22.44.6,1.36,4.23-1.66-.53Z"/><path class="cls-10" d="M215.74,159.16a4.51,4.51,0,0,1,1.55-2.58,2.65,2.65,0,0,1,2.47-.27,3.29,3.29,0,0,1,1.22.7,2.65,2.65,0,0,1,.68,1.06,3.56,3.56,0,0,1,.19,1.37,7,7,0,0,1-.28,1.6A4.69,4.69,0,0,1,220,163.6a2.55,2.55,0,0,1-2.4.32,3,3,0,0,1-1.21-.68,2.71,2.71,0,0,1-.69-1.07,3.87,3.87,0,0,1-.2-1.39A6.46,6.46,0,0,1,215.74,159.16Zm1.42.46a6.22,6.22,0,0,0-.2,1,2.83,2.83,0,0,0,0,.89,1.48,1.48,0,0,0,.31.67,1.35,1.35,0,0,0,.62.41,1.27,1.27,0,0,0,1.27-.25,3.64,3.64,0,0,0,.95-1.8,7.13,7.13,0,0,0,.21-1,3.16,3.16,0,0,0,0-.88A1.46,1.46,0,0,0,220,158a1.29,1.29,0,0,0-.64-.42,1.24,1.24,0,0,0-1.29.25A3.61,3.61,0,0,0,217.16,159.62Z"/><path class="cls-10" d="M223.72,157.77a3.56,3.56,0,0,1,.49.1l.54.14.54.16.47.14a4.43,4.43,0,0,1,1.47.77,2.72,2.72,0,0,1,.8,1.07,3.24,3.24,0,0,1,.22,1.33A5.73,5.73,0,0,1,228,163a5.65,5.65,0,0,1-.62,1.34,3.21,3.21,0,0,1-1,1,3,3,0,0,1-1.31.52,3.85,3.85,0,0,1-1.73-.18l-.4-.14-.52-.19-.52-.19a3.56,3.56,0,0,1-.36-.16Zm1.75,1.83-.44-.13-.33-.08-1.48,4.83.13.06.19.07.2.08a.68.68,0,0,0,.15,0,1.82,1.82,0,0,0,1,.08,1.75,1.75,0,0,0,.76-.37,2.45,2.45,0,0,0,.55-.71,4.86,4.86,0,0,0,.38-.91,5,5,0,0,0,.19-.87,2.39,2.39,0,0,0,0-.85,1.73,1.73,0,0,0-.4-.74A1.77,1.77,0,0,0,225.47,159.6Z"/><path class="cls-10" d="M230.12,159.82l4,1.27-.42,1.22-2.68-.84-.55,1.65,2.43.75-.42,1.23-2.41-.75-.57,1.74,2.69.82-.41,1.23-4-1.2Z"/></g><g id="Layer_3" data-name="Layer 3"><rect class="cls-14" x="105.06" y="148.88" width="8.81" height="8.94"/><polygon class="cls-14" points="92.26 148.88 103.64 148.88 103.64 157.82 94.83 157.82 92.26 148.88"/><polygon class="cls-14" points="124.1 148.88 115.29 148.88 115.29 157.82 124.1 157.82 126.67 148.88 124.1 148.88"/></g><g id="Layer_10" data-name="Layer 10"><g class="cls-15"><rect class="cls-16" x="-71.28" y="-70.34" width="180.85" height="427.79"/></g><g class="cls-17"><rect class="cls-16" x="-71.28" y="-70.34" width="180.85" height="427.79"/></g></g></svg>