<svg xmlns="http://www.w3.org/2000/svg" xmlns:xlink="http://www.w3.org/1999/xlink" viewBox="0 0 1487.13 2413.96"><defs><style>.cls-1,.cls-12,.cls-9{fill:none;}.cls-2{fill:#637984;}.cls-3{fill:#be1e2d;}.cls-4{fill:#3a3a3c;}.cls-5{fill:#7c95a2;}.cls-6{fill:#181819;}.cls-7{fill:#70848e;}.cls-8{fill:#fbb915;}.cls-9{stroke:#353233;stroke-width:114.64px;}.cls-12,.cls-9{stroke-miterlimit:10;}.cls-10{clip-path:url(#clip-path);}.cls-11{opacity:0.31;}.cls-12{stroke:#7c95a2;stroke-width:9.17px;}.cls-13{isolation:isolate;}.cls-14{clip-path:url(#clip-path-2);}.cls-15{fill:#5a6c74;}.cls-16{fill:#f9bc26;}</style><clipPath id="clip-path"><path class="cls-1" d="M590.39,2362.65c-100.46,0-182.2-81.74-182.2-182.2s81.74-182.2,182.2-182.2,182.2,81.74,182.2,182.2S690.85,2362.65,590.39,2362.65Zm0-249.76A67.56,67.56,0,1,0,658,2180.45,67.64,67.64,0,0,0,590.39,2112.89Z"/></clipPath><clipPath id="clip-path-2"><path class="cls-2" d="M248.78,794.51l54.9,13.78c51,12.79,87.49,57.36,86.27,111.46-1.48,65.49-57.69,120.12-125.54,122a125.09,125.09,0,0,1-33.93-3.65l-54.9-13.78a124.69,124.69,0,0,0,33.93,3.65c67.85-1.91,124.07-56.55,125.54-122C336.27,851.88,299.76,807.3,248.78,794.51Z"/></clipPath></defs><g id="Layer_12" data-name="Layer 12"><rect class="cls-3" x="1303.71" y="1422.62" width="119.63" height="52.64"/><rect class="cls-3" x="1318.55" y="1411.44" width="35.26" height="21.88"/><rect class="cls-3" x="1374.47" y="1410.35" width="35.26" height="21.88"/><path class="cls-2" d="M661,1493.75a57.23,57.23,0,0,1-6.16,12.39A56.6,56.6,0,0,1,643.2,1519c-1.29,1-2.67,2.06-4.07,3s-3,1.92-4.68,2.82a54.08,54.08,0,0,1-5.39,2.53,52.85,52.85,0,0,1-6.28,2.14,56,56,0,0,1-7.43,1.5,54.35,54.35,0,0,1-9.41.44,55.53,55.53,0,0,1-11.94-1.79A54.66,54.66,0,0,1,557.44,1456a56.91,56.91,0,0,1,3.53-7.06,54.82,54.82,0,0,1,3.19-4.79c1-1.33,2-2.61,2.76-3.43s1.8-2,2.39-2.57,1.38-1.36,2.09-2,1.16-1,1.76-1.53,1.15-1,1.61-1.31l1.49-1.13c.85-.62,1.71-1.21,2.51-1.74s1.48-.94,2.14-1.33a61.19,61.19,0,0,1,6.35-3.31c1.78-.8,3.19-1.35,4.56-1.87,2.64-1,4.79-1.61,6.75-2.14s3.68-.93,5.3-1.27,3.16-.63,4.6-.88c2.9-.49,5.55-.84,8.09-1.13,5.05-.57,9.64-.87,14.11-1.09s8.74-.32,12.94-.35c16.75-.13,32.42.63,48,1.64,31,2.1,61.06,5.38,91,9.08,59.79,7.49,118.72,16.79,177.46,26.76l22,3.8,21.68,4.18,21.7,4.18,21.73,3.89c7.25,1.28,14.51,2.62,21.77,3.85l21.79,3.56,10.91,1.79c3.64.6,7.28,1.09,10.92,1.65l21.86,3.23c29.17,4,58.44,7.64,87.83,10.1l11,.86,5.52.43,5.52.32,11,.64c3.68.19,7.36.29,11.05.44l5.54.2,5.53.09c3.69.06,7.39.12,11.08.06l5.55,0,5.54-.18c3.69-.14,7.39-.35,11.08-.74-3.56,1-7.19,1.91-10.83,2.71l-5.46,1.17-5.49,1c-3.67.73-7.34,1.32-11,1.92l-5.52.91-5.54.8c-3.69.51-7.39,1.07-11.1,1.55l-11.12,1.34-5.56.68-5.57.56-11.16,1.13c-29.76,2.83-59.62,4.5-89.53,5.73l-22.42.71c-3.74.1-7.49.26-11.23.32l-11.21.18-22.45.36c-7.48.09-15,0-22.44.08l-22.46,0-22.43-.26-22.46-.28-22.12-.85c-58.92-2.23-117.81-3.76-176.1-3.41-29.11.2-58.14.86-86.31,2.65-14,.91-27.94,2.1-40.7,3.91-3.18.45-6.26,1-9.17,1.49s-5.63,1.12-7.88,1.73a29.4,29.4,0,0,0-2.82.89,4,4,0,0,0-.81.37c-.17.1-.22.18,0,.19a5.39,5.39,0,0,0,1.5-.35,18.84,18.84,0,0,0,2-.77,35.53,35.53,0,0,0,3.9-2c.47-.27,1.05-.63,1.56-1s1.28-.85,1.94-1.34l1.22-.92,1.34-1.09c.51-.42,1-.84,1.5-1.3s1.24-1.17,1.84-1.78,1.48-1.53,2.16-2.32,1.62-1.91,2.54-3.15a53.18,53.18,0,0,0,9.58-22.29,53.75,53.75,0,0,0-50.79-63.07,52.49,52.49,0,0,0-9.07.42,54.09,54.09,0,0,0-7.09,1.43,55.93,55.93,0,0,0-6,2,54.46,54.46,0,0,0-5.07,2.39c-1.56.84-3,1.69-4.38,2.64s-2.6,1.83-3.79,2.79a52.14,52.14,0,0,0-10.77,11.87,51.52,51.52,0,0,0-5.55,11.15,54.39,54.39,0,0,1,102.67,36Z"/><circle class="cls-4" cx="1310.7" cy="1502.71" r="39.84"/><path class="cls-5" d="M1101.7,957.33c9.72,293.33-178.53,382.26-495.25,388-316.48-5.73-495.24-173.71-495.24-388"/><path class="cls-6" d="M731.25,287.7,567.36,519.49a94.51,94.51,0,0,1,35.16,12.68L757.93,313.94A66.17,66.17,0,0,1,731.25,287.7Z"/><path class="cls-6" d="M379.45,239a45,45,0,0,1-28.12,18.8L509.48,532a82.38,82.38,0,0,1,32.66-12.48Z"/><path class="cls-7" d="M560.5,518.74a85.3,85.3,0,0,0-18.36.75A82.38,82.38,0,0,0,509.48,532c-26.23,17.27-43.63,49.48-43.63,87.25,0,59,42.38,106.8,94.65,106.8s94.65-45,94.65-100.49c0-39.46-21.45-74.84-52.63-93.36a94.51,94.51,0,0,0-35.16-12.68C565.09,519.17,562.81,518.89,560.5,518.74Z"/><path class="cls-8" d="M471.24,231.64l15-49.23,25,117L540.92,140.1l41.47,207.29L610,180.21,631,274.64,653.9,252l69.43,10.92a59.57,59.57,0,0,1-.31-6,56.75,56.75,0,0,1,.31-5.89l-74.4-12L637,250.73,608.11,120.05,581,283.87,540.23,79.48,510.1,240.9,487.79,136.14,463,217.44l-73.11-11.6a67.37,67.37,0,0,1-1.6,13Z"/><path class="cls-5" d="M379.45,239a56.75,56.75,0,0,0,8.79-20.16,67.37,67.37,0,0,0,1.6-13c0-.67,0-1.34,0-2,0-34.16-24-66.13-53.55-71.4s-53.55,19.06-53.55,54.34,24,67.25,53.55,71.4A44.24,44.24,0,0,0,379.45,239Z"/><path class="cls-5" d="M776.57,210.85c-27.64-4.92-50.39,12.74-53.24,40.15a56.75,56.75,0,0,0-.31,5.89,59.57,59.57,0,0,0,.31,6,64.27,64.27,0,0,0,7.92,24.83,66.17,66.17,0,0,0,26.68,26.24,57.67,57.67,0,0,0,18.64,6c29.58,4.15,53.55-16.46,53.55-46S806.15,216.12,776.57,210.85Z"/><ellipse class="cls-5" cx="606.45" cy="957.33" rx="495.25" ry="387.99"/><circle class="cls-9" cx="590.39" cy="2180.45" r="124.88"/><g class="cls-10"><g class="cls-11"><path class="cls-12" d="M427.38,2084.84s16.1,19.75,47.12,41.39c49.68,34.65,116.4,60.11,116.4,60.11"/><path class="cls-12" d="M500.61,2016.71s4.07,25.16,20.11,59.41c25.69,54.85,70.75,110.26,70.75,110.26"/><path class="cls-12" d="M598.09,1994.33s-9.06,23.82-12.29,61.5c-5.17,60.35,6.14,130.86,6.14,130.86"/><path class="cls-12" d="M693.7,2023.68s-19.75,16.11-41.39,47.12c-34.66,49.68-60.11,116.4-60.11,116.4"/><path class="cls-12" d="M761.82,2096.91s-25.15,4.07-59.4,20.11c-54.85,25.7-110.26,70.75-110.26,70.75"/><path class="cls-12" d="M784.21,2194.39s-23.82-9.06-61.5-12.29c-60.35-5.17-130.87,6.15-130.87,6.15"/><path class="cls-12" d="M754.85,2290s-16.1-19.75-47.11-41.39c-49.68-34.65-116.41-60.11-116.41-60.11"/><path class="cls-12" d="M681.63,2358.13s-4.07-25.16-20.11-59.41c-25.7-54.85-70.75-110.26-70.75-110.26"/><path class="cls-12" d="M584.15,2380.51s9.05-23.82,12.28-61.5c5.18-60.35-6.14-130.86-6.14-130.86"/><path class="cls-12" d="M488.54,2351.16s19.75-16.11,41.39-47.12c34.65-49.68,60.11-116.4,60.11-116.4"/><path class="cls-12" d="M420.41,2277.93s25.16-4.07,59.4-20.11c54.86-25.7,110.27-70.75,110.27-70.75"/><path class="cls-12" d="M398,2180.45s23.82,9.06,61.5,12.29c60.35,5.17,130.86-6.15,130.86-6.15"/></g></g><path class="cls-5" d="M590.39,2113.85a66.6,66.6,0,1,1-66.6,66.6,66.67,66.67,0,0,1,66.6-66.6m0-21.52a88.12,88.12,0,1,0,88.12,88.12,88.12,88.12,0,0,0-88.12-88.12Z"/><path class="cls-2" d="M613.3,2132H568.61c-8.34,0-15.44-7.94-16.76-18.74l-18.19-148.84c-1.66-13.53,6.31-25.79,16.75-25.79h80c10.38,0,18.33,12.11,16.78,25.58L630.08,2113C628.83,2123.91,621.7,2132,613.3,2132Z"/><g class="cls-13"><path class="cls-2" d="M248.78,794.51l54.9,13.78c51,12.79,87.49,57.36,86.27,111.46-1.48,65.49-57.69,120.12-125.54,122a125.09,125.09,0,0,1-33.93-3.65l-54.9-13.78a124.69,124.69,0,0,0,33.93,3.65c67.85-1.91,124.07-56.55,125.54-122C336.27,851.88,299.76,807.3,248.78,794.51Z"/><g class="cls-14"><path class="cls-15" d="M248.78,794.51l54.9,13.78c2.23.56,4.44,1.18,6.61,1.86L255.4,796.37c-2.18-.68-4.38-1.3-6.62-1.86"/><path class="cls-15" d="M255.4,796.37l54.89,13.78q4.43,1.38,8.67,3.08l-54.9-13.78q-4.24-1.69-8.66-3.08"/><path class="cls-15" d="M264.06,799.45,319,813.23q4.11,1.65,8,3.58L272.11,803q-3.94-1.93-8.05-3.58"/><path class="cls-15" d="M272.11,803,327,816.81c2.59,1.26,5.11,2.62,7.58,4.06l-54.9-13.77c-2.46-1.45-5-2.8-7.57-4.07"/><path class="cls-15" d="M279.68,807.1l54.9,13.77q3.69,2.16,7.19,4.58l-54.89-13.77q-3.51-2.41-7.2-4.58"/><path class="cls-15" d="M286.88,811.68l54.89,13.77q3.57,2.46,6.92,5.17L293.8,816.84q-3.36-2.7-6.92-5.16"/><path class="cls-15" d="M293.8,816.84l54.89,13.78q3.48,2.82,6.72,5.88l-54.9-13.78q-3.22-3.06-6.71-5.88"/><path class="cls-15" d="M300.51,822.72l54.9,13.78q3.45,3.27,6.6,6.8l-54.9-13.77q-3.15-3.54-6.6-6.81"/><path class="cls-15" d="M307.11,829.53,362,843.3q3.56,4,6.72,8.31l-54.9-13.78c-2.1-2.87-4.35-5.64-6.72-8.3"/><path class="cls-15" d="M313.83,837.83l54.9,13.78a110.51,110.51,0,0,1,7.18,11.17L321,849a112.36,112.36,0,0,0-7.19-11.17"/><path class="cls-15" d="M321,849l54.89,13.78a110.16,110.16,0,0,1,13.95,49.08L335,898.08A110.18,110.18,0,0,0,321,849"/><path class="cls-15" d="M335,898.08l54.9,13.78q.18,3.9.09,7.89c0,1.52-.1,3-.19,4.54l-54.9-13.78c.09-1.5.16-3,.19-4.54q.09-4-.09-7.89"/><path class="cls-15" d="M334.86,910.51l54.9,13.78q-.3,4.92-1,9.75l-54.9-13.78c.47-3.21.81-6.47,1-9.75"/><path class="cls-15" d="M333.85,920.26,388.75,934c-.42,2.83-.93,5.64-1.55,8.41l-54.9-13.78c.62-2.77,1.14-5.58,1.55-8.41"/><path class="cls-15" d="M332.3,928.67l54.9,13.78c-.57,2.58-1.23,5.14-2,7.66l-54.89-13.77c.73-2.53,1.39-5.08,2-7.67"/><path class="cls-15" d="M330.34,936.34l54.89,13.77c-.71,2.43-1.49,4.82-2.35,7.19L328,943.52q1.29-3.56,2.36-7.18"/><path class="cls-15" d="M328,943.52l54.9,13.78c-.85,2.33-1.76,4.63-2.75,6.9l-54.9-13.78q1.49-3.4,2.75-6.9"/><path class="cls-15" d="M325.23,950.42l54.9,13.78c-1,2.3-2.06,4.56-3.2,6.79L322,957.22q1.71-3.35,3.2-6.8"/><path class="cls-15" d="M322,957.22,376.93,971c-1.17,2.3-2.4,4.55-3.71,6.77L318.32,964c1.31-2.21,2.55-4.47,3.71-6.76"/><path class="cls-15" d="M318.32,964l54.9,13.78c-1.37,2.32-2.81,4.6-4.33,6.82L314,970.81q2.26-3.34,4.32-6.83"/><path class="cls-15" d="M314,970.81l54.89,13.77q-2.43,3.6-5.12,7l-54.9-13.78q2.69-3.42,5.13-7"/><path class="cls-15" d="M308.87,977.82l54.9,13.78q-3,3.81-6.26,7.39l-54.89-13.78q3.25-3.57,6.25-7.39"/><path class="cls-15" d="M302.62,985.21,357.51,999q-3.83,4.2-8,8.06l-54.89-13.77q4.19-3.87,8-8.07"/><path class="cls-15" d="M294.59,993.28l54.89,13.77a131.54,131.54,0,0,1-11.15,9.2l-54.9-13.78a135.15,135.15,0,0,0,11.16-9.19"/><path class="cls-15" d="M283.43,1002.47l54.9,13.78a130.94,130.94,0,0,1-73.92,25.54,125.09,125.09,0,0,1-33.93-3.65l-54.9-13.78a124.69,124.69,0,0,0,33.93,3.65,130.94,130.94,0,0,0,73.92-25.54"/></g><path class="cls-2" d="M214.86,790.86C282.71,789,336.53,840.48,335.05,906s-57.69,120.13-125.54,122S87.84,978.39,89.32,912.9,147,792.78,214.86,790.86Z"/></g><path class="cls-5" d="M689.12,1968.37,506.83,1963A165.7,165.7,0,0,1,347.17,1817.1l-49.26-411.2a59.27,59.27,0,0,1,58.84-66.31h505.9a59.26,59.26,0,0,1,58.19,70.46L836,1850.62A145.27,145.27,0,0,1,689.12,1968.37Z"/><polygon class="cls-16" points="768.65 1184.26 821.22 1182.76 821.22 1094.63 745.4 1089.7 768.65 1184.26"/><polygon class="cls-16" points="902.09 1099.89 902.09 1180.45 954.66 1178.95 977.91 1104.82 902.09 1099.89"/><polygon class="cls-16" points="830.82 1182.48 892.49 1180.72 892.49 1099.27 830.82 1095.26 830.82 1182.48"/><rect class="cls-16" x="1145.64" y="1613.76" width="186.3" height="55.47"/><rect class="cls-16" x="1161.27" y="1601.97" width="37.15" height="23.06"/><rect class="cls-16" x="1220.21" y="1600.83" width="37.15" height="23.06"/><rect class="cls-16" x="1279.14" y="1600.83" width="37.15" height="23.06"/><path d="M715.27,839.31c-26.37-1.7-35.52,41-35.52,94.4s15.9,48.21,35.52,48.81,35.52,6.66,35.52-45.84S740.66,841,715.27,839.31Z"/><path d="M977.91,856.32c-26.37-1.71-35.52,38.3-35.52,88.37s15.91,45.25,35.52,45.85,35.52,6.3,35.52-42.87S1003.3,858,977.91,856.32Z"/><path class="cls-2" d="M474.15,1504l0,0,0,.13.1.26.26.63.58,1.38,1.25,2.9,2.7,6c1.85,4,3.79,8.11,5.77,12.19,4,8.15,8.15,16.31,12.49,24.39,8.68,16.18,18,32.13,27.8,47.69,19.69,31.11,41.58,60.75,65.9,87.72s51.2,51.16,80.77,70.46q11.12,7.18,22.67,13.45t23.64,11.24a242.07,242.07,0,0,0,24.53,8.79l3.12.92c1,.31,2.07.62,3.21.91l6.68,1.77c4.44,1.24,8.93,2.19,13.42,3.28a412.86,412.86,0,0,0,54.57,8.76c2.3.2,4.6.45,6.9.62l6.91.44,3.47.22,3.46.12,6.94.25c9.24.14,18.53.15,27.8-.37a385.5,385.5,0,0,0,55.52-6.75q13.78-2.79,27.44-6.46t27.06-8.47q13.38-4.77,26.53-10.42c8.75-3.78,17.37-7.91,25.89-12.29A444.43,444.43,0,0,0,1091,1734a465.47,465.47,0,0,0,45.73-36.06q10.89-9.75,21.16-20.25c6.82-7,13.47-14.23,19.6-21.9-5.12,8.4-10.83,16.45-16.76,24.34s-12.17,15.57-18.66,23.06a475,475,0,0,1-41.77,42.55,464.11,464.11,0,0,1-47.19,37.26c-8.3,5.7-16.79,11.2-25.5,16.35s-17.63,10-26.71,14.64-18.38,8.8-27.81,12.77-19.07,7.5-28.81,10.79a424.45,424.45,0,0,1-60,15.21c-10.21,1.89-20.5,3.21-30.84,4.38l-7.77.71-3.89.36-3.89.25-7.8.49c-2.6.14-5.21.21-7.81.31a470.14,470.14,0,0,1-62.55-2c-5.18-.56-10.4-1-15.56-1.75l-7.77-1c-1.28-.15-2.63-.38-4-.62l-4.06-.69a306.49,306.49,0,0,1-32-7.39c-10.51-3-20.87-6.55-31-10.52s-20.05-8.44-29.76-13.24c-38.81-19.31-73.83-44.39-105.63-72.21s-60.45-58.65-86.73-91.11q-19.71-24.36-37.62-50.13-9-12.88-17.52-26.22c-2.86-4.46-5.68-9-8.47-13.55l-4.19-7-2.12-3.64-1.08-1.9-.56-1-.31-.56L371,1554A57.32,57.32,0,0,1,474.15,1504Z"/><circle class="cls-4" cx="1153.4" cy="1681.12" r="41.98"/></g></svg>